<svg width="12" height="12" viewBox="0 0 12 12" fill="none" xmlns="http://www.w3.org/2000/svg">
<path d="M8.81349 2.36851C8.67851 2.36851 8.54656 2.40853 8.43433 2.48353C8.32209 2.55853 8.23458 2.66512 8.18294 2.78982C8.1313 2.91454 8.1178 3.05177 8.14411 3.18416C8.17043 3.31655 8.23541 3.43816 8.33089 3.53361C8.42636 3.62906 8.54792 3.69406 8.68033 3.7204C8.81273 3.74673 8.94999 3.73321 9.07466 3.68156C9.19941 3.6299 9.30595 3.54242 9.38095 3.43018C9.45595 3.31795 9.49599 3.18599 9.49599 3.05101C9.49599 2.87 9.4241 2.69641 9.2961 2.56841C9.16809 2.44041 8.99451 2.36851 8.81349 2.36851ZM11.4297 3.74488C11.4187 3.27299 11.3303 2.80611 11.1681 2.36282C11.0235 1.98354 10.7984 1.6401 10.5084 1.35613C10.2267 1.06461 9.88251 0.840946 9.50168 0.702072C9.05957 0.534952 8.59213 0.444548 8.11962 0.43476C7.51674 0.400635 7.32337 0.400635 5.77637 0.400635C4.22937 0.400635 4.03599 0.400635 3.43312 0.43476C2.96057 0.444548 2.49317 0.534952 2.05105 0.702072C1.67095 0.842356 1.327 1.06582 1.04437 1.35613C0.752841 1.63776 0.529178 1.98201 0.390305 2.36282C0.223184 2.80494 0.13278 3.27234 0.122992 3.74488C0.0888672 4.34776 0.0888672 4.54113 0.0888672 6.08813C0.0888672 7.63513 0.0888672 7.82851 0.122992 8.43139C0.13278 8.9039 0.223184 9.37134 0.390305 9.81345C0.529178 10.1943 0.752841 10.5385 1.04437 10.8201C1.327 11.1104 1.67095 11.3339 2.05105 11.4742C2.49317 11.6413 2.96057 11.7317 3.43312 11.7415C4.03599 11.7756 4.22937 11.7756 5.77637 11.7756C7.32337 11.7756 7.51674 11.7756 8.11962 11.7415C8.59213 11.7317 9.05957 11.6413 9.50168 11.4742C9.88251 11.3353 10.2267 11.1116 10.5084 10.8201C10.7997 10.5372 11.025 10.1934 11.1681 9.81345C11.3303 9.37013 11.4187 8.9033 11.4297 8.43139C11.4297 7.82851 11.4639 7.63513 11.4639 6.08813C11.4639 4.54113 11.4639 4.34776 11.4297 3.74488ZM10.406 8.36313C10.4018 8.72418 10.3365 9.08188 10.2126 9.42101C10.1218 9.66853 9.97594 9.89216 9.78605 10.0751C9.60155 10.2631 9.37838 10.4086 9.13199 10.5016C8.79287 10.6255 8.43516 10.6908 8.07412 10.695C7.50537 10.7234 7.29493 10.7291 5.79912 10.7291C4.3033 10.7291 4.09287 10.7291 3.52412 10.695C3.14925 10.7021 2.77598 10.6443 2.42074 10.5244C2.18516 10.4266 1.9722 10.2814 1.79512 10.0978C1.60635 9.91514 1.46231 9.69128 1.37424 9.44376C1.23538 9.09978 1.15837 8.73396 1.14674 8.36313C1.14674 7.79438 1.11262 7.58395 1.11262 6.08813C1.11262 4.59232 1.11262 4.38188 1.14674 3.81313C1.14929 3.44405 1.21667 3.07828 1.3458 2.73251C1.44594 2.49244 1.59962 2.27845 1.79512 2.10688C1.96791 1.91133 2.18147 1.75602 2.42074 1.65188C2.76742 1.52678 3.13282 1.4614 3.50137 1.45851C4.07012 1.45851 4.28055 1.42438 5.77637 1.42438C7.27218 1.42438 7.48262 1.42438 8.05137 1.45851C8.41241 1.46265 8.77012 1.52803 9.10924 1.65188C9.36768 1.74781 9.59966 1.90376 9.78605 2.10688C9.97245 2.28159 10.1181 2.49519 10.2126 2.73251C10.339 3.07884 10.4045 3.44446 10.406 3.81313C10.4344 4.38188 10.4401 4.59232 10.4401 6.08813C10.4401 7.58395 10.4344 7.79438 10.406 8.36313ZM5.77637 3.17045C5.19955 3.17157 4.636 3.34364 4.15694 3.66493C3.67788 3.98621 3.30479 4.44229 3.08484 4.97552C2.86488 5.50875 2.8079 6.09523 2.92113 6.66083C3.03435 7.22642 3.31268 7.74578 3.72095 8.15323C4.12922 8.56076 4.64911 8.83808 5.21493 8.95016C5.78075 9.06232 6.36711 9.00415 6.89991 8.78318C7.43272 8.5622 7.8881 8.18819 8.20842 7.70854C8.52874 7.22883 8.69974 6.66495 8.69974 6.08813C8.7005 5.70429 8.62535 5.32408 8.47861 4.96938C8.33195 4.61468 8.11651 4.29248 7.84487 4.02133C7.57316 3.75017 7.25054 3.5354 6.89555 3.38938C6.54056 3.24335 6.16021 3.16895 5.77637 3.17045ZM5.77637 7.98207C5.40178 7.98207 5.03561 7.87098 4.72415 7.66289C4.41269 7.45478 4.16994 7.15899 4.0266 6.81291C3.88325 6.46684 3.84574 6.08603 3.91882 5.71864C3.9919 5.35125 4.17228 5.01379 4.43715 4.74892C4.70202 4.48405 5.03949 4.30367 5.40688 4.23059C5.77427 4.15751 6.15507 4.19502 6.50114 4.33836C6.84722 4.48171 7.14301 4.72446 7.35112 5.03592C7.55921 5.34738 7.6703 5.71355 7.6703 6.08813C7.6703 6.33685 7.62132 6.58313 7.52615 6.81291C7.43097 7.04269 7.29145 7.25149 7.11558 7.42735C6.93972 7.60322 6.73093 7.74274 6.50114 7.83791C6.27136 7.93308 6.02509 7.98207 5.77637 7.98207Z" fill="black"/>
</svg>
