<svg width="8" height="13" viewBox="0 0 8 13" fill="none" xmlns="http://www.w3.org/2000/svg">
<path d="M4.31048 4.80807H7.11048L6.79937 6.05252H4.31048V11.6525H3.06604V6.05252H0.577148V4.80807H3.06604V3.64327C3.06604 2.53385 3.18177 2.13127 3.3983 1.72558C3.61049 1.32475 3.93827 0.996965 4.3391 0.784781C4.74479 0.568248 5.14737 0.452515 6.25679 0.452515C6.58159 0.452515 6.86657 0.483626 7.11048 0.545848V1.69696H6.25679C5.43297 1.69696 5.18222 1.74549 4.92648 1.88238C4.73733 1.98318 4.5967 2.1238 4.4959 2.31296C4.35902 2.56869 4.31048 2.81945 4.31048 3.64327V4.80807Z" fill="black" stroke="black" stroke-width="0.8"/>
</svg>
