<svg width="12" height="8" viewBox="0 0 12 8" fill="none" xmlns="http://www.w3.org/2000/svg">
<path d="M11.1834 1.82589C11.1834 1.82589 11.08 1.09395 10.7619 0.772554C10.3591 0.34956 9.90862 0.347487 9.70205 0.322604C8.22284 0.214783 6.00189 0.214783 6.00189 0.214783H5.99776C5.99776 0.214783 3.77684 0.214783 2.2976 0.322604C2.09101 0.347487 1.64062 0.34956 1.23776 0.772554C0.919601 1.09395 0.818368 1.82589 0.818368 1.82589C0.818368 1.82589 0.710938 2.68639 0.710938 3.54482V4.34934C0.710938 5.20777 0.816302 6.06827 0.816302 6.06827C0.816302 6.06827 0.919601 6.8002 1.23569 7.12157C1.63856 7.54462 2.16745 7.53006 2.40297 7.57567C3.25001 7.65656 5.99983 7.68145 5.99983 7.68145C5.99983 7.68145 8.22284 7.67728 9.70205 7.57157C9.90862 7.54668 10.3591 7.54462 10.7619 7.12157C11.08 6.8002 11.1834 6.06827 11.1834 6.06827C11.1834 6.06827 11.2887 5.20984 11.2887 4.34934V3.54482C11.2887 2.68639 11.1834 1.82589 11.1834 1.82589ZM4.90693 5.32595V2.34219L7.76414 3.83926L4.90693 5.32595Z" fill="black"/>
</svg>
