<svg width="139" height="40" viewBox="0 0 139 40" fill="none" xmlns="http://www.w3.org/2000/svg">
<path d="M26.2133 20.0003C23.7758 22.8133 20.2335 24.5837 16.2908 24.5837C12.3481 24.5837 8.80575 22.8133 6.36816 20.0003C8.80575 17.1873 12.3481 15.417 16.2908 15.417C20.2335 15.417 23.7758 17.1873 26.2133 20.0003Z" fill="#1280B2"/>
<path fill-rule="evenodd" clip-rule="evenodd" d="M2.97852 29.1669C2.97852 21.573 8.93866 15.4169 16.2908 15.4169C12.3482 15.4169 8.80586 17.1872 6.36828 20.0002C8.80586 22.8132 12.3482 24.5836 16.2908 24.5836C20.2336 24.5836 23.7759 22.8132 26.2135 20.0002C28.3214 22.4329 29.6032 25.6453 29.6032 29.1669V34.3613C29.6032 35.0363 29.0734 35.5835 28.4199 35.5835H4.16183C3.5083 35.5835 2.97852 35.0363 2.97852 34.3613V29.1669Z" fill="#BDE9FE"/>
<path fill-rule="evenodd" clip-rule="evenodd" d="M11.2976 23.5837C9.39674 22.7887 7.71412 21.5534 6.36828 20.0003C8.80586 17.1873 12.3482 15.417 16.2908 15.417C20.2336 15.417 23.7759 17.1873 26.2135 20.0003C28.3214 17.5677 29.6032 14.3553 29.6032 10.8337V5.63921C29.6032 4.9642 29.0734 4.41699 28.4199 4.41699H4.16183C3.5083 4.41699 2.97852 4.96419 2.97852 5.63921V10.8337C2.97852 16.6037 6.41949 21.5436 11.2976 23.5837Z" fill="#85D2F5"/>
<g opacity="0.7">
<path d="M50.3972 13.2402V27.0838H47.709V21.1933H41.9676V27.0838H39.2793V13.2402H41.9676V18.9323H47.709V13.2402H50.3972Z" fill="#4C6379"/>
<path d="M57.7668 27.2621C56.7427 27.2621 55.821 27.0308 55.0018 26.568C54.1825 26.092 53.536 25.4243 53.0623 24.5648C52.6014 23.7054 52.3711 22.7137 52.3711 21.5898C52.3711 20.4659 52.6079 19.4743 53.0815 18.6148C53.568 17.7554 54.2272 17.0943 55.0594 16.6315C55.8915 16.1555 56.8195 15.9175 57.8436 15.9175C58.8678 15.9175 59.7959 16.1555 60.6279 16.6315C61.46 17.0943 62.1129 17.7554 62.5865 18.6148C63.073 19.4743 63.3163 20.4659 63.3163 21.5898C63.3163 22.7137 63.0665 23.7054 62.5673 24.5648C62.0808 25.4243 61.4152 26.092 60.5703 26.568C59.7382 27.0308 58.8037 27.2621 57.7668 27.2621ZM57.7668 24.8425C58.2533 24.8425 58.7077 24.7235 59.1302 24.4855C59.5654 24.2343 59.911 23.864 60.1671 23.3748C60.4231 22.8856 60.5511 22.2906 60.5511 21.5898C60.5511 20.5453 60.2823 19.7453 59.7446 19.19C59.2198 18.6214 58.5733 18.3371 57.8052 18.3371C57.0371 18.3371 56.3907 18.6214 55.8658 19.19C55.3537 19.7453 55.0978 20.5453 55.0978 21.5898C55.0978 22.6344 55.3474 23.4409 55.8466 24.0095C56.3587 24.5648 56.9987 24.8425 57.7668 24.8425Z" fill="#4C6379"/>
<path d="M75.331 16.0957V27.0833H72.6236V25.695C72.2779 26.171 71.8235 26.5478 71.2602 26.8255C70.7098 27.09 70.1081 27.2222 69.4552 27.2222C68.6232 27.2222 67.8871 27.0437 67.247 26.6867C66.6069 26.3165 66.1012 25.781 65.73 25.0802C65.3716 24.3662 65.1924 23.52 65.1924 22.5415V16.0957H67.8806V22.1448C67.8806 23.0175 68.0919 23.6918 68.5144 24.1678C68.9368 24.6306 69.5129 24.862 70.2426 24.862C70.985 24.862 71.5675 24.6306 71.9899 24.1678C72.4123 23.6918 72.6236 23.0175 72.6236 22.1448V16.0957H75.331Z" fill="#4C6379"/>
<path d="M80.6718 17.8018C81.0174 17.2201 81.4654 16.7639 82.0159 16.4333C82.5791 16.1028 83.2192 15.9375 83.9361 15.9375V18.853H83.2256C82.3808 18.853 81.7407 19.058 81.3054 19.4678C80.8829 19.8777 80.6718 20.5917 80.6718 21.6098V27.0838H77.9834V16.0962H80.6718V17.8018Z" fill="#4C6379"/>
<path d="M89.9138 15.9175C90.7074 15.9175 91.4051 16.0828 92.0068 16.4133C92.6084 16.7306 93.0821 17.1471 93.4277 17.6628V16.096H96.1353V27.163C96.1353 28.1811 95.9368 29.0868 95.5399 29.8801C95.1431 30.6867 94.5479 31.3214 93.7542 31.7841C92.9605 32.2601 92.0004 32.4981 90.8739 32.4981C89.3633 32.4981 88.1216 32.1345 87.1487 31.4073C86.1886 30.6801 85.6445 29.6884 85.5164 28.4323H88.1855C88.3264 28.9348 88.6273 29.3314 89.0881 29.6223C89.5617 29.9264 90.1313 30.0785 90.7971 30.0785C91.5779 30.0785 92.2116 29.8339 92.6981 29.3446C93.1845 28.8686 93.4277 28.1414 93.4277 27.163V25.4573C93.0821 25.973 92.6021 26.4027 91.9876 26.7465C91.3859 27.0903 90.6947 27.2621 89.9138 27.2621C89.0177 27.2621 88.1984 27.0241 87.4559 26.5481C86.7134 26.0721 86.1246 25.4044 85.6893 24.545C85.2668 23.6723 85.0557 22.674 85.0557 21.5501C85.0557 20.4395 85.2668 19.4544 85.6893 18.595C86.1246 17.7355 86.707 17.0744 87.4367 16.6116C88.1792 16.1489 89.0049 15.9175 89.9138 15.9175ZM93.4277 21.5898C93.4277 20.9155 93.2998 20.3403 93.0437 19.8643C92.7876 19.3751 92.442 19.0049 92.0068 18.7536C91.5716 18.4892 91.1043 18.357 90.605 18.357C90.1058 18.357 89.6449 18.4826 89.2225 18.7338C88.8 18.985 88.4544 19.3553 88.1855 19.8445C87.9296 20.3205 87.8015 20.889 87.8015 21.5501C87.8015 22.2113 87.9296 22.793 88.1855 23.2955C88.4544 23.7847 88.8 24.1615 89.2225 24.426C89.6578 24.6904 90.1185 24.8226 90.605 24.8226C91.1043 24.8226 91.5716 24.697 92.0068 24.4458C92.442 24.1814 92.7876 23.8111 93.0437 23.3351C93.2998 22.8459 93.4277 22.2641 93.4277 21.5898Z" fill="#4C6379"/>
<path d="M101.449 12.4067V27.0833H98.7607V12.4067H101.449Z" fill="#4C6379"/>
<path d="M103.413 21.5501C103.413 20.4395 103.625 19.4544 104.047 18.595C104.482 17.7355 105.064 17.0744 105.794 16.6116C106.537 16.1489 107.363 15.9175 108.271 15.9175C109.065 15.9175 109.756 16.0828 110.345 16.4133C110.947 16.7439 111.426 17.1604 111.785 17.6628V16.096H114.492V27.0836H111.785V25.4771C111.439 25.9928 110.96 26.4225 110.345 26.7663C109.744 27.0969 109.046 27.2621 108.252 27.2621C107.356 27.2621 106.537 27.0241 105.794 26.5481C105.064 26.0721 104.482 25.4044 104.047 24.545C103.625 23.6723 103.413 22.674 103.413 21.5501ZM111.785 21.5898C111.785 20.9155 111.658 20.3403 111.402 19.8643C111.145 19.3751 110.8 19.0049 110.364 18.7536C109.929 18.4892 109.462 18.357 108.962 18.357C108.464 18.357 108.002 18.4826 107.58 18.7338C107.158 18.985 106.812 19.3553 106.544 19.8445C106.287 20.3205 106.159 20.889 106.159 21.5501C106.159 22.2113 106.287 22.793 106.544 23.2955C106.812 23.7847 107.158 24.1615 107.58 24.426C108.015 24.6904 108.477 24.8226 108.962 24.8226C109.462 24.8226 109.929 24.697 110.364 24.4458C110.8 24.1814 111.145 23.8111 111.402 23.3351C111.658 22.8459 111.785 22.2641 111.785 21.5898Z" fill="#4C6379"/>
<path d="M121.19 27.2621C120.319 27.2621 119.538 27.1035 118.847 26.7861C118.155 26.4556 117.605 26.0126 117.195 25.4573C116.799 24.902 116.581 24.2871 116.543 23.6128H119.25C119.301 24.0359 119.5 24.3863 119.845 24.664C120.204 24.9416 120.645 25.0805 121.171 25.0805C121.682 25.0805 122.079 24.9747 122.361 24.7631C122.655 24.5516 122.803 24.2805 122.803 23.95C122.803 23.593 122.623 23.3285 122.265 23.1566C121.919 22.9715 121.362 22.7732 120.595 22.5616C119.801 22.3633 119.148 22.1584 118.636 21.9468C118.137 21.7353 117.702 21.4113 117.33 20.975C116.972 20.5386 116.792 19.9503 116.792 19.2098C116.792 18.6016 116.959 18.0463 117.292 17.5438C117.637 17.0414 118.124 16.6447 118.751 16.3538C119.391 16.0629 120.14 15.9175 120.998 15.9175C122.265 15.9175 123.277 16.248 124.031 16.9091C124.787 17.557 125.203 18.4363 125.28 19.547H122.707C122.668 19.1106 122.489 18.7669 122.168 18.5156C121.862 18.2512 121.446 18.119 120.92 18.119C120.434 18.119 120.057 18.2115 119.788 18.3966C119.531 18.5818 119.403 18.8396 119.403 19.1701C119.403 19.5404 119.583 19.8246 119.942 20.023C120.3 20.2081 120.857 20.3998 121.613 20.5981C122.38 20.7965 123.013 21.0014 123.513 21.213C124.012 21.4245 124.441 21.7551 124.8 22.2046C125.171 22.641 125.363 23.2228 125.375 23.95C125.375 24.5846 125.203 25.1532 124.857 25.6556C124.525 26.1581 124.038 26.5548 123.398 26.8456C122.77 27.1233 122.034 27.2621 121.19 27.2621Z" fill="#4C6379"/>
<path d="M131.653 27.2621C130.783 27.2621 130.002 27.1035 129.31 26.7861C128.619 26.4556 128.069 26.0126 127.659 25.4573C127.262 24.902 127.045 24.2871 127.007 23.6128H129.714C129.765 24.0359 129.964 24.3863 130.309 24.664C130.668 24.9416 131.109 25.0805 131.635 25.0805C132.146 25.0805 132.543 24.9747 132.825 24.7631C133.119 24.5516 133.267 24.2805 133.267 23.95C133.267 23.593 133.087 23.3285 132.729 23.1566C132.383 22.9715 131.826 22.7732 131.058 22.5616C130.264 22.3633 129.611 22.1584 129.1 21.9468C128.6 21.7353 128.165 21.4113 127.794 20.975C127.436 20.5386 127.256 19.9503 127.256 19.2098C127.256 18.6016 127.423 18.0463 127.755 17.5438C128.101 17.0414 128.587 16.6447 129.215 16.3538C129.854 16.0629 130.604 15.9175 131.462 15.9175C132.729 15.9175 133.74 16.248 134.495 16.9091C135.251 17.557 135.667 18.4363 135.743 19.547H133.171C133.132 19.1106 132.953 18.7669 132.632 18.5156C132.326 18.2512 131.91 18.119 131.384 18.119C130.898 18.119 130.521 18.2115 130.251 18.3966C129.995 18.5818 129.867 18.8396 129.867 19.1701C129.867 19.5404 130.047 19.8246 130.405 20.023C130.764 20.2081 131.321 20.3998 132.075 20.5981C132.844 20.7965 133.477 21.0014 133.977 21.213C134.476 21.4245 134.905 21.7551 135.263 22.2046C135.635 22.641 135.826 23.2228 135.839 23.95C135.839 24.5846 135.667 25.1532 135.321 25.6556C134.988 26.1581 134.502 26.5548 133.862 26.8456C133.234 27.1233 132.498 27.2621 131.653 27.2621Z" fill="#4C6379"/>
</g>
</svg>
