<svg width="154" height="40" viewBox="0 0 154 40" fill="none" xmlns="http://www.w3.org/2000/svg">
<path d="M50.061 20.26C50.061 18.9804 50.3051 17.8623 50.7932 16.9056C51.2932 15.9369 52.0015 15.1895 52.9182 14.6633C53.8467 14.1371 54.936 13.874 56.186 13.874C57.1622 13.874 58.0372 14.0654 58.811 14.448C59.5848 14.8307 60.2098 15.3689 60.686 16.0625C61.1622 16.7561 61.4479 17.5573 61.5431 18.4662H58.8646C58.7098 17.7486 58.3824 17.1866 57.8824 16.78C57.3943 16.3614 56.7813 16.1522 56.0432 16.1522C55.0432 16.1522 54.2515 16.5289 53.6682 17.2823C53.0848 18.0357 52.7932 19.0282 52.7932 20.26C52.7932 21.4798 53.0848 22.4723 53.6682 23.2377C54.2515 23.9911 55.0432 24.3678 56.0432 24.3678C56.7813 24.3678 57.3943 24.1645 57.8824 23.7579C58.3824 23.3393 58.7098 22.7713 58.8646 22.0538H61.5431C61.4479 22.9626 61.1622 23.7639 60.686 24.4575C60.2098 25.1511 59.5848 25.6892 58.811 26.0719C58.0372 26.4546 57.1622 26.6459 56.186 26.6459C54.936 26.6459 53.8467 26.3828 52.9182 25.8566C52.0015 25.3305 51.2932 24.589 50.7932 23.6323C50.3051 22.6637 50.061 21.5396 50.061 20.26Z" fill="#666666" fill-opacity="0.7"/>
<path d="M62.1886 13.9817H64.7065V26.5383H62.1886V13.9817Z" fill="#666666" fill-opacity="0.7"/>
<path d="M70.2289 26.6459C69.2647 26.6459 68.4135 26.4546 67.6754 26.0719C66.9492 25.6773 66.3837 25.1212 65.9789 24.4037C65.5861 23.6861 65.3897 22.861 65.3897 21.9282C65.3897 20.9954 65.5861 20.1703 65.9789 19.4528C66.3837 18.7352 66.9492 18.1851 67.6754 17.8025C68.4135 17.4078 69.2647 17.2105 70.2289 17.2105C71.1932 17.2105 72.0385 17.4078 72.7646 17.8025C73.5027 18.1851 74.0682 18.7352 74.4611 19.4528C74.8658 20.1703 75.0682 20.9954 75.0682 21.9282C75.0682 22.8729 74.8658 23.7041 74.4611 24.4216C74.0682 25.1272 73.5027 25.6773 72.7646 26.0719C72.0385 26.4546 71.1932 26.6459 70.2289 26.6459ZM70.2289 24.583C70.9313 24.583 71.4849 24.3379 71.8896 23.8476C72.3063 23.3573 72.5146 22.7175 72.5146 21.9282C72.5146 21.1389 72.3063 20.4991 71.8896 20.0088C71.4849 19.5185 70.9313 19.2734 70.2289 19.2734C69.5385 19.2734 68.9849 19.5185 68.5682 20.0088C68.1635 20.4991 67.9611 21.1389 67.9611 21.9282C67.9611 22.7175 68.1635 23.3573 68.5682 23.8476C68.9849 24.3379 69.5385 24.583 70.2289 24.583Z" fill="#666666" fill-opacity="0.7"/>
<path d="M84.3826 17.3181V26.5383H82.1505L81.9183 25.4261C81.5969 25.8088 81.2219 26.1078 80.7934 26.323C80.3648 26.5383 79.841 26.6459 79.2219 26.6459C78.1505 26.6459 77.2755 26.3171 76.5969 25.6593C75.9184 24.9896 75.5791 23.8775 75.5791 22.3228V17.3181H78.0969V22.0179C78.0969 22.855 78.2398 23.4888 78.5255 23.9193C78.8231 24.3379 79.2755 24.5472 79.8826 24.5472C80.5136 24.5472 81.0017 24.314 81.3469 23.8476C81.6922 23.3692 81.8648 22.7055 81.8648 21.8565V17.3181H84.3826Z" fill="#666666" fill-opacity="0.7"/>
<path d="M94.5974 13.9817V26.5383H92.401L92.151 25.2647C91.4486 26.1855 90.4963 26.6459 89.2939 26.6459C88.4844 26.6459 87.7582 26.4546 87.1153 26.0719C86.4725 25.6773 85.9665 25.1212 85.5975 24.4037C85.2403 23.6861 85.0618 22.855 85.0618 21.9103C85.0618 20.9775 85.2403 20.1583 85.5975 19.4528C85.9665 18.7352 86.4725 18.1851 87.1153 17.8025C87.7701 17.4078 88.5022 17.2105 89.3117 17.2105C90.5022 17.2105 91.4248 17.6291 92.0796 18.4662V13.9817H94.5974ZM89.8832 24.583C90.5617 24.583 91.1034 24.3439 91.5082 23.8655C91.9129 23.3752 92.1153 22.7354 92.1153 21.9461C92.1153 21.1449 91.9129 20.4991 91.5082 20.0088C91.1034 19.5185 90.5617 19.2734 89.8832 19.2734C89.2046 19.2734 88.657 19.5185 88.2403 20.0088C87.8356 20.4991 87.6332 21.1389 87.6332 21.9282C87.6332 22.7175 87.8356 23.3573 88.2403 23.8476C88.657 24.3379 89.2046 24.583 89.8832 24.583Z" fill="#666666" fill-opacity="0.7"/>
<path d="M94.9243 13.9817L97.6921 13.9637L99.9957 23.148L102.442 13.9817H104.853L107.228 23.148L109.585 13.9817H112.299L108.835 26.5383H105.746L103.585 18.1971L101.478 26.5383H98.3886L94.9243 13.9817Z" fill="#666666" fill-opacity="0.7"/>
<path d="M120.701 24.4037V26.5383H119.415C118.261 26.5383 117.695 26.036 117.719 25.0315C117.386 25.5577 116.975 25.9583 116.487 26.2333C115.999 26.5084 115.409 26.6459 114.719 26.6459C113.695 26.6459 112.868 26.4127 112.237 25.9463C111.618 25.468 111.308 24.7983 111.308 23.9373C111.308 22.9567 111.665 22.2033 112.38 21.6771C113.106 21.1389 114.153 20.8699 115.522 20.8699H117.344V20.4214C117.344 20.0029 117.189 19.674 116.88 19.4348C116.57 19.1837 116.153 19.0581 115.63 19.0581C115.165 19.0581 114.784 19.1598 114.487 19.3631C114.189 19.5664 114.011 19.8414 113.951 20.1882H111.522C111.606 19.2435 112.022 18.514 112.772 17.9998C113.522 17.4736 114.516 17.2105 115.755 17.2105C117.052 17.2105 118.052 17.4975 118.755 18.0715C119.469 18.6455 119.826 19.4767 119.826 20.5649V23.8117C119.826 24.0389 119.874 24.1944 119.969 24.2781C120.064 24.3618 120.213 24.4037 120.415 24.4037H120.701ZM117.344 22.556H115.505C114.981 22.556 114.57 22.6637 114.272 22.8789C113.987 23.0822 113.844 23.3752 113.844 23.7579C113.844 24.0808 113.963 24.3379 114.201 24.5292C114.451 24.7206 114.784 24.8162 115.201 24.8162C115.856 24.8162 116.374 24.6309 116.755 24.2602C117.136 23.8775 117.332 23.3692 117.344 22.7354V22.556Z" fill="#666666" fill-opacity="0.7"/>
<path d="M121.55 19.4528H120.032V17.3181H121.55V14.735H124.068V17.3181H126.157V19.4528H124.068V23.4888C124.068 23.8117 124.133 24.0449 124.264 24.1884C124.407 24.3319 124.639 24.4037 124.961 24.4037H126.264V26.5383H124.175C122.425 26.5383 121.55 25.6593 121.55 23.9014V19.4528Z" fill="#666666" fill-opacity="0.7"/>
<path d="M135.293 23.0404C135.127 24.1645 134.651 25.0494 133.865 25.6952C133.091 26.329 132.085 26.6459 130.847 26.6459C129.895 26.6459 129.061 26.4546 128.347 26.0719C127.633 25.6773 127.079 25.1212 126.686 24.4037C126.305 23.6861 126.115 22.861 126.115 21.9282C126.115 20.9835 126.305 20.1583 126.686 19.4528C127.079 18.7352 127.633 18.1851 128.347 17.8025C129.073 17.4078 129.913 17.2105 130.865 17.2105C132.091 17.2105 133.091 17.5274 133.865 18.1612C134.639 18.7831 135.115 19.6501 135.293 20.7622H132.686C132.579 20.3078 132.365 19.949 132.043 19.686C131.722 19.4109 131.323 19.2734 130.847 19.2734C130.192 19.2734 129.668 19.5185 129.276 20.0088C128.883 20.4991 128.686 21.1389 128.686 21.9282C128.686 22.7175 128.883 23.3573 129.276 23.8476C129.668 24.3379 130.192 24.583 130.847 24.583C131.335 24.583 131.74 24.4455 132.061 24.1705C132.395 23.8954 132.609 23.5187 132.704 23.0404H135.293Z" fill="#666666" fill-opacity="0.7"/>
<path d="M141.174 17.2105C142.257 17.2105 143.144 17.5453 143.835 18.215C144.537 18.8847 144.888 19.9909 144.888 21.5336V26.5383H142.37V21.6412C142.37 20.8758 142.216 20.2958 141.906 19.9012C141.597 19.4946 141.132 19.2913 140.513 19.2913C139.87 19.2913 139.364 19.5126 138.995 19.955C138.638 20.3975 138.46 21.0134 138.46 21.8026V26.5383H135.942V13.9817H138.46V18.4482C139.138 17.6231 140.043 17.2105 141.174 17.2105Z" fill="#666666" fill-opacity="0.7"/>
<path d="M42.1897 20.2614C42.1897 16.7599 40.805 13.4018 38.3402 10.9259C35.8755 8.45004 32.5326 7.05908 29.047 7.05908C25.5613 7.05908 22.2185 8.45004 19.7537 10.9259C17.289 13.4018 15.9043 16.7599 15.9043 20.2614H20.0114C21.3724 20.2614 22.4338 19.1157 22.9323 17.8435C23.2596 17.0083 23.7563 16.2407 24.4003 15.5936C25.6327 14.3557 27.3042 13.6602 29.047 13.6602C30.7898 13.6602 32.4613 14.3557 33.6937 15.5936C34.926 16.8316 35.6183 18.5107 35.6183 20.2614H42.1897Z" fill="url(#paint0_linear_26089_2012)"/>
<path d="M34.6182 25.3125C35.2787 23.7107 35.6187 21.994 35.6187 20.2603H42.1893C42.1893 27.5517 36.3051 33.4625 29.0466 33.4625C27.9099 33.4625 26.8068 33.3175 25.7549 33.045C26.3501 32.891 26.9351 32.6948 27.5054 32.4575C29.1 31.794 30.5488 30.8216 31.7692 29.5957C32.9897 28.3697 33.9578 26.9143 34.6182 25.3125Z" fill="#FBCF8E"/>
<path d="M9.3335 20.2601C9.3335 21.9939 9.67344 23.7107 10.3339 25.3125C10.9944 26.9143 11.9625 28.3697 13.1829 29.5956C14.4033 30.8215 15.8522 31.794 17.4467 32.4575C19.0412 33.121 20.7502 33.4624 22.4762 33.4624C24.2021 33.4624 25.9111 33.121 27.5056 32.4575C29.1002 31.794 30.549 30.8215 31.7695 29.5956C32.9899 28.3697 33.9579 26.9143 34.6184 25.3125C35.2789 23.7107 35.6189 21.9939 35.6189 20.2601H31.5117C30.1508 20.2601 29.0894 21.4058 28.5909 22.6779C28.5767 22.7142 28.5621 22.7503 28.5473 22.7863C28.2171 23.5872 27.733 24.3149 27.1228 24.9279C26.5126 25.5408 25.7882 26.0271 24.9909 26.3589C24.1937 26.6906 23.3392 26.8613 22.4762 26.8613C21.6132 26.8613 20.7587 26.6906 19.9615 26.3589C19.1642 26.0271 18.4398 25.5408 17.8295 24.9279C17.2193 24.3149 16.7353 23.5872 16.4051 22.7863C16.0748 21.9854 15.9048 21.127 15.9048 20.2601H9.3335Z" fill="url(#paint1_linear_26089_2012)"/>
<path d="M9.33496 20.2614C9.33496 12.9699 15.2191 7.05908 22.4776 7.05908C23.6141 7.05908 24.7168 7.20397 25.7686 7.47638C23.5117 8.06042 21.4297 9.24236 19.7537 10.926C17.289 13.4018 15.9043 16.7599 15.9043 20.2614H9.33496Z" fill="#73E5E2"/>
<defs>
<linearGradient id="paint0_linear_26089_2012" x1="42.1897" y1="13.6602" x2="15.9043" y2="13.6602" gradientUnits="userSpaceOnUse">
<stop stop-color="#73E5E2"/>
<stop offset="1" stop-color="#394F87"/>
</linearGradient>
<linearGradient id="paint1_linear_26089_2012" x1="9.3335" y1="26.8613" x2="35.6189" y2="26.8613" gradientUnits="userSpaceOnUse">
<stop stop-color="#FBDC8E"/>
<stop offset="1" stop-color="#FB958E"/>
</linearGradient>
</defs>
</svg>
