<svg xmlns="http://www.w3.org/2000/svg" width="390" height="342" fill="none"><path fill="#fff" d="M0 0h390v342H0z"/><rect width="35.952" height="13.476" x="222.476" y="104.816" fill="#FE9B97" rx="6.738"/><path fill="#B6201A" d="M229.459 113.868v-1.71h-1.71v-.658h1.71v-1.705h.658v1.705h1.705v.658h-1.705v1.71zm5.543 1.32q-.618 0-1.092-.246a1.86 1.86 0 0 1-.743-.694 1.96 1.96 0 0 1-.269-1.034q0-.577.273-1.043.278-.465.833-.716l-.014.291a1.6 1.6 0 0 1-.694-.617 1.7 1.7 0 0 1-.241-.891q0-.547.25-.94a1.66 1.66 0 0 1 .69-.609 2.3 2.3 0 0 1 1.007-.215q.569 0 1.007.215t.689.609q.25.393.251.94 0 .487-.228.886-.228.394-.703.622l-.018-.286q.555.242.833.711.282.466.282 1.043 0 .591-.273 1.034a1.86 1.86 0 0 1-.748.694q-.474.246-1.092.246m0-.761q.564 0 .913-.308.354-.314.354-.905 0-.594-.35-.904-.344-.313-.917-.313-.569 0-.918.313-.344.31-.344.904 0 .591.349.905.349.309.913.308m0-3.196q.492 0 .797-.246.304-.25.304-.747t-.304-.743q-.305-.25-.797-.251-.488 0-.797.251-.304.246-.304.743 0 .496.304.747.31.246.797.246m3.418 3.823v-.877h.877v.877zm4.468.134a2.15 2.15 0 0 1-1.907-1.101 2.3 2.3 0 0 1-.291-1.159v-2.144a2.4 2.4 0 0 1 .291-1.195q.295-.524.805-.815a2.3 2.3 0 0 1 1.173-.295q.533 0 .989.219.462.215.775.622l-.596.528a1.4 1.4 0 0 0-.501-.447 1.4 1.4 0 0 0-.667-.166q-.424 0-.756.206a1.45 1.45 0 0 0-.515.537q-.188.332-.188.716v1.294l-.175-.197q.282-.403.717-.645.433-.241.94-.241a2.06 2.06 0 0 1 1.826 1.047q.277.479.277 1.079t-.3 1.088a2.24 2.24 0 0 1-.801.778 2.13 2.13 0 0 1-1.096.291m0-.769a1.38 1.38 0 0 0 1.204-.685q.188-.318.188-.703t-.188-.703a1.35 1.35 0 0 0-.502-.501 1.3 1.3 0 0 0-.698-.188q-.385 0-.703.188a1.38 1.38 0 0 0-.689 1.204q0 .38.183.698.189.313.502.502.318.188.703.188m4.078.635-.537-.537 5.918-5.909.537.538zm4.575.134q-.444 0-.81-.214a1.7 1.7 0 0 1-.582-.582 1.56 1.56 0 0 1-.22-.815q0-.438.224-.806.223-.367.591-.586.367-.219.797-.219.442 0 .81.219.368.215.582.582.219.363.219.81t-.219.815a1.66 1.66 0 0 1-.582.582 1.6 1.6 0 0 1-.81.214m0-.702a.85.85 0 0 0 .452-.126.9.9 0 0 0 .331-.331.85.85 0 0 0 .126-.452.85.85 0 0 0-.126-.452.9.9 0 0 0-.331-.331.85.85 0 0 0-.452-.126.85.85 0 0 0-.452.126.9.9 0 0 0-.331.331.85.85 0 0 0-.126.452q0 .246.126.452a1 1 0 0 0 .331.331.85.85 0 0 0 .452.126m-3.769-2.789q-.443 0-.81-.215a1.7 1.7 0 0 1-.587-.582 1.6 1.6 0 0 1-.214-.814q0-.439.223-.806.224-.367.591-.587t.797-.219q.443 0 .806.219.367.216.586.582.219.363.219.811 0 .447-.219.814a1.7 1.7 0 0 1-.586.582 1.56 1.56 0 0 1-.806.215m0-.703a.86.86 0 0 0 .452-.125.93.93 0 0 0 .457-.783.85.85 0 0 0-.126-.453.9.9 0 0 0-.331-.331.86.86 0 0 0-.452-.125.86.86 0 0 0-.452.125.93.93 0 0 0-.457.784q0 .245.126.452a1 1 0 0 0 .331.331.86.86 0 0 0 .452.125"/><path fill="#666" d="M190.606 115.884q-.93 0-1.674-.308a3.24 3.24 0 0 1-1.225-.886 2.9 2.9 0 0 1-.628-1.36l.923-.154q.222.861.936 1.354.714.486 1.705.486.652 0 1.169-.203.518-.21.813-.591t.295-.905a1.3 1.3 0 0 0-.123-.584 1.2 1.2 0 0 0-.326-.407 2 2 0 0 0-.443-.264 3.5 3.5 0 0 0-.468-.179l-2.247-.671a4 4 0 0 1-.751-.295 2.7 2.7 0 0 1-.603-.437 1.9 1.9 0 0 1-.394-.603 2.1 2.1 0 0 1-.141-.788q0-.75.394-1.299a2.5 2.5 0 0 1 1.077-.843q.683-.295 1.557-.289.886 0 1.582.314.7.314 1.157.898.454.58.603 1.373l-.948.172a2.14 2.14 0 0 0-.425-1.003 2.15 2.15 0 0 0-.849-.652 2.7 2.7 0 0 0-1.126-.24q-.597 0-1.065.203a1.8 1.8 0 0 0-.732.541 1.24 1.24 0 0 0-.271.788q0 .45.246.72.252.271.615.425.37.154.714.252l1.736.511q.271.073.634.216.369.135.714.393.351.253.578.665.228.413.228 1.046 0 .616-.246 1.102-.24.486-.683.819-.437.332-1.028.504a4.4 4.4 0 0 1-1.28.179m6.41 0q-.752 0-1.262-.271a1.83 1.83 0 0 1-.757-.72 1.97 1.97 0 0 1-.253-.979q0-.541.216-.923.222-.388.597-.634.381-.246.88-.375.505-.123 1.114-.216.615-.098 1.2-.166.591-.074 1.034-.141l-.32.197q.018-.985-.381-1.459-.4-.474-1.391-.474-.684 0-1.158.308-.467.308-.658.972l-.88-.258q.228-.893.917-1.385.688-.493 1.791-.493.91 0 1.545.345.64.339.904.985.124.29.16.646t.037.726v4.13h-.806v-1.668l.234.099q-.34.855-1.052 1.305-.714.449-1.711.449m.104-.782q.634 0 1.108-.227.474-.228.763-.622.29-.4.376-.899.074-.32.08-.701.006-.389.006-.579l.344.179q-.461.062-1.003.123-.536.061-1.058.141a9 9 0 0 0-.936.191 2.5 2.5 0 0 0-.548.228 1.3 1.3 0 0 0-.437.381 1.03 1.03 0 0 0-.166.597q0 .29.142.56.147.272.467.45.327.178.862.178m4.957.597v-9.047h.904v9.047zm5.562.185q-.972 0-1.686-.431a2.92 2.92 0 0 1-1.102-1.212q-.393-.782-.394-1.835 0-1.09.388-1.883a2.9 2.9 0 0 1 1.09-1.225q.707-.43 1.667-.431.985 0 1.681.456.695.449 1.052 1.292.357.844.326 2.013h-.923v-.32q-.024-1.293-.56-1.951-.53-.659-1.551-.659-1.071 0-1.643.696-.566.695-.566 1.982 0 1.255.566 1.951.572.689 1.618.689.714 0 1.244-.326.536-.333.843-.954l.843.326a3 3 0 0 1-1.163 1.348 3.2 3.2 0 0 1-1.73.474m-2.542-3.256v-.757h5.078v.757zm9.411 3.25q-1.17 0-1.927-.505a2.1 2.1 0 0 1-.923-1.403l.923-.154q.148.566.671.905.53.332 1.305.332.757 0 1.194-.314a1.02 1.02 0 0 0 .437-.868.8.8 0 0 0-.142-.498q-.135-.198-.56-.363a13 13 0 0 0-1.268-.394q-.905-.246-1.415-.493-.511-.246-.727-.566a1.4 1.4 0 0 1-.215-.794q0-.566.32-.991a2.04 2.04 0 0 1 .886-.664q.567-.24 1.318-.241.75 0 1.341.247.597.24.96.677a1.9 1.9 0 0 1 .431 1.015l-.923.166a1.33 1.33 0 0 0-.585-.923q-.486-.345-1.237-.357-.707-.018-1.151.271-.443.283-.443.757 0 .265.16.456.16.185.579.35.425.166 1.206.363.916.234 1.44.493.523.258.745.609.222.35.222.868 0 .942-.702 1.483-.696.536-1.92.536"/><rect width="31.952" height="13.476" x="327.667" y="104.816" fill="#F4D28F" rx="6.738"/><path fill="#8B610E" d="M334.732 115.188a2.1 2.1 0 0 1-1.651-.774 2.2 2.2 0 0 1-.43-.833l.631-.17q.086.35.309.605.224.25.524.389.303.14.635.139.43 0 .77-.206.345-.21.546-.555t.202-.757q0-.425-.211-.765a1.56 1.56 0 0 0-.555-.546 1.47 1.47 0 0 0-.752-.202q-.456 0-.788.202-.33.197-.528.497l-.6-.251.197-3.353h3.442v.632h-3.151l.327-.309-.175 2.86-.165-.219a1.95 1.95 0 0 1 .671-.497q.394-.18.828-.179.595 0 1.075.286a2.1 2.1 0 0 1 1.043 1.844q0 .59-.3 1.084-.3.487-.797.783a2.1 2.1 0 0 1-1.097.295m3.175.802.04-.327q.18.013.26-.072a.4.4 0 0 0 .099-.228q.017-.143.009-.309h-.408v-.944h.766v1.123q0 .412-.211.618-.206.205-.555.139m2.289-.94.004-.6 2.914-2.632q.376-.34.497-.645.126-.308.125-.644a1.4 1.4 0 0 0-.694-1.231 1.34 1.34 0 0 0-.711-.193q-.412 0-.734.197a1.5 1.5 0 0 0-.511.519q-.183.323-.179.703h-.671q0-.586.277-1.052.278-.465.752-.729a2.15 2.15 0 0 1 1.075-.269q.586 0 1.052.278.47.273.738.743.273.465.273 1.038 0 .403-.098.712a1.8 1.8 0 0 1-.3.568 4 4 0 0 1-.515.538l-2.587 2.336-.103-.268h3.603v.631zm7.017.134q-.48 0-.882-.17a2 2 0 0 1-.694-.484 1.9 1.9 0 0 1-.425-.756l.626-.188q.162.479.529.725.37.246.837.237.429-.009.738-.192.314-.184.479-.51.166-.327.166-.757 0-.658-.385-1.056-.381-.403-1.007-.403-.175 0-.367.049-.193.045-.358.13l-.332-.524 2.507-2.314.107.269h-3.285v-.632h3.724v.641l-2.184 2.085-.009-.259q.67-.085 1.181.152t.797.725q.291.483.291 1.137 0 .618-.268 1.092-.264.47-.73.739a2.1 2.1 0 0 1-1.056.264m6.054-.13v-1.249h-3.017v-.626l2.157-4.571h.739l-2.158 4.571h2.279v-1.88h.662v1.88h.703v.626h-.703v1.249z"/><path fill="#666" d="M270.569 115.884q-1.323 0-2.234-.585a3.7 3.7 0 0 1-1.379-1.631q-.468-1.04-.468-2.4t.468-2.401a3.67 3.67 0 0 1 1.379-1.624q.91-.591 2.234-.591 1.545 0 2.523.794.98.788 1.342 2.117l-.923.24q-.283-1.053-1.016-1.668-.732-.615-1.926-.615-1.04 0-1.729.474-.69.473-1.041 1.323-.344.843-.357 1.951-.006 1.108.339 1.951a2.94 2.94 0 0 0 1.046 1.323q.702.474 1.742.474 1.194 0 1.926-.615.733-.623 1.016-1.668l.923.24q-.363 1.33-1.342 2.123-.978.788-2.523.788m7.765-.019q-.597 0-1.046-.184a2.3 2.3 0 0 1-.757-.499 2.6 2.6 0 0 1-.499-.714 3.6 3.6 0 0 1-.277-.855 5 5 0 0 1-.086-.905v-3.656h.911v3.391q0 .549.105 1.016.104.468.332.819.234.344.597.535.37.19.892.191.481 0 .844-.166.369-.166.615-.474.252-.315.382-.757.129-.45.129-1.01l.64.142q0 1.021-.357 1.717a2.47 2.47 0 0 1-.985 1.052q-.627.357-1.44.357m2.234-.166v-1.637h-.092v-5.01h.905v6.647zm5.013.179q-1.168 0-1.926-.505a2.1 2.1 0 0 1-.923-1.403l.923-.154q.147.566.671.905.53.332 1.305.332.756 0 1.194-.314a1.02 1.02 0 0 0 .437-.868.8.8 0 0 0-.142-.498q-.135-.198-.56-.363a13 13 0 0 0-1.268-.394q-.905-.246-1.416-.493-.51-.246-.726-.566a1.4 1.4 0 0 1-.215-.794q0-.566.32-.991a2.04 2.04 0 0 1 .886-.664q.567-.24 1.317-.241.751 0 1.342.247.597.24.96.677a1.9 1.9 0 0 1 .431 1.015l-.923.166a1.34 1.34 0 0 0-.585-.923q-.486-.345-1.237-.357-.708-.018-1.151.271-.443.283-.443.757 0 .265.16.456.16.185.578.35.426.166 1.207.363.917.234 1.44.493.523.258.745.609.22.35.221.868 0 .942-.701 1.483-.696.536-1.921.536m7.606-.179a4.4 4.4 0 0 1-1.108.093 2.5 2.5 0 0 1-.972-.234 1.4 1.4 0 0 1-.646-.653 1.9 1.9 0 0 1-.197-.744 28 28 0 0 1-.013-.868v-6.087h.899v6.05q0 .419.006.701.013.277.129.493a.93.93 0 0 0 .702.492q.486.08 1.2-.037zm-4.357-5.871v-.776h4.357v.776zm8.202 6.056q-.99 0-1.692-.449a2.9 2.9 0 0 1-1.077-1.244q-.376-.793-.376-1.821 0-1.047.382-1.835a2.9 2.9 0 0 1 1.083-1.224q.708-.444 1.68-.444.997 0 1.699.45.708.443 1.077 1.237.375.787.376 1.816 0 1.046-.376 1.84-.375.787-1.083 1.231-.708.443-1.693.443m0-.868q1.108 0 1.65-.732.541-.74.541-1.914 0-1.207-.547-1.921-.541-.714-1.644-.714-.744 0-1.231.339-.48.332-.72.929-.234.591-.234 1.367 0 1.2.554 1.926.555.72 1.631.72m12.437.683.006-4.363q0-.77-.431-1.207-.424-.443-1.083-.443a1.7 1.7 0 0 0-.733.172q-.357.173-.591.554-.227.382-.227.997l-.536-.153q-.018-.714.277-1.25a2.14 2.14 0 0 1 .825-.831 2.37 2.37 0 0 1 1.194-.301q1.003 0 1.606.621.603.617.603 1.668l-.006 4.536zm-7.934 0v-6.647h.813v1.637h.098v5.01zm3.976 0 .006-4.302q0-.794-.424-1.249-.419-.462-1.108-.462t-1.114.474q-.425.468-.425 1.249l-.542-.295q0-.64.302-1.145a2.15 2.15 0 0 1 .825-.8 2.37 2.37 0 0 1 1.188-.295q.633 0 1.126.27.498.272.782.788.282.517.283 1.256l-.006 4.511zm9.241.185q-.972 0-1.686-.431a2.92 2.92 0 0 1-1.102-1.212q-.394-.782-.394-1.835 0-1.09.388-1.883a2.9 2.9 0 0 1 1.089-1.225q.708-.43 1.668-.431.985 0 1.68.456.696.449 1.053 1.292.357.844.326 2.013h-.923v-.32q-.024-1.293-.56-1.951-.53-.659-1.551-.659-1.071 0-1.643.696-.567.695-.567 1.982 0 1.255.567 1.951.572.689 1.618.689.714 0 1.243-.326.536-.333.844-.954l.843.326a3 3 0 0 1-1.163 1.348 3.2 3.2 0 0 1-1.73.474m-2.542-3.256v-.757h5.078v.757zm6.93 3.071v-6.647h.812v1.6l-.16-.209a2.3 2.3 0 0 1 .29-.542q.178-.252.387-.412a1.8 1.8 0 0 1 .604-.345q.344-.123.695-.141.35-.025.64.049v.849a2.2 2.2 0 0 0-.794-.043 1.5 1.5 0 0 0-.794.345q-.331.258-.498.622a2.6 2.6 0 0 0-.222.763 6 6 0 0 0-.055.794v3.317z"/><path fill="#000" d="M32.904 117.041v-1.293h.996v1.293zm0-8.981v-1.298h.996v1.298zm.576 8.041a3.6 3.6 0 0 1-1.471-.291 2.8 2.8 0 0 1-1.069-.834 2.86 2.86 0 0 1-.548-1.276l.979-.162q.18.744.755 1.181.582.436 1.399.436.822 0 1.332-.397t.509-1.024q0-.459-.274-.739-.269-.28-.907-.475l-1.84-.571q-1.651-.515-1.651-1.97 0-.683.33-1.191.336-.515.934-.795.604-.285 1.405-.28.777.006 1.387.291.61.28 1.008.806.402.526.542 1.259l-1.007.185a1.9 1.9 0 0 0-.347-.834 1.8 1.8 0 0 0-.671-.554 2.1 2.1 0 0 0-.918-.207 2.1 2.1 0 0 0-.856.157q-.375.162-.593.453a1.08 1.08 0 0 0-.218.666q0 .408.302.694.308.279.962.481l1.511.447q.996.297 1.438.8.442.498.442 1.332 0 .722-.358 1.265a2.34 2.34 0 0 1-1.002.845q-.643.302-1.505.302m5.44-.168v-6.955l-1.517.918v-1.114l1.517-.906h1.012v8.057zm2.581 1.253.062-.464q.235.016.352-.09a.5.5 0 0 0 .151-.291q.034-.184.012-.408H41.5v-1.265h1.097v1.433q0 .587-.291.884-.285.296-.806.201m6.707-1.253v-1.483h-3.704v-.946l2.658-5.628h1.13l-2.658 5.628h2.574v-2.266h1.007v2.266h.84v.946h-.84v1.483zm5.396.156q-.6 0-1.113-.218a2.6 2.6 0 0 1-.89-.626 2.55 2.55 0 0 1-.543-.968l.957-.275q.184.56.615.851t.968.285q.493-.01.85-.224.365-.218.56-.593.202-.375.202-.867 0-.75-.448-1.214-.447-.47-1.175-.47a1.797 1.797 0 0 0-.834.213l-.48-.789 2.987-2.703.129.336h-4.012v-.951h4.75v.956l-2.545 2.44-.011-.353q.8-.055 1.398.263.6.32.93.912.335.594.335 1.36 0 .772-.347 1.365a2.54 2.54 0 0 1-.94.935 2.7 2.7 0 0 1-1.343.335m6.468.012q-.621 0-1.158-.258a2.75 2.75 0 0 1-.912-.705 2.8 2.8 0 0 1-.537-1.04l.956-.258q.101.397.359.688.256.286.598.448.348.157.722.157.492 0 .884-.235.397-.24.627-.633.23-.397.23-.867 0-.486-.241-.878a1.73 1.73 0 0 0-1.5-.856q-.531 0-.912.223-.375.219-.593.538l-.884-.336.246-4.213h4.325v.945h-3.844l.442-.414-.207 3.374-.218-.285q.335-.359.8-.554a2.5 2.5 0 0 1 .957-.196 2.58 2.58 0 0 1 2.283 1.304q.347.598.347 1.348 0 .744-.38 1.36a2.9 2.9 0 0 1-1.013.979 2.7 2.7 0 0 1-1.377.364m3.996 1.085.062-.464q.235.016.352-.09a.5.5 0 0 0 .151-.291q.034-.184.011-.408h-.576v-1.265h1.097v1.433q0 .587-.291.884-.286.296-.806.201m5.744-1.085q-.772 0-1.365-.308a2.34 2.34 0 0 1-.929-.867q-.335-.554-.335-1.293 0-.722.34-1.304.348-.581 1.042-.895l-.017.364a2 2 0 0 1-.868-.772 2.1 2.1 0 0 1-.302-1.114q0-.682.314-1.175.313-.492.861-.761a2.8 2.8 0 0 1 1.26-.268q.71 0 1.258.268.549.269.862.761.313.493.313 1.175 0 .61-.285 1.108-.285.492-.879.778l-.022-.358q.695.302 1.04.889.353.582.353 1.304 0 .739-.341 1.293a2.33 2.33 0 0 1-.934.867q-.593.308-1.366.308m0-.952q.704 0 1.142-.386.441-.391.442-1.13 0-.744-.437-1.13-.431-.392-1.147-.392-.71 0-1.147.392-.43.386-.43 1.13 0 .739.436 1.13.436.386 1.141.386m0-3.995q.616 0 .996-.307.38-.314.38-.935 0-.62-.38-.928-.38-.314-.996-.314-.609 0-.996.314-.38.307-.38.928t.38.935q.387.307.996.307m4.52 4.779 2.898-7.101h-3.66v-.956h4.728v.956l-2.892 7.101zm8.059.168q-.767 0-1.394-.37a2.76 2.76 0 0 1-.99-1.007 2.9 2.9 0 0 1-.364-1.449v-2.68q0-.845.364-1.494a2.64 2.64 0 0 1 1.007-1.018q.645-.37 1.466-.37.666 0 1.237.275.576.269.968.777l-.745.661a1.75 1.75 0 0 0-.626-.56 1.74 1.74 0 0 0-.834-.207q-.531 0-.946.257a1.8 1.8 0 0 0-.643.672 1.8 1.8 0 0 0-.235.895v1.617l-.218-.246q.352-.504.895-.806a2.4 2.4 0 0 1 1.175-.302 2.58 2.58 0 0 1 2.283 1.309q.347.599.347 1.349t-.375 1.359a2.8 2.8 0 0 1-1.002.974 2.67 2.67 0 0 1-1.37.364m0-.963q.48 0 .878-.229.398-.235.627-.627.235-.397.235-.878t-.235-.879a1.7 1.7 0 0 0-.627-.626 1.66 1.66 0 0 0-.873-.235q-.48 0-.878.235a1.74 1.74 0 0 0-.862 1.505q0 .475.23.873.234.392.626.626.398.235.879.235"/><path fill="#000" fill-opacity=".9" d="M35.013 44.235q-1.182 0-2.13-.392a4.1 4.1 0 0 1-1.56-1.128 3.7 3.7 0 0 1-.798-1.73l1.175-.197a2.9 2.9 0 0 0 1.19 1.724q.91.618 2.17.618.83 0 1.489-.258.657-.266 1.034-.752.376-.486.376-1.151 0-.44-.157-.745a1.5 1.5 0 0 0-.415-.517 2.6 2.6 0 0 0-.564-.337 4.5 4.5 0 0 0-.596-.227l-2.859-.854a5.2 5.2 0 0 1-.955-.376 3.4 3.4 0 0 1-.768-.556 2.4 2.4 0 0 1-.501-.767 2.6 2.6 0 0 1-.18-1.003q0-.956.5-1.653.502-.697 1.372-1.073.87-.375 1.982-.368 1.128 0 2.013.4a3.8 3.8 0 0 1 1.472 1.143q.58.736.768 1.747l-1.206.22a2.73 2.73 0 0 0-.54-1.278 2.76 2.76 0 0 0-1.082-.83 3.5 3.5 0 0 0-1.433-.306q-.76 0-1.355.259a2.3 2.3 0 0 0-.933.69 1.58 1.58 0 0 0-.344 1.002q0 .572.313.916.321.345.783.541.471.196.909.321l2.209.65q.345.094.807.274.47.173.909.502.446.321.736.846t.29 1.331q0 .784-.314 1.403-.305.619-.87 1.041-.555.423-1.307.643a5.6 5.6 0 0 1-1.63.227m8.158 0q-.955 0-1.606-.345a2.34 2.34 0 0 1-.963-.916 2.5 2.5 0 0 1-.321-1.246q0-.689.274-1.175.282-.494.76-.806a3.8 3.8 0 0 1 1.12-.478q.642-.157 1.418-.274a36 36 0 0 1 1.527-.212q.752-.094 1.316-.18l-.407.25q.023-1.253-.486-1.856-.51-.603-1.77-.603-.87 0-1.473.392-.595.39-.838 1.237l-1.12-.329q.29-1.136 1.167-1.762t2.28-.627q1.159 0 1.966.439.815.43 1.151 1.253.157.368.204.822t.047.925V44H46.39v-2.123l.297.125q-.43 1.09-1.34 1.661-.907.572-2.177.572m.133-.995q.807 0 1.41-.29a2.55 2.55 0 0 0 .972-.79q.367-.51.477-1.144.095-.408.102-.893.008-.495.008-.737l.439.227q-.588.08-1.277.157-.682.078-1.347.18-.658.102-1.191.243a3.2 3.2 0 0 0-.697.29 1.6 1.6 0 0 0-.556.486q-.212.304-.212.76 0 .367.18.712.188.344.596.572.415.227 1.096.227m6.309.76V32.485h1.151V44zm7.08.235q-1.238 0-2.147-.548a3.7 3.7 0 0 1-1.402-1.543q-.501-.996-.501-2.335 0-1.386.493-2.397.494-1.01 1.387-1.559.9-.548 2.122-.548 1.254 0 2.139.58.885.571 1.34 1.645.453 1.073.415 2.561h-1.175v-.407q-.032-1.646-.713-2.483-.674-.84-1.974-.839-1.363 0-2.092.886-.72.884-.72 2.522 0 1.598.72 2.483.73.877 2.06.877.91 0 1.583-.415.681-.422 1.073-1.214l1.073.415a3.84 3.84 0 0 1-1.48 1.716q-.972.603-2.201.603m-3.236-4.144v-.963h6.463v.963zm11.977 4.136q-1.489 0-2.452-.642a2.68 2.68 0 0 1-1.175-1.786l1.175-.196q.188.72.854 1.151.673.423 1.66.424.965 0 1.52-.4.556-.408.556-1.105 0-.39-.18-.634-.172-.25-.713-.462-.54-.211-1.613-.502-1.152-.312-1.802-.626-.65-.315-.924-.72-.275-.416-.275-1.011 0-.72.408-1.262.407-.548 1.128-.846.721-.305 1.676-.305.956 0 1.708.313.76.306 1.222.862t.548 1.293l-1.175.211a1.7 1.7 0 0 0-.744-1.175q-.618-.439-1.575-.454-.9-.024-1.464.344-.564.36-.564.964 0 .336.203.58.204.234.737.446.54.211 1.535.462 1.168.298 1.833.627.666.33.948.775.282.447.282 1.105 0 1.198-.893 1.888-.885.681-2.444.681m11.743.008q-1.26 0-2.154-.572a3.7 3.7 0 0 1-1.37-1.582q-.48-1.011-.479-2.319 0-1.332.486-2.334a3.7 3.7 0 0 1 1.379-1.559q.9-.564 2.138-.564 1.27 0 2.162.572.9.563 1.371 1.574.478 1.004.478 2.311 0 1.332-.478 2.342a3.66 3.66 0 0 1-1.378 1.567q-.902.564-2.155.564m0-1.105q1.41 0 2.1-.932.69-.939.689-2.436 0-1.535-.697-2.444-.69-.909-2.092-.908-.948 0-1.566.43-.611.423-.917 1.183-.297.752-.297 1.74 0 1.527.704 2.451.705.916 2.076.916m7.72.87-3.07-8.46h1.167l2.499 6.956 2.483-6.956h1.183L86.088 44zm8.943.235q-1.239 0-2.147-.548a3.7 3.7 0 0 1-1.402-1.543q-.501-.996-.501-2.335 0-1.386.493-2.397.494-1.01 1.387-1.559.9-.548 2.123-.548 1.253 0 2.138.58.885.571 1.34 1.645.453 1.073.415 2.561H96.51v-.407q-.032-1.646-.713-2.483-.674-.84-1.974-.839-1.363 0-2.092.886-.72.884-.72 2.522 0 1.598.72 2.483.73.877 2.06.877.91 0 1.583-.415.681-.422 1.073-1.214l1.073.415a3.84 3.84 0 0 1-1.48 1.716q-.972.603-2.201.603m-3.236-4.144v-.963h6.463v.963zM99.424 44v-8.46h1.034v2.037l-.204-.267q.141-.375.369-.689a2.4 2.4 0 0 1 .493-.525q.328-.29.768-.438.438-.157.885-.18.447-.032.815.062v1.081a2.8 2.8 0 0 0-1.011-.055 1.93 1.93 0 0 0-1.01.439q-.423.33-.635.791a3.4 3.4 0 0 0-.282.971 7 7 0 0 0-.07 1.01V44zm7.933 0-3.071-8.46h1.167l2.499 6.956 2.483-6.956h1.183l-3.07 8.46zm5.825-10.066v-1.292h1.152v1.292zm0 10.066v-8.46h1.152V44zm7.08.235q-1.238 0-2.147-.548a3.73 3.73 0 0 1-1.402-1.543q-.501-.996-.501-2.335 0-1.386.493-2.397.494-1.01 1.387-1.559.901-.548 2.123-.548 1.253 0 2.138.58.885.571 1.34 1.645.454 1.073.415 2.561h-1.175v-.407q-.032-1.646-.713-2.483-.673-.84-1.974-.839-1.364 0-2.091.886-.721.884-.721 2.522 0 1.598.721 2.483.728.877 2.06.877.909 0 1.582-.415.681-.422 1.073-1.214l1.073.415a3.83 3.83 0 0 1-1.48 1.716q-.971.603-2.201.603m-3.235-4.144v-.963h6.462v.963zM127.342 44l-2.585-8.468 1.152.008 2.005 6.572 2.013-6.572h1.05l2.013 6.572 2.021-6.572h1.144L133.57 44h-1.003l-2.115-6.737L128.345 44z"/><path fill="#949494" d="M32.973 64.333v-3.711L30 55.47h1.046l2.382 4.118 2.37-4.118h1.046l-2.96 5.152v3.711zm6.519.185q-.99 0-1.693-.45a2.92 2.92 0 0 1-1.077-1.243q-.375-.794-.375-1.822 0-1.046.381-1.834a2.9 2.9 0 0 1 1.084-1.224q.706-.444 1.68-.444.996 0 1.698.45.708.442 1.078 1.237.375.788.375 1.815 0 1.047-.376 1.84-.374.789-1.083 1.232-.708.443-1.692.443m0-.868q1.107 0 1.65-.733.54-.738.54-1.914 0-1.206-.547-1.92-.542-.714-1.643-.714-.745 0-1.231.339-.48.332-.72.929-.234.591-.234 1.366 0 1.2.554 1.927.554.72 1.63.72m7.05.85a2.7 2.7 0 0 1-1.046-.185 2.3 2.3 0 0 1-.757-.499 2.6 2.6 0 0 1-.498-.714 3.6 3.6 0 0 1-.277-.855 5 5 0 0 1-.087-.905v-3.656h.911v3.391q0 .548.105 1.016.104.468.332.818.234.345.597.536.37.19.893.19.48 0 .843-.166.369-.165.616-.473.252-.315.381-.758.13-.449.13-1.009l.64.142q0 1.02-.358 1.717a2.47 2.47 0 0 1-.984 1.052q-.629.357-1.44.357m2.235-.167v-1.637h-.093v-5.01h.905v6.647zm2.532 0v-6.647h.813v1.6l-.16-.209q.11-.295.29-.542.177-.252.387-.412.258-.228.603-.345.345-.123.696-.141.35-.025.64.049v.85a2.2 2.2 0 0 0-.794-.044 1.5 1.5 0 0 0-.794.345q-.333.258-.499.622a2.6 2.6 0 0 0-.221.763 6 6 0 0 0-.056.794v3.317zm8.802.185q-.75 0-1.261-.271a1.84 1.84 0 0 1-.758-.72 1.97 1.97 0 0 1-.252-.979q0-.541.216-.923a1.84 1.84 0 0 1 .597-.634q.38-.247.88-.375.505-.123 1.114-.216.615-.097 1.2-.166.591-.074 1.034-.142l-.32.197q.018-.984-.382-1.458t-1.39-.474q-.684 0-1.158.308-.468.307-.658.972l-.88-.258q.227-.893.917-1.385t1.79-.493q.912 0 1.546.345.64.339.904.985.123.29.16.646t.037.726v4.13h-.806v-1.668l.234.099q-.339.855-1.053 1.304t-1.71.45m.105-.782q.634 0 1.108-.228.474-.227.763-.621.29-.4.375-.899a3.4 3.4 0 0 0 .08-.702q.007-.387.007-.578l.344.178q-.461.061-1.003.124-.536.06-1.059.141a9 9 0 0 0-.935.19q-.283.08-.548.229a1.3 1.3 0 0 0-.437.381q-.166.24-.166.597 0 .29.142.56.147.27.467.45.327.178.862.178m6.39.597-2.412-6.647h.917l1.963 5.465 1.951-5.465h.93l-2.413 6.647zm7.026.185q-.972 0-1.686-.431a2.9 2.9 0 0 1-1.102-1.213q-.394-.78-.394-1.834 0-1.09.388-1.883.388-.795 1.09-1.225.707-.43 1.667-.43.985 0 1.68.455.696.45 1.053 1.292t.326 2.013h-.923v-.32q-.024-1.293-.56-1.951-.53-.66-1.551-.659-1.071 0-1.643.696-.567.695-.567 1.982 0 1.256.567 1.95.571.69 1.618.69.713 0 1.244-.326.535-.333.843-.954l.843.326a3 3 0 0 1-1.163 1.348 3.2 3.2 0 0 1-1.73.474m-2.542-3.256v-.757h5.078v.757zm6.93 3.071v-6.647h.813v1.6l-.16-.209q.11-.295.289-.542.178-.252.388-.412.258-.228.603-.345.344-.123.695-.141.351-.025.64.049v.85a2.2 2.2 0 0 0-.794-.044 1.5 1.5 0 0 0-.794.345q-.332.258-.498.622-.166.356-.222.763a6 6 0 0 0-.055.794v3.317zm6.085.185q-.75 0-1.261-.271a1.84 1.84 0 0 1-.757-.72 1.97 1.97 0 0 1-.253-.979q0-.541.216-.923a1.84 1.84 0 0 1 .597-.634q.38-.247.88-.375.504-.123 1.114-.216.615-.097 1.2-.166.591-.074 1.034-.142l-.32.197q.018-.984-.382-1.458t-1.39-.474q-.684 0-1.158.308-.468.307-.658.972l-.88-.258q.227-.893.917-1.385t1.79-.493q.912 0 1.545.345.64.339.905.985.124.29.16.646t.037.726v4.13h-.806v-1.668l.234.099q-.339.855-1.053 1.304t-1.71.45m.105-.782q.633 0 1.108-.228.474-.227.763-.621.29-.4.375-.899.075-.32.08-.702.007-.387.007-.578l.344.178q-.462.061-1.003.124-.535.06-1.059.141a9 9 0 0 0-.935.19q-.283.08-.548.229a1.3 1.3 0 0 0-.437.381q-.165.24-.166.597 0 .29.141.56.148.27.468.45.327.178.862.178m7.474 3.736q-.51 0-1.01-.154a2.8 2.8 0 0 1-.91-.474 2.6 2.6 0 0 1-.702-.837l.819-.455q.276.555.775.794a2.3 2.3 0 0 0 1.028.246q.72 0 1.163-.27.45-.266.653-.789.202-.523.196-1.305v-1.772h.105v-4.77h.806v6.555q0 .284-.018.541a4 4 0 0 1-.055.517q-.117.745-.487 1.225-.363.48-.96.714-.591.234-1.403.234m-.062-2.954q-.93 0-1.588-.462a3 3 0 0 1-1.01-1.262q-.35-.794-.35-1.79 0-.992.345-1.785.35-.795 1.003-1.256.653-.462 1.563-.462.937 0 1.576.456.64.455.966 1.25.333.787.333 1.796 0 .992-.327 1.791-.326.795-.96 1.262-.634.462-1.55.462m.093-.843q.707 0 1.169-.345.461-.345.69-.948.227-.61.227-1.379 0-.78-.228-1.378a2 2 0 0 0-.689-.942q-.456-.339-1.151-.339-.714 0-1.182.351a2.08 2.08 0 0 0-.695.954 3.9 3.9 0 0 0-.222 1.354q0 .757.228 1.367.234.603.696.954.46.35 1.157.35m7.426.843q-.972 0-1.687-.431a2.9 2.9 0 0 1-1.101-1.213q-.394-.78-.394-1.834 0-1.09.388-1.883.387-.795 1.089-1.225.708-.43 1.668-.43.985 0 1.68.455.696.45 1.053 1.292t.326 2.013h-.923v-.32q-.025-1.293-.56-1.951-.53-.66-1.551-.659-1.071 0-1.644.696-.566.695-.566 1.982 0 1.256.566 1.95.573.69 1.619.69.714 0 1.243-.326a2.3 2.3 0 0 0 .843-.954l.844.326a3 3 0 0 1-1.164 1.348 3.2 3.2 0 0 1-1.73.474m-2.542-3.256v-.757h5.078v.757zm11.874 3.25q-1.169 0-1.926-.505a2.1 2.1 0 0 1-.923-1.403l.923-.154q.147.566.671.904.53.333 1.305.333.756 0 1.194-.314a1.02 1.02 0 0 0 .437-.868.82.82 0 0 0-.142-.498q-.135-.198-.56-.363-.425-.167-1.268-.394-.905-.246-1.415-.493-.511-.246-.727-.566a1.4 1.4 0 0 1-.215-.794q0-.566.32-.99.32-.432.886-.666.567-.24 1.317-.24.751 0 1.342.247.597.24.96.677a1.9 1.9 0 0 1 .431 1.015l-.923.166a1.33 1.33 0 0 0-.585-.923q-.486-.345-1.237-.357-.708-.018-1.151.27-.443.284-.443.758 0 .264.16.455.16.184.578.351.426.166 1.207.363.916.234 1.44.493.523.258.745.609.22.35.221.868 0 .942-.701 1.483-.696.536-1.921.536m5.889.006q-.75 0-1.262-.271a1.84 1.84 0 0 1-.757-.72 1.97 1.97 0 0 1-.252-.979q0-.541.215-.923.222-.388.597-.634.382-.247.881-.375a13 13 0 0 1 1.114-.216q.615-.097 1.2-.166.59-.074 1.034-.142l-.32.197q.018-.984-.382-1.458t-1.391-.474q-.683 0-1.157.308-.468.307-.658.972l-.881-.258q.228-.893.917-1.385t1.792-.493q.91 0 1.544.345.64.339.905.985.124.29.16.646t.037.726v4.13h-.806v-1.668l.234.099q-.339.855-1.053 1.304t-1.711.45m.105-.782q.633 0 1.108-.228.474-.227.763-.621.29-.4.375-.899.075-.32.08-.702.006-.387.006-.578l.345.178q-.462.061-1.003.124-.535.06-1.059.141a9 9 0 0 0-.935.19 2.5 2.5 0 0 0-.548.229 1.3 1.3 0 0 0-.437.381q-.166.24-.166.597 0 .29.141.56.148.27.468.45.327.178.862.178m4.956.597v-9.047h.905v9.047zm5.563.185q-.972 0-1.686-.431a2.93 2.93 0 0 1-1.102-1.213q-.394-.78-.394-1.834 0-1.09.388-1.883.387-.795 1.089-1.225.708-.43 1.668-.43.985 0 1.68.455.696.45 1.053 1.292t.326 2.013h-.923v-.32q-.025-1.293-.56-1.951-.53-.66-1.551-.659-1.071 0-1.644.696-.566.695-.566 1.982 0 1.256.566 1.95.573.69 1.619.69.714 0 1.243-.326.535-.333.844-.954l.843.326a3.02 3.02 0 0 1-1.163 1.348 3.2 3.2 0 0 1-1.73.474m-2.542-3.256v-.757h5.078v.757zm9.41 3.25q-1.168 0-1.926-.505a2.1 2.1 0 0 1-.923-1.403l.923-.154q.147.566.671.904.53.333 1.305.333.756 0 1.194-.314a1.02 1.02 0 0 0 .437-.868.82.82 0 0 0-.142-.498q-.135-.198-.56-.363-.425-.167-1.268-.394-.904-.246-1.416-.493-.51-.246-.726-.566a1.4 1.4 0 0 1-.215-.794q0-.566.32-.99.32-.432.886-.666.567-.24 1.317-.24.751 0 1.342.247.597.24.96.677a1.9 1.9 0 0 1 .431 1.015l-.923.166a1.33 1.33 0 0 0-.585-.923q-.487-.345-1.237-.357-.708-.018-1.151.27-.443.284-.443.758 0 .264.16.455.16.184.578.351.425.166 1.207.363.916.234 1.44.493.523.258.745.609.22.35.221.868 0 .942-.701 1.483-.696.536-1.921.536m7.11-.179v-7.14q0-.258.025-.51.03-.253.117-.48.085-.234.27-.431.204-.222.444-.32.24-.105.498-.136.265-.03.517-.03h.85v.763h-.788q-.517 0-.776.252-.252.252-.252.794v7.238zm-1.151-5.871v-.776h3.872v.776zm7.392 6.056q-.991 0-1.693-.45a2.9 2.9 0 0 1-1.077-1.243q-.375-.794-.376-1.822 0-1.046.382-1.834a2.9 2.9 0 0 1 1.083-1.224q.708-.444 1.681-.444.997 0 1.698.45.708.442 1.077 1.237.376.788.376 1.815 0 1.047-.376 1.84-.375.789-1.083 1.232t-1.692.443m0-.868q1.107 0 1.649-.733.542-.738.542-1.914 0-1.206-.548-1.92-.542-.714-1.643-.714-.745 0-1.231.339-.48.332-.721.929-.233.591-.233 1.366 0 1.2.554 1.927.553.72 1.631.72m4.508.683v-6.647h.813v1.6l-.16-.209q.11-.295.289-.542.178-.252.388-.412.258-.228.603-.345.345-.123.696-.141.35-.025.64.049v.85a2.2 2.2 0 0 0-.794-.044 1.5 1.5 0 0 0-.794.345q-.333.258-.499.622a2.6 2.6 0 0 0-.221.763 6 6 0 0 0-.056.794v3.317zm10.52 0a4.4 4.4 0 0 1-1.108.093 2.5 2.5 0 0 1-.973-.234 1.4 1.4 0 0 1-.646-.653 1.9 1.9 0 0 1-.197-.745 28 28 0 0 1-.012-.867V55.84h.898v6.05q0 .419.006.701.013.278.13.493.22.413.701.492.487.08 1.201-.037zm-4.358-5.871v-.776h4.358v.776zm10.468 5.871v-3.391q0-.554-.105-1.016a2.3 2.3 0 0 0-.338-.812 1.55 1.55 0 0 0-.597-.542q-.363-.19-.887-.19-.48 0-.849.166a1.7 1.7 0 0 0-.615.48q-.247.307-.376.75a3.6 3.6 0 0 0-.129 1.01l-.64-.142q0-1.02.357-1.717.357-.695.985-1.052.627-.357 1.44-.357.597 0 1.04.184.449.185.757.499.313.315.505.72.19.4.277.856.086.45.086.898v3.656zm-4.807 0V55.47h.819v5.004h.092v3.86zm10.128.185q-.973 0-1.687-.431a2.9 2.9 0 0 1-1.101-1.213q-.394-.78-.394-1.834 0-1.09.387-1.883.388-.795 1.09-1.225.708-.43 1.668-.43.984 0 1.68.455.696.45 1.052 1.292t.327 2.013h-.924v-.32q-.024-1.293-.56-1.951-.53-.66-1.551-.659-1.07 0-1.643.696-.566.695-.566 1.982 0 1.256.566 1.95.573.69 1.619.69.714 0 1.243-.326a2.3 2.3 0 0 0 .843-.954l.843.326a3 3 0 0 1-1.163 1.348 3.2 3.2 0 0 1-1.729.474m-2.542-3.256v-.757h5.077v.757zm12.379 3.256q-.916 0-1.551-.462a2.9 2.9 0 0 1-.96-1.262q-.326-.8-.326-1.79 0-1.01.326-1.798.332-.794.972-1.25t1.576-.455q.91 0 1.563.462t.997 1.255q.351.795.351 1.785 0 .998-.351 1.791-.35.795-1.009 1.262-.659.462-1.588.462m-2.991 2.77v-9.602h.812v5.004h.099v4.597zm2.899-3.613q.695 0 1.157-.351.46-.351.689-.954.234-.61.234-1.367 0-.75-.228-1.354a2.07 2.07 0 0 0-.695-.954q-.462-.35-1.176-.35-.695 0-1.157.338-.456.339-.683.942-.228.597-.228 1.378 0 .77.228 1.38.227.602.689.947t1.17.345m6.293.843q-.75 0-1.261-.271a1.83 1.83 0 0 1-.757-.72 1.96 1.96 0 0 1-.253-.979q0-.541.216-.923.22-.388.597-.634.381-.247.88-.375.504-.123 1.114-.216.615-.097 1.2-.166.591-.074 1.034-.142l-.32.197q.018-.984-.382-1.458t-1.391-.474q-.683 0-1.157.308-.467.307-.658.972l-.88-.258q.227-.893.917-1.385.689-.492 1.791-.493.91 0 1.545.345.64.339.904.985.124.29.16.646t.037.726v4.13h-.806v-1.668l.234.099q-.339.855-1.053 1.304t-1.711.45m.105-.782q.634 0 1.108-.228.474-.227.763-.621.29-.4.376-.899.073-.32.08-.702.006-.387.006-.578l.344.178q-.461.061-1.003.124-.536.06-1.058.141a9 9 0 0 0-.936.19q-.283.08-.548.229a1.3 1.3 0 0 0-.437.381q-.166.24-.166.597 0 .29.142.56.147.27.467.45.327.178.862.178m7.314.776q-1.17 0-1.927-.505a2.1 2.1 0 0 1-.923-1.403l.923-.154q.149.566.671.904.53.333 1.305.333.758 0 1.194-.314.438-.32.437-.868a.8.8 0 0 0-.141-.498q-.136-.198-.56-.363-.425-.167-1.268-.394-.905-.246-1.416-.493-.512-.246-.726-.566a1.4 1.4 0 0 1-.216-.794q0-.566.32-.99.32-.432.887-.666.565-.24 1.317-.24.75 0 1.342.247.597.24.96.677.363.436.431 1.015l-.924.166a1.33 1.33 0 0 0-.584-.923q-.487-.345-1.237-.357-.708-.018-1.151.27-.444.284-.444.758a.7.7 0 0 0 .16.455q.16.184.579.351.424.166 1.206.363.918.234 1.441.493.523.258.744.609.222.35.222.868 0 .942-.702 1.483-.695.536-1.92.536m7.606-.179a4.4 4.4 0 0 1-1.108.093 2.5 2.5 0 0 1-.972-.234 1.4 1.4 0 0 1-.647-.653 1.9 1.9 0 0 1-.197-.745 28 28 0 0 1-.012-.867V55.84h.899v6.05q0 .419.006.701.012.278.129.493.222.413.702.492.486.08 1.2-.037zm-4.358-5.871v-.776h4.358v.776zm8.606 5.871 3.262-7.983h-4.105v-.88h5.071v.88l-3.256 7.983zm10.748.185q-.93 0-1.588-.462a3 3 0 0 1-1.01-1.262q-.35-.794-.35-1.79 0-.992.344-1.785a2.97 2.97 0 0 1 1.004-1.256q.652-.462 1.563-.462.936 0 1.575.456.64.455.967 1.25.332.787.332 1.796 0 .992-.326 1.791-.327.795-.96 1.262-.635.462-1.551.462m.092-.843q.708 0 1.169-.345t.69-.948q.228-.61.228-1.379 0-.78-.228-1.378a2 2 0 0 0-.69-.942q-.455-.339-1.15-.339-.714 0-1.182.351a2.08 2.08 0 0 0-.696.954 3.9 3.9 0 0 0-.221 1.354q0 .757.227 1.367.234.603.696.954.461.35 1.157.35m2.087.658V59.33h-.099V55.47h.911v8.863zm4.44.185q-.75 0-1.261-.271a1.83 1.83 0 0 1-.757-.72 1.96 1.96 0 0 1-.253-.979q0-.541.216-.923.222-.388.597-.634.381-.247.88-.375.505-.123 1.114-.216.615-.097 1.2-.166.591-.074 1.034-.142l-.32.197q.018-.984-.382-1.458t-1.39-.474q-.684 0-1.158.308-.467.307-.658.972l-.88-.258q.228-.893.917-1.385t1.791-.493q.91 0 1.545.345.64.339.904.985.124.29.16.646t.037.726v4.13h-.806v-1.668l.234.099q-.34.855-1.052 1.304-.714.45-1.712.45m.105-.782q.634 0 1.108-.228.474-.227.763-.621.29-.4.376-.899.074-.32.08-.702.006-.387.006-.578l.344.178q-.461.061-1.003.124-.536.06-1.058.141a9 9 0 0 0-.936.19q-.283.08-.548.229a1.3 1.3 0 0 0-.437.381q-.166.24-.166.597 0 .29.142.56.147.27.467.45.327.178.862.178m5.409 3.551 1.286-3.49.019 1.035-2.912-7.146h.961l2.388 5.976h-.394l2.203-5.976h.923l-3.569 9.601zm8.024-2.775q-1.17 0-1.927-.505a2.1 2.1 0 0 1-.923-1.403l.923-.154q.148.566.671.904.53.333 1.305.333.758 0 1.194-.314a1.02 1.02 0 0 0 .437-.868.8.8 0 0 0-.142-.498q-.135-.198-.56-.363-.424-.167-1.268-.394-.905-.246-1.415-.493-.512-.246-.726-.566a1.4 1.4 0 0 1-.216-.794q0-.566.32-.99.32-.432.886-.666.567-.24 1.318-.24.75 0 1.341.247.597.24.96.677.364.436.431 1.015l-.923.166a1.33 1.33 0 0 0-.585-.923q-.486-.345-1.237-.357-.707-.018-1.151.27-.443.284-.443.758a.7.7 0 0 0 .16.455q.16.184.579.351.424.166 1.206.363.917.234 1.44.493.523.258.745.609.222.35.222.868 0 .942-.702 1.483-.696.536-1.92.536m6.574-8.088V55.41h.905v1.015zm0 7.91v-6.648h.905v6.647zm5.23.178q-1.168 0-1.926-.505a2.1 2.1 0 0 1-.923-1.403l.923-.154q.147.566.671.904.53.333 1.305.333.756 0 1.194-.314a1.02 1.02 0 0 0 .437-.868.82.82 0 0 0-.142-.498q-.135-.198-.56-.363-.425-.167-1.268-.394-.905-.246-1.416-.493-.51-.246-.726-.566a1.4 1.4 0 0 1-.215-.794q0-.566.32-.99.32-.432.886-.666.567-.24 1.317-.24.751 0 1.342.247.597.24.96.677a1.9 1.9 0 0 1 .431 1.015l-.923.166a1.33 1.33 0 0 0-.585-.923q-.486-.345-1.237-.357-.708-.018-1.151.27-.443.284-.443.758 0 .264.16.455.16.184.578.351.426.166 1.207.363.917.234 1.44.493.523.258.745.609.22.35.221.868 0 .942-.701 1.483-.696.536-1.921.536"/><path fill="#000" fill-opacity=".8" d="M258.468 65.552V64.13h1.096v1.422zm0-9.879v-1.428h1.096v1.428zm.634 8.845a3.95 3.95 0 0 1-1.619-.32 3.1 3.1 0 0 1-1.175-.917 3.14 3.14 0 0 1-.603-1.404l1.077-.178q.196.819.831 1.299.64.48 1.538.48.906 0 1.465-.437.56-.438.56-1.127 0-.504-.301-.812-.296-.308-.997-.523l-2.025-.628q-1.816-.567-1.816-2.166 0-.751.363-1.311a2.4 2.4 0 0 1 1.028-.874q.665-.315 1.545-.308.855.006 1.526.32.672.307 1.108.886.444.579.597 1.385l-1.108.203a2.06 2.06 0 0 0-.381-.917 1.94 1.94 0 0 0-.739-.61 2.3 2.3 0 0 0-1.009-.227 2.3 2.3 0 0 0-.942.172 1.6 1.6 0 0 0-.652.499q-.24.32-.24.732 0 .45.332.763.339.308 1.059.53l1.661.492q1.096.327 1.582.88.486.548.486 1.465 0 .794-.393 1.391a2.57 2.57 0 0 1-1.102.93q-.708.332-1.656.332m5.983-.185v-7.65l-1.668 1.01v-1.226l1.668-.997h1.114v8.863zm2.84 1.379.068-.511q.259.019.388-.098a.55.55 0 0 0 .166-.32 1.6 1.6 0 0 0 .012-.45h-.634v-1.39h1.207v1.575q0 .646-.32.972-.314.327-.887.222m3.303-1.385.006-.985 3.933-3.539q.493-.442.659-.837.172-.4.172-.818 0-.512-.234-.924a1.74 1.74 0 0 0-1.551-.892q-.529 0-.941.252a1.8 1.8 0 0 0-.653.659 1.75 1.75 0 0 0-.228.898h-1.12q0-.837.388-1.477.388-.645 1.053-1.01.67-.368 1.52-.368.825 0 1.477.381.652.375 1.028 1.028.381.646.381 1.465 0 .579-.147 1.003a2.4 2.4 0 0 1-.444.788 8 8 0 0 1-.757.763l-3.268 2.936-.141-.37h4.757v1.047zm10.354.19q-.861 0-1.539-.387a2.94 2.94 0 0 1-1.064-1.065 3.04 3.04 0 0 1-.388-1.538v-3.25q0-.862.388-1.539a2.9 2.9 0 0 1 1.064-1.065 3.04 3.04 0 0 1 1.539-.387q.862 0 1.539.387.677.389 1.065 1.065.387.677.387 1.539v3.25q0 .861-.387 1.538a2.9 2.9 0 0 1-1.065 1.065 3.04 3.04 0 0 1-1.539.388m0-1.052q.524 0 .948-.252a1.9 1.9 0 0 0 .677-.677q.252-.43.252-.948V58.21q0-.523-.252-.948a1.9 1.9 0 0 0-.677-.677 1.8 1.8 0 0 0-.948-.252 1.84 1.84 0 0 0-.948.252 1.9 1.9 0 0 0-.677.677q-.252.425-.252.948v3.38q0 .516.252.947.252.425.677.677.43.252.948.252m7.706 1.053q-.863 0-1.539-.388a2.95 2.95 0 0 1-1.065-1.065 3.05 3.05 0 0 1-.388-1.538v-3.25q0-.862.388-1.539a2.9 2.9 0 0 1 1.065-1.065 3.04 3.04 0 0 1 1.539-.387q.861 0 1.538.387.678.389 1.065 1.065.388.677.388 1.539v3.25q0 .861-.388 1.538a2.9 2.9 0 0 1-1.065 1.065 3.04 3.04 0 0 1-1.538.388m0-1.053q.522 0 .947-.252a1.9 1.9 0 0 0 .677-.677q.253-.43.253-.948V58.21q0-.523-.253-.948a1.9 1.9 0 0 0-.677-.677 1.8 1.8 0 0 0-.947-.252 1.84 1.84 0 0 0-.948.252 1.9 1.9 0 0 0-.677.677q-.253.425-.253.948v3.38q0 .516.253.947.252.425.677.677.43.252.948.252m4.591 2.247.067-.511q.26.019.388-.098a.55.55 0 0 0 .166-.32q.037-.204.013-.45h-.634v-1.39h1.206v1.575q0 .646-.32.972-.314.327-.886.222m6.54-1.194q-.861 0-1.539-.388a2.94 2.94 0 0 1-1.064-1.065 3.04 3.04 0 0 1-.388-1.538v-3.25q0-.862.388-1.539a2.9 2.9 0 0 1 1.064-1.065 3.04 3.04 0 0 1 1.539-.387q.861 0 1.539.387a2.8 2.8 0 0 1 1.064 1.065q.388.677.388 1.539v3.25q0 .861-.388 1.538a2.9 2.9 0 0 1-1.064 1.065 3.04 3.04 0 0 1-1.539.388m0-1.053q.524 0 .948-.252a1.9 1.9 0 0 0 .677-.677q.252-.43.252-.948V58.21q0-.523-.252-.948a1.9 1.9 0 0 0-.677-.677 1.8 1.8 0 0 0-.948-.252 1.84 1.84 0 0 0-.948.252 1.9 1.9 0 0 0-.677.677q-.252.425-.252.948v3.38q0 .516.252.947.252.425.677.677.43.252.948.252m7.705 1.053q-.861 0-1.538-.388a2.95 2.95 0 0 1-1.065-1.065 3.05 3.05 0 0 1-.388-1.538v-3.25q0-.862.388-1.539a2.9 2.9 0 0 1 1.065-1.065 3.04 3.04 0 0 1 1.538-.387q.863 0 1.539.387.677.389 1.065 1.065.387.677.388 1.539v3.25q0 .861-.388 1.538a2.9 2.9 0 0 1-1.065 1.065 3.04 3.04 0 0 1-1.539.388m0-1.053q.524 0 .948-.252a1.9 1.9 0 0 0 .677-.677q.253-.43.253-.948V58.21q0-.523-.253-.948a1.9 1.9 0 0 0-.677-.677 1.8 1.8 0 0 0-.948-.252q-.516 0-.947.252a1.9 1.9 0 0 0-.677.677q-.253.425-.253.948v3.38q0 .516.253.947.252.425.677.677.43.252.947.252"/><path fill="#BDC7FA" d="M30.32 246.517h14.94v31.252H30.32zM51.236 244.78h14.94v32.988h-14.94zM72.152 241.308h14.94v36.461h-14.94zM93.068 229.154h14.94v48.614h-14.94zM113.984 206.584h14.94v71.185h-14.94zM134.9 180.54h14.94v97.229H134.9zM155.816 229.154h14.94v48.614h-14.94zM176.732 241.308h14.94v36.461h-14.94zM197.648 248.253h14.94v29.516h-14.94zM218.563 248.253h14.94v29.516h-14.94zM239.48 206.584h14.94v71.185h-14.94zM260.396 182.277h14.94v95.493h-14.94zM281.312 251.726h14.94v26.043h-14.94zM302.228 246.517h14.94v31.252h-14.94zM323.144 244.78h14.94v32.988h-14.94zM344.06 244.78H359v32.988h-14.94z"/><path fill="#666" d="M43.496 309.157q-.676 0-1.218-.224a2.35 2.35 0 0 1-.89-.645 2.1 2.1 0 0 1-.457-.989l.671-.112q.161.627.68.985.52.354 1.24.354.475 0 .851-.148.376-.153.59-.43.216-.277.216-.658a.9.9 0 0 0-.09-.425.85.85 0 0 0-.237-.295 1.5 1.5 0 0 0-.322-.193 2.5 2.5 0 0 0-.34-.13l-1.634-.488a3 3 0 0 1-.546-.215 2 2 0 0 1-.44-.317 1.4 1.4 0 0 1-.286-.439 1.5 1.5 0 0 1-.103-.573q0-.546.287-.944.286-.399.783-.614a2.8 2.8 0 0 1 1.133-.21q.645 0 1.15.228.51.228.842.654.33.42.438.998l-.689.125a1.56 1.56 0 0 0-.309-.729 1.6 1.6 0 0 0-.618-.475 2 2 0 0 0-.819-.174q-.434 0-.774.147a1.3 1.3 0 0 0-.533.394.9.9 0 0 0-.197.573q0 .327.18.524a1.3 1.3 0 0 0 .447.309q.268.112.52.183l1.261.372q.197.054.462.156.268.1.519.287.255.183.42.483t.166.761q0 .448-.179.802a1.65 1.65 0 0 1-.497.595 2.3 2.3 0 0 1-.747.367q-.426.13-.931.13M90.496 309.022v-6.445h.604l2.534 5.42 2.52-5.42h.613v6.441h-.627v-4.973l-2.296 4.977h-.425l-2.292-4.977v4.977zM143.686 309.022v-5.814h-2.251v-.631h5.161v.631h-2.252v5.814zM192.593 309.022l-1.862-6.445h.685l1.508 5.322 1.5-5.318.689-.004 1.509 5.322 1.499-5.322h.689l-1.857 6.445h-.663l-1.522-5.286-1.512 5.286zM244.401 309.022v-5.814h-2.252v-.631h5.161v.631h-2.251v5.814zM293.043 309.022v-6.445h3.702v.658h-3.044v2.238h2.507v.653h-2.507v2.896zM344.52 309.157q-.677 0-1.218-.224a2.36 2.36 0 0 1-.891-.645 2.1 2.1 0 0 1-.456-.989l.671-.112q.161.627.68.985.52.354 1.24.354.475 0 .851-.148.376-.153.591-.43t.215-.658a.9.9 0 0 0-.09-.425.9.9 0 0 0-.237-.295 1.5 1.5 0 0 0-.322-.193 2.5 2.5 0 0 0-.341-.13l-1.633-.488a3 3 0 0 1-.547-.215 2 2 0 0 1-.438-.317 1.4 1.4 0 0 1-.287-.439 1.5 1.5 0 0 1-.103-.573q0-.546.287-.944.286-.399.783-.614a2.8 2.8 0 0 1 1.133-.21q.644 0 1.15.228.51.228.842.654.33.42.438.998l-.689.125a1.57 1.57 0 0 0-.309-.729 1.6 1.6 0 0 0-.618-.475 2 2 0 0 0-.819-.174q-.433 0-.774.147a1.3 1.3 0 0 0-.533.394.9.9 0 0 0-.197.573q0 .327.179.524.184.197.448.309.268.112.519.183l1.262.372q.197.054.461.156.269.1.52.287.255.183.42.483.166.3.166.761 0 .448-.179.802a1.65 1.65 0 0 1-.497.595 2.3 2.3 0 0 1-.747.367q-.426.13-.931.13"/><path fill="#AAA" d="M344.246 287.77h.738v4.143h-.738zM143.601 287.77h.738v4.143h-.738zM193.762 287.77h.738v4.143h-.738zM294.085 287.77h.738v4.143h-.738zM243.924 287.77h.738v4.143h-.738zM93.44 287.77h.738v4.143h-.738zM43.278 287.77h.738v4.143h-.738zM30 286.623h329v1.117H30z"/></svg>