<svg width="70" height="70" viewBox="0 0 70 70" fill="none" xmlns="http://www.w3.org/2000/svg">
<path d="M8.16681 9.33127H19.3434M19.3434 9.33127V3.5H24.6887V9.33127M19.3434 9.33127V15.1625H24.6887V9.33127M24.6887 9.33127H45.0982M45.0982 9.33127V3.5H50.9295V9.33127M45.0982 9.33127V15.1625H50.9295V9.33127M50.9295 9.33127H61.6201V55.0096H50.9295" stroke="#D5FDB1"/>
<path d="M18.3714 55.0096H8.65265V9.3313" stroke="#D5FDB1"/>
<path d="M8.65265 21.9658H61.62" stroke="#D5FDB1"/>
<path d="M23.8941 55.7614C24.4122 56.6248 25.0453 57.4308 25.7649 58.1503C31.0606 63.4461 39.6662 63.4461 44.9907 58.1503C47.1493 55.9917 48.3869 53.2574 48.7899 50.4656" stroke="#D5FDB1" stroke-linecap="round" stroke-linejoin="round"/>
<path d="M21.9655 49.789C22.3685 46.9684 23.6061 44.2629 25.7647 42.1043C31.0604 36.8085 39.666 36.8085 44.9905 42.1043C45.7388 42.8526 46.3432 43.6585 46.8613 44.4932" stroke="#D5FDB1" stroke-linecap="round" stroke-linejoin="round"/>
<path d="M23.3494 63.4464V55.7618H31.0339" stroke="#D5FDB1" stroke-linecap="round" stroke-linejoin="round"/>
<path d="M47.4094 36.8094V44.494H39.7249" stroke="#D5FDB1" stroke-linecap="round" stroke-linejoin="round"/>
</svg>
