<svg width="169" height="40" viewBox="0 0 169 40" fill="none" xmlns="http://www.w3.org/2000/svg">
<path d="M36.2739 19.0983C35.8915 19.4821 35.5988 19.9455 35.4164 20.4551C35.234 20.9648 35.1665 21.5083 35.2187 22.047L35.2005 22.0289C35.2542 22.6631 35.1684 23.3012 34.9494 23.8989C34.7304 24.4965 34.3833 25.0392 33.9325 25.4892C33.4815 25.9391 32.9377 26.2856 32.3387 26.504C31.7399 26.7226 31.1004 26.8082 30.465 26.7546L30.4831 26.7727C29.7231 26.7022 28.9597 26.8672 28.297 27.2454C27.6344 27.6236 27.1047 28.1966 26.7804 28.8862C26.456 29.5758 26.3526 30.3484 26.4844 31.0988C26.6162 31.8492 26.9767 32.5407 27.5167 33.0791C28.0568 33.6175 28.7501 33.9766 29.502 34.1074C30.2541 34.2383 31.0282 34.1344 31.719 33.8101C32.4097 33.4857 32.9834 32.9568 33.3618 32.2952C33.7402 31.6335 33.9049 30.8716 33.8335 30.1131L33.8527 30.1312C33.799 29.4972 33.8847 28.859 34.1037 28.2613C34.3227 27.6637 34.6698 27.121 35.1207 26.6709C35.5716 26.221 36.1155 25.8746 36.7144 25.6561C37.3133 25.4376 37.9527 25.352 38.5882 25.4056L38.569 25.3874C39.1899 25.4431 39.8148 25.3415 40.3859 25.0921C40.9569 24.8426 41.4557 24.4533 41.8359 23.9603C42.216 23.4673 42.4654 22.8864 42.5606 22.2716C42.6559 21.6568 42.5942 21.028 42.3811 20.4433C42.1681 19.8587 41.8105 19.3372 41.3417 18.9271C40.8729 18.5171 40.308 18.2318 39.6992 18.0977C39.0905 17.9636 38.4576 17.9849 37.8594 18.1598C37.2612 18.3348 36.7169 18.6575 36.2769 19.0983H36.2739Z" fill="#EAD834"/>
<path d="M28.8318 24.3982L28.8127 24.3801C29.3527 24.4344 29.8981 24.3682 30.4095 24.1864C30.9208 24.0046 31.3852 23.7117 31.7692 23.3289C32.1531 22.946 32.447 22.4827 32.6295 21.9726C32.8121 21.4624 32.8788 20.9183 32.8248 20.3793L32.844 20.3974C32.7903 19.7632 32.8761 19.1252 33.095 18.5275C33.314 17.9299 33.6612 17.3871 34.112 16.9371C34.563 16.4872 35.1068 16.1408 35.7057 15.9223C36.3046 15.7037 36.944 15.6182 37.5795 15.6717L37.5604 15.6536C38.3205 15.7249 39.0841 15.5603 39.7471 15.1825C40.4102 14.8047 40.9403 14.232 41.2651 13.5425C41.59 12.8531 41.6938 12.0803 41.5624 11.3298C41.4311 10.5793 41.0709 9.88744 40.531 9.34869C39.9912 8.80995 39.2979 8.4505 38.5458 8.3194C37.7937 8.18829 37.0194 8.29189 36.3285 8.61609C35.6375 8.94027 35.0637 9.46927 34.685 10.1309C34.3064 10.7926 34.1416 11.5546 34.213 12.3132L34.1948 12.2941C34.2486 12.9282 34.1631 13.5664 33.9442 14.1642C33.7252 14.7619 33.3781 15.3047 32.9272 15.7548C32.4763 16.2047 31.9323 16.5511 31.3334 16.7696C30.7343 16.988 30.0948 17.0734 29.4593 17.0198L29.4775 17.0389C28.9375 16.9846 28.392 17.0508 27.8807 17.2326C27.3694 17.4143 26.905 17.7073 26.521 18.0901C26.137 18.473 25.8431 18.9363 25.6605 19.4464C25.478 19.9565 25.4114 20.5007 25.4653 21.0397L25.4472 21.0216C25.5006 21.6556 25.4148 22.2937 25.1958 22.8913C24.9767 23.4888 24.6296 24.0316 24.1788 24.4815C23.7279 24.9314 23.1841 25.2777 22.5852 25.4964C21.9864 25.715 21.347 25.8006 20.7117 25.7473L20.7298 25.7654C19.9697 25.6941 19.206 25.8586 18.543 26.2365C17.88 26.6143 17.3499 27.1869 17.025 27.8764C16.7002 28.566 16.5963 29.3386 16.7277 30.0892C16.8591 30.8397 17.2193 31.5316 17.7592 32.0703C18.299 32.6091 18.9923 32.9685 19.7444 33.0996C20.4965 33.2306 21.2708 33.1271 21.9617 32.8029C22.6526 32.4787 23.2265 31.9498 23.6051 31.2881C23.9837 30.6264 24.1486 29.8644 24.0772 29.1058L24.0963 29.1239C24.0427 28.4898 24.1284 27.8517 24.3474 27.254C24.5664 26.6564 24.9135 26.1136 25.3643 25.6636C25.8153 25.2137 26.3592 24.8673 26.958 24.6488C27.557 24.4302 28.1964 24.3447 28.8318 24.3982Z" fill="#CE9238"/>
<path d="M22.0705 22.3779C22.4528 21.9941 22.7456 21.5308 22.9278 21.0211C23.1101 20.5114 23.1773 19.9677 23.1247 19.4291L23.1439 19.4472C23.0902 18.813 23.1759 18.1746 23.395 17.5768C23.6142 16.979 23.9614 16.4361 24.4126 15.9861C24.8637 15.5361 25.4078 15.1898 26.007 14.9714C26.6061 14.753 27.2458 14.6677 27.8814 14.7215L27.8622 14.7034C28.6221 14.7745 29.3855 14.6099 30.0482 14.2321C30.7109 13.8543 31.2406 13.2818 31.5654 12.5925C31.89 11.9032 31.9937 11.1308 31.8624 10.3805C31.731 9.63027 31.3709 8.93871 30.8313 8.40016C30.2916 7.86161 29.5985 7.50228 28.8468 7.37118C28.095 7.24007 27.3209 7.34358 26.6302 7.66758C25.9395 7.99157 25.3657 8.52028 24.9872 9.18162C24.6086 9.84295 24.4437 10.6047 24.5149 11.363L24.4967 11.3449C24.5504 11.979 24.4646 12.6172 24.2456 13.2148C24.0266 13.8124 23.6796 14.3552 23.2287 14.8052C22.7778 15.2551 22.2339 15.6015 21.635 15.82C21.0361 16.0386 20.3966 16.1241 19.7612 16.0706L19.7794 16.0887C19.1585 16.0331 18.5336 16.1349 17.9626 16.3845C17.3916 16.6341 16.893 17.0235 16.513 17.5166C16.1329 18.0096 15.8838 18.5905 15.7886 19.2052C15.6934 19.82 15.7552 20.4488 15.9683 21.0334C16.1815 21.618 16.539 22.1394 17.0079 22.5493C17.4767 22.9594 18.0417 23.2446 18.6504 23.3787C19.2591 23.5127 19.8919 23.4912 20.4901 23.3164C21.0883 23.1414 21.6326 22.8186 22.0725 22.3779H22.0705Z" fill="#EAD834"/>
<g opacity="0.7">
<path d="M47.9575 25.718L53.4138 10.5952H56.4829L61.9391 25.718H59.0405L57.8469 22.2182H52.0284L50.8135 25.718H47.9575ZM52.7744 20.0578H57.101L54.927 13.771L52.7744 20.0578Z" fill="#4C6379"/>
<path d="M67.411 25.9773C66.3311 25.9773 65.3791 25.7396 64.555 25.2644C63.7309 24.7891 63.0773 24.1265 62.5942 23.2768C62.1253 22.427 61.8908 21.4548 61.8908 20.3602C61.8908 19.2656 62.1253 18.2934 62.5942 17.4437C63.0773 16.5939 63.7309 15.9314 64.555 15.4561C65.3791 14.9808 66.3311 14.7432 67.411 14.7432C68.7609 14.7432 69.8976 15.1032 70.8212 15.8234C71.7447 16.5291 72.3344 17.5085 72.5902 18.7615H69.7129C69.5708 18.243 69.2866 17.8398 68.8603 17.5517C68.4483 17.2492 67.9581 17.098 67.3897 17.098C66.6366 17.098 65.9972 17.3861 65.4715 17.9622C64.9458 18.5383 64.6829 19.3376 64.6829 20.3602C64.6829 21.3828 64.9458 22.1822 65.4715 22.7583C65.9972 23.3344 66.6366 23.6224 67.3897 23.6224C67.9581 23.6224 68.4483 23.4784 68.8603 23.1904C69.2866 22.9023 69.5708 22.4918 69.7129 21.9589H72.5902C72.3344 23.1688 71.7447 24.1409 70.8212 24.8755C69.8976 25.61 68.7609 25.9773 67.411 25.9773Z" fill="#4C6379"/>
<path d="M73.9459 25.718V15.0024H76.3543L76.5888 16.4499C76.9298 15.9314 77.3774 15.5209 77.9315 15.2185C78.4999 14.9016 79.1535 14.7432 79.8923 14.7432C81.5264 14.7432 82.6844 15.3841 83.3664 16.6659C83.7501 16.0754 84.2616 15.6073 84.901 15.2617C85.5546 14.916 86.2651 14.7432 87.0323 14.7432C88.4106 14.7432 89.4692 15.1608 90.208 15.9962C90.9469 16.8316 91.3163 18.0558 91.3163 19.6689V25.718H88.5882V19.9281C88.5882 19.0064 88.4106 18.3006 88.0554 17.8109C87.7144 17.3213 87.1815 17.0764 86.4569 17.0764C85.718 17.0764 85.1212 17.3501 84.6666 17.8974C84.2261 18.4447 84.0058 19.208 84.0058 20.1874V25.718H81.2777V19.9281C81.2777 19.0064 81.1001 18.3006 80.7449 17.8109C80.3897 17.3213 79.8426 17.0764 79.1037 17.0764C78.3791 17.0764 77.7894 17.3501 77.3347 17.8974C76.8943 18.4447 76.674 19.208 76.674 20.1874V25.718H73.9459Z" fill="#4C6379"/>
<path d="M97.9773 25.9773C96.9116 25.9773 95.9667 25.7468 95.1426 25.286C94.3185 24.8251 93.672 24.177 93.2031 23.3416C92.7342 22.5062 92.4997 21.5413 92.4997 20.4466C92.4997 19.3376 92.7271 18.3511 93.1818 17.4869C93.6507 16.6227 94.2901 15.953 95.1 15.4777C95.9241 14.988 96.8903 14.7432 97.9986 14.7432C99.0358 14.7432 99.9523 14.9736 100.748 15.4345C101.544 15.8954 102.162 16.5291 102.602 17.3357C103.057 18.1278 103.284 19.0136 103.284 19.993C103.284 20.1514 103.277 20.317 103.263 20.4899C103.263 20.6627 103.256 20.8427 103.242 21.03H95.2065C95.2634 21.8653 95.5475 22.5206 96.0591 22.9959C96.5848 23.4712 97.2171 23.7089 97.956 23.7089C98.5101 23.7089 98.9719 23.5864 99.3413 23.3416C99.725 23.0823 100.009 22.7511 100.194 22.3478H102.965C102.766 23.0247 102.432 23.6441 101.963 24.2058C101.508 24.7531 100.94 25.1851 100.258 25.502C99.59 25.8189 98.8298 25.9773 97.9773 25.9773ZM97.9986 16.99C97.3308 16.99 96.7411 17.1844 96.2296 17.5733C95.7181 17.9478 95.3912 18.5239 95.2492 19.3016H100.514C100.471 18.5959 100.215 18.0342 99.7463 17.6165C99.2774 17.1988 98.6948 16.99 97.9986 16.99Z" fill="#4C6379"/>
<path d="M115.346 25.9773C113.84 25.9773 112.547 25.6532 111.467 25.0051C110.387 24.3426 109.556 23.428 108.974 22.2614C108.391 21.0804 108.1 19.7193 108.1 18.1782C108.1 16.6371 108.391 15.2761 108.974 14.095C109.556 12.914 110.387 11.9923 111.467 11.3297C112.547 10.6672 113.84 10.3359 115.346 10.3359C117.137 10.3359 118.6 10.7896 119.737 11.697C120.888 12.59 121.605 13.8502 121.89 15.4777H118.884C118.7 14.6568 118.302 14.0158 117.691 13.5549C117.094 13.0797 116.298 12.842 115.304 12.842C113.925 12.842 112.846 13.3173 112.064 14.2679C111.283 15.2185 110.892 16.5219 110.892 18.1782C110.892 19.8345 111.283 21.138 112.064 22.0886C112.846 23.0247 113.925 23.4928 115.304 23.4928C116.298 23.4928 117.094 23.2768 117.691 22.8447C118.302 22.3982 118.7 21.7861 118.884 21.0084H121.89C121.605 22.5638 120.888 23.7809 119.737 24.6594C118.6 25.538 117.137 25.9773 115.346 25.9773Z" fill="#4C6379"/>
<path d="M128.247 25.9773C127.224 25.9773 126.301 25.7396 125.477 25.2644C124.667 24.7891 124.02 24.1337 123.537 23.2984C123.068 22.4486 122.834 21.4692 122.834 20.3602C122.834 19.2512 123.075 18.279 123.559 17.4437C124.042 16.5939 124.688 15.9314 125.498 15.4561C126.322 14.9808 127.246 14.7432 128.269 14.7432C129.278 14.7432 130.187 14.9808 130.997 15.4561C131.821 15.9314 132.468 16.5939 132.936 17.4437C133.42 18.279 133.661 19.2512 133.661 20.3602C133.661 21.4692 133.42 22.4486 132.936 23.2984C132.468 24.1337 131.821 24.7891 130.997 25.2644C130.173 25.7396 129.256 25.9773 128.247 25.9773ZM128.247 23.5792C128.958 23.5792 129.576 23.3128 130.102 22.7799C130.627 22.2326 130.89 21.426 130.89 20.3602C130.89 19.2944 130.627 18.4951 130.102 17.9622C129.576 17.4149 128.965 17.1412 128.269 17.1412C127.544 17.1412 126.919 17.4149 126.393 17.9622C125.882 18.4951 125.626 19.2944 125.626 20.3602C125.626 21.426 125.882 22.2326 126.393 22.7799C126.919 23.3128 127.537 23.5792 128.247 23.5792Z" fill="#4C6379"/>
<path d="M135.035 25.718V15.0024H137.464L137.72 17.0116C138.104 16.3203 138.622 15.773 139.276 15.3697C139.944 14.952 140.725 14.7432 141.62 14.7432V17.6597H140.853C140.256 17.6597 139.724 17.7533 139.255 17.9406C138.786 18.1278 138.416 18.4519 138.146 18.9128C137.891 19.3736 137.763 20.0146 137.763 20.8355V25.718H135.035Z" fill="#4C6379"/>
<path d="M142.419 30.4709V15.0024H144.849L145.148 16.5363C145.489 16.061 145.936 15.6433 146.49 15.2833C147.059 14.9232 147.79 14.7432 148.686 14.7432C149.68 14.7432 150.568 14.988 151.35 15.4777C152.131 15.9674 152.749 16.6371 153.204 17.4869C153.659 18.3366 153.886 19.3016 153.886 20.3818C153.886 21.462 153.659 22.427 153.204 23.2768C152.749 24.1121 152.131 24.7747 151.35 25.2644C150.568 25.7396 149.68 25.9773 148.686 25.9773C147.89 25.9773 147.194 25.8261 146.597 25.5236C146 25.2211 145.517 24.7963 145.148 24.249V30.4709H142.419ZM148.11 23.5576C148.977 23.5576 149.694 23.2624 150.263 22.6719C150.831 22.0814 151.115 21.318 151.115 20.3818C151.115 19.4457 150.831 18.6751 150.263 18.0702C149.694 17.4653 148.977 17.1628 148.11 17.1628C147.229 17.1628 146.504 17.4653 145.936 18.0702C145.382 18.6607 145.105 19.4241 145.105 20.3602C145.105 21.2964 145.382 22.067 145.936 22.6719C146.504 23.2624 147.229 23.5576 148.11 23.5576Z" fill="#4C6379"/>
</g>
</svg>
