<svg width="70" height="70" viewBox="0 0 70 70" fill="none" xmlns="http://www.w3.org/2000/svg">
<path d="M62.9467 13.6873C53.0755 14.136 39.7643 6.02217 34.3427 1.90918C19.9847 12.6777 10.7865 14.2482 7.98211 13.6873C-3.23515 47.7878 20.882 64.165 34.3427 68.091C65.751 55.5277 66.4988 26.5871 62.9467 13.6873Z" stroke="#D5FDB1"/>
<path d="M12.1819 18.9914C18.0149 20.7862 28.5467 13.8741 33.7815 9.76111C43.2039 18.2862 53.7856 20.0436 57.8987 19.8566C58.7961 48.5728 42.1944 58.3692 33.7815 59.6779C9.55219 50.2554 9.75152 28.3391 12.1819 18.9914Z" stroke="#D5FDB1"/>
<path d="M31.3814 26.0497L34.2068 22.9092L37.0323 26.0497L41.4274 25.1075V29.5042L46.1365 31.0745L43.3111 34.529L45.5086 38.9257L41.4274 40.496V44.5786L37.0323 43.6365L34.2068 47.091L31.3814 43.6365L26.9862 44.5786V40.496L22.5911 38.9257L24.7886 34.529L22.5911 31.0745L26.9862 29.5042V25.1075L31.3814 26.0497Z" stroke="#D5FDB1"/>
<path d="M29.4975 34.8433L32.323 37.9838L38.9157 31.7028" stroke="#D5FDB1"/>
</svg>
