<svg width="155" height="40" viewBox="0 0 155 40" fill="none" xmlns="http://www.w3.org/2000/svg">
<g opacity="0.7">
<path d="M42.2295 26.7025V10.6894H52.5501V13.4345H45.2569V17.2548H51.9079V19.9999H45.2569V23.9574H52.6877V26.7025H42.2295Z" fill="#4C6379"/>
<path d="M53.8736 31.2777V15.3561H56.7175V16.7286H57.1303C57.3903 16.2864 57.7954 15.8975 58.3459 15.562C58.8963 15.2112 59.6837 15.0358 60.7081 15.0358C61.6255 15.0358 62.4741 15.2646 63.2539 15.7221C64.0336 16.1644 64.6605 16.8201 65.1345 17.6894C65.6085 18.5587 65.8455 19.611 65.8455 20.8463V21.2123C65.8455 22.4476 65.6085 23.4999 65.1345 24.3692C64.6605 25.2384 64.0336 25.9018 63.2539 26.3594C62.4741 26.8016 61.6255 27.0228 60.7081 27.0228C60.0201 27.0228 59.4391 26.9389 58.9651 26.7711C58.5064 26.6186 58.1318 26.4204 57.8413 26.1763C57.5661 25.9171 57.3444 25.6578 57.1762 25.3986H56.7634V31.2777H53.8736ZM59.8366 24.5064C60.7387 24.5064 61.4803 24.2243 62.0613 23.66C62.6576 23.0805 62.9557 22.2417 62.9557 21.1437V20.9149C62.9557 19.8169 62.6576 18.9857 62.0613 18.4214C61.465 17.8419 60.7234 17.5522 59.8366 17.5522C58.9498 17.5522 58.2083 17.8419 57.612 18.4214C57.0157 18.9857 56.7175 19.8169 56.7175 20.9149V21.1437C56.7175 22.2417 57.0157 23.0805 57.612 23.66C58.2083 24.2243 58.9498 24.5064 59.8366 24.5064Z" fill="#4C6379"/>
<path d="M67.3522 26.7025V15.3561H70.2419V26.7025H67.3522ZM68.7971 14.0293C68.2772 14.0293 67.8338 13.8615 67.4668 13.526C67.1152 13.1905 66.9394 12.7482 66.9394 12.1992C66.9394 11.6502 67.1152 11.2079 67.4668 10.8724C67.8338 10.5369 68.2772 10.3691 68.7971 10.3691C69.3322 10.3691 69.7756 10.5369 70.1273 10.8724C70.4789 11.2079 70.6548 11.6502 70.6548 12.1992C70.6548 12.7482 70.4789 13.1905 70.1273 13.526C69.7756 13.8615 69.3322 14.0293 68.7971 14.0293Z" fill="#4C6379"/>
<path d="M77.6412 27.0228C76.5403 27.0228 75.5389 26.794 74.6368 26.3365C73.75 25.879 73.0466 25.2156 72.5268 24.3463C72.0069 23.477 71.747 22.4247 71.747 21.1894V20.8691C71.747 19.6339 72.0069 18.5816 72.5268 17.7123C73.0466 16.843 73.75 16.1796 74.6368 15.7221C75.5389 15.2646 76.5403 15.0358 77.6412 15.0358C78.7268 15.0358 79.6594 15.2264 80.4392 15.6077C81.219 15.989 81.8459 16.5151 82.3198 17.1861C82.8091 17.8419 83.1302 18.5892 83.2831 19.428L80.4851 20.0227C80.4239 19.5652 80.2863 19.1535 80.0723 18.7874C79.8582 18.4214 79.5524 18.1317 79.1549 17.9182C78.7726 17.7047 78.291 17.5979 77.71 17.5979C77.129 17.5979 76.6015 17.7275 76.1275 17.9868C75.6688 18.2308 75.3019 18.6044 75.0267 19.1077C74.7667 19.5957 74.6368 20.1981 74.6368 20.9149V21.1437C74.6368 21.8604 74.7667 22.4705 75.0267 22.9737C75.3019 23.4617 75.6688 23.8354 76.1275 24.0946C76.6015 24.3387 77.129 24.4607 77.71 24.4607C78.5815 24.4607 79.239 24.2395 79.6824 23.7973C80.1411 23.3397 80.4316 22.745 80.5539 22.0129L83.3519 22.6763C83.1531 23.4846 82.8091 24.2243 82.3198 24.8953C81.8459 25.5511 81.219 26.0696 80.4392 26.4509C79.6594 26.8321 78.7268 27.0228 77.6412 27.0228Z" fill="#4C6379"/>
<path d="M88.9236 26.8855C88.0368 26.8855 87.257 26.6872 86.5842 26.2907C85.9268 25.879 85.4146 25.3147 85.0476 24.5979C84.6807 23.8811 84.4972 23.0576 84.4972 22.1273V15.3561H87.387V21.8986C87.387 22.7526 87.5934 23.3931 88.0062 23.8201C88.4343 24.2471 89.0382 24.4607 89.818 24.4607C90.7048 24.4607 91.3929 24.1709 91.8821 23.5914C92.3714 22.9966 92.616 22.1731 92.616 21.1208V15.3561H95.5058V26.7025H92.6619V25.2156H92.2491C92.0656 25.5968 91.7216 25.9705 91.217 26.3365C90.7125 26.7025 89.948 26.8855 88.9236 26.8855Z" fill="#4C6379"/>
<path d="M97.5747 26.7025V15.3561H100.419V16.6371H100.831C101 16.1796 101.275 15.8441 101.657 15.6306C102.055 15.4171 102.513 15.3103 103.033 15.3103H104.409V17.8724H102.987C102.253 17.8724 101.649 18.0707 101.175 18.4672C100.701 18.8485 100.464 19.4432 100.464 20.2515V26.7025H97.5747Z" fill="#4C6379"/>
<path d="M105.521 26.7025V15.3561H108.411V26.7025H105.521ZM106.966 14.0293C106.446 14.0293 106.003 13.8615 105.636 13.526C105.284 13.1905 105.108 12.7482 105.108 12.1992C105.108 11.6502 105.284 11.2079 105.636 10.8724C106.003 10.5369 106.446 10.3691 106.966 10.3691C107.501 10.3691 107.945 10.5369 108.296 10.8724C108.648 11.2079 108.824 11.6502 108.824 12.1992C108.824 12.7482 108.648 13.1905 108.296 13.526C107.945 13.8615 107.501 14.0293 106.966 14.0293Z" fill="#4C6379"/>
<path d="M115.879 27.0228C114.748 27.0228 113.731 26.794 112.829 26.3365C111.927 25.879 111.216 25.2156 110.696 24.3463C110.176 23.477 109.916 22.4323 109.916 21.2123V20.8463C109.916 19.6262 110.176 18.5816 110.696 17.7123C111.216 16.843 111.927 16.1796 112.829 15.7221C113.731 15.2646 114.748 15.0358 115.879 15.0358C117.01 15.0358 118.027 15.2646 118.929 15.7221C119.831 16.1796 120.542 16.843 121.062 17.7123C121.582 18.5816 121.842 19.6262 121.842 20.8463V21.2123C121.842 22.4323 121.582 23.477 121.062 24.3463C120.542 25.2156 119.831 25.879 118.929 26.3365C118.027 26.794 117.01 27.0228 115.879 27.0228ZM115.879 24.4607C116.766 24.4607 117.5 24.1785 118.081 23.6143C118.662 23.0347 118.952 22.2112 118.952 21.1437V20.9149C118.952 19.8474 118.662 19.0315 118.081 18.4672C117.515 17.8877 116.781 17.5979 115.879 17.5979C114.992 17.5979 114.258 17.8877 113.677 18.4672C113.096 19.0315 112.806 19.8474 112.806 20.9149V21.1437C112.806 22.2112 113.096 23.0347 113.677 23.6143C114.258 24.1785 114.992 24.4607 115.879 24.4607Z" fill="#4C6379"/>
<path d="M127.697 26.8855C126.811 26.8855 126.031 26.6872 125.358 26.2907C124.701 25.879 124.188 25.3147 123.821 24.5979C123.454 23.8811 123.271 23.0576 123.271 22.1273V15.3561H126.161V21.8986C126.161 22.7526 126.367 23.3931 126.78 23.8201C127.208 24.2471 127.812 24.4607 128.592 24.4607C129.479 24.4607 130.167 24.1709 130.656 23.5914C131.145 22.9966 131.39 22.1731 131.39 21.1208V15.3561H134.28V26.7025H131.436V25.2156H131.023C130.839 25.5968 130.495 25.9705 129.991 26.3365C129.486 26.7025 128.722 26.8855 127.697 26.8855Z" fill="#4C6379"/>
<path d="M141.073 27.0228C139.59 27.0228 138.374 26.7025 137.426 26.062C136.478 25.4214 135.905 24.5064 135.706 23.3169L138.367 22.6306C138.474 23.1644 138.65 23.5837 138.894 23.8888C139.154 24.1938 139.468 24.4149 139.835 24.5522C140.217 24.6742 140.63 24.7352 141.073 24.7352C141.746 24.7352 142.243 24.6208 142.564 24.392C142.885 24.148 143.045 23.8506 143.045 23.4999C143.045 23.1491 142.893 22.8822 142.587 22.6992C142.281 22.501 141.792 22.3408 141.119 22.2188L140.477 22.1044C139.682 21.9519 138.955 21.7461 138.298 21.4868C137.64 21.2123 137.113 20.8387 136.715 20.3659C136.318 19.8931 136.119 19.2831 136.119 18.5358C136.119 17.4073 136.532 16.5456 137.358 15.9508C138.183 15.3408 139.269 15.0358 140.614 15.0358C141.883 15.0358 142.938 15.3179 143.779 15.8822C144.62 16.4465 145.171 17.1861 145.431 18.1012L142.747 18.9247C142.625 18.3452 142.373 17.9334 141.99 17.6894C141.623 17.4454 141.165 17.3234 140.614 17.3234C140.064 17.3234 139.643 17.4225 139.353 17.6208C139.062 17.8038 138.917 18.063 138.917 18.3986C138.917 18.7646 139.07 19.0391 139.376 19.2221C139.682 19.3898 140.095 19.5195 140.614 19.611L141.257 19.7254C142.113 19.8779 142.885 20.0837 143.573 20.343C144.276 20.587 144.827 20.9454 145.224 21.4182C145.637 21.8757 145.843 22.501 145.843 23.294C145.843 24.4835 145.408 25.4062 144.536 26.062C143.68 26.7025 142.526 27.0228 141.073 27.0228Z" fill="#4C6379"/>
</g>
<path d="M9.32324 30.7787C13.5165 30.7787 16.9158 27.3881 16.9158 23.2056C16.9158 19.023 13.5165 15.6324 9.32324 15.6324V20.9336C10.5812 20.9336 11.601 21.9508 11.601 23.2056C11.601 24.4603 10.5812 25.4775 9.32324 25.4775V30.7787Z" fill="#726BEA"/>
<path d="M34.6315 18.1551C33.3341 17.7451 31.9524 17.5239 30.5188 17.5239C23.0059 17.5239 16.9155 23.5988 16.9155 31.0924C16.9155 31.8446 16.9769 32.5825 17.0949 33.3013H25.547C25.2453 32.6266 25.0776 31.8791 25.0776 31.0924C25.0776 28.095 27.5137 25.665 30.5188 25.665C32.1613 25.665 33.6338 26.3909 34.6315 27.5386V18.1551Z" fill="#A5B4FC"/>
<path d="M10.6577 8.05908C11.2872 13.7389 16.1149 18.1566 21.9771 18.1566C27.8392 18.1566 32.6669 13.7389 33.2964 8.05908H25.1517C24.6489 9.31636 23.4169 10.2048 21.9771 10.2048C20.5371 10.2048 19.3053 9.31636 18.8024 8.05908H10.6577Z" fill="#4F46E5"/>
</svg>
