<svg width="70" height="70" viewBox="0 0 70 70" fill="none" xmlns="http://www.w3.org/2000/svg">
<path d="M43.5 54.5L48.0277 52.5703L51.9166 55.9211L58.5832 48.1026L55.2499 45.3103L58.5832 36.9333L63.5832 35.2579V26.3224H58.5832L55.2499 17.3869L58.5832 12.3607L51.9166 6.77606L48.0277 9.56839L39.6944 6.77606V1.74986L29.6944 1.74986V6.77606L20.8055 9.56839L16.3611 6.77606L9.69443 14.0361L13.5833 17.3869L9.69443 26.3224H5.25L5.25 36.9333H9.69443L13.5833 45.3103L9.69443 49.778L16.3611 55.9211L20.8055 52.5703L24 53.5" stroke="#D5FDB1" stroke-linejoin="round"/>
<path d="M23.625 66.5001C32.3143 66.5 36.2483 66.4126 43.75 66.5001" stroke="#D5FDB1"/>
<path d="M51.1297 25.5855L51.1301 25.5863C56.0035 35.3842 51.3119 46.0665 43.7846 51.1428L43.5641 51.2915V51.5574V53.2937V53.3029L43.5645 53.3122C43.5758 53.619 43.4781 55.8151 43.3741 57.9827C43.3226 59.0558 43.2703 60.108 43.2309 60.8921C43.2144 61.2202 43.2002 61.5013 43.1892 61.7173H43.1885H43.1835H43.1785H43.1735H43.1685H43.1634H43.1584H43.1533H43.1482H43.143H43.1379H43.1327H43.1275H43.1223H43.1171H43.1118H43.1066H43.1013H43.096H43.0906H43.0853H43.0799H43.0745H43.0691H43.0637H43.0582H43.0528H43.0473H43.0418H43.0362H43.0307H43.0251H43.0196H43.014H43.0083H43.0027H42.997H42.9914H42.9857H42.98H42.9742H42.9685H42.9627H42.9569H42.9511H42.9453H42.9395H42.9336H42.9278H42.9219H42.916H42.91H42.9041H42.8981H42.8922H42.8862H42.8801H42.8741H42.8681H42.862H42.8559H42.8498H42.8437H42.8376H42.8315H42.8253H42.8191H42.8129H42.8067H42.8005H42.7942H42.788H42.7817H42.7754H42.7691H42.7628H42.7565H42.7501H42.7437H42.7374H42.731H42.7245H42.7181H42.7117H42.7052H42.6987H42.6923H42.6858H42.6792H42.6727H42.6662H42.6596H42.653H42.6464H42.6398H42.6332H42.6266H42.6199H42.6133H42.6066H42.5999H42.5932H42.5865H42.5798H42.573H42.5663H42.5595H42.5527H42.5459H42.5391H42.5323H42.5255H42.5186H42.5118H42.5049H42.498H42.4911H42.4842H42.4773H42.4703H42.4634H42.4564H42.4495H42.4425H42.4355H42.4285H42.4215H42.4144H42.4074H42.4003H42.3933H42.3862H42.3791H42.372H42.3649H42.3578H42.3507H42.3435H42.3364H42.3292H42.322H42.3148H42.3076H42.3004H42.2932H42.286H42.2787H42.2715H42.2642H42.257H42.2497H42.2424H42.2351H42.2278H42.2205H42.2131H42.2058H42.1984H42.1911H42.1837H42.1763H42.169H42.1616H42.1542H42.1468H42.1393H42.1319H42.1245H42.117H42.1096H42.1021H42.0946H42.0871H42.0797H42.0722H42.0647H42.0571H42.0496H42.0421H42.0346H42.027H42.0195H42.0119H42.0043H41.9968H41.9892H41.9816H41.974H41.9664H41.9588H41.9512H41.9435H41.9359H41.9283H41.9206H41.913H41.9053H41.8976H41.89H41.8823H41.8746H41.8669H41.8592H41.8515H41.8438H41.8361H41.8284H41.8206H41.8129H41.8052H41.7974H41.7897H41.7819H41.7742H41.7664H41.7586H41.7509H41.7431H41.7353H41.7275H41.7197H41.7119H41.7041H41.6963H41.6885H41.6807H41.6728H41.665H41.6572H41.6494H41.6415H41.6337H41.6258H41.618H41.6101H41.6023H41.5944H41.5865H41.5787H41.5708H41.5629H41.5551H41.5472H41.5393H41.5314H41.5235H41.5156H41.5077H41.4998H41.4919H41.484H41.4761H41.4682H41.4603H41.4524H41.4445H41.4366H41.4286H41.4207H41.4128H41.4049H41.397H41.389H41.3811H41.3732H41.3652H41.3573H41.3494H41.3414H41.3335H41.3256H41.3176H41.3097H41.3017H41.2938H41.2859H41.2779H41.27H41.262H41.2541H41.2461H41.2382H41.2303H41.2223H41.2144H41.2064H41.1985H41.1905H41.1826H41.1746H41.1667H41.1588H41.1508H41.1429H41.1349H41.127H41.1191H41.1111H41.1032H41.0953H41.0873H41.0794H41.0715H41.0635H41.0556H41.0477H41.0397H41.0318H41.0239H41.016H41.0081H41.0002H40.9922H40.9843H40.9764H40.9685H40.9606H40.9527H40.9448H40.9369H40.929H40.9211H40.9132H40.9054H40.8975H40.8896H40.8817H40.8738H40.866H40.8581H40.8502H40.8424H40.8345H40.8267H40.8188H34.4164H29.75H28.014H28.0087H28.0035H27.9981H27.9927H27.9872H27.9817H27.9761H27.9705H27.9648H27.9591H27.9533H27.9474H27.9415H27.9356H27.9296H27.9235H27.9174H27.9112H27.905H27.8988H27.8924H27.8861H27.8796H27.8732H27.8666H27.8601H27.8534H27.8468H27.84H27.8332H27.8264H27.8195H27.8126H27.8057H27.7986H27.7916H27.7845H27.7773H27.7701H27.7628H27.7555H27.7482H27.7408H27.7333H27.7259H27.7183H27.7108H27.7031H27.6955H27.6878H27.68H27.6722H27.6644H27.6565H27.6486H27.6406H27.6326H27.6245H27.6164H27.6083H27.6001H27.5919H27.5836H27.5753H27.567H27.5586H27.5502H27.5417H27.5333H27.5247H27.5161H27.5075H27.4989H27.4902H27.4815H27.4727H27.4639H27.4551H27.4462H27.4373H27.4283H27.4193H27.4103H27.4013H27.3922H27.3831H27.3739H27.3647H27.3555H27.3462H27.3369H27.3276H27.3182H27.3089H27.2994H27.29H27.2805H27.271H27.2614H27.2518H27.2422H27.2326H27.2229H27.2132H27.2035H27.1937H27.1839H27.1741H27.1642H27.1544H27.1445H27.1345H27.1246H27.1146H27.1046H27.0945H27.0845H27.0744H27.0642H27.0541H27.0439H27.0337H27.0235H27.0133H27.003H26.9927H26.9824H26.972H26.9617H26.9513H26.9409H26.9304H26.92H26.9095H26.899H26.8885H26.8779H26.8673H26.8568H26.8462H26.8355H26.8249H26.8142H26.8035H26.7928H26.7821H26.7713H26.7606H26.7498H26.739H26.7282H26.7174H26.7065H26.6956H26.6848H26.6739H26.6629H26.652H26.6411H26.6301H26.6191H26.6081H26.5971H26.5861H26.5751H26.564H26.553H26.5419H26.5308H26.5197H26.5086H26.4975H26.4863H26.4752H26.464H26.4528H26.4417H26.4305H26.4193H26.408H26.3968H26.3856H26.3744H26.3631H26.3518H26.3406H26.3293H26.318H26.3067H26.2954H26.2841H26.2728H26.2615H26.2502H26.2388H26.2275H26.2161H26.2048H26.1934H26.1821H26.1707H26.1594H26.148H26.1366H26.1252H26.1138H26.1025H26.0911H26.0797H26.0683H26.0569H26.0455H26.0341H26.0227H26.0113H25.9999H25.9885H25.9771H25.9657H25.9543H25.9429H25.9315H25.9201H25.9087H25.8973H25.8859H25.8746H25.8632H25.8518H25.8404H25.829H25.8177H25.8063H25.7949H25.7836H25.7722H25.7609H25.7495H25.7382H25.7268H25.7155H25.7042H25.6929H25.6816H25.6703H25.659H25.6477H25.6364H25.6251H25.6139H25.6026H25.5914H25.5801H25.5689H25.5577H25.5465H25.5353H25.5241H25.5129H25.5017H25.4906H25.4795H25.4683H25.4572H25.4461H25.435H25.4239H25.4129H25.4018H25.3908H25.3797H25.3687H25.3577H25.3467H25.3358H25.3248H25.3139H25.3029H25.292H25.2811H25.2703H25.2594H25.2486H25.2378H25.2269H25.2162H25.2054H25.1946H25.1839H25.1732H25.1625H25.1518H25.1412H25.1305H25.1199H25.1093H25.0987H25.0882H25.0776H25.0671H25.0566H25.0462H25.0357H25.0253H25.0149H25.0045H24.9942H24.9838H24.9735H24.9633H24.953H24.9428H24.9326H24.9224H24.9122H24.9021H24.892H24.8819H24.8718H24.8618H24.8518H24.8418H24.8319H24.822H24.8121H24.8022H24.7924H24.7826H24.7728H24.7631H24.7533H24.7437H24.734H24.7244H24.7148H24.7052H24.6957H24.6862H24.6767H24.6673H24.6579H24.6485H24.6392H24.6298H24.6206H24.6113H24.6021H24.593H24.5838H24.5747H24.5656H24.5566H24.5476H24.5386H24.5297H24.5208H24.512H24.5031H24.4944H24.4856H24.4769H24.4682H24.4596H24.451H24.4425H24.434H24.4255H24.417H24.4086H24.4003H24.392H24.3837H24.3755H24.3673H24.3591H24.351H24.3429H24.3349H24.3269H24.319H24.3111H24.3032H24.2954H24.2876H24.2799H24.2722H24.2646H24.257H24.2494H24.2419H24.2344H24.227H24.225C24.2164 61.5136 24.2055 61.2528 24.1929 60.9503C24.1616 60.1984 24.1201 59.1887 24.0795 58.1575C23.9974 56.0764 23.9208 53.9565 23.9323 53.634L23.9326 53.6251V53.6161V51.5574V51.2908L23.7112 51.1422C18.03 47.3293 14.2864 40.7548 14.2864 34.5165C14.2864 28.5899 16.9213 23.0542 21.5621 19.355L21.5621 19.355L21.5643 19.3532C26.1804 15.6302 32.224 14.2259 38.1287 15.5331L38.1298 15.5333C43.7632 16.7667 48.6198 20.516 51.1297 25.5855ZM34.0665 33.2724L35.7442 30.3503L35.7448 30.3493C36.3778 29.2412 35.9962 27.7976 34.8683 27.1394L34.8683 27.1394L34.8644 27.1371C33.7564 26.5038 32.313 26.8857 31.655 28.0139L31.6535 28.0165L29.0002 32.6302L28.9988 32.6325C28.3086 33.8476 28.226 35.1804 28.8769 36.3049L28.8768 36.3049L28.8798 36.3099C29.528 37.4004 30.7215 38.0179 32.1117 38.0179H33.3311L31.6533 40.94L31.6528 40.941C31.0214 42.0463 31.3994 43.4855 32.5208 44.1459C32.888 44.3772 33.3053 44.4671 33.6988 44.4671C34.5234 44.4671 35.3068 44.0236 35.7425 43.2764L35.7441 43.2738L38.3962 38.6621C38.3964 38.6618 38.3966 38.6616 38.3967 38.6613C39.0907 37.4667 39.1705 36.1081 38.5207 34.9854L38.5207 34.9854L38.5177 34.9804C37.8696 33.89 36.6761 33.2724 35.2858 33.2724H34.0665Z" stroke="#D5FDB1"/>
</svg>
