<svg xmlns="http://www.w3.org/2000/svg" width="302" height="240" fill="none"><path fill="#F8F8F8" d="M0 0h302v240H0z"/><mask id="a" width="302" height="240" x="0" y="0" maskUnits="userSpaceOnUse" style="mask-type:alpha"><path fill="#fff" d="M0 0h302v240H0z"/></mask><g stroke="#000" stroke-opacity=".04" mask="url(#a)"><path d="M309.995 18c-55.305 18.167-132.532 84.6 1.002 205"/><path d="M310.997 21C265.216 36.5 201.323 93.8 312 199"/><path d="M312 24c-37.761 17.667-90.627 72.8 0 152"/><path d="M312 28c-28.405 14.333-68.171 59.6 0 126"/><path d="M312 34c-19.716 12.5-47.318 49.8 0 99"/></g><rect width="242" height="33" x="30" y="177" fill="#D5FDB1" rx="16.5"/><path fill="#000" d="M51.867 198.165q-.907 0-1.606-.374a2.74 2.74 0 0 1-1.09-1.056q-.395-.682-.395-1.595v-5.055l.814-.005v4.955q0 .617.209 1.067.209.446.544.737.342.286.743.424t.78.137q.387 0 .787-.137.402-.138.737-.424.335-.291.545-.737.21-.45.209-1.067v-4.955h.814v5.06q0 .913-.396 1.595a2.8 2.8 0 0 1-1.095 1.056q-.693.374-1.6.374m7.3 0q-.819 0-1.386-.413a2.6 2.6 0 0 1-.858-1.127 4.2 4.2 0 0 1-.291-1.601q0-.901.291-1.606a2.53 2.53 0 0 1 .869-1.116q.571-.407 1.408-.407.814 0 1.397.412t.891 1.122q.313.71.313 1.595 0 .891-.313 1.601a2.67 2.67 0 0 1-.902 1.127q-.588.414-1.419.413m-2.673 2.475v-8.58h.726v4.471h.088v4.109zm2.59-3.229q.623 0 1.034-.313a1.87 1.87 0 0 0 .616-.853q.21-.545.21-1.221 0-.67-.204-1.21a1.86 1.86 0 0 0-.622-.852q-.412-.314-1.05-.314-.621 0-1.034.303a1.8 1.8 0 0 0-.61.841 3.5 3.5 0 0 0-.204 1.232q0 .688.203 1.232.204.54.616.847.414.308 1.045.308m6.285 3.394q-.457 0-.902-.137a2.5 2.5 0 0 1-.814-.424 2.3 2.3 0 0 1-.627-.748l.731-.407q.247.495.693.71.45.22.919.22.643 0 1.04-.242.4-.237.582-.704.182-.468.176-1.167v-1.584h.094v-4.262h.72v5.857a7 7 0 0 1-.066.947q-.105.665-.434 1.094a1.93 1.93 0 0 1-.858.638q-.528.209-1.254.209m-.055-2.64q-.83 0-1.42-.413a2.67 2.67 0 0 1-.901-1.127 3.9 3.9 0 0 1-.314-1.601q0-.885.308-1.595.314-.71.897-1.122.582-.412 1.397-.412.835 0 1.408.407.572.406.863 1.116.297.705.297 1.606 0 .886-.291 1.601-.292.71-.858 1.127-.567.414-1.386.413m.082-.754q.633 0 1.045-.308a1.83 1.83 0 0 0 .616-.847 3.5 3.5 0 0 0 .204-1.232q0-.698-.204-1.232a1.8 1.8 0 0 0-.616-.841q-.407-.303-1.028-.303-.639 0-1.056.314a1.85 1.85 0 0 0-.622.852q-.198.54-.198 1.21 0 .676.204 1.221.21.54.621.853.413.313 1.034.313m4.123.589v-5.94h.726v1.43l-.143-.187q.099-.264.258-.484.16-.225.347-.369.231-.203.539-.308.308-.11.622-.126.314-.022.572.044v.759a2 2 0 0 0-.71-.039q-.385.045-.71.308a1.5 1.5 0 0 0-.445.556q-.148.32-.198.682-.05.358-.05.709V198zm5.438.165q-.67 0-1.128-.242a1.64 1.64 0 0 1-.676-.644 1.75 1.75 0 0 1-.226-.874q0-.485.193-.825.198-.347.533-.567.342-.22.787-.335.45-.11.995-.193.55-.087 1.073-.148.528-.066.924-.127l-.286.176q.016-.88-.341-1.303t-1.243-.424q-.61 0-1.034.275-.418.276-.589.869l-.786-.231q.203-.797.82-1.237.615-.44 1.6-.44.815 0 1.38.308.572.303.809.88.109.259.143.577.033.32.033.649V198h-.72v-1.491l.208.088q-.302.765-.94 1.166-.638.402-1.53.402m.093-.699q.567 0 .99-.203a1.79 1.79 0 0 0 1.018-1.359q.066-.285.071-.627.006-.346.006-.517l.308.16a47 47 0 0 1-.897.11q-.478.056-.946.126a8 8 0 0 0-.836.171 2.3 2.3 0 0 0-.49.203 1.14 1.14 0 0 0-.39.341.9.9 0 0 0-.148.534q0 .258.126.5.132.243.418.402.292.159.77.159m6.624.699q-.831 0-1.419-.413a2.67 2.67 0 0 1-.902-1.127 3.9 3.9 0 0 1-.313-1.601q0-.885.308-1.595.313-.71.896-1.122t1.397-.412q.836 0 1.408.407t.864 1.116q.297.705.297 1.606 0 .886-.292 1.601-.291.71-.858 1.127-.567.414-1.386.413m.083-.754q.632 0 1.045-.308a1.83 1.83 0 0 0 .616-.847q.203-.544.203-1.232 0-.698-.203-1.232a1.8 1.8 0 0 0-.616-.841q-.408-.303-1.029-.303-.638 0-1.056.314a1.86 1.86 0 0 0-.621.852q-.198.54-.198 1.21 0 .676.203 1.221.21.54.622.853t1.034.313m1.864.589v-4.472h-.088v-3.448h.814V198zm4.783.165q-.87 0-1.507-.385a2.6 2.6 0 0 1-.985-1.084q-.352-.698-.352-1.639 0-.974.347-1.683.346-.709.973-1.094.633-.385 1.49-.385.88 0 1.502.407.622.402.94 1.155.32.754.292 1.798h-.825v-.285q-.021-1.156-.5-1.744-.474-.589-1.386-.589-.957 0-1.469.622-.506.621-.506 1.771 0 1.122.506 1.743.511.616 1.447.616.638 0 1.11-.291.479-.297.754-.853l.754.292a2.7 2.7 0 0 1-1.04 1.204q-.682.424-1.545.424m-2.272-2.91v-.676h4.538v.676zM98.817 198v-3.03q0-.496-.094-.908a2.1 2.1 0 0 0-.302-.726 1.4 1.4 0 0 0-.534-.484q-.324-.171-.792-.171-.429 0-.759.149-.324.148-.55.429a1.9 1.9 0 0 0-.335.671 3.2 3.2 0 0 0-.116.902l-.572-.127q0-.913.32-1.534.318-.621.88-.941a2.56 2.56 0 0 1 1.286-.318q.534 0 .93.164.401.165.676.446.281.28.451.643.171.359.248.765.077.401.077.803V198zm-4.296 0v-5.94h.732v1.463h.082V198zm8.985.165q-.885 0-1.512-.402a2.6 2.6 0 0 1-.963-1.111q-.335-.709-.335-1.628 0-.934.341-1.639.34-.704.968-1.094.633-.396 1.501-.396.891 0 1.518.401.633.396.963 1.106.335.704.335 1.622 0 .936-.335 1.645a2.57 2.57 0 0 1-.968 1.1q-.633.396-1.513.396m0-.776q.99 0 1.474-.654.484-.66.484-1.711 0-1.077-.489-1.716-.484-.638-1.469-.638-.665 0-1.1.303-.429.297-.643.83a3.3 3.3 0 0 0-.209 1.221q0 1.072.495 1.722.495.643 1.457.643m5.08.611-1.815-5.946.808.006 1.408 4.614 1.414-4.614h.737l1.413 4.614 1.419-4.614h.803l-1.815 5.94h-.704l-1.485-4.73-1.479 4.73z"/><path stroke="#000" stroke-linecap="round" stroke-linejoin="round" d="m247 198 3-3.5-3-3.5"/><path fill="#000" d="M35.616 48.24q-1.32 0-2.336-.544a4 4 0 0 1-1.584-1.536q-.576-.992-.576-2.32v-7.352l1.184-.008v7.208q0 .896.304 1.552.304.648.792 1.072.495.416 1.08.616.584.2 1.136.2a3.5 3.5 0 0 0 1.144-.2 3.3 3.3 0 0 0 1.072-.616q.488-.424.792-1.072.304-.656.304-1.552V36.48h1.184v7.36q0 1.328-.576 2.32a4.05 4.05 0 0 1-1.592 1.536q-1.008.544-2.328.544M48.594 48v-4.408q0-.72-.136-1.32a3 3 0 0 0-.44-1.056 2 2 0 0 0-.776-.704q-.471-.248-1.152-.248-.624 0-1.104.216a2.2 2.2 0 0 0-.8.624 2.8 2.8 0 0 0-.488.976 4.7 4.7 0 0 0-.168 1.312l-.832-.184q0-1.328.464-2.232.465-.904 1.28-1.368.816-.465 1.872-.464.776 0 1.352.24.585.24.984.648.408.408.656.936.249.52.36 1.112.112.585.112 1.168V48zm-6.248 0v-8.64h1.064v2.128h.12V48zm9.668 0V36.24h1.176V48zm7.183.24q-1.288 0-2.2-.584a3.8 3.8 0 0 1-1.4-1.616q-.489-1.032-.488-2.368 0-1.36.496-2.384.495-1.024 1.408-1.592.92-.576 2.184-.576 1.296 0 2.208.584.92.576 1.4 1.608.488 1.025.488 2.36 0 1.36-.488 2.392a3.74 3.74 0 0 1-1.408 1.6q-.92.576-2.2.576m0-1.128q1.44 0 2.144-.952.704-.96.704-2.488 0-1.567-.712-2.496-.705-.928-2.136-.928-.969 0-1.6.44-.624.431-.936 1.208-.304.768-.304 1.776 0 1.56.72 2.504.72.936 2.12.936m9.444 1.128q-1.303 0-2.208-.584a3.7 3.7 0 0 1-1.376-1.608q-.463-1.032-.48-2.368.017-1.36.496-2.384.48-1.032 1.385-1.6.903-.576 2.192-.576 1.311 0 2.28.64a3.23 3.23 0 0 1 1.335 1.752l-1.151.368a2.43 2.43 0 0 0-.969-1.2 2.67 2.67 0 0 0-1.504-.432q-.951 0-1.576.44-.623.431-.927 1.208t-.312 1.784q.015 1.552.72 2.496.703.936 2.095.936.88 0 1.496-.4.624-.408.945-1.184l1.184.352q-.48 1.152-1.409 1.76-.927.6-2.216.6M73.91 48l.008-11.52H75.1v7.04l3.856-4.16h1.568l-4.048 4.32L81.053 48H79.34l-4.24-4.16V48zm15.028.24q-1.191 0-2.016-.6-.824-.608-1.248-1.64-.424-1.04-.424-2.328 0-1.312.425-2.336.431-1.032 1.263-1.624.833-.592 2.049-.592 1.183 0 2.031.6t1.297 1.632q.456 1.032.456 2.32 0 1.296-.456 2.328-.457 1.032-1.312 1.64-.857.6-2.064.6m-3.888 3.6V39.36h1.056v6.504h.129v5.976zm3.768-4.696q.905 0 1.505-.456t.895-1.24q.305-.792.305-1.776 0-.975-.297-1.76-.296-.784-.903-1.24-.6-.456-1.529-.456-.904 0-1.504.44-.591.44-.888 1.224-.295.776-.295 1.792 0 1 .296 1.792.295.784.895 1.232t1.52.448m5.71.856v-8.64h1.055v2.08l-.208-.272q.144-.384.376-.704.232-.328.504-.536a2.3 2.3 0 0 1 .784-.448q.448-.16.904-.184.457-.032.832.064v1.104a2.9 2.9 0 0 0-1.032-.056 1.97 1.97 0 0 0-1.032.448 2.15 2.15 0 0 0-.648.808q-.216.465-.288.992-.072.52-.072 1.032V48zm9.265.24q-1.265 0-2.192-.56a3.8 3.8 0 0 1-1.432-1.576q-.513-1.016-.512-2.384 0-1.416.504-2.448t1.416-1.592q.92-.56 2.168-.56 1.28 0 2.184.592.903.585 1.368 1.68.463 1.096.424 2.616h-1.2v-.416q-.032-1.68-.728-2.536-.689-.855-2.016-.856-1.392 0-2.136.904-.736.904-.736 2.576 0 1.632.736 2.536.744.896 2.104.896.927 0 1.616-.424.696-.432 1.096-1.24l1.096.424q-.513 1.128-1.512 1.752-.993.615-2.248.616m-3.304-4.232v-.984h6.6v.984zM119.565 48l.008-5.672q0-1-.56-1.568-.552-.576-1.408-.576-.489 0-.952.224-.465.225-.768.72-.296.496-.296 1.296l-.696-.2q-.024-.928.36-1.624a2.8 2.8 0 0 1 1.072-1.08 3.1 3.1 0 0 1 1.552-.392q1.303 0 2.088.808.784.8.784 2.168L120.741 48zm-10.312 0v-8.64h1.056v2.128h.128V48zm5.168 0 .008-5.592q0-1.032-.552-1.624-.545-.6-1.44-.6-.896 0-1.448.616-.552.608-.552 1.624l-.704-.384q0-.832.392-1.488.391-.665 1.072-1.04a3.1 3.1 0 0 1 1.544-.384q.824 0 1.464.352.647.352 1.016 1.024.368.672.368 1.632L115.581 48zm8.562-10.28V36.4h1.176v1.32zm0 10.28v-8.64h1.176V48zm6.879.216q-.777 0-1.36-.24a3 3 0 0 1-.984-.648 3.4 3.4 0 0 1-.648-.928 4.6 4.6 0 0 1-.36-1.112 6.3 6.3 0 0 1-.112-1.176V39.36h1.184v4.408q0 .713.136 1.32.135.608.432 1.064.303.448.776.696.48.248 1.16.248.624 0 1.096-.216.48-.216.8-.616.327-.408.496-.984.168-.585.168-1.312l.831.184q0 1.328-.463 2.232-.464.904-1.28 1.368t-1.872.464m2.904-.216v-2.128h-.12V39.36h1.176V48zm13.596 0 .008-5.672q0-1-.56-1.568-.553-.576-1.408-.576-.489 0-.952.224-.465.225-.768.72-.296.496-.296 1.296l-.696-.2q-.024-.928.36-1.624a2.8 2.8 0 0 1 1.072-1.08 3.1 3.1 0 0 1 1.552-.392q1.304 0 2.088.808.784.8.784 2.168L147.538 48zm-10.312 0v-8.64h1.056v2.128h.128V48zm5.168 0 .008-5.592q0-1.032-.552-1.624-.544-.6-1.44-.6-.897 0-1.448.616-.552.608-.552 1.624l-.704-.384q0-.832.392-1.488.391-.665 1.072-1.04a3.1 3.1 0 0 1 1.544-.384q.824 0 1.464.352.647.352 1.016 1.024.368.672.368 1.632L142.378 48zm12.461 0v-9.28q0-.336.032-.664.04-.328.152-.624.112-.305.352-.56.264-.288.576-.416.312-.136.648-.176a6 6 0 0 1 .672-.04h1.104v.992h-1.024q-.672 0-1.008.328-.328.329-.328 1.032V48zm-1.496-7.632V39.36h5.032v1.008zm9.656 7.872q-1.265 0-2.192-.56a3.8 3.8 0 0 1-1.432-1.576q-.512-1.016-.512-2.384 0-1.416.504-2.448t1.416-1.592q.92-.56 2.168-.56 1.28 0 2.184.592.903.585 1.368 1.68.463 1.096.424 2.616h-1.2v-.416q-.032-1.68-.728-2.536-.688-.855-2.016-.856-1.392 0-2.136.904-.736.904-.736 2.576 0 1.632.736 2.536.744.896 2.104.896.927 0 1.616-.424.696-.432 1.096-1.24l1.096.424q-.513 1.128-1.512 1.752-.993.615-2.248.616m-3.304-4.232v-.984h6.6v.984zm11.323 4.232q-.977 0-1.64-.352-.657-.352-.984-.936a2.55 2.55 0 0 1-.328-1.272q0-.705.28-1.2.287-.504.776-.824.495-.32 1.144-.488.656-.16 1.448-.28a36 36 0 0 1 1.56-.216 50 50 0 0 0 1.344-.184l-.416.256q.023-1.28-.496-1.896-.52-.615-1.808-.616-.889 0-1.504.4-.609.4-.856 1.264l-1.144-.336q.295-1.16 1.192-1.8.895-.64 2.328-.64 1.183 0 2.008.448.831.44 1.176 1.28.16.375.208.84t.048.944V48h-1.048v-2.168l.304.128q-.441 1.112-1.368 1.696-.928.584-2.224.584m.136-1.016q.823 0 1.44-.296.615-.296.992-.808.375-.52.488-1.168.096-.416.104-.912.008-.504.008-.752l.448.232q-.6.08-1.304.16a37 37 0 0 0-1.376.184q-.673.105-1.216.248-.369.104-.712.296-.345.184-.568.496-.216.312-.216.776 0 .375.184.728.191.353.608.584.424.232 1.12.232M180.98 48a5.8 5.8 0 0 1-1.44.12 3.2 3.2 0 0 1-1.264-.304 1.82 1.82 0 0 1-.84-.848 2.5 2.5 0 0 1-.256-.968 38 38 0 0 1-.016-1.128V36.96h1.168v7.864q0 .544.008.912.016.36.168.64.288.535.912.64.633.104 1.56-.048zm-5.664-7.632V39.36h5.664v1.008zm10.671 7.848q-.777 0-1.36-.24a3 3 0 0 1-.984-.648 3.4 3.4 0 0 1-.648-.928 4.6 4.6 0 0 1-.36-1.112 6.3 6.3 0 0 1-.112-1.176V39.36h1.184v4.408q0 .713.136 1.32.135.608.432 1.064.303.448.776.696.48.248 1.16.248.624 0 1.096-.216.48-.216.8-.616.327-.408.496-.984.168-.585.168-1.312l.831.184q0 1.328-.463 2.232-.464.904-1.28 1.368t-1.872.464m2.904-.216v-2.128h-.12V39.36h1.176V48zm3.292 0v-8.64h1.056v2.08l-.208-.272q.144-.384.376-.704a2.4 2.4 0 0 1 .504-.536q.336-.296.784-.448.448-.16.904-.184.456-.032.832.064v1.104a2.9 2.9 0 0 0-1.032-.056 1.96 1.96 0 0 0-1.032.448 2.15 2.15 0 0 0-.648.808q-.216.465-.288.992-.072.52-.072 1.032V48zm9.265.24q-1.264 0-2.192-.56a3.8 3.8 0 0 1-1.432-1.576q-.512-1.016-.512-2.384 0-1.416.504-2.448t1.416-1.592q.92-.56 2.168-.56 1.28 0 2.184.592.904.585 1.368 1.68.464 1.096.424 2.616h-1.2v-.416q-.032-1.68-.728-2.536-.689-.855-2.016-.856-1.392 0-2.136.904-.736.904-.736 2.576 0 1.632.736 2.536.744.896 2.104.896.928 0 1.616-.424.696-.432 1.096-1.24l1.096.424a3.9 3.9 0 0 1-1.512 1.752q-.992.615-2.248.616m-3.304-4.232v-.984h6.6v.984zm12.231 4.224q-1.52 0-2.504-.656a2.74 2.74 0 0 1-1.2-1.824l1.2-.2q.192.736.872 1.176.688.432 1.696.432.984 0 1.552-.408.568-.415.568-1.128 0-.4-.184-.648-.176-.255-.728-.472t-1.648-.512q-1.176-.32-1.84-.64-.663-.32-.944-.736-.28-.425-.28-1.032 0-.736.416-1.288.417-.56 1.152-.864.737-.312 1.712-.312.976 0 1.744.32.777.312 1.248.88.473.568.56 1.32l-1.2.216a1.73 1.73 0 0 0-.76-1.2q-.631-.448-1.608-.464-.92-.024-1.496.352-.576.368-.576.984 0 .345.208.592.209.24.752.456.552.216 1.568.472 1.192.304 1.872.64t.968.792.288 1.128q0 1.224-.912 1.928-.903.696-2.496.696"/><path fill="#666" d="M34.66 74.195q-.988 0-1.78-.344a3.8 3.8 0 0 1-1.353-.982 4.4 4.4 0 0 1-.844-1.534q-.293-.903-.293-2.015 0-1.47.507-2.561.513-1.098 1.469-1.703t2.294-.605q1.496 0 2.432.703.942.695 1.313 1.871l-.962.234a2.83 2.83 0 0 0-1.008-1.371q-.696-.513-1.736-.514-1.098-.007-1.826.495-.727.494-1.098 1.39-.365.891-.371 2.061t.358 2.06q.37.884 1.105 1.392.734.5 1.833.506 1.007 0 1.663-.39t.995-1.118q.345-.727.39-1.722H35.59v-.819h3.159q.02.15.02.319.006.162.006.233 0 1.268-.455 2.269a3.6 3.6 0 0 1-1.371 1.573q-.91.572-2.288.572m8.387 0q-1.028 0-1.781-.455a3.1 3.1 0 0 1-1.164-1.28q-.416-.826-.416-1.937 0-1.15.41-1.99.41-.838 1.15-1.293.747-.455 1.761-.455 1.04 0 1.775.481.734.474 1.112 1.365.376.89.344 2.126h-.975v-.339q-.026-1.364-.591-2.06-.56-.696-1.639-.696-1.13 0-1.735.735-.598.734-.598 2.093 0 1.325.598 2.06.605.728 1.71.728.753 0 1.313-.344a2.4 2.4 0 0 0 .89-1.007l.89.344a3.2 3.2 0 0 1-1.228 1.424 3.4 3.4 0 0 1-1.826.5m-2.685-3.438v-.8h5.362v.8zM51.502 74a4.7 4.7 0 0 1-1.17.097 2.6 2.6 0 0 1-1.026-.246 1.48 1.48 0 0 1-.683-.69 2 2 0 0 1-.208-.786 29 29 0 0 1-.013-.916V65.03h.949v6.39q0 .441.007.74.013.294.136.52.234.436.741.52.513.085 1.267-.038zM46.9 67.799v-.819h4.602v.819zm10.597 6.396q-.793 0-1.333-.286a1.94 1.94 0 0 1-.8-.76 2.1 2.1 0 0 1-.266-1.034q0-.572.228-.975.234-.41.63-.67.404-.26.93-.396a14 14 0 0 1 1.176-.227q.65-.104 1.268-.176.624-.078 1.092-.15l-.338.209q.019-1.04-.403-1.541t-1.47-.5q-.72 0-1.221.325-.495.325-.696 1.026l-.93-.273q.241-.942.97-1.462.727-.52 1.89-.52.963 0 1.632.364.676.357.956 1.04.13.305.169.683.039.376.039.766V74h-.852v-1.761l.247.103q-.358.904-1.111 1.379-.754.474-1.807.474m.11-.825q.67 0 1.17-.241.5-.24.806-.657a2.25 2.25 0 0 0 .397-.948 3.6 3.6 0 0 0 .084-.742q.007-.409.007-.61l.364.188q-.487.065-1.06.13-.566.064-1.118.15a10 10 0 0 0-.988.201 2.7 2.7 0 0 0-.578.24q-.28.15-.462.403-.175.255-.175.631 0 .305.15.592.155.285.493.474.345.189.91.189m8.017.825q-1.06 0-1.794-.474a3 3 0 0 1-1.118-1.307q-.378-.838-.39-1.924.013-1.105.403-1.937.39-.838 1.124-1.3.735-.468 1.781-.468 1.065 0 1.853.52.792.52 1.085 1.423l-.936.3a1.98 1.98 0 0 0-.786-.976 2.17 2.17 0 0 0-1.222-.35q-.774 0-1.28.357a2.1 2.1 0 0 0-.755.981q-.247.63-.253 1.45.012 1.26.585 2.028.572.76 1.703.76.715 0 1.215-.325.507-.33.767-.962l.962.287q-.39.935-1.144 1.43-.754.487-1.8.487m7.008 0q-1.06 0-1.794-.474a3 3 0 0 1-1.118-1.307q-.378-.838-.39-1.924.012-1.105.403-1.937.39-.838 1.124-1.3.734-.468 1.781-.468 1.065 0 1.853.52.792.52 1.085 1.423l-.936.3a1.98 1.98 0 0 0-.786-.976 2.17 2.17 0 0 0-1.222-.35q-.774 0-1.28.357a2.1 2.1 0 0 0-.755.981q-.248.63-.253 1.45.012 1.26.585 2.028.571.76 1.703.76.714 0 1.215-.325.507-.33.767-.962l.962.287q-.39.935-1.144 1.43-.754.487-1.8.487m7.066 0q-1.027 0-1.781-.455a3.1 3.1 0 0 1-1.164-1.28q-.416-.826-.416-1.937 0-1.15.41-1.99.41-.838 1.15-1.293.748-.455 1.762-.455 1.04 0 1.774.481.734.474 1.112 1.365.377.89.344 2.126h-.975v-.339q-.025-1.364-.591-2.06-.56-.696-1.638-.696-1.131 0-1.736.735-.597.734-.598 2.093 0 1.325.598 2.06.605.728 1.71.728.753 0 1.313-.344a2.4 2.4 0 0 0 .89-1.007l.89.344a3.2 3.2 0 0 1-1.228 1.424 3.4 3.4 0 0 1-1.826.5m-2.685-3.438v-.8h5.363v.8zm9.938 3.432q-1.234 0-2.034-.533a2.22 2.22 0 0 1-.975-1.483l.975-.162q.156.598.708.956.56.35 1.378.35.8 0 1.261-.331.462-.337.462-.916 0-.326-.15-.527-.143-.208-.591-.384a14 14 0 0 0-1.34-.416q-.955-.26-1.494-.52-.54-.26-.767-.597-.228-.345-.228-.839 0-.599.338-1.047a2.16 2.16 0 0 1 .936-.701q.599-.254 1.391-.254.793 0 1.417.26.63.253 1.014.715t.455 1.072l-.975.176a1.4 1.4 0 0 0-.617-.975q-.514-.364-1.307-.377-.747-.02-1.215.286-.468.3-.468.8 0 .279.169.48.169.195.61.371.45.176 1.275.383.969.247 1.52.52.554.274.787.644.234.37.234.916 0 .995-.74 1.567-.735.566-2.029.566m6.83 0q-1.234 0-2.034-.533a2.22 2.22 0 0 1-.975-1.483l.975-.162q.156.598.709.956.558.35 1.377.35.8 0 1.261-.331.462-.337.462-.916 0-.326-.15-.527-.143-.208-.591-.384a14 14 0 0 0-1.339-.416q-.955-.26-1.495-.52t-.767-.597q-.227-.345-.227-.839 0-.599.338-1.047a2.16 2.16 0 0 1 .935-.701q.6-.254 1.391-.254.794 0 1.418.26.63.253 1.013.715.384.462.456 1.072l-.975.176a1.4 1.4 0 0 0-.618-.975q-.514-.364-1.306-.377-.748-.02-1.216.286-.468.3-.468.8 0 .279.169.48.169.195.611.371.449.176 1.274.383.969.247 1.521.52.552.274.787.644t.234.916q0 .995-.742 1.567-.734.566-2.028.566M104.417 74a4.7 4.7 0 0 1-1.17.097 2.6 2.6 0 0 1-1.027-.246 1.5 1.5 0 0 1-.683-.69 2 2 0 0 1-.208-.786 28 28 0 0 1-.013-.916V65.03h.949v6.39q0 .441.007.74.013.294.136.52.234.436.741.52.513.085 1.268-.038zm-4.602-6.201v-.819h4.602v.819zm8.662 6.396q-1.046 0-1.787-.474a3.1 3.1 0 0 1-1.138-1.314q-.396-.838-.396-1.923 0-1.106.403-1.937.403-.832 1.144-1.294.748-.468 1.774-.468 1.053 0 1.794.475.748.467 1.138 1.306.396.832.396 1.918 0 1.104-.396 1.943a3.04 3.04 0 0 1-1.144 1.3q-.748.468-1.788.468m0-.916q1.17 0 1.742-.774.573-.78.572-2.021 0-1.275-.578-2.028-.572-.755-1.736-.755-.786 0-1.3.358a2.1 2.1 0 0 0-.76.981q-.247.624-.247 1.444 0 1.267.585 2.034.585.76 1.722.76m8.996.721v-8.294l-1.761 1.06v-1.073l1.761-1.053h.969V74zm14.409 0 .006-4.609q0-.812-.455-1.273-.448-.468-1.144-.468-.396 0-.773.181-.378.183-.624.585-.241.404-.241 1.053l-.565-.162q-.02-.754.292-1.32a2.26 2.26 0 0 1 .871-.877 2.5 2.5 0 0 1 1.261-.319q1.06 0 1.697.657.637.65.637 1.762l-.007 4.79zm-8.379 0v-7.02h.858v1.729h.104V74zm4.199 0 .007-4.543q0-.84-.449-1.32-.443-.487-1.17-.487t-1.176.5q-.449.495-.449 1.32l-.572-.312a2.3 2.3 0 0 1 1.19-2.055 2.5 2.5 0 0 1 1.254-.311q.67 0 1.19.285.526.287.825.832.299.546.299 1.326L128.645 74zm9.721.195q-1.047 0-1.788-.474a3.1 3.1 0 0 1-1.137-1.314q-.397-.838-.397-1.923 0-1.106.403-1.937.403-.832 1.144-1.294.747-.468 1.775-.468 1.053 0 1.794.475a3 3 0 0 1 1.137 1.306q.397.832.397 1.918 0 1.104-.397 1.943a3.04 3.04 0 0 1-1.144 1.3q-.747.468-1.787.468m0-.916q1.17 0 1.742-.774.572-.78.572-2.021 0-1.275-.579-2.028-.572-.755-1.735-.755-.787 0-1.3.358a2.1 2.1 0 0 0-.761.981q-.247.624-.247 1.444 0 1.267.585 2.034.585.76 1.723.76m9.831.721v-3.582q0-.585-.11-1.072a2.5 2.5 0 0 0-.358-.858 1.63 1.63 0 0 0-.63-.572q-.384-.201-.936-.201-.507 0-.897.175a1.8 1.8 0 0 0-.65.507 2.3 2.3 0 0 0-.397.793 3.8 3.8 0 0 0-.136 1.066l-.676-.15q0-1.078.377-1.813a2.6 2.6 0 0 1 1.04-1.112q.663-.376 1.521-.376.63 0 1.098.194.475.195.8.527.332.332.533.76.201.423.292.904a5 5 0 0 1 .091.949V74zm-5.076 0v-7.02h.864v1.729h.098V74zm11.547 0a4.7 4.7 0 0 1-1.17.097 2.6 2.6 0 0 1-1.027-.246 1.48 1.48 0 0 1-.682-.69 2 2 0 0 1-.208-.786 28 28 0 0 1-.013-.916V65.03h.949v6.39q0 .441.006.74.013.294.137.52.234.436.741.52.513.085 1.267-.038zm-4.602-6.201v-.819h4.602v.819zM160.178 74v-3.582q0-.585-.11-1.072a2.5 2.5 0 0 0-.358-.858 1.63 1.63 0 0 0-.63-.572q-.384-.201-.936-.201-.507 0-.897.175a1.76 1.76 0 0 0-.65.507 2.3 2.3 0 0 0-.397.793 3.8 3.8 0 0 0-.136 1.066l-.676-.15q0-1.078.377-1.813a2.6 2.6 0 0 1 1.04-1.112q.663-.376 1.521-.376.63 0 1.098.194.475.195.8.527.331.332.533.76.202.423.292.904a5 5 0 0 1 .091.949V74zm-5.076 0v-9.36h.864v5.284h.098V74zm11.023 0v-7.54q0-.273.026-.54.033-.266.124-.507a1.3 1.3 0 0 1 .286-.454q.215-.236.468-.338.253-.111.526-.143a5 5 0 0 1 .546-.033h.897v.806h-.832q-.546 0-.819.266-.266.267-.266.839V74zm-1.215-6.201v-.819h4.088v.819zM170.038 74v-7.02h.858v1.69l-.169-.221q.117-.312.305-.572a2 2 0 0 1 .41-.435 1.9 1.9 0 0 1 .637-.364q.364-.13.734-.15.371-.026.676.052v.897a2.3 2.3 0 0 0-.838-.045 1.6 1.6 0 0 0-.839.364q-.35.272-.526.656-.175.377-.234.806a6 6 0 0 0-.059.838V74zm7.528.195q-1.027 0-1.781-.455a3.1 3.1 0 0 1-1.163-1.28q-.416-.826-.416-1.937 0-1.15.409-1.99.41-.838 1.151-1.293.747-.455 1.761-.455 1.04 0 1.775.481.734.474 1.111 1.365.377.89.345 2.126h-.975v-.339q-.027-1.364-.592-2.06-.56-.696-1.638-.696-1.13 0-1.735.735-.598.734-.598 2.093 0 1.325.598 2.06.604.728 1.709.728.754 0 1.313-.344.566-.351.891-1.007l.89.344a3.2 3.2 0 0 1-1.228 1.424q-.807.5-1.827.5m-2.684-3.438v-.8h5.362v.8zm10.289 3.438q-1.028 0-1.781-.455a3.1 3.1 0 0 1-1.164-1.28q-.416-.826-.416-1.937 0-1.15.41-1.99.41-.838 1.15-1.293.748-.455 1.762-.455 1.04 0 1.774.481.735.474 1.112 1.365.377.89.344 2.126h-.975v-.339q-.025-1.364-.591-2.06-.56-.696-1.638-.696-1.131 0-1.736.735-.598.734-.598 2.093 0 1.325.598 2.06.605.728 1.71.728.753 0 1.313-.344a2.4 2.4 0 0 0 .89-1.007l.891.344a3.2 3.2 0 0 1-1.229 1.424q-.806.5-1.826.5m-2.685-3.438v-.8h5.363v.8zm12.931 3.438a4.6 4.6 0 0 1-1.45-.221 2.7 2.7 0 0 1-1.111-.709 2.5 2.5 0 0 1-.52-.838 3.2 3.2 0 0 1-.189-.988q-.007-.494.143-.981.15-.489.468-.865.189-.234.423-.39a3.4 3.4 0 0 1 .494-.267 5.5 5.5 0 0 1-.748-.936q-.253-.435-.253-1.065 0-.722.364-1.32a2.27 2.27 0 0 1 1.02-.89q.331-.15.676-.209.351-.065.696-.065.526 0 1.033.15.507.143.865.455.24.189.422.448.182.254.286.533l-.923.273a1.34 1.34 0 0 0-.455-.591 1.5 1.5 0 0 0-.572-.273 2.7 2.7 0 0 0-.643-.078q-.553 0-1.001.215-.39.195-.585.539t-.195.806q0 .396.13.657.13.253.377.552.143.156.318.319.175.155.358.325l2.964 2.749q.026-.181.032-.351.007-.176.007-.344l-.007-1.372h.904V70.9a7 7 0 0 1-.039.838 3.3 3.3 0 0 1-.104.54l1.209 1.111-.631.67-1.033-.975a2.3 2.3 0 0 1-.546.5 3.2 3.2 0 0 1-.65.344 2.7 2.7 0 0 1-.741.209q-.39.058-.793.058m.013-.923q.37 0 .669-.046.299-.045.572-.188.345-.182.514-.338a4 4 0 0 0 .273-.286l-3.042-2.782a2.2 2.2 0 0 0-.514.234q-.234.143-.403.344a1.5 1.5 0 0 0-.279.54 2.2 2.2 0 0 0-.091.644q.012.357.117.662.11.3.325.534.304.357.819.52.513.162 1.04.162m10.732.903q-.63 0-1.105-.194a2.45 2.45 0 0 1-.8-.527 2.8 2.8 0 0 1-.526-.754 3.8 3.8 0 0 1-.293-.904q-.09-.48-.091-.955V66.98h.962v3.581q0 .58.111 1.073.111.494.351.865.248.363.63.565.39.202.943.202.507 0 .89-.176.39-.176.65-.5.267-.332.403-.8.137-.474.137-1.066l.676.15q0 1.078-.377 1.813a2.6 2.6 0 0 1-1.04 1.112q-.663.376-1.521.376m2.359-.175v-1.729h-.097V66.98h.955V74zm7.745 0v-3.582q0-.585-.11-1.072a2.5 2.5 0 0 0-.358-.858 1.63 1.63 0 0 0-.63-.572q-.384-.201-.936-.201-.507 0-.897.175a1.76 1.76 0 0 0-.65.507 2.3 2.3 0 0 0-.397.793 3.8 3.8 0 0 0-.136 1.066l-.676-.15q0-1.078.377-1.813a2.6 2.6 0 0 1 1.04-1.112q.663-.376 1.521-.376.63 0 1.098.194.474.195.8.527.331.332.533.76.2.423.292.904a5 5 0 0 1 .091.949V74zm-5.076 0v-7.02h.864v1.729h.098V74zm7.855 0v-9.555H220V74zm5.836.195q-1.047 0-1.788-.474a3.1 3.1 0 0 1-1.137-1.314q-.397-.838-.397-1.923 0-1.106.403-1.937.403-.832 1.144-1.294.747-.468 1.775-.468 1.053 0 1.794.475a3 3 0 0 1 1.137 1.306q.397.832.397 1.918 0 1.104-.397 1.943a3.04 3.04 0 0 1-1.144 1.3q-.747.468-1.787.468m0-.916q1.17 0 1.742-.774.572-.78.572-2.021 0-1.275-.579-2.028-.572-.755-1.735-.755-.787 0-1.3.358a2.1 2.1 0 0 0-.761.981q-.247.624-.247 1.444 0 1.267.585 2.034.585.76 1.723.76m7.673.916q-1.059 0-1.794-.474a3.03 3.03 0 0 1-1.118-1.307q-.376-.838-.39-1.924.013-1.105.403-1.937.39-.838 1.125-1.3.734-.468 1.781-.468 1.066 0 1.852.52a2.62 2.62 0 0 1 1.086 1.423l-.936.3a1.98 1.98 0 0 0-.787-.976 2.17 2.17 0 0 0-1.222-.35q-.773 0-1.28.357a2.1 2.1 0 0 0-.754.981q-.247.63-.254 1.45.013 1.26.585 2.028.573.76 1.703.76.715 0 1.216-.325.507-.33.767-.962l.962.287q-.39.935-1.144 1.43-.754.487-1.801.487m4.28-.195.007-9.36h.962v5.72l3.133-3.38h1.274l-3.289 3.51 3.718 3.51h-1.391l-3.445-3.38V74zm11.067.195q-.793 0-1.333-.286a1.94 1.94 0 0 1-.799-.76 2.1 2.1 0 0 1-.267-1.034q0-.572.228-.975.234-.41.63-.67.404-.26.93-.396.532-.13 1.176-.227.65-.104 1.268-.176.624-.078 1.092-.15l-.338.209q.02-1.04-.403-1.541t-1.469-.5q-.721 0-1.222.325-.494.325-.696 1.026l-.929-.273q.24-.942.968-1.462t1.892-.52q.962 0 1.631.364.677.357.956 1.04.13.305.169.683.039.376.039.766V74h-.852v-1.761l.247.103q-.357.904-1.111 1.379-.754.474-1.807.474m.11-.825q.67 0 1.17-.241.501-.24.806-.657.306-.421.397-.948a3.5 3.5 0 0 0 .084-.742q.007-.409.007-.61l.364.188q-.487.065-1.06.13-.565.064-1.118.15a10 10 0 0 0-.988.201 2.7 2.7 0 0 0-.578.24q-.279.15-.462.403-.175.255-.175.631 0 .305.149.592.156.285.494.474.345.189.91.189m5.235.63v-9.555h.956V74zm3.034 0v-9.555h.956V74zM30.91 94v-9.36h3.614q.136 0 .306.013.175.006.35.039.735.11 1.242.514.513.396.774 1 .266.605.266 1.34 0 .727-.267 1.332a2.6 2.6 0 0 1-.78 1.007q-.507.398-1.234.507a5 5 0 0 1-.657.053h-2.658V94zm.956-4.466h2.632q.117 0 .273-.013a2 2 0 0 0 .306-.045q.48-.104.786-.397.312-.291.462-.695.155-.403.155-.838t-.155-.839a1.8 1.8 0 0 0-.462-.702 1.6 1.6 0 0 0-.786-.396 2 2 0 0 0-.306-.04 3 3 0 0 0-.273-.013h-2.632zM38.756 94v-7.02h.858v1.69l-.17-.221a2.4 2.4 0 0 1 .306-.572q.188-.267.41-.435.273-.24.637-.364.363-.13.734-.15.371-.026.676.052v.897a2.3 2.3 0 0 0-.838-.045 1.6 1.6 0 0 0-.839.364q-.352.272-.526.656-.175.377-.234.806a6 6 0 0 0-.059.838V94zm7.489.195q-1.047 0-1.788-.474a3.1 3.1 0 0 1-1.137-1.314q-.397-.838-.397-1.923 0-1.106.403-1.937.403-.832 1.144-1.294.748-.468 1.775-.468 1.053 0 1.794.475.747.467 1.137 1.306.397.832.397 1.918 0 1.104-.397 1.943a3.04 3.04 0 0 1-1.144 1.3q-.747.468-1.787.468m0-.916q1.17 0 1.742-.774.572-.78.572-2.021 0-1.275-.579-2.028-.572-.755-1.735-.755-.787 0-1.3.358a2.1 2.1 0 0 0-.76.981q-.248.624-.248 1.444 0 1.267.585 2.034.585.76 1.723.76m8.06.721v-7.54q0-.273.026-.54.032-.266.123-.507a1.3 1.3 0 0 1 .286-.454q.215-.236.468-.338.255-.111.527-.143a5 5 0 0 1 .546-.033h.897v.806h-.832q-.546 0-.82.266-.266.267-.266.839V94zm-1.216-6.201v-.819h4.089v.819zm7.845 6.396q-1.027 0-1.78-.455a3.1 3.1 0 0 1-1.164-1.28q-.416-.826-.416-1.937 0-1.15.41-1.99.409-.838 1.15-1.293.747-.455 1.761-.455 1.04 0 1.775.481.735.474 1.111 1.365.377.89.345 2.126h-.975v-.339q-.027-1.365-.592-2.06-.558-.696-1.638-.696-1.13 0-1.735.735-.598.734-.598 2.093 0 1.325.598 2.06.604.728 1.71.728.754 0 1.312-.344a2.4 2.4 0 0 0 .89-1.007l.891.344a3.2 3.2 0 0 1-1.228 1.424 3.4 3.4 0 0 1-1.827.5m-2.684-3.438v-.8h5.362v.8zm9.2 3.438q-.793 0-1.333-.286a1.94 1.94 0 0 1-.8-.76 2.1 2.1 0 0 1-.266-1.034q0-.572.228-.975.234-.41.63-.67.404-.26.93-.396.533-.13 1.176-.227.65-.104 1.268-.176.624-.078 1.092-.15l-.338.209q.019-1.04-.403-1.541t-1.47-.5q-.72 0-1.221.325-.494.325-.696 1.026l-.93-.273q.241-.942.97-1.462.728-.52 1.89-.52.963 0 1.632.364.676.357.956 1.04.13.305.169.683.039.376.039.766V94h-.852v-1.761l.247.103q-.357.904-1.111 1.379-.754.474-1.807.474m.11-.825q.67 0 1.17-.241.501-.24.806-.657.306-.422.397-.948.078-.339.084-.742.007-.409.007-.61l.364.188a55 55 0 0 1-1.06.13q-.566.065-1.118.15a10 10 0 0 0-.988.201q-.3.085-.578.24-.28.15-.462.403-.175.255-.175.631 0 .305.15.592.155.285.493.474.345.189.91.189m8.927.63a4.7 4.7 0 0 1-1.17.097 2.6 2.6 0 0 1-1.027-.246 1.48 1.48 0 0 1-.683-.69 2 2 0 0 1-.208-.786 29 29 0 0 1-.013-.916V85.03h.95v6.39q0 .441.006.74.013.294.136.52.234.436.741.52.514.085 1.268-.038zm-4.602-6.201v-.819h4.602v.819zm8.67 6.376q-.631 0-1.106-.194a2.45 2.45 0 0 1-.799-.527 2.8 2.8 0 0 1-.526-.754 3.8 3.8 0 0 1-.293-.904q-.09-.48-.091-.955V86.98h.962v3.581q0 .58.11 1.073.11.494.352.865.246.363.63.565.39.202.943.202.506 0 .89-.176.39-.176.65-.5.267-.332.403-.8.136-.474.136-1.066l.677.15q0 1.078-.377 1.813-.378.734-1.04 1.112-.664.376-1.521.376M82.914 94v-1.729h-.097V86.98h.955V94zm2.675 0v-7.02h.858v1.69l-.17-.221a2.4 2.4 0 0 1 .306-.572q.189-.267.41-.435.273-.24.637-.364.363-.13.734-.15.37-.026.676.052v.897a2.3 2.3 0 0 0-.838-.045 1.6 1.6 0 0 0-.839.364q-.352.272-.526.656-.176.377-.234.806a6 6 0 0 0-.059.838V94zm7.528.195q-1.028 0-1.781-.455a3.1 3.1 0 0 1-1.164-1.28q-.416-.826-.416-1.937 0-1.15.41-1.99.41-.838 1.15-1.293.748-.455 1.762-.455 1.04 0 1.774.481.734.474 1.112 1.365.377.89.344 2.126h-.975v-.339q-.026-1.365-.591-2.06-.56-.696-1.638-.696-1.131 0-1.736.735-.597.734-.598 2.093 0 1.325.598 2.06.605.728 1.71.728.753 0 1.313-.344.566-.351.89-1.007l.89.344a3.2 3.2 0 0 1-1.228 1.424 3.4 3.4 0 0 1-1.826.5m-2.685-3.438v-.8h5.363v.8zm9.938 3.432q-1.235 0-2.034-.533a2.22 2.22 0 0 1-.975-1.483l.975-.162q.156.598.708.956.56.35 1.378.35.8 0 1.261-.331.462-.337.462-.916 0-.326-.15-.527-.142-.208-.591-.384a14 14 0 0 0-1.339-.416q-.955-.26-1.495-.52t-.767-.597q-.228-.345-.228-.839 0-.599.338-1.047.339-.455.936-.701.599-.254 1.391-.254.793 0 1.417.26.632.253 1.014.715a2 2 0 0 1 .455 1.072l-.975.176a1.4 1.4 0 0 0-.617-.975q-.514-.364-1.307-.377-.747-.02-1.215.286-.468.3-.468.8 0 .279.169.48.17.195.61.371.45.176 1.275.383.967.247 1.521.52.552.274.786.644t.234.916q0 .995-.741 1.567-.734.566-2.028.566m4.081 1.17.058-.475q.26.02.377-.104a.57.57 0 0 0 .143-.332q.027-.208.013-.448h-.591v-1.371h1.111v1.631q0 .599-.305.897-.299.3-.806.202m9.156-1.164q-1.027 0-1.781-.455a3.1 3.1 0 0 1-1.163-1.28q-.417-.826-.416-1.937 0-1.15.409-1.99.41-.838 1.151-1.293.747-.455 1.761-.455 1.04 0 1.775.481.734.474 1.111 1.365.377.89.345 2.126h-.975v-.339q-.027-1.365-.592-2.06-.56-.696-1.638-.696-1.13 0-1.735.735-.598.734-.598 2.093 0 1.325.598 2.06.604.728 1.709.728.754 0 1.313-.344.566-.351.891-1.007l.89.344a3.2 3.2 0 0 1-1.228 1.424q-.807.5-1.827.5m-2.684-3.438v-.8h5.362v.8zM117.207 94l2.743-3.549-2.684-3.471h1.144l2.099 2.736 2.08-2.736h1.144l-2.684 3.471L123.798 94h-1.15l-2.139-2.814L118.358 94zm10.788.195q-.969 0-1.638-.487a3.06 3.06 0 0 1-1.014-1.333q-.345-.845-.344-1.891 0-1.067.344-1.898.35-.84 1.027-1.32t1.664-.481q.962 0 1.651.487.689.488 1.053 1.326.37.84.371 1.886 0 1.053-.371 1.891a3.16 3.16 0 0 1-1.066 1.332q-.696.489-1.677.488m-3.159 2.925V86.98h.858v5.284h.104v4.856zm3.062-3.815q.734 0 1.222-.371.487-.37.728-1.007.246-.644.247-1.444 0-.792-.241-1.43a2.2 2.2 0 0 0-.734-1.007q-.487-.37-1.242-.37-.735 0-1.222.357-.481.357-.721.995-.241.63-.241 1.456 0 .811.241 1.456.24.636.728 1 .487.365 1.235.365m6.646.89q-.792 0-1.332-.286a1.95 1.95 0 0 1-.8-.76 2.1 2.1 0 0 1-.266-1.034q0-.572.227-.975.234-.41.631-.67a3.2 3.2 0 0 1 .929-.396q.534-.13 1.177-.227.65-.104 1.267-.176.624-.078 1.092-.15l-.338.209q.02-1.04-.403-1.541-.422-.5-1.469-.5-.721 0-1.222.325-.494.325-.695 1.026l-.93-.273q.242-.942.969-1.462.728-.52 1.891-.52.963 0 1.632.364.676.357.955 1.04.13.305.169.683.039.376.039.766V94h-.851v-1.761l.247.103q-.357.904-1.112 1.379-.753.474-1.807.474m.111-.825q.669 0 1.17-.241.5-.24.806-.657.306-.422.396-.948.079-.339.085-.742.006-.409.006-.61l.364.188a56 56 0 0 1-1.059.13q-.566.065-1.118.15a10 10 0 0 0-.988.201 2.7 2.7 0 0 0-.579.24q-.28.15-.461.403-.176.255-.176.631 0 .305.15.592.156.285.494.474.345.189.91.189m10.175.63v-3.582q0-.585-.111-1.072a2.5 2.5 0 0 0-.357-.858 1.64 1.64 0 0 0-.631-.572q-.384-.201-.936-.201-.507 0-.897.175a1.8 1.8 0 0 0-.65.507 2.3 2.3 0 0 0-.396.793 3.8 3.8 0 0 0-.137 1.066l-.676-.15q0-1.078.377-1.813a2.6 2.6 0 0 1 1.04-1.112q.663-.376 1.521-.376.63 0 1.099.194.474.195.799.527.332.332.533.76.201.423.293.904.09.475.091.949V94zm-5.077 0v-7.02h.865v1.729h.097V94zm10.411.195q-.983 0-1.677-.487a3.16 3.16 0 0 1-1.066-1.333q-.37-.839-.371-1.891 0-1.047.364-1.885.37-.84 1.06-1.327.688-.487 1.651-.487.987 0 1.664.481.676.48 1.02 1.32.351.831.351 1.898 0 1.046-.344 1.891a3.06 3.06 0 0 1-1.014 1.332q-.67.489-1.638.488m.097-.89q.748 0 1.235-.365.488-.363.728-1 .241-.645.241-1.456 0-.825-.241-1.456-.24-.638-.728-.995-.48-.358-1.215-.358-.755 0-1.248.371-.494.37-.735 1.007a4.1 4.1 0 0 0-.234 1.43q0 .8.241 1.444.246.636.734 1.007t1.222.37m2.204.695v-5.284h-.104V84.64h.962V94zm6.285 3.12 1.358-3.686.02 1.093-3.075-7.547h1.014l2.522 6.311h-.416l2.327-6.311h.975l-3.77 10.14zm8.532-2.925q-1.047 0-1.788-.474a3.1 3.1 0 0 1-1.137-1.314q-.397-.838-.397-1.923 0-1.106.403-1.937.403-.832 1.144-1.294.748-.468 1.775-.468 1.053 0 1.794.475a3 3 0 0 1 1.137 1.306q.397.832.397 1.918 0 1.104-.397 1.943a3.03 3.03 0 0 1-1.144 1.3q-.747.468-1.787.468m0-.916q1.17 0 1.742-.774.572-.78.572-2.021 0-1.275-.579-2.028-.571-.755-1.735-.755-.787 0-1.3.358a2.1 2.1 0 0 0-.761.981q-.246.624-.247 1.444 0 1.267.585 2.034.585.76 1.723.76m7.446.897q-.63 0-1.105-.195a2.4 2.4 0 0 1-.799-.527 2.8 2.8 0 0 1-.527-.754 3.8 3.8 0 0 1-.292-.904 5 5 0 0 1-.091-.955V86.98h.962v3.581q0 .58.11 1.073.111.494.351.865.247.363.631.565.39.202.942.202.507 0 .891-.176.39-.176.65-.5.266-.332.403-.8.136-.474.136-1.066l.676.15q0 1.078-.377 1.813a2.6 2.6 0 0 1-1.04 1.112q-.663.376-1.521.376m2.36-.176v-1.729h-.098V86.98h.956V94zm2.675 0v-7.02h.858v1.69l-.169-.221q.117-.312.305-.572.188-.267.41-.435a1.9 1.9 0 0 1 .637-.364q.363-.13.734-.15.37-.026.676.052v.897a2.3 2.3 0 0 0-.838-.045 1.6 1.6 0 0 0-.839.364q-.35.272-.526.656-.175.377-.234.806a6 6 0 0 0-.059.838V94zm7.982 0v-7.54q0-.273.026-.54.033-.266.124-.507a1.3 1.3 0 0 1 .286-.454q.214-.236.468-.338.253-.111.526-.143a5 5 0 0 1 .546-.033h.897v.806h-.832q-.546 0-.819.266-.266.267-.266.839V94zm-1.215-6.201v-.819h4.088v.819zM191.658 94v-7.02h.858v1.69l-.169-.221a2.4 2.4 0 0 1 .306-.572q.188-.267.409-.435a1.9 1.9 0 0 1 .637-.364q.364-.13.735-.15.37-.026.676.052v.897a2.3 2.3 0 0 0-.839-.045 1.6 1.6 0 0 0-.838.364q-.351.272-.527.656-.175.377-.234.806a6 6 0 0 0-.058.838V94zm7.528.195q-1.027 0-1.781-.455a3.1 3.1 0 0 1-1.163-1.28q-.416-.826-.416-1.937 0-1.15.409-1.99.41-.838 1.151-1.293.747-.455 1.761-.455 1.04 0 1.775.481.734.474 1.111 1.365.376.89.345 2.126h-.975v-.339q-.027-1.365-.592-2.06-.56-.696-1.638-.696-1.13 0-1.735.735-.598.734-.598 2.093 0 1.325.598 2.06.604.728 1.709.728.754 0 1.313-.344.566-.351.891-1.007l.89.344a3.2 3.2 0 0 1-1.228 1.424q-.807.5-1.827.5m-2.684-3.438v-.8h5.362v.8zm10.289 3.438q-1.028 0-1.781-.455a3.1 3.1 0 0 1-1.164-1.28q-.416-.826-.416-1.937 0-1.15.41-1.99.41-.838 1.15-1.293.748-.455 1.762-.455 1.04 0 1.774.481.735.474 1.112 1.365.377.89.344 2.126h-.975v-.339q-.025-1.365-.591-2.06-.56-.696-1.638-.696-1.131 0-1.736.735-.598.734-.598 2.093 0 1.325.598 2.06.605.728 1.71.728.753 0 1.313-.344a2.4 2.4 0 0 0 .89-1.007l.891.344a3.2 3.2 0 0 1-1.229 1.424q-.806.5-1.826.5m-2.685-3.438v-.8h5.363v.8zM211.555 94v-9.555h.955V94zm4.912.195q-.793 0-1.332-.286a1.94 1.94 0 0 1-.8-.76 2.1 2.1 0 0 1-.266-1.034q0-.572.227-.975.234-.41.631-.67.402-.26.929-.396.534-.13 1.177-.227.65-.104 1.267-.176.624-.078 1.092-.15l-.338.209q.02-1.04-.403-1.541-.422-.5-1.469-.5-.721 0-1.222.325-.494.325-.695 1.026l-.93-.273q.24-.942.969-1.462.728-.52 1.891-.52.962 0 1.632.364.675.357.955 1.04.13.305.169.683.039.376.039.766V94h-.851v-1.761l.247.103q-.358.904-1.112 1.379-.753.474-1.807.474m.111-.825q.669 0 1.17-.241.5-.24.806-.657.305-.422.396-.948.078-.339.085-.742.006-.409.006-.61l.364.188a56 56 0 0 1-1.059.13q-.566.065-1.118.15a10 10 0 0 0-.988.201q-.3.085-.579.24-.28.15-.461.403-.176.255-.176.631 0 .305.15.592.156.285.494.474.344.189.91.189m10.174.63v-3.582q0-.585-.11-1.072a2.5 2.5 0 0 0-.358-.858 1.63 1.63 0 0 0-.63-.572q-.384-.201-.936-.201-.507 0-.897.175a1.8 1.8 0 0 0-.65.507 2.3 2.3 0 0 0-.397.793 3.8 3.8 0 0 0-.136 1.066l-.676-.15q0-1.078.377-1.813a2.6 2.6 0 0 1 1.04-1.112q.663-.376 1.521-.376.63 0 1.098.194.475.195.8.527.332.332.533.76.201.423.292.904a5 5 0 0 1 .091.949V94zm-5.076 0v-7.02h.864v1.729h.098V94zm10.599.195q-1.059 0-1.794-.474a3.02 3.02 0 0 1-1.118-1.307q-.376-.838-.39-1.924.013-1.105.403-1.937.39-.838 1.125-1.3.734-.468 1.781-.468 1.066 0 1.852.52a2.62 2.62 0 0 1 1.086 1.423l-.936.3a1.98 1.98 0 0 0-.787-.976 2.17 2.17 0 0 0-1.222-.35q-.773 0-1.28.357-.507.351-.754.981-.248.63-.254 1.45.013 1.26.585 2.028.572.76 1.703.76.715 0 1.216-.325.506-.33.767-.962l.962.287q-.39.935-1.144 1.43-.754.487-1.801.487m4.226-8.547v-1.073h.955v1.072zm0 8.352v-7.02h.955V94zm7.974 0v-3.582q0-.585-.11-1.072a2.5 2.5 0 0 0-.358-.858 1.63 1.63 0 0 0-.63-.572q-.384-.201-.936-.201-.507 0-.897.175a1.76 1.76 0 0 0-.65.507 2.3 2.3 0 0 0-.397.793 3.8 3.8 0 0 0-.136 1.066l-.676-.15q0-1.078.377-1.813a2.6 2.6 0 0 1 1.04-1.112q.663-.376 1.521-.376.63 0 1.098.194.474.195.8.527.331.332.533.76.2.423.292.904a5 5 0 0 1 .091.949V94zm-5.076 0v-7.02h.864v1.729h.098V94zm10.513 3.315a3.6 3.6 0 0 1-1.066-.162 2.9 2.9 0 0 1-.962-.501 2.8 2.8 0 0 1-.741-.884l.865-.481q.292.585.819.838.533.26 1.085.26.76 0 1.229-.285.474-.28.689-.832.214-.553.208-1.379v-1.871h.11V86.98H253v6.922q0 .3-.02.573a4 4 0 0 1-.058.546q-.124.786-.514 1.293a2.3 2.3 0 0 1-1.014.754q-.624.247-1.482.247m-.065-3.12q-.981 0-1.677-.487a3.17 3.17 0 0 1-1.066-1.333q-.37-.839-.37-1.891 0-1.047.364-1.885.37-.84 1.059-1.327.69-.487 1.651-.487.989 0 1.664.481.676.48 1.021 1.32.351.831.351 1.898 0 1.046-.345 1.891a3.05 3.05 0 0 1-1.014 1.332q-.669.489-1.638.488m.098-.89q.747 0 1.235-.365.488-.363.728-1 .24-.645.24-1.456 0-.825-.24-1.456-.24-.638-.728-.995-.481-.358-1.216-.358-.753 0-1.248.371a2.2 2.2 0 0 0-.734 1.007 4.1 4.1 0 0 0-.234 1.43q0 .8.24 1.444.247.636.735 1.007.487.37 1.222.37m-216.103 20.89q-1.047 0-1.788-.475a3.1 3.1 0 0 1-1.138-1.313q-.396-.838-.396-1.924 0-1.104.403-1.937.403-.831 1.144-1.293.747-.468 1.775-.468 1.053 0 1.794.474a3 3 0 0 1 1.137 1.307q.396.833.396 1.917 0 1.105-.396 1.944a3.04 3.04 0 0 1-1.144 1.3q-.747.468-1.787.468m0-.917q1.17 0 1.742-.773.571-.78.572-2.022 0-1.273-.579-2.028-.572-.753-1.735-.754-.787 0-1.3.358a2.1 2.1 0 0 0-.761.981q-.247.624-.247 1.443 0 1.268.585 2.035.585.76 1.723.76m7.914.917q-.969 0-1.638-.488a3.05 3.05 0 0 1-1.014-1.332q-.345-.845-.345-1.892 0-1.065.345-1.898.35-.838 1.027-1.319.675-.481 1.664-.481.962 0 1.65.487.69.488 1.054 1.326.37.839.37 1.885 0 1.053-.37 1.892a3.16 3.16 0 0 1-1.066 1.332q-.696.488-1.677.488m-3.16 2.925v-10.14h.859v5.284h.104v4.856zm3.062-3.816q.735 0 1.222-.37.488-.37.728-1.008.247-.644.247-1.443 0-.792-.24-1.43a2.2 2.2 0 0 0-.735-1.007q-.488-.37-1.241-.371-.735 0-1.222.358-.48.357-.722.994-.24.631-.24 1.456 0 .813.24 1.456.24.638.728 1.001.488.364 1.235.364m7.791.891q-.967 0-1.638-.488a3.05 3.05 0 0 1-1.014-1.332q-.345-.845-.344-1.892 0-1.065.344-1.898.351-.838 1.027-1.319t1.664-.481q.963 0 1.651.487.69.488 1.053 1.326.37.839.37 1.885 0 1.053-.37 1.892a3.16 3.16 0 0 1-1.066 1.332q-.694.488-1.677.488m-3.159 2.925v-10.14h.858v5.284h.104v4.856zm3.062-3.816q.735 0 1.222-.37a2.2 2.2 0 0 0 .728-1.008 4 4 0 0 0 .247-1.443q0-.792-.24-1.43a2.2 2.2 0 0 0-.735-1.007q-.488-.37-1.242-.371-.735 0-1.222.358-.48.357-.721.994-.24.631-.24 1.456 0 .813.24 1.456.24.638.728 1.001.487.364 1.235.364m7.57.891q-1.047 0-1.788-.475a3.1 3.1 0 0 1-1.137-1.313q-.397-.838-.397-1.924 0-1.104.403-1.937.403-.831 1.144-1.293.747-.468 1.775-.468 1.053 0 1.794.474a3 3 0 0 1 1.137 1.307q.397.833.397 1.917 0 1.105-.397 1.944a3.04 3.04 0 0 1-1.144 1.3q-.747.468-1.787.468m0-.917q1.17 0 1.742-.773.571-.78.572-2.022 0-1.273-.579-2.028-.572-.753-1.735-.754-.787 0-1.3.358a2.1 2.1 0 0 0-.76.981q-.248.624-.248 1.443 0 1.268.585 2.035.585.76 1.723.76m4.761.722v-7.02h.858v1.69l-.169-.221q.117-.312.306-.572.189-.267.41-.436.272-.24.636-.364a2.6 2.6 0 0 1 .735-.149q.37-.026.676.052v.897a2.3 2.3 0 0 0-.839-.046 1.6 1.6 0 0 0-.838.364q-.351.273-.527.657-.175.377-.234.806a6 6 0 0 0-.058.838V114zm8.507 0a4.7 4.7 0 0 1-1.17.098 2.6 2.6 0 0 1-1.027-.248 1.48 1.48 0 0 1-.682-.689 2 2 0 0 1-.209-.786 29 29 0 0 1-.013-.917v-6.428h.95v6.389q0 .443.006.741.013.293.136.52a.98.98 0 0 0 .742.52q.513.085 1.267-.039zm-4.602-6.201v-.819h4.602v.819zm8.67 6.377q-.631 0-1.105-.196a2.4 2.4 0 0 1-.8-.526 2.8 2.8 0 0 1-.526-.754 3.8 3.8 0 0 1-.293-.904 5 5 0 0 1-.09-.955v-3.861h.961v3.581q0 .58.11 1.073.11.494.352.864.246.365.63.566.39.201.943.201.507 0 .89-.175.39-.175.65-.501.267-.331.403-.799.137-.474.137-1.066l.676.149q0 1.08-.377 1.814-.377.735-1.04 1.111-.664.378-1.521.378m2.36-.176v-1.729h-.098v-5.291h.955V114zm7.744 0v-3.581a5 5 0 0 0-.11-1.073 2.5 2.5 0 0 0-.358-.858 1.63 1.63 0 0 0-.63-.572q-.384-.201-.937-.202-.507 0-.897.176a1.8 1.8 0 0 0-.65.507 2.3 2.3 0 0 0-.396.793 3.8 3.8 0 0 0-.137 1.066l-.676-.15q0-1.078.377-1.813t1.04-1.112q.664-.376 1.521-.376.63 0 1.099.194.474.195.8.527.33.331.532.76.202.423.293.904.09.475.09.949V114zm-5.077 0v-7.02h.865v1.729h.097V114zm7.856-8.353v-1.072h.955v1.072zm0 8.353v-7.02h.955V114zm6.726 0a4.7 4.7 0 0 1-1.17.098 2.6 2.6 0 0 1-1.027-.248 1.48 1.48 0 0 1-.683-.689 2 2 0 0 1-.208-.786 29 29 0 0 1-.013-.917v-6.428h.95v6.389q0 .443.006.741.012.293.136.52a.98.98 0 0 0 .741.52q.514.085 1.268-.039zm-4.602-6.201v-.819h4.602v.819zm6.115-2.152v-1.072h.955v1.072zm0 8.353v-7.02h.955V114zm5.875.195q-1.028 0-1.781-.455a3.1 3.1 0 0 1-1.164-1.281q-.416-.825-.416-1.937 0-1.15.41-1.989a3.04 3.04 0 0 1 1.15-1.293q.748-.455 1.762-.455 1.04 0 1.774.481.734.474 1.112 1.365.377.89.344 2.125h-.975v-.337q-.025-1.366-.591-2.061-.56-.696-1.638-.696-1.131 0-1.736.735-.598.734-.598 2.093 0 1.326.598 2.06.605.728 1.71.728.753 0 1.313-.344a2.4 2.4 0 0 0 .89-1.008l.891.345a3.2 3.2 0 0 1-1.229 1.423 3.4 3.4 0 0 1-1.826.501m-2.685-3.439v-.799h5.363v.799zm9.938 3.433q-1.234 0-2.034-.534a2.22 2.22 0 0 1-.975-1.482l.975-.162q.156.598.708.955.56.351 1.378.351.8 0 1.261-.331.462-.338.462-.917 0-.325-.15-.526-.142-.208-.591-.384a14 14 0 0 0-1.339-.416q-.956-.26-1.495-.52t-.767-.598q-.228-.344-.228-.838 0-.599.338-1.047.337-.455.936-.702.598-.253 1.391-.253a3.7 3.7 0 0 1 1.417.26q.63.253 1.014.715.383.462.455 1.072l-.975.176a1.4 1.4 0 0 0-.617-.975q-.514-.364-1.307-.377-.747-.02-1.215.286-.468.299-.468.799a.72.72 0 0 0 .169.481q.168.195.611.371.448.176 1.274.383.968.247 1.521.52t.786.644q.234.37.234.916 0 .995-.741 1.567-.735.566-2.028.566"/></svg>