<svg width="151" height="40" viewBox="0 0 151 40" fill="none" xmlns="http://www.w3.org/2000/svg">
<g opacity="0.7">
<path d="M50.6229 28.7929C52.5362 28.7929 54.1093 27.8222 54.5983 26.3662V28.6241H57.4256V22.9265C57.4256 21.6393 56.4052 20.542 55.0234 20.542H50.9843V22.9265H53.8542C54.2156 22.9265 54.4494 23.1586 54.4494 23.5174C54.4494 24.889 52.6212 26.2185 50.7717 26.2185C48.3058 26.2185 46.35 24.2982 46.35 21.2383C46.35 18.1785 48.3058 16.4059 50.8355 16.4059C52.7488 16.4059 54.0668 17.4399 54.3006 19.0226H57.4681C57.2768 15.8573 54.5983 13.6837 50.8568 13.6837C46.924 13.6837 43.3101 16.1949 43.3101 21.2383C43.3101 26.2818 46.8177 28.7929 50.6229 28.7929Z" fill="#4C6379"/>
<path d="M58.6393 28.6241H61.5942V13.3672H58.6393V28.6241Z" fill="#4C6379"/>
<path d="M67.9683 28.7929C71.2633 28.7929 73.623 26.4717 73.623 23.3063C73.623 20.141 71.2633 17.8198 67.9683 17.8198C64.6732 17.8198 62.3135 20.141 62.3135 23.3063C62.3135 26.4717 64.6732 28.7929 67.9683 28.7929ZM67.9683 26.2607C66.3739 26.2607 65.2897 25.0578 65.2897 23.3063C65.2897 21.5338 66.3739 20.3309 67.9683 20.3309C69.5626 20.3309 70.6468 21.5338 70.6468 23.3063C70.6468 25.0578 69.5626 26.2607 67.9683 26.2607Z" fill="#4C6379"/>
<path d="M80.235 28.7929C83.4025 28.7929 85.2945 26.6194 85.2945 23.3063C85.2945 19.9933 83.4025 17.8198 80.2775 17.8198C78.9383 17.8198 77.8966 18.3262 77.3014 19.107V13.3672H74.3464V28.6241H77.3014V27.4635C77.8966 28.2865 79.002 28.7929 80.235 28.7929ZM79.7673 26.2607C78.173 26.2607 77.1313 25.0789 77.1313 23.3063C77.1313 21.5127 78.173 20.3309 79.7673 20.3309C81.3192 20.3309 82.3821 21.5127 82.3821 23.3063C82.3821 25.0789 81.3192 26.2607 79.7673 26.2607Z" fill="#4C6379"/>
<path d="M90.2409 17.8198C87.3072 17.8198 85.5641 19.529 85.4365 21.6604H88.0725C88.1151 20.7741 88.7741 19.9722 90.0708 19.9722C91.2826 19.9722 91.9841 20.5842 91.9841 21.4705C91.9841 21.9136 91.7077 22.2512 91.1763 22.2512H89.3693C87.0309 22.2512 85.4578 23.5174 85.4578 25.6065C85.4578 27.4213 86.8821 28.7929 88.9654 28.7929C90.4322 28.7929 91.6227 28.1388 91.9841 27.147V28.6241H94.9177V21.787C94.9177 19.3813 92.9407 17.8198 90.2409 17.8198ZM89.7094 26.6616C88.8804 26.6616 88.2851 26.1763 88.2851 25.4799C88.2851 24.6569 88.9229 24.1082 89.8157 24.1082H91.9841V24.2559C91.9841 25.6065 91.155 26.6616 89.7094 26.6616Z" fill="#4C6379"/>
<path d="M96.0532 28.6241H99.0081V13.3672H96.0532V28.6241Z" fill="#4C6379"/>
<path d="M100.578 28.6241H106.658C109.804 28.6241 111.972 27.0203 111.972 24.2137C111.972 22.2723 110.824 21.0906 109.464 20.5631C110.335 20.0988 111.207 19.0437 111.207 17.6509C111.207 15.182 109.187 13.8525 106.488 13.8525H100.578V28.6241ZM103.724 19.4868V16.3637H106.19C107.614 16.3637 108.252 16.9335 108.252 17.9253C108.252 18.9171 107.614 19.4868 106.254 19.4868H103.724ZM103.724 25.8808V22.1668H106.381C108.146 22.1668 108.932 22.8421 108.932 24.0449C108.932 25.2478 108.146 25.8808 106.381 25.8808H103.724Z" fill="#4C6379"/>
<path d="M117.113 17.8198C114.179 17.8198 112.436 19.529 112.308 21.6604H114.944C114.987 20.7741 115.646 19.9722 116.943 19.9722C118.154 19.9722 118.856 20.5842 118.856 21.4705C118.856 21.9136 118.58 22.2512 118.048 22.2512H116.241C113.903 22.2512 112.33 23.5174 112.33 25.6065C112.33 27.4213 113.754 28.7929 115.837 28.7929C117.304 28.7929 118.495 28.1388 118.856 27.147V28.6241H121.79V21.787C121.79 19.3813 119.813 17.8198 117.113 17.8198ZM116.581 26.6616C115.752 26.6616 115.157 26.1763 115.157 25.4799C115.157 24.6569 115.795 24.1082 116.688 24.1082H118.856V24.2559C118.856 25.6065 118.027 26.6616 116.581 26.6616Z" fill="#4C6379"/>
<path d="M122.755 28.6241H125.731V22.7999C125.731 21.4282 126.645 20.4364 127.942 20.4364C129.175 20.4364 130.004 21.3649 130.004 22.6522V28.6241H132.98V21.998C132.98 19.5501 131.407 17.8198 128.984 17.8198C127.517 17.8198 126.326 18.4317 125.731 19.4657V17.9886H122.755V28.6241Z" fill="#4C6379"/>
<path d="M141.463 28.6241H145.034L140.421 22.1668L144.694 17.9886H140.952L137.232 21.6182V13.3672H134.256V28.6241H137.232V25.29L138.423 24.1293L141.463 28.6241Z" fill="#4C6379"/>
</g>
<path d="M20.8694 7.89111C27.8332 7.89111 33.4781 13.536 33.4781 20.4998V29.3259C33.4781 30.3291 33.0796 31.2912 32.3702 32.0006C31.6609 32.71 30.6987 33.1085 29.6955 33.1085H21.4999V27.5771C21.4999 26.3149 21.5768 25.0074 22.2388 23.9332C22.7127 23.1633 23.3466 22.5044 24.0976 22.0011C24.8486 21.4978 25.699 21.1619 26.5913 21.0161L26.8327 20.977C26.9323 20.943 27.0187 20.8787 27.0799 20.7931C27.1411 20.7076 27.174 20.605 27.174 20.4998C27.174 20.3946 27.1411 20.292 27.0799 20.2065C27.0187 20.1209 26.9323 20.0566 26.8327 20.0226L26.5913 19.9835C25.2876 19.7705 24.0838 19.1535 23.1498 18.2195C22.2158 17.2854 21.5987 16.0816 21.3858 14.778L21.3467 14.5365C21.3127 14.437 21.2484 14.3506 21.1628 14.2894C21.0772 14.2282 20.9746 14.1953 20.8694 14.1953C20.7642 14.1953 20.6617 14.2282 20.5761 14.2894C20.4905 14.3506 20.4262 14.437 20.3922 14.5365L20.3531 14.778C20.2074 15.6702 19.8716 16.5207 19.3683 17.2717C18.8649 18.0227 18.206 18.6566 17.4361 19.1305C16.3618 19.7925 15.0543 19.8694 13.7922 19.8694H8.27588C8.6056 13.1987 14.1175 7.89111 20.8694 7.89111Z" fill="#F58A5C"/>
<path d="M8.26074 21.1305H13.7922C15.0543 21.1305 16.3618 21.2074 17.4361 21.8694C18.2758 22.3868 18.9827 23.0937 19.5001 23.9334C20.1621 25.0077 20.239 26.3152 20.239 27.5773V33.1088H12.0434C11.0401 33.1088 10.078 32.7102 9.36864 32.0009C8.65927 31.2915 8.26074 30.3294 8.26074 29.3261V21.1305ZM33.4781 9.15223C33.4781 9.48663 33.3453 9.80734 33.1088 10.0438C32.8724 10.2803 32.5517 10.4131 32.2173 10.4131C31.8829 10.4131 31.5622 10.2803 31.3257 10.0438C31.0892 9.80734 30.9564 9.48663 30.9564 9.15223C30.9564 8.81782 31.0892 8.49712 31.3257 8.26066C31.5622 8.0242 31.8829 7.89136 32.2173 7.89136C32.5517 7.89136 32.8724 8.0242 33.1088 8.26066C33.3453 8.49712 33.4781 8.81782 33.4781 9.15223Z" fill="#F58A5C"/>
</svg>
