<svg width="70" height="70" viewBox="0 0 70 70" fill="none" xmlns="http://www.w3.org/2000/svg">
<path d="M30.4114 39.109V24.1959H28.3367L31.4488 19.9351L34.5609 24.1959H32.4862V39.109H30.4114Z" fill="#D5FDB1" stroke="#D5FDB1"/>
<path d="M39.7477 26.3264H37.673V36.9786L39.7477 35.9134V26.3264Z" fill="#D5FDB1" stroke="#D5FDB1"/>
<path d="M25.2248 26.3264H22.1127V34.8482L25.2248 36.9786V26.3264Z" fill="#D5FDB1" stroke="#D5FDB1"/>
<path d="M55.5281 28.837C55.5281 42.5585 44.5112 53.6739 30.9312 53.6739C17.3512 53.6739 6.33435 42.5585 6.33435 28.837C6.33435 15.1154 17.3512 4 30.9312 4C44.5112 4 55.5281 15.1154 55.5281 28.837Z" stroke="#D5FDB1"/>
<path d="M50.1001 28.8375C50.1001 39.5335 41.5127 48.1961 30.9296 48.1961C20.3464 48.1961 11.759 39.5335 11.759 28.8375C11.759 18.1414 20.3464 9.47876 30.9296 9.47876C41.5127 9.47876 50.1001 18.1414 50.1001 28.8375Z" stroke="#D5FDB1"/>
<path d="M42.4612 50.6982L55.7387 64.2882C57.1205 65.7024 59.0428 66.7349 60.9116 66.0892C62.6362 65.4934 64.1818 64.1599 64.1665 61.5265C64.1581 60.089 63.3164 58.8219 62.2945 57.8108L48.9293 44.5872" stroke="#D5FDB1" stroke-linejoin="round"/>
</svg>
