<svg width="140" height="40" viewBox="0 0 140 40" fill="none" xmlns="http://www.w3.org/2000/svg">
<g opacity="0.7">
<path d="M48.8422 25.0523V10.6422H46.4883V25.0523H48.8422Z" fill="#4C6379"/>
<path d="M50.2827 20.2488C50.2827 23.1928 52.2508 25.2846 55.2414 25.2846C58.232 25.2846 60.2001 23.1928 60.2001 20.2488C60.2001 17.3048 58.232 15.213 55.2414 15.213C52.2508 15.213 50.2827 17.3048 50.2827 20.2488ZM52.6559 20.2488C52.6559 18.525 53.6785 17.3242 55.2414 17.3242C56.8042 17.3242 57.8268 18.525 57.8268 20.2488C57.8268 21.9532 56.8042 23.1734 55.2414 23.1734C53.6785 23.1734 52.6559 21.9532 52.6559 20.2488Z" fill="#4C6379"/>
<path d="M60.9922 20.0548C60.9922 22.8438 62.7866 24.8582 65.4685 24.8582C66.8577 24.8582 68.054 24.2965 68.6521 23.3668V24.9937C68.6521 26.5626 67.6681 27.6085 66.028 27.6085C64.5617 27.6085 63.5583 26.8918 63.4233 25.6329H61.0501C61.3588 28.1314 63.2689 29.7584 65.893 29.7584C68.9801 29.7584 70.9481 27.7247 70.9481 24.5676V15.4838H68.8643L68.7293 16.7815C68.1504 15.7744 66.9542 15.174 65.5457 15.174C62.8252 15.174 60.9922 17.2464 60.9922 20.0548ZM63.3847 19.9967C63.3847 18.4085 64.388 17.2464 65.8737 17.2464C67.4944 17.2464 68.5749 18.4278 68.5749 19.9967C68.5749 21.5849 67.4944 22.8051 65.8737 22.8051C64.4073 22.8051 63.3847 21.6043 63.3847 19.9967Z" fill="#4C6379"/>
<path d="M72.1128 20.2488C72.1128 23.1928 74.0808 25.2846 77.0715 25.2846C80.0621 25.2846 82.0301 23.1928 82.0301 20.2488C82.0301 17.3048 80.0621 15.213 77.0715 15.213C74.0808 15.213 72.1128 17.3048 72.1128 20.2488ZM74.486 20.2488C74.486 18.525 75.5086 17.3242 77.0715 17.3242C78.6343 17.3242 79.6569 18.525 79.6569 20.2488C79.6569 21.9532 78.6343 23.1734 77.0715 23.1734C75.5086 23.1734 74.486 21.9532 74.486 20.2488Z" fill="#4C6379"/>
<path d="M84.5777 13.5288C85.3495 13.5288 85.9862 12.909 85.9862 12.1149C85.9862 11.3401 85.3495 10.7203 84.5777 10.7203C83.7866 10.7203 83.1885 11.3401 83.1885 12.1149C83.1885 12.909 83.7866 13.5288 84.5777 13.5288ZM83.4007 25.053H85.7546V15.485H83.4007V25.053Z" fill="#4C6379"/>
<path d="M87.8169 29.4879H90.1131V23.7354C90.7112 24.7232 92.004 25.3043 93.4317 25.3043C96.2487 25.3043 97.9274 23.135 97.8888 20.1523C97.8309 17.1502 96.1137 15.194 93.4125 15.194C91.9654 15.194 90.6533 15.8331 90.0745 16.9371L89.9394 15.4845H87.8169V29.4879ZM90.2096 20.2685C90.2096 18.5447 91.2515 17.3439 92.8915 17.3439C94.5315 17.3439 95.5155 18.5641 95.5155 20.2685C95.5155 21.9729 94.5315 23.1738 92.8915 23.1738C91.2515 23.1738 90.2096 21.9923 90.2096 20.2685Z" fill="#4C6379"/>
<path d="M98.4863 22.186C98.5635 24.0841 100.03 25.3043 102.307 25.3043C104.545 25.3043 106.069 24.1034 106.069 22.2441C106.069 20.8689 105.22 19.9392 103.657 19.5519L101.979 19.1451C101.265 18.9514 100.782 18.6997 100.782 18.0799C100.782 17.4213 101.303 16.9565 102.152 16.9565C103.04 16.9565 103.619 17.4601 103.619 18.2929H105.76C105.683 16.3948 104.275 15.194 102.21 15.194C100.165 15.194 98.6407 16.3948 98.6407 18.2154C98.6407 19.455 99.3546 20.4815 101.188 20.9658L102.847 21.3919C103.464 21.5662 103.85 21.8567 103.85 22.399C103.85 23.1544 103.136 23.503 102.268 23.503C101.226 23.503 100.628 23.0188 100.628 22.186H98.4863Z" fill="#4C6379"/>
<path d="M110.952 25.3038C112.245 25.3038 113.48 24.7034 114.039 23.8124L114.194 25.052H116.393V15.484H114.039V20.5004C114.039 22.2242 113.383 23.1926 111.84 23.1926C110.644 23.1926 109.814 22.6116 109.814 20.636V15.484H107.46V21.4689C107.46 23.7543 108.695 25.3038 110.952 25.3038Z" fill="#4C6379"/>
<path d="M120.824 25.0525V19.5519C120.824 18.0024 121.73 17.2664 122.85 17.2664C123.969 17.2664 124.702 17.983 124.702 19.3388V25.0525H126.998V19.5712C126.998 18.0024 127.885 17.2664 129.004 17.2664C130.143 17.2664 130.876 17.983 130.876 19.3388V25.0525H133.153V18.7965C133.153 16.5885 131.937 15.194 129.622 15.194C128.175 15.194 127.036 15.8912 126.573 17.0146C126.052 15.8912 125.011 15.194 123.428 15.194C122.309 15.194 121.306 15.7169 120.746 16.5691L120.631 15.4845H118.47V25.0525H120.824Z" fill="#4C6379"/>
<path d="M115.181 33.6031C115.532 33.6031 115.836 33.3067 115.836 32.9547C115.836 32.5934 115.532 32.297 115.181 32.297C114.821 32.297 114.517 32.5934 114.517 32.9547C114.517 33.3067 114.821 33.6031 115.181 33.6031Z" fill="#4C6379"/>
<path d="M116.513 31.2137C116.513 32.631 117.38 33.5851 118.644 33.5851C119.733 33.5851 120.564 32.9274 120.739 31.9455H119.909C119.752 32.4921 119.272 32.8163 118.7 32.8163C117.888 32.8163 117.371 32.1864 117.371 31.2045C117.371 30.204 117.915 29.5927 118.718 29.5927C119.272 29.5927 119.752 29.8891 119.899 30.4727H120.73C120.582 29.4815 119.807 28.8146 118.727 28.8146C117.417 28.8146 116.513 29.7872 116.513 31.2137Z" fill="#4C6379"/>
<path d="M121.066 31.2035C121.066 32.5652 121.989 33.5841 123.373 33.5841C124.758 33.5841 125.68 32.5652 125.68 31.2035C125.68 29.8418 124.758 28.8229 123.373 28.8229C121.989 28.8229 121.066 29.8418 121.066 31.2035ZM121.943 31.2035C121.943 30.2772 122.506 29.601 123.373 29.601C124.241 29.601 124.804 30.2772 124.804 31.2035C124.804 32.1298 124.241 32.806 123.373 32.806C122.506 32.806 121.943 32.1298 121.943 31.2035Z" fill="#4C6379"/>
<path d="M127.288 33.4822V30.7589C127.288 30.0456 127.731 29.5825 128.377 29.5825C128.995 29.5825 129.383 29.9808 129.383 30.694V33.4822H130.232V30.7681C130.232 30.0456 130.666 29.5825 131.321 29.5825C131.93 29.5825 132.317 29.9808 132.317 30.694V33.4822H133.157V30.5088C133.157 29.462 132.548 28.8229 131.515 28.8229C130.813 28.8229 130.269 29.1656 130.047 29.7214C129.817 29.1656 129.309 28.8229 128.571 28.8229C128.008 28.8229 127.51 29.0822 127.261 29.5269L127.196 28.9526H126.421V33.4822H127.288Z" fill="#4C6379"/>
</g>
<path fill-rule="evenodd" clip-rule="evenodd" d="M7.36865 20.3665L7.37027 20.1978L7.37361 20.0289L7.37868 19.8601L7.38546 19.6912L7.39399 19.5224L7.40423 19.3535L7.41621 19.1848L7.42991 19.016L7.44534 18.8474L7.46251 18.6787L7.4814 18.5103L7.50201 18.3418L7.52436 18.1736L7.54843 18.0055L7.57423 17.8376L7.60175 17.6699L7.63101 17.5023L7.66197 17.3351L7.69466 17.168L7.72907 17.0012L7.7652 16.8346L7.80304 16.6684L7.8426 16.5025L7.88386 16.3369L7.92683 16.1716L7.9715 16.0067L8.01789 15.8421L8.06596 15.678L8.11573 15.5143L8.16719 15.351L8.22034 15.1882L8.27518 15.0257L8.3317 14.8638L8.38988 14.7023L8.44975 14.5414L8.51127 14.381L8.57446 14.2212L8.63931 14.0618L8.70581 13.9032L8.77395 13.745L8.84374 13.5875L8.91516 13.4306L8.98821 13.2744L9.06289 13.1188L9.13919 12.9638L9.21709 12.8096L9.2966 12.6561L9.37772 12.5033L9.46041 12.3513L9.5447 12.1999L9.63057 12.0494L9.718 11.8996L9.80699 11.7507L9.89754 11.6026L9.98964 11.4553L10.0833 11.3088L10.1785 11.1633L10.2752 11.0186L10.3734 10.8748L10.4731 10.7319L10.5743 10.5899L10.677 10.449L10.7812 10.3088L10.8868 10.1698L10.9939 10.0317L11.1025 9.89454L11.2125 9.75846L11.3239 9.6234L11.4368 9.48939L11.5511 9.35643L11.6667 9.22455L11.7838 9.09376L11.9022 8.96407L12.0221 8.8355L12.1432 8.70805L12.2658 8.58175L12.3896 8.45661L12.5148 8.33263L12.6413 8.20985L12.7691 8.08825L12.8982 7.96788L13.0285 7.84873L13.1602 7.73081L13.293 7.61415L13.4272 7.49874L13.5625 7.38462L13.6991 7.27178L13.8369 7.16025L13.9759 7.05002L14.116 6.94112L14.2573 6.83357L14.3998 6.72735L14.5434 6.62251L14.6881 6.51904L14.8339 6.41695L14.9809 6.31626L15.1289 6.21697L15.278 6.11911L15.4281 6.02267L15.5794 5.92768L15.7315 5.83414L15.8848 5.74206L16.039 5.65145L16.1942 5.56233L16.3504 5.4747L16.5075 5.38858L16.6656 5.30397L16.8245 5.22089L16.9844 5.13933L17.1452 5.05932L17.3069 4.98086L17.4695 4.90396L17.6328 4.82863L17.7971 4.75489L17.9621 4.68273L18.1279 4.61217L18.2945 4.54322L18.4619 4.47587L18.63 4.41015L18.7989 4.34606L18.9684 4.28361L19.1387 4.22281L19.3097 4.16365L19.4813 4.10615L19.6535 4.05033L19.8264 3.99617L20 3.9437L20.1741 3.89292L20.3488 3.84383L20.5241 3.79644L20.6999 3.75075L20.8763 3.70679L21.0531 3.66455L21.2305 3.62402L21.4084 3.58523L21.5867 3.54817L21.7654 3.51285L21.9446 3.47929L22.1242 3.44746L22.3042 3.4174L22.4846 3.3891L22.6653 3.36255L22.8463 3.33779L23.0277 3.31479L23.2094 3.29357L23.3914 3.27411L23.5736 3.25646L23.756 3.24059L23.9387 3.2265L24.1216 3.21422L25.1051 3.15784L25.1612 7.91461L25.1934 7.91424L25.3292 7.91405L25.465 7.91519L25.6008 7.91768L25.7368 7.92151L25.8727 7.92668L26.0087 7.93318L26.1447 7.94104L26.2807 7.95024L26.4166 7.96078L26.5525 7.97267L26.6884 7.9859L26.8242 8.00049L26.9598 8.01641L27.0955 8.03369L27.231 8.0523L27.3663 8.07226L27.5016 8.09358L27.6367 8.11623L27.7716 8.14022L27.9064 8.16556L28.041 8.19224L28.1753 8.22026L28.3095 8.24962L28.4434 8.28031L28.577 8.31234L28.7105 8.3457L28.8436 8.38041L28.9764 8.41643L29.109 8.45379L29.2413 8.49246L29.3731 8.53246L29.5047 8.57379L29.6359 8.61643L29.7667 8.66039L29.8972 8.70565L30.0272 8.75223L30.1569 8.8001L30.2861 8.84929L30.4149 8.89977L30.5432 8.95155L30.6711 9.00462L30.7984 9.05897L30.9253 9.1146L31.0518 9.17152L31.1776 9.22971L31.3029 9.28916L31.4277 9.34989L31.552 9.41187L31.6756 9.47512L31.7987 9.53961L31.9212 9.60534L32.0431 9.67232L32.1643 9.74053L32.2849 9.80997L32.4049 9.88063L32.5242 9.95253L32.6428 10.0256L32.7607 10.0999L32.8779 10.1754L32.9945 10.2521L33.1102 10.33L33.2253 10.409L33.3396 10.4892L33.4532 10.5706L33.5659 10.6532L33.6778 10.7369L33.7891 10.8218L33.8994 10.9077L34.0089 10.9949L34.1176 11.0831L34.2254 11.1724L34.3324 11.2629L34.4385 11.3545L34.5438 11.4471L34.6482 11.5408L34.7515 11.6356L34.854 11.7316L34.9556 11.8285L35.0563 11.9264L35.1559 12.0255L35.2547 12.1255L35.3524 12.2266L35.4492 12.3287L35.5449 12.4318L35.6397 12.5359L35.7334 12.641L35.8261 12.747L35.9178 12.854L36.0084 12.962L36.098 13.0708L36.1865 13.1807L36.2739 13.2915L36.3603 13.4031L36.4455 13.5157L36.5296 13.6292L36.6126 13.7436L36.6945 13.8589L36.7752 13.975L36.8548 14.0919L36.9332 14.2097L37.0105 14.3284L37.0866 14.4479L37.1614 14.5681L37.2351 14.6891L37.3076 14.811L37.3789 14.9336L37.449 15.057L37.5178 15.1811L37.5854 15.306L37.6518 15.4315L37.7169 15.5578L37.7807 15.6848L37.8433 15.8125L37.9046 15.9409L37.9647 16.0699L38.0234 16.1996L38.0809 16.33L38.137 16.4609L38.1918 16.5925L38.2453 16.7247L38.2975 16.8575L38.3483 16.9908L38.3978 17.1247L38.446 17.2591L38.4928 17.3942L38.5383 17.5297L38.5824 17.6658L38.6251 17.8023L38.6664 17.9393L38.7064 18.0768L38.745 18.2148L38.7821 18.3532L38.8179 18.4921L38.8523 18.6313L38.8853 18.771L38.9168 18.911L38.947 19.0515L38.9757 19.1922L39.003 19.3334L39.0288 19.4749L39.0533 19.6167L39.0763 19.7588L39.0979 19.9012L39.118 20.0439L39.1366 20.1868L39.1538 20.33L39.1696 20.4735L39.1839 20.6171L39.1967 20.761L39.2081 20.905L39.218 21.0493L39.2264 21.1937L39.2334 21.3382L39.2389 21.483L39.2428 21.6277L39.2454 21.7727L39.2464 21.9177L39.246 22.0628L39.2441 22.2079L39.2407 22.3532L39.2358 22.4984L39.2294 22.6436L39.2216 22.7889L39.2122 22.9342L39.2014 23.0794L39.1891 23.2246L39.1752 23.3698L39.16 23.5149L39.1431 23.6598L39.1248 23.8047L39.1051 23.9495L39.0838 24.0942L39.0611 24.2387L39.0368 24.383L39.0111 24.5272L38.9839 24.6712L38.9552 24.815L38.925 24.9586L38.8933 25.1019L38.8601 25.2451L38.8256 25.3879L38.7894 25.5305L38.7518 25.6727L38.7128 25.8147L38.6723 25.9563L38.6304 26.0976L38.5869 26.2387L38.5419 26.3792L38.4956 26.5195L38.4478 26.6593L38.3985 26.7988L38.3478 26.9378L38.2957 27.0763L38.242 27.2144L38.187 27.3521L38.1306 27.4893L38.0727 27.626L38.0134 27.7622L37.9526 27.8978L37.8905 28.033L37.8269 28.1675L37.7619 28.3015L37.6955 28.435L37.6278 28.5678L37.5586 28.7001L37.4881 28.8316L37.4162 28.9626L37.3429 29.0929L37.2683 29.2226L37.1923 29.3516L37.1149 29.4799L37.0362 29.6075L36.9561 29.7343L36.8747 29.8605L36.7921 29.9859L36.7081 30.1105L36.6227 30.2344L36.5361 30.3575L36.4482 30.4798L36.3589 30.6013L36.2684 30.722L36.1766 30.8418L36.0836 30.9607L35.9893 31.0788L35.8937 31.1961L35.7969 31.3124L35.6989 31.4278L35.5996 31.5423L35.4991 31.6559L35.3975 31.7686L35.2946 31.8804L35.1906 31.9911L35.0853 32.1009L34.9789 32.2096L34.8713 32.3174L34.7626 32.4242L34.6528 32.53L34.5418 32.6347L34.4297 32.7384L34.3165 32.841L34.2021 32.9425L34.0868 33.043L33.9703 33.1424L33.8527 33.2407L33.7341 33.3378L33.6145 33.4339L33.4938 33.5288L33.372 33.6225L33.2493 33.7151L33.1256 33.8065L33.0009 33.8968L32.8752 33.9858L32.7485 34.0737L32.6209 34.1604L32.4924 34.2458L32.3629 34.33L32.2325 34.413L32.1012 34.4947L31.969 34.5752L31.8359 34.6543L31.7019 34.7323L31.5672 34.809L31.4314 34.8842L31.295 34.9583L31.1577 35.031L31.0196 35.1024L30.8807 35.1726L30.741 35.2413L30.6006 35.3087L30.4594 35.3748L30.3175 35.4394L30.1749 35.5028L30.0315 35.5647L29.8875 35.6252L29.7428 35.6844L29.5974 35.7422L29.4513 35.7985L29.3046 35.8535L29.1573 35.907L29.0093 35.9591L28.8608 36.0097L28.7118 36.059L28.562 36.1067L28.4118 36.153L28.261 36.1979L28.1098 36.2413L27.9579 36.2832L27.8057 36.3237L27.6528 36.3626L27.4996 36.4001L27.346 36.4362L27.1918 36.4706L27.0373 36.5036L26.8823 36.5351L26.7269 36.5651L26.5712 36.5935L26.4152 36.6204L26.2588 36.6458L26.1021 36.6698L25.9449 36.6921L25.7876 36.7129L25.63 36.7322L25.4721 36.7498L25.3139 36.766L25.1555 36.7807L24.997 36.7937L24.8382 36.8052L24.6792 36.8152L24.52 36.8236L24.3607 36.8304L24.2013 36.8356L24.0417 36.8394L23.882 36.8415L23.7222 36.842L23.5624 36.841L23.4025 36.8384L23.2425 36.8343L23.0826 36.8285L22.9226 36.8212L22.7626 36.8123L22.6027 36.8018L22.4427 36.7898L22.2829 36.7761L22.1231 36.7609L21.9634 36.7441L21.8038 36.7258L21.6444 36.7058L21.485 36.6842L21.3258 36.6611L21.1668 36.6364L21.008 36.6101L20.8494 36.5823L20.6909 36.5529L20.5328 36.5219L20.3748 36.4894L20.2172 36.4552L20.0597 36.4195L19.9027 36.3823L19.7459 36.3434L19.5894 36.303L19.4333 36.2611L19.2776 36.2176L19.1222 36.1726L18.9672 36.126L18.8127 36.0778L18.6586 36.0282L18.5049 35.977L18.3516 35.9242L18.1989 35.8698L18.0466 35.8141L17.8949 35.7567L17.7436 35.6979L17.593 35.6375L17.4428 35.5756L17.2932 35.5122L17.1442 35.4474L16.9958 35.381L16.848 35.3131L16.7009 35.2437L16.5544 35.1729L16.4086 35.1006L16.2634 35.0268L16.1189 34.9516L15.9752 34.8749L15.8321 34.7968L15.6898 34.7172L15.5483 34.6362L15.4076 34.5538L15.2676 34.4699L15.1284 34.3847L14.99 34.298L14.8524 34.21L14.7157 34.1204L14.5798 34.0297L14.4449 33.9374L14.3108 33.8438L14.1776 33.7489L14.0453 33.6526L13.9139 33.555L13.7835 33.4559L13.6541 33.3556L13.5256 33.2541L13.3981 33.1511L13.2716 33.0469L13.1461 32.9414L13.0216 32.8346L12.8982 32.7266L12.7758 32.6172L12.6545 32.5066L12.5343 32.3949L12.4152 32.2818L12.2972 32.1676L12.1803 32.0521L12.0645 31.9354L11.9498 31.8176L11.8364 31.6986L11.724 31.5784L11.6129 31.457L11.503 31.3345L11.3943 31.2109L11.2868 31.0862L11.1805 30.9603L11.0754 30.8334L10.9717 30.7053L10.8691 30.5762L10.7679 30.446L10.6679 30.3148L10.5693 30.1825L10.4719 30.0492L10.3759 29.9149L10.2812 29.7796L10.1879 29.6433L10.0959 29.506L10.0053 29.3678L9.91602 29.2287L9.82815 29.0885L9.74168 28.9475L9.65661 28.8056L9.57296 28.6627L9.49074 28.519L9.40995 28.3744L9.3306 28.229L9.25271 28.0826L9.17627 27.9355L9.10131 27.7876L9.02782 27.6389L8.95584 27.4895L8.88535 27.3391L8.81636 27.1882L8.74889 27.0363L8.68293 26.8839L8.61851 26.7306L8.55564 26.5768L8.4943 26.4222L8.43452 26.2669L8.37631 26.111L8.31966 25.9545L8.26459 25.7973L8.21109 25.6396L8.15919 25.4812L8.10889 25.3223L8.06018 25.1628L8.0131 25.0028L7.96762 24.8422L7.92376 24.6811L7.88153 24.5196L7.84094 24.3576L7.80198 24.1951L7.76468 24.0321L7.72901 23.8687L7.69501 23.7049L7.66266 23.5407L7.63197 23.3761L7.60295 23.2111L7.57561 23.0458L7.54994 22.8802L7.52596 22.7142L7.50366 22.5479L7.48306 22.3813L7.46414 22.2145L7.44692 22.0474L7.4314 21.8802L7.41758 21.7126L7.40547 21.5449L7.39507 21.377L7.38638 21.2089L7.3794 21.0406L7.37413 20.8723L7.37058 20.7038L7.36876 20.5352L7.36865 20.3665ZM23.6247 8.01425L23.5865 4.77198L23.5502 4.7755L23.3834 4.79331L23.217 4.81275L23.0508 4.83384L22.8852 4.85649L22.7197 4.88079L22.5545 4.90672L22.3897 4.93424L22.2251 4.9634L22.0614 4.99408L21.8974 5.02648L21.7345 5.06033L21.5715 5.09589L21.4092 5.13296L21.2472 5.17168L21.0858 5.21188L20.9249 5.2537L20.7645 5.29708L20.6045 5.34202L20.4453 5.38847L20.2863 5.43652L20.1282 5.48606L19.9704 5.53718L19.8136 5.58971L19.657 5.6439L19.5012 5.69954L19.3461 5.75665L19.1915 5.81532L19.0378 5.87542L18.8848 5.93697L18.7323 6.0001L18.5806 6.06467L18.4296 6.1307L18.2794 6.19813L18.13 6.26702L17.9814 6.33731L17.8334 6.40914L17.6864 6.48228L17.5402 6.55685L17.3948 6.63283L17.2503 6.71021L17.1067 6.78891L16.9638 6.86907L16.8218 6.95062L16.681 7.03333L16.5406 7.11766L16.4016 7.20311L16.2636 7.28989L16.1262 7.37809L15.9898 7.46758L15.8545 7.55838L15.7205 7.65024L15.5869 7.74373L15.4547 7.83822L15.3235 7.93402L15.1932 8.03113L15.0641 8.1294L14.9362 8.22884L14.809 8.32969L14.6833 8.43149L14.5584 8.53463L14.4348 8.63889L14.3122 8.74436L14.1909 8.85085L14.0705 8.95868L13.9515 9.06747L13.8335 9.17752L13.7169 9.28849L13.6013 9.40067L13.487 9.51385L13.3739 9.62816L13.2618 9.74365L13.1513 9.85993L13.042 9.9772L12.9336 10.0959L12.8268 10.2153L12.7213 10.3355L12.6168 10.457L12.5139 10.5793L12.4121 10.7027L12.3117 10.8269L12.2126 10.9521L12.1147 11.0782L12.0184 11.2051L11.9233 11.3329L11.8294 11.4618L11.7372 11.5912L11.6461 11.7217L11.5565 11.8529L11.4683 11.985L11.3814 12.1178L11.2959 12.2515L11.2119 12.3858L11.1293 12.521L11.0481 12.6568L10.9683 12.7935L10.8899 12.9309L10.8131 13.0688L10.7376 13.2075L10.6636 13.347L10.5911 13.487L10.52 13.6277L10.4505 13.769L10.3824 13.9108L10.3157 14.0533L10.2506 14.1965L10.187 14.3401L10.1248 14.4843L10.0642 14.6291L10.0051 14.7743L9.94743 14.92L9.89132 15.0663L9.83675 15.213L9.78369 15.3602L9.7322 15.5077L9.68219 15.6559L9.63374 15.8043L9.58684 15.9532L9.54148 16.1023L9.49764 16.2521L9.45539 16.402L9.41468 16.5523L9.37551 16.7028L9.3379 16.8538L9.30186 17.005L9.26739 17.1565L9.23447 17.3082L9.20312 17.4602L9.17334 17.6124L9.14512 17.7648L9.11847 17.9174L9.0934 18.0703L9.0699 18.2232L9.04797 18.3763L9.02762 18.5295L9.00884 18.6829L8.99163 18.8363L8.97601 18.9899L8.96195 19.1435L8.94947 19.2971L8.93857 19.4509L8.92924 19.6047L8.92148 19.7583L8.9153 19.9121L8.91068 20.0658L8.90765 20.2195L8.90617 20.3731L8.90627 20.5267L8.90793 20.6801L8.91116 20.8335L8.91595 20.9868L8.9223 21.1399L8.93022 21.2929L8.93968 21.4457L8.95071 21.5983L8.96328 21.7508L8.97741 21.903L8.99307 22.0551L9.01028 22.2068L9.02903 22.3584L9.04932 22.5097L9.07114 22.6607L9.09449 22.8114L9.11936 22.9617L9.14576 23.1118L9.17367 23.2615L9.20309 23.4108L9.23402 23.5599L9.26645 23.7084L9.30038 23.8566L9.33581 24.0044L9.37272 24.1518L9.41112 24.2987L9.45099 24.4451L9.49234 24.5911L9.53516 24.7366L9.57944 24.8816L9.62517 25.0261L9.67234 25.17L9.72097 25.3135L9.77103 25.4563L9.82252 25.5986L9.87542 25.7402L9.92977 25.8814L9.9855 26.0218L10.0426 26.1617L10.1012 26.3009L10.1611 26.4394L10.2224 26.5774L10.2851 26.7146L10.3492 26.8511L10.4146 26.987L10.4813 27.122L10.5494 27.2564L10.6188 27.3901L10.6896 27.523L10.7617 27.6551L10.835 27.7864L10.9097 27.9169L10.9857 28.0467L11.063 28.1755L11.1414 28.3036L11.2213 28.4308L11.3023 28.5572L11.3846 28.6827L11.4681 28.8074L11.5528 28.9311L11.6388 29.0539L11.726 29.1759L11.8143 29.2969L11.9039 29.417L11.9946 29.536L12.0865 29.6542L12.1795 29.7713L12.2737 29.8875L12.3691 30.0028L12.4655 30.117L12.5631 30.2302L12.6617 30.3423L12.7615 30.4535L12.8623 30.5636L12.9642 30.6726L13.0671 30.7806L13.1711 30.8875L13.2761 30.9934L13.3822 31.098L13.4892 31.2017L13.5973 31.3042L13.7063 31.4057L13.8163 31.506L13.9273 31.6051L14.0392 31.703L14.1521 31.7999L14.2659 31.8955L14.3805 31.99L14.4962 32.0834L14.6126 32.1754L14.73 32.2664L14.8482 32.3562L14.9673 32.4447L15.0872 32.5319L15.2079 32.618L15.3294 32.7028L15.4518 32.7864L15.5748 32.8687L15.6988 32.9498L15.8234 33.0296L15.9488 33.1081L16.075 33.1854L16.2017 33.2613L16.3293 33.336L16.4575 33.4094L16.5865 33.4815L16.716 33.5522L16.8463 33.6217L16.977 33.6898L17.1085 33.7567L17.2406 33.8221L17.3733 33.8863L17.5065 33.9491L17.6403 34.0106L17.7747 34.0706L17.9096 34.1294L18.045 34.1867L18.181 34.2428L18.3174 34.2975L18.4543 34.3507L18.5917 34.4026L18.7295 34.4532L18.8677 34.5023L19.0065 34.55L19.1456 34.5964L19.2851 34.6414L19.4248 34.6849L19.5652 34.7271L19.7057 34.7679L19.8466 34.8072L19.9879 34.8452L20.1294 34.8817L20.2713 34.9168L20.4133 34.9505L20.5557 34.9828L20.6984 35.0137L20.8411 35.0431L20.9842 35.0712L21.1275 35.0978L21.271 35.123L21.4146 35.1467L21.5584 35.169L21.7023 35.1899L21.8465 35.2094L21.9906 35.2275L22.1349 35.2441L22.2792 35.2592L22.4237 35.273L22.5682 35.2853L22.7128 35.2963L22.8573 35.3057L23.0019 35.3138L23.1465 35.3204L23.291 35.3256L23.4356 35.3294L23.5801 35.3316L23.7245 35.3326L23.8689 35.3321L24.0131 35.3301L24.1573 35.3268L24.3013 35.322L24.4453 35.3159L24.589 35.3083L24.7326 35.2993L24.876 35.289L25.0193 35.2772L25.1623 35.2639L25.3051 35.2493L25.4477 35.2333L25.59 35.2159L25.7321 35.1972L25.8739 35.177L26.0154 35.1554L26.1566 35.1325L26.2975 35.1082L26.4381 35.0825L26.5783 35.0554L26.7181 35.0271L26.8576 34.9972L26.9967 34.9662L27.1354 34.9337L27.2737 34.8998L27.4116 34.8647L27.549 34.8282L27.6859 34.7903L27.8225 34.7512L27.9584 34.7107L28.094 34.6689L28.229 34.6259L28.3635 34.5814L28.4975 34.5358L28.6308 34.4888L28.7638 34.4404L28.8961 34.3909L29.0278 34.3401L29.1589 34.288L29.2893 34.2347L29.4192 34.1801L29.5485 34.1242L29.6771 34.0671L29.8049 34.0089L29.9323 33.9493L30.0588 33.8885L30.1847 33.8266L30.3099 33.7634L30.4343 33.6991L30.5581 33.6335L30.6811 33.5668L30.8033 33.4989L30.9247 33.4298L31.0454 33.3597L31.1654 33.2883L31.2844 33.2159L31.4028 33.1422L31.5202 33.0675L31.6368 32.9916L31.7526 32.9146L31.8677 32.8365L31.9816 32.7575L32.0947 32.6772L32.2071 32.596L32.3185 32.5137L32.429 32.4303L32.5385 32.346L32.6473 32.2604L32.755 32.174L32.8617 32.0866L32.9676 31.9981L33.0725 31.9086L33.1762 31.8182L33.2792 31.7268L33.381 31.6345L33.4819 31.5412L33.5818 31.4469L33.6806 31.3519L33.7785 31.2557L33.8753 31.1587L33.971 31.0608L34.0657 30.962L34.1593 30.8625L34.2517 30.7621L34.3433 30.6606L34.4336 30.5585L34.5229 30.4554L34.611 30.3517L34.6981 30.247L34.784 30.1417L34.8687 30.0355L34.9524 29.9284L35.0349 29.8208L35.1163 29.7123L35.1965 29.6031L35.2756 29.4932L35.3536 29.3824L35.4301 29.2713L35.5057 29.1592L35.5799 29.0466L35.6531 28.9332L35.7251 28.8191L35.7958 28.7045L35.8652 28.5893L35.9336 28.4732L36.0005 28.3569L36.0664 28.2398L36.1311 28.122L36.1943 28.004L36.2565 27.8851L36.3174 27.7657L36.3769 27.6462L36.4352 27.5257L36.4924 27.4047L36.5482 27.2835L36.6027 27.1617L36.656 27.0394L36.7079 26.9168L36.7586 26.7935L36.808 26.6699L36.8561 26.5462L36.9029 26.4216L36.9484 26.297L36.9927 26.1717L37.0356 26.0463L37.0772 25.9204L37.1174 25.7945L37.1565 25.6676L37.1941 25.541L37.2304 25.4139L37.2655 25.2867L37.2992 25.1589L37.3315 25.0312L37.3626 24.903L37.3923 24.7746L37.4208 24.6461L37.4479 24.5172L37.4735 24.3885L37.4979 24.2591L37.521 24.1301L37.5427 24.0006L37.5631 23.871L37.5822 23.7414L37.6 23.6116L37.6163 23.4819L37.6314 23.3516L37.6451 23.2218L37.6575 23.0916L37.6685 22.9617L37.6782 22.8314L37.6866 22.7015L37.6937 22.5712L37.6994 22.4409L37.7037 22.3108L37.7068 22.1811L37.7085 22.0508L37.7089 21.9208L37.708 21.7909L37.7057 21.6612L37.7021 21.5314L37.6972 21.4021L37.691 21.2724L37.6834 21.1432L37.6745 21.014L37.6644 20.8852L37.6529 20.7562L37.6401 20.6278L37.6261 20.4993L37.6106 20.3712L37.5939 20.2432L37.576 20.1156L37.5566 19.988L37.536 19.8609L37.5142 19.7343L37.4911 19.6075L37.4666 19.4812L37.4409 19.3554L37.4139 19.2295L37.3858 19.1045L37.3562 18.9794L37.3256 18.8551L37.2934 18.7306L37.2602 18.6071L37.2257 18.4837L37.19 18.3606L37.1531 18.2383L37.1149 18.1163L37.0754 17.9945L37.0349 17.8735L36.9929 17.7527L36.95 17.6326L36.9057 17.5128L36.8603 17.3938L36.8136 17.275L36.7658 17.1568L36.7169 17.0394L36.6668 16.9226L36.6153 16.8058L36.563 16.6902L36.5092 16.5747L36.4545 16.4602L36.3987 16.3462L36.3415 16.2326L36.2835 16.1199L36.2242 16.0078L36.1637 15.8961L36.1025 15.7855L36.0398 15.6752L35.9762 15.5658L35.9114 15.457L35.8458 15.3492L35.7787 15.2416L35.7109 15.1351L35.6419 15.0291L35.5719 14.924L35.5011 14.8198L35.4289 14.7161L35.3558 14.6132L35.2819 14.5112L35.2068 14.41L35.1308 14.3095L35.0538 14.21L34.9758 14.1111L34.8969 14.0132L34.817 13.9161L34.7362 13.8197L34.6544 13.7243L34.5717 13.6298L34.4883 13.5361L34.4038 13.4433L34.3182 13.3513L34.2322 13.2605L34.1448 13.1702L34.057 13.0812L33.9682 12.9929L33.8786 12.9056L33.7878 12.8191L33.6967 12.7338L33.6044 12.6493L33.5114 12.5658L33.4178 12.4833L33.3234 12.4018L33.2278 12.321L33.1318 12.2415L33.0351 12.1629L32.9375 12.0853L32.8392 12.0087L32.7404 11.9333L32.6404 11.8586L32.5402 11.7852L32.4391 11.7128L32.3373 11.6413L32.235 11.571L32.1317 11.5015L32.0283 11.4335L31.9238 11.3662L31.8189 11.3001L31.7132 11.235L31.6071 11.171L31.5004 11.1082L31.3933 11.0465L31.2851 10.9856L31.177 10.9262L31.0679 10.8676L30.9585 10.8103L30.8486 10.7541L30.738 10.699L30.627 10.6449L30.5156 10.5921L30.4036 10.5403L30.2914 10.4898L30.1786 10.4403L30.0617 10.3904L29.9518 10.3449L29.8375 10.2987L29.7233 10.254L29.6082 10.2101L29.4931 10.1677L29.3775 10.1263L29.2617 10.0861L29.1453 10.0469L29.0289 10.0091L28.9119 9.97241L28.7947 9.93687L28.6774 9.9026L28.5597 9.86938L28.4415 9.83732L28.3234 9.80655L28.2052 9.77696L28.0861 9.74846L27.9675 9.72126L27.8483 9.69516L27.7291 9.67032L27.6095 9.6466L27.49 9.62414L27.3702 9.60283L27.2505 9.58276L27.1302 9.56382L27.0102 9.54612L26.89 9.5296L26.7696 9.51427L26.6493 9.50014L26.5289 9.48722L26.4084 9.47548L26.2879 9.46494L26.1672 9.45558L26.0465 9.44741L25.9261 9.44046L25.8057 9.43469L25.6848 9.4301L25.5646 9.42671L25.4441 9.42451L25.3237 9.4235L25.2032 9.42366L25.179 9.42394L25.217 12.6426L25.2854 12.6423L25.3734 12.6428L25.4614 12.6442L25.5495 12.6464L25.6376 12.6495L25.7258 12.6536L25.814 12.6585L25.9022 12.6642L25.9905 12.6708L26.0787 12.6783L26.167 12.6868L26.2552 12.696L26.3434 12.7062L26.4316 12.7172L26.5197 12.7291L26.6077 12.742L26.6957 12.7556L26.7837 12.7702L26.8716 12.7857L26.9593 12.802L27.047 12.8193L27.1346 12.8374L27.2221 12.8564L27.3094 12.8762L27.3965 12.897L27.4836 12.9187L27.5704 12.9412L27.6572 12.9646L27.7438 12.9888L27.8302 13.014L27.9164 13.04L28.0024 13.0669L28.0881 13.0947L28.1737 13.1233L28.2591 13.1529L28.3442 13.1833L28.4291 13.2145L28.5136 13.2466L28.598 13.2796L28.6821 13.3135L28.7659 13.3482L28.8493 13.3838L28.9326 13.4202L29.0154 13.4575L29.098 13.4955L29.1802 13.5345L29.2622 13.5743L29.3437 13.615L29.4249 13.6565L29.5058 13.6989L29.5862 13.742L29.6663 13.786L29.746 13.8308L29.8253 13.8765L29.9042 13.923L29.9828 13.9703L30.0608 14.0184L30.1384 14.0673L30.2156 14.1171L30.2923 14.1676L30.3686 14.2189L30.4444 14.271L30.5197 14.324L30.5946 14.3776L30.6689 14.4321L30.7427 14.4874L30.8161 14.5434L30.8888 14.6003L30.9612 14.6579L31.0329 14.7162L31.1041 14.7753L31.1747 14.8351L31.2449 14.8957L31.3144 14.957L31.3834 15.0191L31.4517 15.0819L31.5194 15.1454L31.5866 15.2096L31.6532 15.2746L31.7191 15.3402L31.7844 15.4066L31.8491 15.4737L31.9132 15.5414L31.9765 15.6099L32.0393 15.679L32.1014 15.7488L32.1628 15.8192L32.2235 15.8904L32.2836 15.9621L32.343 16.0346L32.4016 16.1076L32.4596 16.1813L32.5168 16.2557L32.5733 16.3306L32.6291 16.4063L32.6842 16.4824L32.7385 16.5592L32.792 16.6366L32.8449 16.7146L32.8969 16.7931L32.9482 16.8722L32.9987 16.9519L33.0484 17.0322L33.0974 17.113L33.1455 17.1943L33.1929 17.2762L33.2394 17.3586L33.2851 17.4415L33.33 17.525L33.3741 17.609L33.4174 17.6934L33.4598 17.7784L33.5014 17.8639L33.5422 17.9498L33.582 18.0361L33.621 18.123L33.6592 18.2102L33.6965 18.298L33.7329 18.3861L33.7685 18.4747L33.8031 18.5637L33.8369 18.6531L33.8698 18.7429L33.9017 18.8331L33.9328 18.9237L33.963 19.0147L33.9922 19.106L34.0206 19.1977L34.048 19.2897L34.0745 19.3821L34.1001 19.4748L34.1247 19.5679L34.1484 19.6612L34.1712 19.7548L34.193 19.8487L34.2139 19.9429L34.2337 20.0374L34.2527 20.1322L34.2707 20.2271L34.2877 20.3225L34.3038 20.418L34.3189 20.5136L34.333 20.6096L34.3462 20.7057L34.3583 20.802L34.3696 20.8986L34.3797 20.9954L34.3889 21.0922L34.3972 21.1893L34.4045 21.2865L34.4108 21.3839L34.416 21.4813L34.4202 21.5789L34.4235 21.6767L34.4258 21.7744L34.427 21.8724L34.4273 21.9704L34.4265 22.0684L34.4248 22.1665L34.422 22.2647L34.4182 22.363L34.4134 22.4612L34.4076 22.5594L34.4009 22.6578L34.3931 22.7561L34.3842 22.8543L34.3743 22.9526L34.3634 23.0508L34.3516 23.1491L34.3387 23.2472L34.3248 23.3453L34.3098 23.4433L34.2939 23.5412L34.277 23.6391L34.2589 23.7369L34.24 23.8346L34.2199 23.9321L34.1989 24.0295L34.1769 24.1268L34.1538 24.2239L34.1297 24.3208L34.1046 24.4176L34.0786 24.5142L34.0515 24.6106L34.0234 24.7068L33.9942 24.8028L33.9641 24.8986L33.9329 24.9942L33.9008 25.0895L33.8677 25.1845L33.8336 25.2794L33.7984 25.3738L33.7623 25.4681L33.7252 25.562L33.6871 25.6557L33.648 25.7491L33.6079 25.842L33.5669 25.9348L33.5249 26.0271L33.4819 26.1191L33.4379 26.2107L33.3929 26.302L33.347 26.3929L33.3001 26.4834L33.2522 26.5734L33.2034 26.6631L33.1537 26.7524L33.103 26.8412L33.0513 26.9295L32.9987 27.0175L32.9452 27.105L32.8908 27.192L32.8353 27.2785L32.779 27.3646L32.7217 27.45L32.6636 27.5351L32.6045 27.6196L32.5446 27.7036L32.4837 27.7871L32.4219 27.87L32.3593 27.9524L32.2957 28.0341L32.2312 28.1153L32.1659 28.196L32.0997 28.276L32.0327 28.3555L31.9647 28.4343L31.8959 28.5125L31.8263 28.5901L31.7558 28.6671L31.6845 28.7434L31.6125 28.8191L31.5395 28.894L31.4657 28.9684L31.3911 29.042L31.3158 29.115L31.2395 29.1872L31.1626 29.2587L31.0848 29.3296L31.0062 29.3997L30.9269 29.4691L30.8468 29.5378L30.766 29.6057L30.6844 29.6729L30.6021 29.7392L30.519 29.8048L30.4352 29.8697L30.3507 29.9338L30.2655 29.997L30.1795 30.0595L30.0929 30.1212L30.0056 30.182L29.9176 30.242L29.8288 30.3012L29.7395 30.3596L29.6495 30.4171L29.5589 30.4738L29.4675 30.5295L29.3757 30.5845L29.283 30.6386L29.1899 30.6917L29.0961 30.744L29.0018 30.7955L28.9068 30.846L28.8113 30.8956L28.7151 30.9443L28.6185 30.992L28.5212 31.0389L28.4234 31.0848L28.3251 31.1298L28.2263 31.1738L28.127 31.217L28.0271 31.2591L27.9267 31.3002L27.8259 31.3405L27.7246 31.3797L27.6228 31.418L27.5205 31.4554L27.4179 31.4916L27.3147 31.5269L27.2112 31.5613L27.1071 31.5946L27.0028 31.6269L26.898 31.6582L26.7928 31.6884L26.6873 31.7178L26.5813 31.746L26.475 31.7732L26.3684 31.7994L26.2614 31.8245L26.1541 31.8486L26.0465 31.8717L25.9386 31.8937L25.8303 31.9146L25.7219 31.9346L25.6131 31.9535L25.504 31.9712L25.3948 31.9879L25.2852 32.0036L25.1754 32.0181L25.0654 32.0317L24.9553 32.0441L24.8449 32.0554L24.7343 32.0657L24.6236 32.0749L24.5127 32.083L24.4016 32.09L24.2904 32.0959L24.1791 32.1007L24.0676 32.1044L23.956 32.107L23.8444 32.1085L23.7325 32.1089L23.6207 32.1082L23.5089 32.1064L23.3969 32.1035L23.2849 32.0995L23.1729 32.0943L23.0608 32.0881L22.9488 32.0808L22.8368 32.0724L22.7248 32.0628L22.6128 32.0521L22.5008 32.0403L22.3889 32.0274L22.2771 32.0134L22.1652 31.9983L22.0536 31.982L21.942 31.9647L21.8305 31.9462L21.7191 31.9266L21.6079 31.906L21.4968 31.8842L21.3859 31.8612L21.2751 31.8372L21.1645 31.8121L21.0541 31.7858L20.9439 31.7584L20.8339 31.73L20.7241 31.7004L20.6145 31.6698L20.5053 31.638L20.3963 31.6052L20.2875 31.5712L20.179 31.5361L20.0709 31.5L19.9629 31.4628L19.8554 31.4244L19.7481 31.385L19.6412 31.3445L19.5346 31.3029L19.4284 31.2603L19.3226 31.2165L19.2171 31.1717L19.1121 31.1259L19.0075 31.0789L18.9032 31.0309L18.7994 30.9819L18.6961 30.9318L18.5932 30.8806L18.4906 30.8284L18.3887 30.7752L18.2872 30.7209L18.1862 30.6655L18.0857 30.6092L17.9857 30.5518L17.8862 30.4934L17.7873 30.434L17.6889 30.3735L17.5911 30.3121L17.4939 30.2496L17.3972 30.1862L17.3012 30.1217L17.2057 30.0563L17.1108 29.9899L17.0166 29.9226L16.923 29.8542L16.8301 29.7849L16.7377 29.7146L16.6461 29.6433L16.5552 29.5711L16.4649 29.498L16.3753 29.4239L16.2864 29.3489L16.1982 29.273L16.1108 29.1962L16.0241 29.1184L15.9381 29.0398L15.8529 28.9603L15.7685 28.8799L15.6847 28.7985L15.6018 28.7163L15.5198 28.6333L15.4385 28.5493L15.358 28.4646L15.2783 28.379L15.1995 28.2926L15.1215 28.2052L15.0443 28.1172L14.9681 28.0282L14.8926 27.9386L14.8181 27.848L14.7443 27.7567L14.6716 27.6646L14.5997 27.5717L14.5287 27.4781L14.4587 27.3837L14.3895 27.2886L14.3213 27.1927L14.2541 27.0961L14.1877 26.9988L14.1224 26.9007L14.058 26.802L13.9946 26.7026L13.9322 26.6025L13.8707 26.5017L13.8103 26.4002L13.7508 26.2981L13.6924 26.1953L13.635 26.092L13.5786 25.9879L13.5232 25.8833L13.4689 25.778L13.4156 25.6722L13.3634 25.5658L13.3122 25.4587L13.2621 25.3512L13.2131 25.243L13.1652 25.1343L13.1183 25.0251L13.0725 24.9153L13.0278 24.8051L12.9843 24.6943L12.9418 24.583L12.9005 24.4713L12.8602 24.3591L12.8211 24.2463L12.7832 24.1332L12.7463 24.0196L12.7106 23.9056L12.6761 23.7913L12.6427 23.6764L12.6105 23.5612L12.5794 23.4456L12.5495 23.3295L12.5207 23.2132L12.4932 23.0965L12.4668 22.9795L12.4416 22.8621L12.4175 22.7444L12.3947 22.6265L12.3731 22.5082L12.3526 22.3896L12.3334 22.2708L12.3154 22.1517L12.2986 22.0324L12.283 21.9128L12.2686 21.793L12.2554 21.673L12.2435 21.5528L12.2327 21.4324L12.2232 21.3118L12.215 21.1911L12.2079 21.0702L12.2021 20.9492L12.1975 20.8281L12.1942 20.7068L12.1921 20.5855L12.1913 20.4639L12.1916 20.3424L12.1933 20.2208L12.1962 20.0992L12.2003 19.9775L12.2057 19.8558L12.2123 19.7341L12.2202 19.6123L12.2293 19.4906L12.2396 19.3689L12.2513 19.2473L12.2642 19.1256L12.2783 19.0041L12.2937 18.8826L12.3103 18.7611L12.3282 18.6398L12.3473 18.5186L12.3677 18.3975L12.3894 18.2766L12.4123 18.1557L12.4364 18.0351L12.4618 17.9146L12.4884 17.7943L12.5163 17.6742L12.5454 17.5543L12.5758 17.4346L12.6074 17.3152L12.6403 17.196L12.6744 17.0771L12.7097 16.9584L12.7463 16.84L12.7841 16.7219L12.8231 16.6042L12.8633 16.4867L12.9048 16.3695L12.9475 16.2527L12.9914 16.1363L13.0366 16.0202L13.0829 15.9045L13.1305 15.7892L13.1792 15.6744L13.2292 15.5599L13.2804 15.4458L13.3327 15.3322L13.3863 15.2191L13.441 15.1064L13.4969 14.9942L13.5541 14.8825L13.6123 14.7713L13.6718 14.6606L13.7324 14.5504L13.7942 14.4408L13.8571 14.3316L13.9212 14.2232L13.9864 14.1152L14.0528 14.0079L14.1203 13.9011L14.1889 13.7949L14.2587 13.6894L14.3295 13.5844L14.4016 13.4802L14.4746 13.3765L14.5488 13.2735L14.6241 13.1713L14.7005 13.0697L14.778 12.9688L14.8565 12.8686L14.9361 12.7691L15.0167 12.6704L15.0984 12.5724L15.1812 12.4751L15.265 12.3786L15.3498 12.283L15.4357 12.1881L15.5226 12.0939L15.6105 12.0006L15.6994 11.9081L15.7893 11.8164L15.8801 11.7256L15.972 11.6356L16.0648 11.5465L16.1586 11.4581L16.2533 11.3708L16.349 11.2842L16.4457 11.1987L16.5432 11.114L16.6417 11.0302L16.7411 10.9473L16.8413 10.8654L16.9425 10.7844L17.0446 10.7044L17.1475 10.6253L17.2513 10.5472L17.356 10.4701L17.4614 10.394L17.5677 10.3188L17.6749 10.2447L17.7829 10.1716L17.8916 10.0996L18.0012 10.0286L18.1116 9.95859L18.2227 9.88966L18.3346 9.82178L18.4473 9.75497L18.5606 9.68923L18.6748 9.62457L18.7896 9.561L18.9051 9.49854L19.0214 9.43719L19.1384 9.37694L19.256 9.31782L19.3742 9.25982L19.4932 9.20297L19.6128 9.14725L19.733 9.09268L19.8539 9.03927L19.9754 8.98702L20.0975 8.93595L20.2201 8.88605L20.3433 8.83733L20.4671 8.7898L20.5914 8.74347L20.7163 8.69834L20.8417 8.65442L20.9676 8.61171L21.0941 8.57022L21.2209 8.52995L21.3483 8.49091L21.4762 8.45311L21.6045 8.41656L21.7332 8.38124L21.8624 8.34718L21.992 8.31437L22.122 8.28282L22.2524 8.25255L22.3832 8.22353L22.5143 8.19579L22.6458 8.16933L22.7776 8.14416L22.9097 8.12027L23.0422 8.09767L23.175 8.07636L23.3081 8.05635L23.4414 8.03765L23.5749 8.02025L23.6247 8.01425ZM23.6811 12.7882L23.6427 9.53417L23.5332 9.54953L23.4155 9.56723L23.2977 9.58612L23.1807 9.60609L23.0635 9.62728L22.9469 9.64955L22.8306 9.67297L22.7146 9.69748L22.5989 9.72316L22.4835 9.74997L22.3684 9.77789L22.2538 9.80691L22.1393 9.83709L22.0293 9.86723L21.9121 9.90066L21.799 9.93409L21.6863 9.96862L21.5742 10.0042L21.4624 10.0409L21.351 10.0787L21.2401 10.1175L21.1298 10.1573L21.0199 10.1983L20.9105 10.2403L20.8015 10.2834L20.6934 10.3274L20.5853 10.3727L20.478 10.4188L20.3712 10.466L20.2652 10.5141L20.1594 10.5634L20.0542 10.6137L19.9499 10.6648L19.8458 10.7171L19.7428 10.7702L19.6399 10.8245L19.5381 10.8795L19.4364 10.9359L19.3357 10.9928L19.2357 11.0508L19.1363 11.1098L19.0375 11.1697L18.9393 11.2307L18.8421 11.2923L18.7452 11.3551L18.6494 11.4186L18.5542 11.4831L18.4596 11.5485L18.3657 11.6148L18.2728 11.6818L18.1804 11.7499L18.0888 11.8188L17.9981 11.8885L17.9081 11.959L17.8188 12.0305L17.7304 12.1027L17.6429 12.1757L17.556 12.2497L17.4701 12.3242L17.3849 12.3998L17.3005 12.4761L17.217 12.553L17.1345 12.6308L17.0525 12.7094L16.9718 12.7886L16.8917 12.8686L16.8124 12.9494L16.7342 13.0308L16.6568 13.1131L16.5802 13.196L16.5047 13.2795L16.4299 13.3638L16.356 13.4489L16.2834 13.5343L16.2114 13.6207L16.1403 13.7076L16.0703 13.7951L16.0012 13.8832L15.933 13.9722L15.8658 14.0615L15.7995 14.1515L15.7342 14.2421L15.6699 14.3333L15.6066 14.425L15.5443 14.5172L15.4829 14.6101L15.4225 14.7035L15.3632 14.7973L15.3049 14.8917L15.2475 14.9868L15.1911 15.0821L15.1358 15.178L15.0815 15.2745L15.0283 15.3711L14.976 15.4685L14.9247 15.5663L14.8746 15.6644L14.8255 15.7631L14.7774 15.8621L14.7303 15.9614L14.6844 16.0612L14.6394 16.1614L14.5955 16.2619L14.5526 16.3628L14.511 16.464L14.4703 16.5656L14.4306 16.6676L14.392 16.7698L14.3546 16.8723L14.3181 16.9752L14.2829 17.0782L14.2486 17.1816L14.2154 17.2852L14.1833 17.3892L14.1523 17.4932L14.1224 17.5976L14.0936 17.7021L14.0658 17.8069L14.0392 17.9119L14.0137 18.017L13.9892 18.1224L13.9659 18.2278L13.9436 18.3335L13.9224 18.4393L13.9024 18.5451L13.8834 18.6512L13.8655 18.7573L13.8487 18.8636L13.8331 18.9698L13.8185 19.0762L13.805 19.1827L13.7926 19.2892L13.7813 19.3957L13.7712 19.5023L13.7621 19.609L13.7541 19.7155L13.7472 19.8222L13.7414 19.9288L13.7367 20.0353L13.7331 20.1418L13.7306 20.2483L13.7291 20.3547L13.7288 20.4612L13.7295 20.5674L13.7314 20.6736L13.7343 20.7797L13.7383 20.8857L13.7434 20.9916L13.7495 21.0974L13.7568 21.2029L13.7651 21.3084L13.7744 21.4137L13.7849 21.5188L13.7964 21.6237L13.809 21.7284L13.8226 21.833L13.8373 21.9373L13.8531 22.0415L13.8699 22.1452L13.8878 22.2489L13.9067 22.3523L13.9266 22.4553L13.9476 22.5582L13.9696 22.6607L13.9927 22.763L14.0167 22.8648L14.0418 22.9664L14.068 23.0677L14.0951 23.1687L14.1232 23.2692L14.1524 23.3695L14.1825 23.4694L14.2137 23.569L14.2459 23.6682L14.279 23.7668L14.3131 23.8651L14.3482 23.9631L14.3843 24.0606L14.4214 24.1577L14.4594 24.2543L14.4983 24.3504L14.5382 24.4462L14.5791 24.5414L14.6209 24.6362L14.6636 24.7305L14.7073 24.8242L14.752 24.9175L14.7974 25.0103L14.8439 25.1025L14.8912 25.1943L14.9395 25.2855L14.9886 25.3761L15.0386 25.4662L15.0895 25.5557L15.1413 25.6447L15.194 25.733L15.2475 25.8208L15.3019 25.908L15.3571 25.9946L15.4132 26.0806L15.47 26.1658L15.5278 26.2506L15.5862 26.3347L15.6456 26.4181L15.7058 26.5009L15.7668 26.583L15.8285 26.6644L15.8911 26.7453L15.9543 26.8254L16.0184 26.9048L16.0833 26.9835L16.1489 27.0616L16.2152 27.1388L16.2824 27.2155L16.3501 27.2913L16.4187 27.3665L16.4879 27.4409L16.5578 27.5146L16.6285 27.5875L16.6999 27.6596L16.7718 27.7311L16.8446 27.8017L16.918 27.8716L16.9919 27.9407L17.0666 28.009L17.1419 28.0765L17.2178 28.1432L17.2944 28.2091L17.3716 28.2742L17.4493 28.3386L17.5277 28.402L17.6066 28.4646L17.6862 28.5264L17.7663 28.5875L17.847 28.6476L17.9281 28.7069L18.0098 28.7653L18.0921 28.8229L18.1749 28.8797L18.2583 28.9356L18.3421 28.9906L18.4264 29.0447L18.5112 29.098L18.5964 29.1504L18.6822 29.202L18.7684 29.2526L18.855 29.3023L18.9421 29.3511L19.0296 29.399L19.1175 29.4461L19.2059 29.4922L19.2946 29.5374L19.3837 29.5818L19.4733 29.6251L19.5632 29.6676L19.6533 29.7092L19.744 29.7498L19.8349 29.7895L19.9262 29.8282L20.0178 29.8661L20.1097 29.903L20.2018 29.939L20.2943 29.974L20.3871 30.0081L20.4802 30.0413L20.5734 30.0735L20.6671 30.1048L20.7608 30.135L20.8549 30.1644L20.9492 30.1928L21.0436 30.2202L21.1383 30.2468L21.2331 30.2723L21.3282 30.297L21.4234 30.3205L21.5188 30.3432L21.6143 30.3649L21.7101 30.3857L21.8059 30.4055L21.9017 30.4243L21.9979 30.4421L22.0939 30.4591L22.1902 30.4751L22.2865 30.49L22.3829 30.504L22.4794 30.5171L22.5759 30.5292L22.6724 30.5403L22.769 30.5505L22.8656 30.5597L22.9623 30.5679L23.0589 30.5752L23.1555 30.5816L23.2521 30.5869L23.3487 30.5914L23.4453 30.5948L23.5418 30.5973L23.6382 30.5988L23.7345 30.5994L23.8308 30.5991L23.9271 30.5978L24.0232 30.5956L24.1192 30.5924L24.2151 30.5882L24.3109 30.5831L24.4065 30.5771L24.502 30.5701L24.5973 30.5622L24.6925 30.5534L24.7875 30.5436L24.8824 30.5329L24.977 30.5213L25.0715 30.5087L25.1657 30.4954L25.2597 30.481L25.3535 30.4656L25.447 30.4495L25.5403 30.4323L25.6334 30.4143L25.7262 30.3954L25.8188 30.3755L25.9109 30.3548L26.0028 30.3332L26.0944 30.3107L26.1858 30.2874L26.2768 30.2631L26.3675 30.2379L26.4578 30.2119L26.5478 30.185L26.6374 30.1573L26.7267 30.1287L26.8157 30.0992L26.9042 30.0689L26.9924 30.0378L27.0801 30.0058L27.1674 29.9729L27.2544 29.9392L27.3408 29.9047L27.427 29.8693L27.5126 29.8332L27.5978 29.7962L27.6826 29.7585L27.7668 29.7199L27.8507 29.6805L27.9341 29.6404L28.0168 29.5995L28.0994 29.5577L28.1812 29.5152L28.2626 29.4719L28.3433 29.4279L28.4237 29.3831L28.5035 29.3375L28.5827 29.2912L28.6615 29.2442L28.7397 29.1964L28.8172 29.1479L28.8944 29.0986L28.9707 29.0488L29.0466 28.9981L29.1221 28.9466L29.1967 28.8946L29.2707 28.842L29.3444 28.7884L29.4172 28.7344L29.4895 28.6796L29.5612 28.6241L29.632 28.5681L29.7026 28.5113L29.7724 28.4538L29.8412 28.3959L29.9099 28.337L29.9776 28.2778L30.0446 28.218L30.1112 28.1573L30.1768 28.0964L30.2419 28.0346L30.3063 27.9723L30.3699 27.9095L30.4329 27.846L30.4952 27.782L30.5568 27.7174L30.6175 27.6523L30.6777 27.5866L30.7372 27.5204L30.7957 27.4538L30.8538 27.3865L30.9109 27.3188L30.9673 27.2506L31.0231 27.1817L31.0779 27.1126L31.1321 27.0428L31.1856 26.9727L31.2382 26.9019L31.2901 26.8308L31.3411 26.7594L31.3915 26.6873L31.441 26.6149L31.4897 26.5421L31.5378 26.4687L31.5848 26.3952L31.6313 26.3211L31.6768 26.2466L31.7216 26.1718L31.7655 26.0966L31.8088 26.0209L31.851 25.9452L31.8926 25.8687L31.9333 25.7922L31.973 25.7153L32.0122 25.6378L32.0503 25.5605L32.0878 25.4824L32.1242 25.4045L32.1601 25.3258L32.1948 25.2472L32.229 25.1679L32.2622 25.0888L32.2945 25.0093L32.326 24.9295L32.3567 24.8494L32.3864 24.7693L32.4155 24.6887L32.4436 24.608L32.4708 24.5272L32.4972 24.4461L32.5228 24.3647L32.5476 24.2833L32.5714 24.2018L32.5944 24.1199L32.6165 24.0381L32.6378 23.956L32.6581 23.8738L32.6777 23.7916L32.6964 23.709L32.7142 23.6265L32.7312 23.5439L32.7472 23.4612L32.7625 23.3785L32.7768 23.2954L32.7904 23.2126L32.803 23.1295L32.8148 23.0464L32.8257 22.9635L32.8357 22.8804L32.845 22.797L32.8533 22.7142L32.8608 22.6308L32.8675 22.5476L32.8732 22.4647L32.8781 22.3815L32.8821 22.2985L32.8853 22.2155L32.8877 22.1323L32.8891 22.0496L32.8898 21.9666L32.8895 21.8838L32.8885 21.801L32.8866 21.7186L32.8838 21.636L32.8802 21.5535L32.8758 21.4714L32.8705 21.3891L32.8643 21.307L32.8575 21.2253L32.8497 21.1434L32.841 21.0619L32.8315 20.9803L32.8213 20.8991L32.8102 20.818L32.7983 20.737L32.7856 20.6564L32.7721 20.5759L32.7577 20.4957L32.7425 20.4157L32.7265 20.3356L32.7097 20.2561L32.6922 20.1769L32.6738 20.0977L32.6546 20.0187L32.6347 19.9404L32.6139 19.8618L32.5925 19.7839L32.5701 19.7061L32.5471 19.6288L32.5233 19.5516L32.4986 19.4747L32.4733 19.3983L32.4472 19.3222L32.4202 19.2462L32.3926 19.1708L32.3642 19.0956L32.3351 19.0209L32.3052 18.9464L32.2746 18.8722L32.2433 18.7987L32.2112 18.7252L32.1785 18.6524L32.145 18.58L32.1108 18.5077L32.0758 18.4359L32.0403 18.3647L32.0039 18.2938L31.967 18.2234L31.9293 18.1535L31.8909 18.0837L31.852 18.0148L31.8122 17.946L31.7719 17.8779L31.7308 17.81L31.6892 17.7429L31.6468 17.676L31.6039 17.6098L31.5603 17.544L31.5161 17.4788L31.4711 17.4138L31.4256 17.3496L31.3797 17.2859L31.3329 17.2225L31.2856 17.1599L31.2377 17.0976L31.1893 17.0361L31.1402 16.9748L31.0905 16.9143L31.0403 16.8543L30.9895 16.7947L30.9383 16.7359L30.8862 16.6775L30.8339 16.6198L30.7809 16.5626L30.7275 16.5061L30.6733 16.45L30.6189 16.3946L30.5637 16.3396L30.5082 16.2855L30.4522 16.2319L30.3957 16.1789L30.3385 16.1264L30.281 16.0747L30.223 16.0236L30.1644 15.9729L30.1057 15.9232L30.0463 15.8738L29.9865 15.8252L29.9262 15.7773L29.8655 15.7298L29.8044 15.6831L29.7431 15.6372L29.681 15.5918L29.6185 15.5469L29.556 15.503L29.4927 15.4595L29.4294 15.417L29.3656 15.3748L29.3013 15.3334L29.2367 15.2927L29.1719 15.2527L29.1065 15.2133L29.0409 15.1748L28.9748 15.1367L28.9088 15.0996L28.8422 15.063L28.7753 15.0271L28.7081 14.9919L28.6407 14.9575L28.5729 14.9236L28.5048 14.8906L28.4366 14.8582L28.3682 14.8266L28.2991 14.7956L28.2303 14.7654L28.161 14.7359L28.0914 14.7071L28.0217 14.679L27.9519 14.6517L27.8818 14.6251L27.8112 14.5991L27.7408 14.574L27.67 14.5495L27.5991 14.5258L27.5282 14.5028L27.4569 14.4805L27.3857 14.459L27.3139 14.4381L27.2424 14.418L27.1706 14.3987L27.0987 14.3801L27.0268 14.3621L26.9545 14.345L26.8823 14.3285L26.8102 14.3129L26.7377 14.2979L26.665 14.2836L26.5928 14.2702L26.5201 14.2574L26.4475 14.2453L26.3746 14.234L26.3021 14.2234L26.2291 14.2135L26.1565 14.2045L26.0837 14.1961L26.0109 14.1884L25.9381 14.1815L25.8652 14.1753L25.7927 14.1698L25.7197 14.1651L25.647 14.161L25.5746 14.1578L25.5016 14.1551L25.4292 14.1533L25.3567 14.1522L25.2843 14.1518L25.2348 14.1519L25.2723 17.3312L25.2947 17.3313L25.3363 17.3319L25.378 17.3329L25.4198 17.3343L25.4616 17.3362L25.5034 17.3385L25.5453 17.3412L25.5872 17.3444L25.6292 17.348L25.6712 17.352L25.7132 17.3565L25.7553 17.3614L25.7974 17.3668L25.8394 17.3726L25.8815 17.3788L25.9236 17.3855L25.9657 17.3927L26.0078 17.4003L26.0499 17.4084L26.0919 17.4168L26.1339 17.4258L26.176 17.4351L26.218 17.445L26.2599 17.4553L26.3018 17.466L26.3437 17.4772L26.3854 17.4888L26.4272 17.5008L26.4689 17.5134L26.5105 17.5263L26.552 17.5398L26.5936 17.5537L26.6349 17.568L26.6763 17.5828L26.7175 17.598L26.7586 17.6137L26.7996 17.6298L26.8405 17.6463L26.8813 17.6634L26.922 17.6808L26.9626 17.6987L27.003 17.7171L27.0434 17.7359L27.0836 17.7551L27.1236 17.7748L27.1635 17.7949L27.2032 17.8155L27.2428 17.8365L27.2822 17.858L27.3215 17.8799L27.3606 17.9022L27.3995 17.9249L27.4382 17.9481L27.4767 17.9717L27.5151 17.9958L27.5533 18.0203L27.5912 18.0452L27.6289 18.0705L27.6665 18.0964L27.7038 18.1226L27.7409 18.1492L27.7778 18.1762L27.8145 18.2036L27.8509 18.2315L27.887 18.2598L27.923 18.2885L27.9587 18.3177L27.9941 18.3471L28.0293 18.3771L28.0642 18.4074L28.0989 18.4382L28.1333 18.4693L28.1673 18.5009L28.2011 18.5328L28.2346 18.5652L28.2679 18.5979L28.3008 18.631L28.3334 18.6645L28.3658 18.6984L28.3978 18.7327L28.4295 18.7674L28.4608 18.8024L28.492 18.8378L28.5227 18.8735L28.553 18.9097L28.5832 18.9461L28.6129 18.983L28.6422 19.0202L28.6712 19.0578L28.6999 19.0958L28.7283 19.134L28.7562 19.1727L28.7837 19.2116L28.811 19.2509L28.8378 19.2906L28.8643 19.3306L28.8904 19.3708L28.9161 19.4115L28.9414 19.4524L28.9663 19.4937L28.9908 19.5353L29.0149 19.5771L29.0386 19.6193L29.0618 19.6618L29.0847 19.7046L29.1072 19.7477L29.1292 19.7911L29.1508 19.8347L29.172 19.8787L29.1927 19.923L29.213 19.9674L29.2329 20.0122L29.2523 20.0573L29.2713 20.1026L29.2898 20.1482L29.3079 20.194L29.3255 20.24L29.3427 20.2863L29.3594 20.3329L29.3756 20.3797L29.3913 20.4267L29.4066 20.474L29.4214 20.5215L29.4357 20.5691L29.4496 20.617L29.4629 20.6652L29.4758 20.7135L29.4882 20.762L29.5001 20.8107L29.5115 20.8596L29.5224 20.9087L29.5328 20.958L29.5427 21.0074L29.552 21.057L29.5609 21.1068L29.5693 21.1567L29.5772 21.2068L29.5845 21.257L29.5913 21.3074L29.5975 21.3579L29.6033 21.4086L29.6086 21.4594L29.6133 21.5103L29.6175 21.5613L29.6212 21.6125L29.6243 21.6637L29.6269 21.7151L29.6289 21.7665L29.6305 21.818L29.6314 21.8697L29.6319 21.9214L29.6318 21.9731L29.6312 22.025L29.63 22.0769L29.6282 22.1289L29.626 22.1809L29.6231 22.233L29.6198 22.2851L29.6158 22.3372L29.6113 22.3894L29.6063 22.4416L29.6007 22.4938L29.5945 22.546L29.5878 22.5983L29.5806 22.6506L29.5728 22.7028L29.5644 22.7551L29.5554 22.8073L29.546 22.8595L29.5359 22.9117L29.5253 22.9638L29.5141 23.0159L29.5023 23.068L29.4901 23.12L29.4772 23.172L29.4637 23.2239L29.4498 23.2757L29.4352 23.3275L29.4201 23.3791L29.4044 23.4308L29.3882 23.4823L29.3715 23.5337L29.3541 23.585L29.3362 23.6362L29.3177 23.6873L29.2986 23.7383L29.2791 23.7891L29.259 23.8399L29.2382 23.8904L29.217 23.9408L29.1952 23.9911L29.1728 24.0413L29.1499 24.0912L29.1264 24.141L29.1023 24.1907L29.0779 24.2401L29.0527 24.2894L29.027 24.3385L29.0008 24.3873L28.974 24.436L28.9467 24.4845L28.9189 24.5327L28.8904 24.5808L28.8616 24.6286L28.8321 24.6762L28.8021 24.7236L28.7716 24.7706L28.7404 24.8175L28.7089 24.8641L28.6768 24.9105L28.6441 24.9566L28.6109 25.0024L28.5773 25.0479L28.5431 25.0932L28.5083 25.1381L28.4731 25.1828L28.4374 25.2272L28.4011 25.2713L28.3644 25.3151L28.3271 25.3585L28.2893 25.4016L28.251 25.4444L28.2123 25.4869L28.173 25.529L28.1333 25.5708L28.0931 25.6123L28.0524 25.6534L28.0112 25.6941L27.9696 25.7345L27.9274 25.7745L27.8848 25.8141L27.8417 25.8533L27.7982 25.8922L27.7542 25.9307L27.7098 25.9688L27.6649 26.0064L27.6195 26.0437L27.5737 26.0806L27.5275 26.117L27.4809 26.153L27.4338 26.1887L27.3862 26.2239L27.3383 26.2586L27.2899 26.2928L27.2412 26.3268L27.1919 26.3601L27.1424 26.3931L27.0924 26.4255L27.042 26.4576L26.9911 26.4892L26.9399 26.5203L26.8883 26.5508L26.8364 26.581L26.7841 26.6106L26.7313 26.6398L26.6783 26.6685L26.6249 26.6966L26.5711 26.7243L26.5169 26.7514L26.4624 26.7781L26.4076 26.8042L26.3524 26.8298L26.2969 26.8549L26.2411 26.8794L26.1849 26.9035L26.1285 26.927L26.0717 26.9499L26.0146 26.9723L25.9572 26.9942L25.8995 27.0155L25.8415 27.0363L25.7833 27.0565L25.7247 27.0762L25.6659 27.0953L25.6069 27.1137L25.5476 27.1316L25.4879 27.1491L25.4281 27.1658L25.368 27.1821L25.3077 27.1977L25.2471 27.2127L25.1863 27.2271L25.1253 27.241L25.0641 27.2543L25.0027 27.267L24.941 27.279L24.8792 27.2905L24.8172 27.3013L24.755 27.3116L24.6926 27.3212L24.6301 27.3302L24.5674 27.3386L24.5045 27.3465L24.4415 27.3536L24.3783 27.3601L24.315 27.3661L24.2516 27.3713L24.188 27.376L24.1242 27.38L24.0605 27.3834L23.9965 27.3862L23.9325 27.3883L23.8683 27.3898L23.8042 27.3906L23.7399 27.3908L23.6756 27.3904L23.6111 27.3893L23.5466 27.3876L23.4821 27.3852L23.4175 27.3822L23.3529 27.3785L23.2882 27.3742L23.2235 27.3692L23.1588 27.3636L23.0941 27.3572L23.0294 27.3503L22.9646 27.3427L22.8999 27.3344L22.8352 27.3255L22.7705 27.316L22.7058 27.3057L22.6412 27.2948L22.5766 27.2833L22.5121 27.2711L22.4476 27.2583L22.3832 27.2447L22.3188 27.2306L22.2546 27.2157L22.1904 27.2002L22.1262 27.1841L22.0622 27.1673L21.9984 27.1498L21.9345 27.1316L21.871 27.1129L21.8074 27.0934L21.7439 27.0733L21.6807 27.0526L21.6175 27.0312L21.5546 27.0091L21.4918 26.9864L21.4291 26.963L21.3667 26.939L21.3044 26.9143L21.2423 26.889L21.1804 26.863L21.1187 26.8364L21.0572 26.8091L20.9959 26.7812L20.9349 26.7527L20.874 26.7235L20.8134 26.6937L20.7531 26.6632L20.6931 26.6321L20.6333 26.6004L20.5737 26.568L20.5144 26.535L20.4554 26.5014L20.3966 26.4671L20.3382 26.4323L20.2801 26.3968L20.2223 26.3607L20.1647 26.324L20.1075 26.2867L20.0506 26.2487L19.9941 26.2101L19.938 26.171L19.8821 26.1312L19.8266 26.0909L19.7715 26.0499L19.7167 26.0084L19.6623 25.9663L19.6083 25.9235L19.5547 25.8802L19.5014 25.8363L19.4486 25.7919L19.3961 25.7468L19.3441 25.7012L19.2925 25.655L19.2414 25.6083L19.1906 25.561L19.1403 25.5131L19.0905 25.4647L19.041 25.4158L18.9921 25.3663L18.9436 25.3162L18.8955 25.2656L18.8479 25.2146L18.8009 25.1629L18.7543 25.1108L18.7082 25.0581L18.6626 25.0049L18.6175 24.9513L18.5729 24.897L18.5288 24.8423L18.4853 24.7871L18.4422 24.7315L18.3997 24.6753L18.3578 24.6186L18.3164 24.5615L18.2756 24.5039L18.2352 24.4458L18.1954 24.3873L18.1563 24.3284L18.1177 24.2689L18.0797 24.209L18.0422 24.1487L18.0054 24.088L17.969 24.0268L17.9334 23.9652L17.8983 23.9032L17.8638 23.8408L17.8299 23.778L17.7967 23.7147L17.7641 23.6511L17.732 23.5871L17.7007 23.5227L17.67 23.4579L17.6398 23.3928L17.6104 23.3273L17.5816 23.2614L17.5534 23.1951L17.5259 23.1286L17.4991 23.0617L17.4729 22.9945L17.4474 22.9268L17.4227 22.859L17.3985 22.7908L17.375 22.7223L17.3522 22.6535L17.3301 22.5844L17.3087 22.515L17.288 22.4453L17.268 22.3754L17.2487 22.3051L17.2301 22.2346L17.2122 22.1639L17.1951 22.0929L17.1786 22.0218L17.1629 21.9503L17.1478 21.8786L17.1336 21.8067L17.12 21.7346L17.1072 21.6623L17.0951 21.5898L17.0837 21.5171L17.0731 21.4442L17.0632 21.3711L17.0541 21.2979L17.0457 21.2245L17.0381 21.1509L17.0312 21.0772L17.0251 21.0034L17.0197 20.9295L17.0151 20.8554L17.0113 20.7812L17.0082 20.7069L17.0058 20.6324L17.0043 20.5579L17.0035 20.4834L17.0035 20.4087L17.0042 20.3339L17.0058 20.2591L17.0081 20.1843L17.0112 20.1093L17.015 20.0344L17.0197 19.9594L17.025 19.8844L17.0312 19.8094L17.0382 19.7343L17.0459 19.6593L17.0545 19.5843L17.0638 19.5092L17.0738 19.4343L17.0848 19.3594L17.0964 19.2844L17.1089 19.2095L17.1221 19.1347L17.1361 19.0599L17.1509 18.9852L17.1665 18.9106L17.1829 18.8361L17.2 18.7616L17.218 18.6874L17.2367 18.6131L17.2562 18.539L17.2765 18.465L17.2976 18.3912L17.3194 18.3174L17.342 18.2439L17.3654 18.1705L17.3896 18.0972L17.4146 18.0242L17.4404 17.9513L17.4669 17.8786L17.4941 17.8061L17.5222 17.7338L17.5511 17.6618L17.5807 17.5898L17.6111 17.5183L17.6422 17.4468L17.6742 17.3757L17.7068 17.3048L17.7403 17.2341L17.7744 17.1638L17.8094 17.0937L17.845 17.0239L17.8815 16.9544L17.9187 16.8852L17.9567 16.8163L17.9954 16.7476L18.0348 16.6794L18.075 16.6115L18.1159 16.5439L18.1575 16.4766L18.2 16.4097L18.2431 16.3431L18.2869 16.2769L18.3314 16.2111L18.3767 16.1457L18.4227 16.0807L18.4694 16.0161L18.5168 15.9519L18.5649 15.888L18.6137 15.8247L18.6632 15.7617L18.7135 15.6992L18.7644 15.6371L18.8159 15.5755L18.8681 15.5143L18.9211 15.4536L18.9747 15.3934L19.029 15.3336L19.0839 15.2744L19.1395 15.2156L19.1958 15.1573L19.2527 15.0996L19.3102 15.0423L19.3685 14.9855L19.4273 14.9294L19.4867 14.8737L19.5468 14.8186L19.6075 14.764L19.6688 14.7099L19.7308 14.6565L19.7933 14.6036L19.8564 14.5513L19.9201 14.4996L19.9845 14.4484L20.0493 14.3978L20.1148 14.3479L20.1808 14.2986L20.2474 14.2498L20.3146 14.2017L20.3823 14.1542L20.4506 14.1073L20.5195 14.0611L20.5888 14.0155L20.6587 13.9706L20.7291 13.9263L20.8 13.8827L20.8715 13.8398L20.9434 13.7975L21.0159 13.7559L21.0888 13.715L21.1622 13.6747L21.2361 13.6352L21.3104 13.5964L21.3852 13.5583L21.4605 13.5209L21.5362 13.4842L21.6124 13.4482L21.689 13.4129L21.766 13.3784L21.8434 13.3446L21.9214 13.3115L21.9996 13.2792L22.0782 13.2477L22.1573 13.2169L22.2368 13.1868L22.3166 13.1575L22.3968 13.129L22.4774 13.1012L22.5583 13.0743L22.6395 13.0481L22.7211 13.0227L22.803 12.9981L22.8853 12.9743L22.9678 12.9513L23.0507 12.929L23.1338 12.9076L23.2173 12.8869L23.301 12.8671L23.3851 12.8482L23.4693 12.83L23.5538 12.8127L23.6386 12.7962L23.6811 12.7882ZM24.7229 18.9022L23.756 19.1341L23.6992 14.3261L23.6537 14.3364L23.5851 14.3526L23.5165 14.3695L23.4485 14.3871L23.3805 14.4052L23.313 14.4241L23.2455 14.4437L23.1786 14.4638L23.1116 14.4847L23.0454 14.506L22.979 14.5281L22.9131 14.5508L22.8475 14.5742L22.7822 14.5981L22.7174 14.6226L22.6527 14.6479L22.5884 14.6736L22.5244 14.7L22.4606 14.7271L22.3976 14.7546L22.3346 14.7828L22.2722 14.8116L22.2099 14.841L22.1481 14.8709L22.0865 14.9015L22.0256 14.9326L21.965 14.9642L21.9048 14.9965L21.8449 15.0292L21.7855 15.0626L21.7264 15.0965L21.668 15.1309L21.6096 15.166L21.5518 15.2015L21.4946 15.2375L21.4377 15.274L21.3812 15.3112L21.3253 15.3488L21.2697 15.387L21.2146 15.4255L21.1601 15.4646L21.1058 15.5043L21.0521 15.5444L20.9989 15.585L20.9462 15.6261L20.894 15.6676L20.8423 15.7096L20.791 15.7521L20.7401 15.7951L20.69 15.8384L20.6402 15.8823L20.591 15.9265L20.5422 15.9712L20.494 16.0164L20.4464 16.062L20.3992 16.1079L20.3525 16.1544L20.3064 16.2011L20.2609 16.2484L20.2159 16.2959L20.1713 16.344L20.1274 16.3923L20.084 16.441L20.0412 16.4902L19.999 16.5396L19.9572 16.5895L19.9162 16.6395L19.8755 16.6902L19.8356 16.741L19.796 16.7923L19.7572 16.8439L19.7189 16.8957L19.6812 16.9478L19.6441 17.0003L19.6075 17.0532L19.5716 17.1062L19.5362 17.1597L19.5015 17.2132L19.4674 17.2671L19.4337 17.3215L19.4008 17.3759L19.3684 17.4308L19.3367 17.4856L19.3055 17.5409L19.2748 17.5964L19.245 17.6521L19.2156 17.708L19.1869 17.7642L19.1587 17.8207L19.1313 17.8771L19.1044 17.934L19.0781 17.9909L19.0525 18.0481L19.0275 18.1055L19.003 18.1631L18.9793 18.2207L18.9561 18.2786L18.9337 18.3366L18.9117 18.3948L18.8905 18.453L18.8698 18.5115L18.8498 18.5701L18.8304 18.6288L18.8116 18.6876L18.7935 18.7466L18.776 18.8057L18.7592 18.8647L18.7429 18.924L18.7272 18.9834L18.7123 19.0427L18.6979 19.1022L18.6842 19.1617L18.6711 19.2213L18.6587 19.281L18.6468 19.3407L18.6356 19.4004L18.625 19.4602L18.6151 19.5199L18.6058 19.5797L18.5971 19.6397L18.589 19.6994L18.5817 19.7594L18.5749 19.8191L18.5687 19.8789L18.5631 19.9389L18.5582 19.9986L18.5539 20.0584L18.5502 20.1182L18.5471 20.1778L18.5447 20.2374L18.5428 20.297L18.5417 20.3566L18.541 20.416L18.5411 20.4754L18.5417 20.5347L18.5429 20.594L18.5448 20.6531L18.5472 20.7121L18.5502 20.7711L18.5539 20.8298L18.5582 20.8885L18.563 20.9471L18.5685 21.0056L18.5745 21.064L18.5812 21.122L18.5884 21.1802L18.5962 21.238L18.6047 21.2959L18.6136 21.3534L18.6232 21.4108L18.6333 21.4682L18.6441 21.5252L18.6554 21.5821L18.6672 21.6387L18.6797 21.6953L18.6927 21.7515L18.7063 21.8077L18.7204 21.8634L18.7352 21.9193L18.7504 21.9746L18.7661 22.0299L18.7825 22.0848L18.7994 22.1396L18.8168 22.1941L18.8348 22.2483L18.8533 22.3024L18.8723 22.3562L18.8919 22.4095L18.9119 22.4628L18.9326 22.5158L18.9537 22.5684L18.9754 22.6208L18.9974 22.6729L19.0202 22.7247L19.0433 22.7763L19.067 22.8275L19.0911 22.8783L19.1157 22.9289L19.141 22.9793L19.1665 23.0292L19.1925 23.0788L19.2191 23.1281L19.2462 23.177L19.2738 23.2257L19.3017 23.274L19.3301 23.3219L19.3591 23.3695L19.3883 23.4168L19.4181 23.4636L19.4484 23.5102L19.479 23.5563L19.5102 23.6022L19.5416 23.6474L19.5736 23.6926L19.606 23.7372L19.6387 23.7814L19.672 23.8254L19.7055 23.8688L19.7395 23.9119L19.7739 23.9546L19.8087 23.9969L19.8438 24.0387L19.8794 24.0802L19.9153 24.1213L19.9516 24.1619L19.9884 24.2021L20.0253 24.2418L20.0627 24.2813L20.1005 24.3202L20.1385 24.3587L20.177 24.3967L20.2157 24.4344L20.2548 24.4716L20.2943 24.5083L20.334 24.5446L20.3741 24.5805L20.4145 24.6159L20.4552 24.6508L20.4961 24.6853L20.5374 24.7194L20.579 24.753L20.6209 24.786L20.663 24.8186L20.7054 24.8508L20.7481 24.8826L20.791 24.9138L20.8343 24.9445L20.8777 24.9748L20.9214 25.0047L20.9654 25.034L21.0095 25.0628L21.0539 25.0911L21.0987 25.1191L21.1435 25.1464L21.1885 25.1733L21.2339 25.1998L21.2793 25.2256L21.3249 25.2511L21.371 25.2761L21.417 25.3005L21.4633 25.3244L21.5096 25.3478L21.5564 25.3708L21.603 25.3932L21.6501 25.4152L21.6971 25.4367L21.7443 25.4575L21.7918 25.478L21.8393 25.498L21.8869 25.5174L21.9347 25.5364L21.9826 25.5547L22.0308 25.5727L22.0787 25.5901L22.1271 25.607L22.1754 25.6234L22.2238 25.6393L22.2724 25.6547L22.321 25.6696L22.3697 25.6839L22.4184 25.6978L22.4673 25.7111L22.5162 25.724L22.5651 25.7363L22.6141 25.7482L22.6631 25.7594L22.7122 25.7702L22.7613 25.7806L22.8105 25.7903L22.8597 25.7997L22.9088 25.8084L22.9581 25.8168L23.0073 25.8245L23.0566 25.8319L23.1056 25.8386L23.1549 25.8448L23.204 25.8506L23.2533 25.8559L23.3024 25.8607L23.3516 25.865L23.4007 25.8687L23.4497 25.872L23.4987 25.8748L23.5476 25.8771L23.5965 25.8789L23.6455 25.8802L23.6941 25.881L23.7428 25.8814L23.7914 25.8812L23.8399 25.8806L23.8885 25.8794L23.9369 25.8778L23.985 25.8758L24.0332 25.8732L24.0814 25.8702L24.1292 25.8666L24.1771 25.8627L24.2248 25.8582L24.2724 25.8533L24.3199 25.8479L24.3672 25.842L24.4145 25.8357L24.4614 25.8289L24.5083 25.8217L24.5551 25.814L24.6017 25.8058L24.6481 25.7972L24.6944 25.7882L24.7405 25.7786L24.7863 25.7687L24.832 25.7583L24.8776 25.7475L24.923 25.7362L24.9681 25.7246L25.0131 25.7124L25.0578 25.6999L25.1025 25.6868L25.1468 25.6735L25.1908 25.6596L25.2349 25.6453L25.2785 25.6307L25.322 25.6157L25.3652 25.6002L25.4081 25.5843L25.451 25.5679L25.4935 25.5513L25.5357 25.5342L25.5778 25.5167L25.6195 25.4988L25.6611 25.4805L25.7022 25.4619L25.7433 25.4429L25.784 25.4235L25.8244 25.4037L25.8647 25.3836L25.9044 25.3631L25.9441 25.3423L25.9834 25.321L26.0224 25.2994L26.0611 25.2775L26.0996 25.2552L26.1378 25.2325L26.1755 25.2095L26.213 25.1862L26.2503 25.1626L26.2872 25.1386L26.3239 25.1143L26.3601 25.0897L26.3961 25.0647L26.4317 25.0394L26.467 25.0139L26.502 24.988L26.5366 24.9618L26.5709 24.9353L26.6049 24.9085L26.6386 24.8814L26.6718 24.8541L26.7048 24.8265L26.7373 24.7985L26.7696 24.7703L26.8015 24.7418L26.8331 24.713L26.8643 24.6841L26.895 24.6548L26.9255 24.6253L26.9556 24.5955L26.9854 24.5655L27.0148 24.5353L27.0437 24.5047L27.0723 24.474L27.1007 24.443L27.1284 24.4119L27.156 24.3804L27.1831 24.3487L27.2098 24.317L27.2363 24.2848L27.2622 24.2527L27.2878 24.2202L27.3131 24.1876L27.3378 24.1547L27.3623 24.1216L27.3863 24.0885L27.41 24.055L27.4333 24.0214L27.4561 23.9878L27.4786 23.9538L27.5007 23.9198L27.5223 23.8856L27.5436 23.8512L27.5645 23.8167L27.585 23.782L27.6051 23.7472L27.6247 23.7123L27.644 23.6772L27.6629 23.642L27.6814 23.6068L27.6994 23.5713L27.7171 23.5358L27.7344 23.5002L27.7512 23.4643L27.7677 23.4285L27.7837 23.3925L27.7993 23.3566L27.8146 23.3204L27.8293 23.2842L27.8438 23.2478L27.8578 23.2116L27.8714 23.1749L27.8845 23.1388L27.8974 23.1021L27.9098 23.0654L27.9217 23.0288L27.9333 22.9921L27.9444 22.9555L27.9552 22.9184L27.9655 22.8819L27.9756 22.8447L27.985 22.8082L27.9942 22.7711L28.0029 22.7341L28.0112 22.6973L28.0191 22.6606L28.0266 22.6234L28.0338 22.5866L28.0405 22.5494L28.0468 22.5127L28.0527 22.4758L28.0583 22.4388L28.0634 22.4019L28.0681 22.365L28.0724 22.3283L28.0764 22.2916L28.0799 22.2547L28.0831 22.218L28.0859 22.1813L28.0882 22.1447L28.0902 22.1082L28.0918 22.0717L28.093 22.0354L28.0938 21.9988L28.0943 21.9624L28.0944 21.9263L28.0941 21.8901L28.0934 21.8541L28.0923 21.8181L28.0909 21.782L28.0891 21.7466L28.0869 21.7103L28.0844 21.6751L28.0814 21.6396L28.0781 21.6039L28.0745 21.5686L28.0705 21.5337L28.0661 21.4982L28.0614 21.4635L28.0563 21.4286L28.0509 21.3941L28.045 21.3594L28.0389 21.3248L28.0324 21.2906L28.0256 21.2565L28.0184 21.2223L28.0109 21.1886L28.0031 21.1548L27.9948 21.1213L27.9864 21.088L27.9774 21.0545L27.9683 21.0217L27.9588 20.9885L27.949 20.9559L27.9388 20.9233L27.9283 20.891L27.9175 20.8587L27.9063 20.8266L27.895 20.7949L27.8833 20.7633L27.8712 20.7316L27.8589 20.7005L27.8462 20.6692L27.8334 20.6386L27.82 20.6077L27.8066 20.5773L27.7928 20.5471L27.7787 20.517L27.7643 20.4872L27.7496 20.4575L27.7347 20.4281L27.7195 20.3989L27.704 20.37L27.6883 20.3412L27.6723 20.3127L27.6559 20.2844L27.6395 20.2564L27.6227 20.2286L27.6056 20.2009L27.5883 20.1737L27.5708 20.1466L27.553 20.1197L27.535 20.093L27.5168 20.0667L27.4982 20.0405L27.4795 20.0147L27.4606 19.9891L27.4413 19.9637L27.4221 19.9386L27.4023 19.9137L27.3825 19.8892L27.3625 19.8649L27.3423 19.8408L27.3218 19.817L27.3013 19.7935L27.2804 19.7702L27.2593 19.7472L27.2381 19.7244L27.2167 19.702L27.195 19.6799L27.1732 19.6579L27.1513 19.6363L27.1292 19.615L27.107 19.594L27.0843 19.5731L27.0618 19.5526L27.039 19.5323L27.0161 19.5124L26.993 19.4927L26.9697 19.4735L26.9463 19.4543L26.9228 19.4356L26.8992 19.417L26.8753 19.3988L26.8514 19.3809L26.8274 19.3632L26.8031 19.3459L26.7789 19.3289L26.7545 19.312L26.73 19.2956L26.7053 19.2794L26.6805 19.2635L26.6557 19.2479L26.6306 19.2326L26.6056 19.2176L26.5806 19.203L26.5553 19.1886L26.5299 19.1744L26.5046 19.1606L26.4791 19.1471L26.4536 19.1338L26.4281 19.121L26.4022 19.1082L26.3765 19.0959L26.3507 19.084L26.3249 19.0722L26.2989 19.0607L26.2729 19.0495L26.247 19.0388L26.2208 19.0282L26.1947 19.018L26.1686 19.008L26.1424 18.9983L26.1162 18.989L26.09 18.9799L26.0637 18.9711L26.0375 18.9626L26.0112 18.9544L25.9849 18.9465L25.9587 18.9389L25.9322 18.9316L25.906 18.9246L25.8797 18.9178L25.8533 18.9114L25.827 18.9052L25.8007 18.8993L25.7744 18.8938L25.7481 18.8884L25.722 18.8834L25.6958 18.8787L25.6694 18.8742L25.6434 18.8701L25.6171 18.8662L25.5912 18.8626L25.565 18.8592L25.539 18.8562L25.5132 18.8534L25.4872 18.851L25.4613 18.8487L25.4355 18.8468L25.4097 18.8451L25.384 18.8436L25.3583 18.8426L25.3329 18.8417L25.3073 18.841L25.2819 18.8407L25.2565 18.8406L25.2312 18.8409L25.206 18.8413L25.1809 18.842L25.1558 18.843L25.131 18.8442L25.106 18.8457L25.0813 18.8474L25.0566 18.8493L25.0321 18.8516L25.0076 18.854L24.9831 18.8567L24.959 18.8596L24.9348 18.8628L24.9108 18.8663L24.8868 18.87L24.8631 18.8739L24.8394 18.878L24.816 18.8824L24.7924 18.887L24.7691 18.8918L24.7459 18.8969L24.7229 18.9022Z" fill="#E6C89B"/>
</svg>
