<svg width="154" height="40" viewBox="0 0 154 40" fill="none" xmlns="http://www.w3.org/2000/svg">
<g opacity="0.7">
<path d="M51.0828 12.2026V24.1008L43.4902 12.2026H40.4531V28.6301H43.4902V16.8258L51.0828 28.6301H54.1198V12.2026H51.0828Z" fill="#4C6379"/>
<path d="M55.4883 15.2769H58.6188V12.2026H55.4883V15.2769ZM55.5351 28.6301V16.8962H58.5721V28.6301H55.5351Z" fill="#4C6379"/>
<path d="M71.6393 22.7632C71.6393 18.7032 68.7657 16.7789 65.7287 16.7554C62.6683 16.7319 59.8415 18.7032 59.8415 22.7632C59.8415 26.8231 62.6683 28.7944 65.7287 28.7709C68.5088 28.7475 70.4244 27.4567 71.3122 25.3212L68.9526 24.3355C68.2284 25.7905 67.0837 26.3068 65.7287 26.3303C64.5606 26.3537 63.229 25.7905 62.9486 23.7019H71.5692C71.6159 23.3968 71.6393 23.0917 71.6393 22.7632ZM65.7287 19.1726C66.8968 19.196 68.0882 19.8297 68.462 21.5194H62.9954C63.3925 19.8062 64.584 19.1491 65.7287 19.1726Z" fill="#4C6379"/>
<path d="M78.658 19.0787V16.7554H76.7424V13.6107L73.7053 14.5494V16.7554H71.7896V19.0787H73.7053V25.1569C73.7053 27.4567 73.8922 28.6301 77.4432 28.6301H78.2609V25.9548H77.4432C76.8825 25.9548 76.7424 25.8609 76.7424 25.1569V19.0787H78.658Z" fill="#4C6379"/>
<path d="M83.1709 26.0721L89.6188 19.4542V16.8962H79.947V19.4542H86.208L79.7601 26.0721V28.6301H89.6889V26.0721H83.1709Z" fill="#4C6379"/>
<path d="M90.7778 25.3212L93.8382 24.8518C94.0484 26.0252 95.4268 26.4711 96.2678 26.4711C97.1322 26.4711 98.6274 26.2833 98.6274 24.8753C98.6274 22.1295 91.1282 25.5558 91.1282 20.299C91.1282 16.9197 95.0296 16.7319 96.2678 16.7319C97.4359 16.7319 100.823 16.9197 101.524 19.6419L98.6274 20.2521C98.3704 19.0083 97.0621 18.7736 96.3613 18.7736C95.6604 18.7736 94.1652 18.9379 94.1652 20.299C94.1652 23.0213 101.664 19.5481 101.664 24.8753C101.664 28.4658 97.5527 28.7709 96.2678 28.7709C95.0997 28.7709 91.3852 28.4658 90.7778 25.3212Z" fill="#4C6379"/>
<path d="M105.61 22.7632C105.61 25.6262 107.128 26.4945 108.717 26.4711C110.142 26.4476 111.123 25.8609 111.707 24.2182L114.207 25.4385C113.296 27.8322 111.077 28.7475 108.717 28.7709C105.657 28.7944 102.573 26.8231 102.573 22.7632C102.573 18.7032 105.657 16.7319 108.717 16.7554C111.077 16.7789 113.296 17.6941 114.207 20.0878L111.707 21.3082C111.123 19.6654 110.142 19.0787 108.717 19.0552C107.128 19.0318 105.61 19.9001 105.61 22.7632Z" fill="#4C6379"/>
<path d="M122.36 16.7085C120.795 16.7085 119.37 17.5298 118.459 19.2899V12.2026H115.422V28.6301H118.459V24.4763C118.459 19.1022 120.678 18.6563 121.496 18.6563C122.804 18.6563 122.991 20.0174 122.991 22.0122V28.6301H126.028V22.0122C126.028 19.5246 125.631 16.7085 122.36 16.7085Z" fill="#4C6379"/>
<path d="M138.85 22.7632C138.85 18.7032 135.977 16.7789 132.94 16.7554C129.879 16.7319 127.053 18.7032 127.053 22.7632C127.053 26.8231 129.879 28.7944 132.94 28.7709C135.72 28.7475 137.636 27.4567 138.523 25.3212L136.164 24.3355C135.44 25.7905 134.295 26.3068 132.94 26.3303C131.772 26.3537 130.44 25.7905 130.16 23.7019H138.78C138.827 23.3968 138.85 23.0917 138.85 22.7632ZM132.94 19.1726C134.108 19.196 135.299 19.8297 135.673 21.5194H130.206C130.604 19.8062 131.795 19.1491 132.94 19.1726Z" fill="#4C6379"/>
</g>
<path d="M23.9194 23.7998V31.0816C23.9194 31.3608 23.809 31.6285 23.6125 31.8258C23.4161 32.0232 23.1496 32.1341 22.8716 32.1341C22.5938 32.1341 22.3273 32.0232 22.1308 31.8258C21.9343 31.6285 21.8239 31.3608 21.8239 31.0816V23.8099C22.1157 24.0239 22.4654 24.1434 22.8265 24.1523C23.2202 24.1636 23.6059 24.0392 23.9194 23.7998ZM32.8427 21.6948C32.5768 21.6948 32.3217 21.801 32.1338 21.9898C31.9458 22.1787 31.8401 22.4349 31.8401 22.702V23.971C31.8401 24.2502 31.9505 24.5179 32.147 24.7152C32.3434 24.9126 32.6099 25.0235 32.8878 25.0235C33.1658 25.0235 33.4323 24.9126 33.6287 24.7152C33.8252 24.5179 33.9356 24.2502 33.9356 23.971V22.7524C33.9434 22.6079 33.9201 22.4635 33.8674 22.329C33.8146 22.1944 33.7337 22.0727 33.63 21.9724C33.5263 21.8721 33.4023 21.7954 33.2665 21.7474C33.1307 21.6996 32.9861 21.6817 32.8427 21.6948ZM19.548 26.5595C19.1872 26.5486 18.8379 26.4293 18.5453 26.217V33.519C18.5453 33.7995 18.6562 34.0685 18.8537 34.2668C19.0511 34.4651 19.3189 34.5765 19.5981 34.5765C19.8773 34.5765 20.1451 34.4651 20.3425 34.2668C20.5399 34.0685 20.6508 33.7995 20.6508 33.519V26.2674C20.3234 26.48 19.9371 26.5823 19.548 26.5595ZM29.5742 19.5093C29.4383 19.5024 29.3026 19.5235 29.175 19.571C29.0476 19.6186 28.9311 19.6917 28.8325 19.7859C28.7341 19.8801 28.6558 19.9934 28.6022 20.119C28.5488 20.2446 28.5212 20.3799 28.5214 20.5165V26.1264C28.5214 26.4069 28.6323 26.6759 28.8297 26.8742C29.0272 27.0725 29.2949 27.1839 29.5742 27.1839C29.8534 27.1839 30.1212 27.0725 30.3186 26.8742C30.516 26.6759 30.6269 26.4069 30.6269 26.1264V20.587C30.6349 20.4416 30.6115 20.2963 30.5581 20.1609C30.5048 20.0256 30.423 19.9034 30.3181 19.8029C30.2132 19.7024 30.088 19.6258 29.9509 19.5787C29.8139 19.5314 29.6682 19.5146 29.524 19.5294L29.5742 19.5093ZM26.2455 21.6646C25.8678 21.662 25.5002 21.5425 25.1927 21.3222V28.6443C25.1927 28.9248 25.3036 29.1938 25.501 29.3921C25.6985 29.5904 25.9662 29.7018 26.2455 29.7018C26.5247 29.7018 26.7924 29.5904 26.9899 29.3921C27.1873 29.1938 27.2982 28.9248 27.2982 28.6443V21.3323C26.9802 21.5703 26.5919 21.6943 26.1953 21.6848L26.2455 21.6646ZM17.272 27.2745V6.81899C17.2694 6.56965 17.1689 6.33143 16.9924 6.15605C16.816 5.98067 16.5778 5.88231 16.3295 5.88232H16.109C15.8607 5.88231 15.6225 5.98067 15.4461 6.15605C15.2696 6.33143 15.1691 6.56965 15.1665 6.81899V27.2745C15.1665 27.5256 15.2658 27.7664 15.4425 27.944C15.6193 28.1216 15.859 28.2213 16.109 28.2213H16.3295C16.5795 28.2213 16.8192 28.1216 16.996 27.944C17.1727 27.7664 17.272 27.5256 17.272 27.2745ZM19.6582 25.7839H19.4377C19.1877 25.7839 18.948 25.6842 18.7712 25.5067C18.5945 25.3291 18.4952 25.0883 18.4952 24.8372V9.25633C18.4979 9.007 18.5983 8.76876 18.7748 8.5934C18.9512 8.41802 19.1894 8.31966 19.4377 8.31967H19.6582C19.9065 8.31966 20.1447 8.41802 20.3211 8.5934C20.4976 8.76876 20.5981 9.007 20.6007 9.25633V24.8573C20.6007 25.1084 20.5014 25.3492 20.3247 25.5268C20.1479 25.7044 19.9082 25.8041 19.6582 25.8041V25.7839ZM22.9769 23.3869H22.7463C22.4991 23.3869 22.2619 23.2882 22.087 23.1125C21.9121 22.9369 21.8139 22.6987 21.8139 22.4502V11.6735C21.8126 11.5497 21.8357 11.4268 21.882 11.312C21.9282 11.1972 21.9967 11.0927 22.0834 11.0047C22.1701 10.9166 22.2734 10.8468 22.3872 10.7991C22.501 10.7514 22.623 10.7268 22.7463 10.7268H22.9769C23.2252 10.7295 23.4623 10.8304 23.6368 11.0076C23.8115 11.1849 23.9094 11.4242 23.9094 11.6735V22.4502C23.9094 22.6987 23.8111 22.9369 23.6362 23.1125C23.4614 23.2882 23.2243 23.3869 22.9769 23.3869ZM26.2956 20.9193H26.085C25.8368 20.9193 25.5986 20.821 25.4221 20.6456C25.2457 20.4702 25.1452 20.232 25.1426 19.9827V14.1814C25.1344 14.0521 25.1526 13.9224 25.1963 13.8005C25.2399 13.6786 25.3081 13.5669 25.3964 13.4725C25.4848 13.3781 25.5915 13.3029 25.71 13.2516C25.8284 13.2003 25.956 13.1739 26.085 13.1742H26.3056C26.5556 13.1742 26.7953 13.2739 26.9721 13.4515C27.1488 13.629 27.2481 13.8699 27.2481 14.1209V19.9625C27.2494 20.0877 27.226 20.2119 27.1792 20.3279C27.1325 20.4439 27.0633 20.5495 26.9756 20.6385C26.8879 20.7275 26.7837 20.7981 26.6686 20.8463C26.5536 20.8945 26.4302 20.9193 26.3056 20.9193H26.2956ZM29.6243 18.7539H29.4037C29.1538 18.7539 28.914 18.6542 28.7373 18.4766C28.5605 18.2991 28.4613 18.0583 28.4613 17.8072V16.3065C28.4639 16.0571 28.5643 15.8189 28.7408 15.6436C28.9172 15.4681 29.1555 15.3698 29.4037 15.3698H29.6243C29.8725 15.3698 30.1108 15.4681 30.2872 15.6436C30.4637 15.8189 30.5642 16.0571 30.5668 16.3065V17.8072C30.5668 18.0566 30.4689 18.2959 30.2942 18.4731C30.1197 18.6504 29.8826 18.7513 29.6343 18.7539H29.6243Z" fill="#3F8810"/>
</svg>
