<svg width="35" height="35" viewBox="0 0 35 35" fill="none" xmlns="http://www.w3.org/2000/svg">
<path d="M31.1173 10.2772L31.117 10.2763C30.2318 7.27483 27.7199 4.76276 24.7185 3.87722C22.3507 3.18853 20.8927 3.30341 19.9376 4.01665L31.1173 10.2772ZM31.1173 10.2772C31.8199 12.6431 31.6888 14.0947 30.9548 15.0331L30.9547 15.033M31.1173 10.2772L30.9547 15.033M30.9547 15.033L30.9482 15.0418M30.9547 15.033L30.9482 15.0418M30.9482 15.0418C30.5164 15.6195 29.8981 15.9581 29.2035 16.152C28.5053 16.347 27.7604 16.387 27.1195 16.387H22.9341C21.4245 16.387 20.3695 15.9609 19.6827 15.1936C18.9867 14.4161 18.5924 13.2041 18.5924 11.4766V7.84531C18.5924 6.50675 18.7704 4.8891 19.9375 4.01675L30.9482 15.0418Z" stroke="black"/>
<path d="M27.1955 19.8099L27.1955 19.81L27.2011 19.8162C27.4819 20.1295 27.6134 20.5527 27.5587 20.9793L27.5586 20.9796C27.1389 24.2676 25.3323 27.2951 22.6127 29.2717L22.6115 29.2727C20.5251 30.7989 18.0767 31.5825 15.5421 31.5825C14.7706 31.5825 14.0014 31.5123 13.2339 31.3588L13.2339 31.3588L13.2284 31.3578C8.39926 30.4479 4.54726 26.5955 3.6376 21.7813L3.63758 21.7812C3.00647 18.4433 3.73533 15.1131 5.72339 12.383L5.72366 12.3827C7.70028 9.66307 10.7278 7.85652 14.0159 7.43677L14.0178 7.43651C14.4295 7.38234 14.8665 7.51399 15.1792 7.79432L15.1791 7.79437L15.1855 7.79988C15.5122 8.083 15.6984 8.49872 15.6984 8.92412V14.145C15.6984 16.9878 18.0076 19.297 20.8505 19.297H26.0713C26.4967 19.297 26.9124 19.4832 27.1955 19.8099Z" stroke="black"/>
</svg>
