<svg xmlns="http://www.w3.org/2000/svg" width="565" height="436" fill="none"><rect width="563" height="434" x="1" y="1" fill="#F2F2F2" rx="10"/><rect width="563" height="434" x="1" y="1" fill="#F8F8F8" rx="10"/><rect width="564" height="435" x=".5" y=".5" stroke="#000" stroke-opacity=".1" rx="10.5"/><mask id="a" width="563" height="434" x="1" y="1" maskUnits="userSpaceOnUse" style="mask-type:alpha"><rect width="563" height="434" x="1" y="1" fill="#fff" rx="10"/></mask><g mask="url(#a)"><path stroke="#AAA" stroke-dasharray="1.3 1.3" stroke-opacity=".8" stroke-width=".389" d="M325.27 206.694h212.275M325.27 234.365h212.275M325.27 262.037h212.275M325.27 289.707h212.275M325.27 317.378h212.275"/><rect width="12.306" height="79.487" x="325.27" y="237.891" fill="#838AAB" fill-opacity=".1" rx="6.153"/><rect width="12.306" height="110.684" x="357.928" y="206.694" fill="#8296FD" rx="6.153"/><rect width="12.306" height="103.541" x="392.218" y="214.416" fill="#838AAB" fill-opacity=".1" rx="6.153"/><rect width="12.306" height="53.532" x="424.876" y="263.323" fill="#838AAB" fill-opacity=".1" rx="6.153"/><rect width="12.306" height="105.266" x="457.534" y="211.842" fill="#838AAB" fill-opacity=".1" rx="6.153"/><rect width="12.306" height="66.51" x="491.824" y="250.452" fill="#838AAB" fill-opacity=".1" rx="6.153"/><rect width="12.306" height="87.598" x="524.482" y="229.78" fill="#838AAB" fill-opacity=".1" rx="6.153"/><path fill="#888" d="M325.219 336.255q-.756 0-1.298-.42a2.05 2.05 0 0 1-.73-1.124l.772-.184q.095.414.436.704.347.284.815.284.294 0 .593-.142.305-.143.479-.468a1.2 1.2 0 0 0 .131-.489q.021-.267.021-.641v-5.238h.778v5.238q0 .316-.006.573a2.5 2.5 0 0 1-.057.489 1.6 1.6 0 0 1-.184.467 1.77 1.77 0 0 1-.736.715 2.2 2.2 0 0 1-1.014.236m5.206.006q-.642 0-1.078-.232a1.57 1.57 0 0 1-.646-.614 1.7 1.7 0 0 1-.215-.836q0-.462.184-.788a1.6 1.6 0 0 1 .509-.541q.326-.21.752-.321.43-.105.951-.183.526-.085 1.024-.142.505-.063.883-.121l-.273.168q.015-.841-.326-1.245t-1.187-.405q-.584 0-.988.263-.4.263-.562.83l-.752-.221q.195-.762.783-1.182t1.529-.42q.777 0 1.319.294.547.29.772.841.105.246.137.551.031.306.031.62v3.526h-.688v-1.424l.2.084q-.289.73-.899 1.114t-1.46.384m.089-.668q.541 0 .946-.194a1.72 1.72 0 0 0 .972-1.298q.063-.273.068-.599.005-.331.005-.494l.295.153q-.395.053-.857.105-.457.052-.904.121-.441.068-.798.162a2.2 2.2 0 0 0-.468.195q-.226.12-.373.326a.87.87 0 0 0-.142.509q0 .247.121.478a1 1 0 0 0 .399.384q.279.152.736.152m8.225.51v-2.895a4 4 0 0 0-.09-.867 2 2 0 0 0-.289-.694 1.3 1.3 0 0 0-.509-.462 1.6 1.6 0 0 0-.757-.163q-.41 0-.725.142a1.4 1.4 0 0 0-.525.41 1.8 1.8 0 0 0-.321.641q-.11.378-.11.862l-.547-.121q0-.872.305-1.466.304-.594.841-.899a2.44 2.44 0 0 1 1.229-.305q.51 0 .888.158.384.158.646.426.269.267.431.614.163.342.237.731.073.383.073.767v3.121zm-4.104 0v-5.675h.699v1.398h.079v4.277zM356.028 336.103v-7.566h4.346v.772h-3.573v2.627h2.942v.767h-2.942v3.4zm7.543.158q-.83 0-1.44-.368a2.5 2.5 0 0 1-.94-1.035q-.336-.667-.336-1.566 0-.93.331-1.608.33-.678.93-1.045.603-.368 1.424-.368.84 0 1.434.389.594.383.899 1.103t.278 1.718h-.788v-.273q-.022-1.104-.478-1.666-.453-.562-1.324-.562-.915 0-1.403.594-.484.594-.484 1.692 0 1.071.484 1.665.488.59 1.382.589.61 0 1.061-.279.458-.283.72-.814l.72.278a2.6 2.6 0 0 1-.993 1.151q-.652.405-1.477.405m-2.17-2.78v-.646h4.335v.646zm8.464 2.78q-.783 0-1.324-.394a2.5 2.5 0 0 1-.819-1.078 4 4 0 0 1-.279-1.529q0-.86.279-1.534.284-.678.83-1.066.546-.39 1.345-.389.777 0 1.335.394a2.5 2.5 0 0 1 .851 1.072q.299.677.299 1.523 0 .852-.299 1.529-.3.678-.862 1.078-.562.394-1.356.394m-2.553-.158v-7.566h.777v3.294h-.084v4.272zm2.475-.562q.593 0 .987-.3.394-.299.589-.814.2-.52.2-1.167 0-.64-.195-1.156a1.77 1.77 0 0 0-.594-.814q-.394-.3-1.003-.299-.594 0-.988.289-.389.288-.583.803-.195.51-.195 1.177 0 .658.195 1.177.194.515.588.81.394.294.999.294M388.93 336.103v-7.566h.71l2.974 6.363 2.958-6.363h.72v7.561h-.736v-5.838l-2.695 5.843h-.5l-2.69-5.843v5.843zm10.46.158q-.641 0-1.077-.232a1.58 1.58 0 0 1-.647-.614 1.7 1.7 0 0 1-.215-.836q0-.462.184-.788.189-.331.51-.541.325-.21.751-.321.43-.105.951-.183.525-.085 1.025-.142.504-.063.882-.121l-.273.168q.016-.841-.326-1.245-.34-.405-1.187-.405-.583 0-.988.263-.4.263-.562.83l-.752-.221q.195-.762.783-1.182t1.529-.42q.778 0 1.319.294.546.29.773.841.105.246.136.551t.032.62v3.526h-.689v-1.424l.2.084q-.29.73-.898 1.114-.61.384-1.461.384m.089-.668q.541 0 .946-.194.405-.195.652-.531.246-.34.32-.767.063-.273.068-.599.006-.331.006-.494l.294.153q-.394.053-.857.105-.457.052-.903.121a8 8 0 0 0-.799.162 2.2 2.2 0 0 0-.468.195q-.225.12-.373.326a.88.88 0 0 0-.142.509q0 .247.121.478a1 1 0 0 0 .4.384q.278.152.735.152m4.127.51v-5.675h.693v1.366l-.136-.178a2 2 0 0 1 .246-.463q.152-.215.332-.352a1.5 1.5 0 0 1 .514-.294q.295-.105.594-.121.3-.021.547.042v.725a1.9 1.9 0 0 0-.678-.036 1.3 1.3 0 0 0-.678.294 1.4 1.4 0 0 0-.426.531q-.141.304-.189.651a5 5 0 0 0-.047.678v2.832zM422.182 336.103l2.606-7.566h1.025l2.606 7.566h-.804l-2.475-7.135h.305l-2.459 7.135zm1.161-1.834v-.725h3.909v.725zm8.573 1.992q-.783 0-1.324-.394a2.5 2.5 0 0 1-.82-1.078 4 4 0 0 1-.278-1.529q0-.86.278-1.534a2.4 2.4 0 0 1 .831-1.066q.546-.39 1.345-.389.777 0 1.334.394.558.394.851 1.072.3.677.3 1.523 0 .852-.3 1.529a2.56 2.56 0 0 1-.861 1.078q-.562.394-1.356.394m-2.553 2.364v-8.197h.693v4.272h.084v3.925zm2.474-3.084q.594 0 .988-.3.394-.299.589-.814a3.2 3.2 0 0 0 .199-1.167 3.3 3.3 0 0 0-.194-1.156 1.8 1.8 0 0 0-.594-.814q-.394-.3-1.003-.299-.595 0-.988.289-.389.288-.583.803-.195.51-.195 1.177 0 .658.195 1.177.193.515.588.81.394.294.998.294m3.75.562v-5.675h.693v1.366l-.136-.178q.094-.252.247-.463.152-.215.331-.352.22-.194.515-.294.294-.105.593-.121.3-.021.547.042v.725a1.9 1.9 0 0 0-.678-.036 1.3 1.3 0 0 0-.678.294 1.4 1.4 0 0 0-.425.531q-.142.304-.19.651a5 5 0 0 0-.047.678v2.832zM454.47 336.103v-7.566h.71l2.974 6.363 2.958-6.363h.72v7.561h-.736v-5.838l-2.695 5.843h-.5l-2.69-5.843v5.843zm10.46.158q-.642 0-1.077-.232a1.57 1.57 0 0 1-.647-.614 1.7 1.7 0 0 1-.215-.836q0-.462.184-.788.189-.331.51-.541.325-.21.751-.321.43-.105.951-.183.525-.085 1.025-.142.504-.063.882-.121l-.273.168q.016-.841-.326-1.245-.34-.405-1.187-.405-.583 0-.988.263-.4.263-.562.83l-.752-.221q.195-.762.783-1.182t1.529-.42q.778 0 1.319.294.546.29.773.841.105.246.136.551t.032.62v3.526h-.689v-1.424l.2.084q-.29.73-.898 1.114-.61.384-1.461.384m.089-.668q.541 0 .946-.194.405-.195.651-.531a1.8 1.8 0 0 0 .321-.767q.063-.273.068-.599.006-.331.006-.494l.294.153q-.394.053-.857.105-.457.052-.903.121a8 8 0 0 0-.799.162 2.2 2.2 0 0 0-.468.195q-.226.12-.373.326a.88.88 0 0 0-.142.509q0 .247.121.478a1 1 0 0 0 .4.384q.278.152.735.152m4.618 3.032 1.098-2.979.015.883-2.485-6.101h.82l2.039 5.102h-.337l1.881-5.102h.788l-3.047 8.197zM490.915 336.255q-.757 0-1.298-.42a2.06 2.06 0 0 1-.731-1.124l.773-.184q.094.414.436.704.347.284.814.284.294 0 .594-.142a1.03 1.03 0 0 0 .478-.468 1.2 1.2 0 0 0 .132-.489q.021-.267.021-.641v-5.238h.777v5.238q0 .316-.005.573a2.5 2.5 0 0 1-.058.489q-.047.231-.184.467a1.76 1.76 0 0 1-.735.715 2.2 2.2 0 0 1-1.014.236m5.752-.01q-.51 0-.894-.158a2 2 0 0 1-.646-.425 2.2 2.2 0 0 1-.425-.61 3 3 0 0 1-.237-.73 4 4 0 0 1-.073-.773v-3.121h.777v2.895q0 .468.09.867.089.4.283.699.2.294.51.457.315.163.762.163.41 0 .72-.142.315-.141.525-.404.216-.268.326-.646a3.1 3.1 0 0 0 .11-.862l.547.121q0 .872-.305 1.466a2.1 2.1 0 0 1-.841.898 2.44 2.44 0 0 1-1.229.305m1.907-.142v-1.398h-.079v-4.277h.773v5.675zm6.261 0v-2.895a4 4 0 0 0-.09-.867 2 2 0 0 0-.289-.694 1.3 1.3 0 0 0-.509-.462 1.6 1.6 0 0 0-.757-.163q-.41 0-.725.142a1.4 1.4 0 0 0-.526.41q-.21.263-.32.641t-.11.862l-.547-.121q0-.872.305-1.466.304-.594.841-.899a2.44 2.44 0 0 1 1.229-.305q.51 0 .888.158.384.158.646.426.269.267.431.614.163.342.237.731.073.383.073.767v3.121zm-4.104 0v-5.675h.699v1.398h.079v4.277zM523.687 336.255q-.756 0-1.298-.42a2.06 2.06 0 0 1-.73-1.124l.772-.184q.095.414.436.704.348.284.815.284.294 0 .594-.142.304-.143.478-.468.116-.226.131-.489.021-.267.021-.641v-5.238h.778v5.238q0 .316-.005.573a2.5 2.5 0 0 1-.058.489 1.6 1.6 0 0 1-.184.467 1.76 1.76 0 0 1-.736.715 2.2 2.2 0 0 1-1.014.236m5.752-.01q-.51 0-.893-.158a2 2 0 0 1-.646-.425 2.3 2.3 0 0 1-.426-.61 3 3 0 0 1-.236-.73 4 4 0 0 1-.074-.773v-3.121h.778v2.895q0 .468.089.867.09.4.284.699.2.294.509.457.317.163.762.163.411 0 .72-.142.316-.141.526-.404.215-.268.325-.646a3.1 3.1 0 0 0 .111-.862l.546.121q0 .872-.305 1.466a2.1 2.1 0 0 1-.84.898 2.45 2.45 0 0 1-1.23.305m1.908-.142v-1.398h-.079v-4.277h.772v5.675zm2.267 0v-7.724h.772v7.724z"/><rect width="56.846" height="27.614" x="323.117" y="153" fill="#fff" rx="9.216"/><path fill="#000" d="M332.178 169.915v-2.007h-2.007v-.773h2.007v-2.002h.772v2.002h2.002v.773h-2.002v2.007zm6.722 1.55a2.53 2.53 0 0 1-2.238-1.293 2.7 2.7 0 0 1-.342-1.361v-2.517q0-.793.342-1.402.346-.615.946-.957a2.7 2.7 0 0 1 1.376-.346q.625 0 1.162.257.54.252.909.73l-.699.62a1.65 1.65 0 0 0-.589-.525 1.6 1.6 0 0 0-.783-.194q-.498 0-.888.241a1.7 1.7 0 0 0-.604.631 1.7 1.7 0 0 0-.221.84v1.519l-.204-.231q.33-.474.84-.757t1.104-.284q.703 0 1.261.331.562.332.882.899.327.563.326 1.266 0 .705-.352 1.277a2.64 2.64 0 0 1-.94.914 2.5 2.5 0 0 1-1.288.342m0-.904q.453 0 .825-.215.373-.222.589-.589.22-.374.22-.825t-.22-.825a1.6 1.6 0 0 0-.589-.588 1.56 1.56 0 0 0-.819-.221q-.453 0-.825.221a1.63 1.63 0 0 0-.81 1.413 1.61 1.61 0 0 0 .804 1.408q.373.22.825.221m6.312.904a2.75 2.75 0 0 1-1.282-.289 2.2 2.2 0 0 1-.873-.815q-.315-.52-.315-1.213 0-.678.321-1.225.326-.546.977-.84l-.016.341a1.9 1.9 0 0 1-.814-.725 2 2 0 0 1-.284-1.046q0-.64.294-1.103t.81-.715a2.65 2.65 0 0 1 1.182-.252q.668 0 1.182.252.515.253.809.715t.294 1.103q0 .573-.268 1.041-.267.463-.825.73l-.021-.336q.652.284.978.835.33.547.331 1.225 0 .693-.321 1.213-.315.52-.877.815a2.76 2.76 0 0 1-1.282.289m0-.893q.661 0 1.072-.363.414-.368.415-1.061 0-.699-.41-1.062-.405-.368-1.077-.368-.667 0-1.077.368-.405.363-.405 1.062 0 .693.41 1.061.41.363 1.072.363m0-3.752q.578 0 .935-.289.357-.294.357-.878 0-.582-.357-.872-.357-.294-.935-.294-.573 0-.936.294-.357.29-.357.872 0 .584.357.878.363.29.936.289m4.012 4.487v-1.03h1.03v1.03zm5.244.158a2.53 2.53 0 0 1-2.238-1.293 2.7 2.7 0 0 1-.342-1.361v-2.517q0-.793.342-1.402.346-.615.946-.957a2.7 2.7 0 0 1 1.376-.346q.625 0 1.162.257.54.252.909.73l-.699.62a1.65 1.65 0 0 0-.589-.525 1.6 1.6 0 0 0-.783-.194q-.498 0-.888.241a1.7 1.7 0 0 0-.604.631 1.7 1.7 0 0 0-.221.84v1.519l-.204-.231q.33-.474.84-.757t1.104-.284q.703 0 1.261.331.562.332.882.899.327.563.326 1.266 0 .705-.352 1.277a2.64 2.64 0 0 1-.94.914 2.5 2.5 0 0 1-1.288.342m0-.904q.453 0 .825-.215.373-.222.589-.589.22-.374.22-.825t-.22-.825a1.6 1.6 0 0 0-.589-.588 1.56 1.56 0 0 0-.819-.221q-.453 0-.825.221a1.63 1.63 0 0 0-.81 1.413 1.61 1.61 0 0 0 .804 1.408q.373.22.825.221m7.215.746v-1.392h-3.478v-.888l2.496-5.286h1.061l-2.496 5.286h2.417v-2.128h.946v2.128h.788v.888h-.788v1.392zm3.833 0-.631-.63 6.947-6.936.63.63zm5.37.158q-.52 0-.951-.252a2 2 0 0 1-.683-.684 1.8 1.8 0 0 1-.258-.956q0-.514.263-.946.262-.43.694-.688.43-.258.935-.257.52 0 .951.257.43.252.683.683a1.8 1.8 0 0 1 .257.951q0 .525-.257.956a1.94 1.94 0 0 1-.683.684 1.85 1.85 0 0 1-.951.252m0-.825q.289 0 .531-.147.247-.147.388-.389a1 1 0 0 0 .148-.531 1 1 0 0 0-.148-.53 1.03 1.03 0 0 0-.388-.389 1 1 0 0 0-.531-.147q-.29 0-.531.147a1.1 1.1 0 0 0-.389.389 1 1 0 0 0-.147.53q0 .29.147.531.148.242.389.389t.531.147m-4.424-3.274q-.52 0-.951-.252a2 2 0 0 1-.689-.683 1.86 1.86 0 0 1-.252-.956q0-.515.263-.946.262-.431.694-.688.43-.258.935-.258.52 0 .946.258.43.252.688.683a1.8 1.8 0 0 1 .257.951q0 .525-.257.956a2 2 0 0 1-.688.683 1.8 1.8 0 0 1-.946.252m0-.825a1 1 0 0 0 .53-.147 1.08 1.08 0 0 0 .536-.919q0-.29-.147-.531a1.04 1.04 0 0 0-.389-.389 1 1 0 0 0-.53-.147q-.29 0-.531.147a1.1 1.1 0 0 0-.389.389 1 1 0 0 0-.147.531q0 .288.147.531.147.241.389.388.241.147.531.147"/><path fill="#666" d="M413.631 172.851v-2.485h-2.484v-.794h2.484v-2.484h.794v2.484h2.478v.794h-2.478v2.485zm7.978 1.847a3 3 0 0 1-1.551-.41 3.16 3.16 0 0 1-1.11-1.122 3.16 3.16 0 0 1-.409-1.602v-3.146q0-.915.409-1.627a3 3 0 0 1 1.116-1.128 3.14 3.14 0 0 1 1.615-.417q.775 0 1.437.341.669.34 1.091.952l-.713.586a2.16 2.16 0 0 0-1.815-.996q-.637 0-1.135.309a2.2 2.2 0 0 0-.782.814 2.15 2.15 0 0 0-.284 1.084v1.98l-.233-.265a3.1 3.1 0 0 1 1.04-1.009 2.73 2.73 0 0 1 1.413-.384q.844 0 1.519.403a2.96 2.96 0 0 1 1.469 2.604q0 .839-.422 1.526-.417.687-1.116 1.097-.694.41-1.539.41m0-.902q.593 0 1.078-.283a2.1 2.1 0 0 0 .776-.77q.29-.485.29-1.078 0-.592-.29-1.078a2.1 2.1 0 0 0-.769-.776 2.07 2.07 0 0 0-1.078-.29q-.594 0-1.079.29-.485.285-.775.776a2.1 2.1 0 0 0-.284 1.078q0 .586.284 1.072.283.486.769.776.486.283 1.078.283m7.518.902q-.852 0-1.507-.341a2.56 2.56 0 0 1-1.022-.952q-.366-.618-.366-1.444 0-.844.41-1.5.41-.663 1.249-1.003l-.013.366a2.04 2.04 0 0 1-1.065-.845 2.4 2.4 0 0 1-.366-1.299q0-.756.347-1.299a2.3 2.3 0 0 1 .945-.845q.605-.296 1.388-.296.781 0 1.387.296.605.297.952.845.347.543.347 1.299 0 .713-.354 1.293-.347.58-1.065.851l-.032-.366q.839.334 1.255.997.423.662.423 1.506 0 .826-.372 1.444a2.55 2.55 0 0 1-1.028.952q-.656.34-1.513.341m0-.889q.857 0 1.393-.473.536-.479.536-1.375 0-.907-.53-1.374-.53-.473-1.399-.473-.871 0-1.394.473-.523.466-.523 1.374 0 .896.529 1.375.53.473 1.388.473m0-4.59q.756 0 1.229-.385.473-.391.473-1.154t-.473-1.141q-.473-.385-1.229-.385t-1.23.385q-.467.379-.467 1.141 0 .763.467 1.154.473.385 1.23.385m4.723 5.29v-1.078h1.078v1.078zm6.096.189a3 3 0 0 1-1.551-.41 3.16 3.16 0 0 1-1.11-1.122 3.16 3.16 0 0 1-.41-1.602v-3.146q0-.915.41-1.627a3 3 0 0 1 1.116-1.128 3.14 3.14 0 0 1 1.614-.417q.776 0 1.438.341.669.34 1.091.952l-.713.586a2.16 2.16 0 0 0-1.816-.996q-.636 0-1.135.309a2.2 2.2 0 0 0-.781.814q-.285.498-.284 1.084v1.98l-.233-.265a3.1 3.1 0 0 1 1.04-1.009 2.73 2.73 0 0 1 1.412-.384q.846 0 1.52.403a2.96 2.96 0 0 1 1.469 2.604q0 .839-.422 1.526a3.14 3.14 0 0 1-1.117 1.097q-.693.41-1.538.41m0-.902q.593 0 1.078-.283a2.1 2.1 0 0 0 .776-.77q.29-.485.29-1.078 0-.592-.29-1.078a2.1 2.1 0 0 0-.769-.776 2.07 2.07 0 0 0-1.079-.29q-.592 0-1.078.29-.486.285-.775.776a2.1 2.1 0 0 0-.284 1.078q0 .586.284 1.072.283.486.769.776.486.283 1.078.283m8.747.713v-1.759h-4.25v-.883l3.039-6.438h1.041l-3.04 6.438h3.21v-2.648h.933v2.648h.99v.883h-.99v1.759zm4.323 0-.63-.631 8.468-8.449.63.625zm6.577.189q-.625 0-1.142-.303a2.4 2.4 0 0 1-.819-.819 2.2 2.2 0 0 1-.309-1.148q0-.618.315-1.135t.832-.826a2.15 2.15 0 0 1 1.123-.309q.624 0 1.141.309.517.303.819.82.309.51.309 1.141 0 .63-.309 1.148a2.3 2.3 0 0 1-.819.819 2.2 2.2 0 0 1-1.141.303m0-.839q.384 0 .712-.195t.523-.517q.196-.328.196-.719t-.196-.712a1.5 1.5 0 0 0-.523-.524 1.37 1.37 0 0 0-.712-.195q-.392 0-.719.195a1.56 1.56 0 0 0-.524.524q-.195.32-.195.712t.195.719q.202.322.524.517.327.195.719.195m-5.316-4.079q-.624 0-1.141-.303a2.4 2.4 0 0 1-.826-.819 2.23 2.23 0 0 1-.303-1.148q0-.618.316-1.135.315-.517.832-.826a2.15 2.15 0 0 1 1.122-.309q.624 0 1.135.309.517.303.826.82.309.51.309 1.141 0 .63-.309 1.148-.309.51-.826.819-.51.303-1.135.303m0-.839q.391 0 .713-.195.327-.195.523-.517.195-.328.196-.719 0-.391-.196-.712a1.5 1.5 0 0 0-.523-.524 1.35 1.35 0 0 0-.713-.195q-.39 0-.719.195a1.5 1.5 0 0 0-.517.524q-.195.32-.195.712t.195.719q.196.322.517.517.329.195.719.195m19.869 5.568.006-4.471q0-.788-.441-1.235-.435-.454-1.11-.454a1.7 1.7 0 0 0-.75.176 1.45 1.45 0 0 0-.606.568q-.233.39-.233 1.021l-.549-.158q-.019-.73.284-1.28.31-.548.845-.851a2.4 2.4 0 0 1 1.223-.309q1.028 0 1.646.637.618.63.618 1.709l-.006 4.647zm-8.128 0v-6.81h.833v1.677h.1v5.133zm4.073 0 .007-4.408q0-.813-.435-1.279-.429-.474-1.135-.473-.706 0-1.141.485-.436.48-.436 1.28l-.554-.303a2.24 2.24 0 0 1 1.153-1.992 2.43 2.43 0 0 1 1.217-.303q.65 0 1.154.278.512.278.801.807.29.53.29 1.286l-.006 4.622zm9.43.189q-1.016 0-1.734-.46a3 3 0 0 1-1.104-1.274q-.384-.813-.384-1.866 0-1.072.391-1.879.39-.808 1.109-1.255.725-.454 1.722-.454 1.022 0 1.74.46a2.9 2.9 0 0 1 1.103 1.268q.385.807.385 1.86 0 1.071-.385 1.885a2.95 2.95 0 0 1-1.109 1.261q-.726.454-1.734.454m0-.889q1.134 0 1.689-.75.555-.757.555-1.961 0-1.236-.561-1.968-.555-.73-1.683-.731-.763 0-1.261.347a2.06 2.06 0 0 0-.738.952q-.24.605-.24 1.4 0 1.229.568 1.973.567.738 1.671.738m4.619.7v-6.81h.832v1.64l-.164-.215q.114-.303.296-.555.183-.258.398-.422a1.8 1.8 0 0 1 .618-.353q.352-.126.712-.145.36-.025.656.05v.87a2.3 2.3 0 0 0-.814-.044 1.55 1.55 0 0 0-.813.353 1.7 1.7 0 0 0-.511.637 2.7 2.7 0 0 0-.227.782 6 6 0 0 0-.056.813v3.399zm7.302.189q-.996 0-1.727-.441a3 3 0 0 1-1.129-1.243q-.404-.8-.404-1.878 0-1.117.398-1.93.396-.813 1.116-1.255.725-.441 1.708-.441 1.01 0 1.722.467.712.46 1.078 1.324t.334 2.061h-.946v-.327q-.026-1.324-.573-1.999-.543-.675-1.589-.675-1.098 0-1.684.713-.58.712-.58 2.03 0 1.286.58 1.999.587.706 1.658.706.732 0 1.274-.334.549-.34.864-.978l.864.335a3.1 3.1 0 0 1-1.192 1.38 3.3 3.3 0 0 1-1.772.486m-2.604-3.336v-.775h5.202v.775zm11.465 3.147-2.472-6.81h.94l2.011 5.599 1.999-5.599h.952l-2.472 6.81zm4.689-8.102v-1.041h.927v1.041zm0 8.102v-6.81h.927v6.81zm5.358.183q-1.198 0-1.974-.517a2.15 2.15 0 0 1-.945-1.438l.945-.158q.151.58.688.927.542.34 1.336.341.776 0 1.223-.322.448-.327.448-.889 0-.315-.145-.511-.138-.201-.574-.372t-1.299-.403q-.926-.252-1.45-.505-.523-.252-.744-.58-.22-.334-.22-.813 0-.58.327-1.015.329-.441.908-.681.58-.246 1.35-.246t1.374.252q.612.246.984.694t.441 1.04l-.946.17a1.36 1.36 0 0 0-.599-.945q-.498-.354-1.267-.366-.725-.019-1.179.277-.454.29-.454.776 0 .271.164.466.164.19.593.36.435.17 1.236.372.94.24 1.475.504.536.265.763.625.227.358.227.889 0 .964-.719 1.519-.713.549-1.967.549m4.21-8.285v-1.041h.927v1.041zm0 8.102v-6.81h.927v6.81zm6.525 0q-.574.12-1.135.094a2.5 2.5 0 0 1-.996-.239 1.44 1.44 0 0 1-.662-.669 2 2 0 0 1-.202-.763q-.013-.39-.013-.889v-6.235h.921v6.198q0 .428.006.718.013.285.133.505.227.422.718.504.498.082 1.23-.038zm-4.464-6.015v-.795h4.464v.795zm8.403 6.204q-1.016 0-1.734-.46a3 3 0 0 1-1.103-1.274q-.385-.813-.385-1.866 0-1.072.391-1.879a2.95 2.95 0 0 1 1.11-1.255q.725-.454 1.721-.454 1.022 0 1.74.46.725.454 1.104 1.268.384.807.384 1.86 0 1.071-.384 1.885a2.96 2.96 0 0 1-1.11 1.261q-.726.454-1.734.454m0-.889q1.135 0 1.69-.75.555-.757.555-1.961 0-1.236-.562-1.968-.555-.73-1.683-.731-.763 0-1.261.347a2.06 2.06 0 0 0-.738.952q-.24.605-.239 1.4 0 1.229.567 1.973.567.738 1.671.738m4.619.7v-6.81h.832v1.64l-.164-.215q.114-.303.297-.555.183-.258.397-.422a1.8 1.8 0 0 1 .618-.353 2.5 2.5 0 0 1 .712-.145q.36-.025.656.05v.87a2.3 2.3 0 0 0-.813-.044 1.55 1.55 0 0 0-.814.353 1.7 1.7 0 0 0-.51.637q-.171.365-.227.782a6 6 0 0 0-.057.813v3.399zm6.839.183q-1.198 0-1.974-.517a2.15 2.15 0 0 1-.945-1.438l.945-.158q.151.58.688.927.542.34 1.336.341.776 0 1.224-.322.447-.327.447-.889 0-.315-.145-.511-.138-.201-.574-.372t-1.298-.403q-.927-.252-1.451-.505-.524-.252-.744-.58-.22-.334-.22-.813 0-.58.328-1.015.327-.441.907-.681.58-.246 1.35-.246t1.374.252q.612.246.984.694t.441 1.04l-.945.17a1.37 1.37 0 0 0-.599-.945q-.499-.354-1.268-.366-.724-.019-1.179.277-.454.29-.454.776 0 .271.164.466.164.19.593.36.435.17 1.236.372.94.24 1.475.504.536.265.763.625.227.358.227.889 0 .964-.719 1.519-.713.549-1.967.549"/><path stroke="#333" stroke-width=".912" d="M344.76 42.363h-9.122a2.28 2.28 0 0 1-2.281-2.281V34.76a2.28 2.28 0 0 1 2.281-2.281h9.122a2.28 2.28 0 0 1 2.28 2.28v5.322a2.28 2.28 0 0 1-2.28 2.28Z"/><path stroke="#333" stroke-width=".912" d="M336.397 32.48v-2.357c0-.378.307-.684.685-.684h6.233c.378 0 .684.306.684.684v2.357M338.678 29.439v3.04M340.198 29.439v3.04"/><path fill="#333" stroke="#333" stroke-linecap="round" stroke-linejoin="round" stroke-width=".912" d="M343.62 37.801a.38.38 0 1 1 0-.76.38.38 0 0 1 0 .76"/><path fill="#333" d="M358.088 42.512a4 4 0 0 1-1.572-.303 3.55 3.55 0 0 1-1.237-.862 3.5 3.5 0 0 1-.759-1.35l1.118-.334q.286.853.942 1.293.662.438 1.492.423.767-.015 1.317-.343.56-.328.855-.91t.295-1.35q0-1.173-.687-1.883-.678-.718-1.796-.718-.31 0-.654.087-.344.08-.639.232l-.59-.934 4.47-4.127.191.48h-5.859v-1.126h6.641v1.141l-3.895 3.72-.016-.463q1.198-.151 2.107.271a3.15 3.15 0 0 1 1.421 1.293q.519.862.519 2.028 0 1.101-.479 1.947a3.43 3.43 0 0 1-1.301 1.317q-.83.471-1.884.471m9.622.008a3.8 3.8 0 0 1-1.963-.519 4 4 0 0 1-1.405-1.42q-.519-.903-.519-2.028V34.57q0-1.157.519-2.06a3.8 3.8 0 0 1 1.413-1.428q.901-.527 2.043-.527.982 0 1.82.431.846.432 1.381 1.205l-.902.743a2.73 2.73 0 0 0-2.299-1.261q-.805 0-1.437.39-.63.392-.989 1.03a2.7 2.7 0 0 0-.359 1.373v2.507l-.296-.335a3.9 3.9 0 0 1 1.317-1.278 3.45 3.45 0 0 1 1.788-.486q1.07 0 1.924.51a3.75 3.75 0 0 1 1.86 3.297 3.6 3.6 0 0 1-.535 1.931 3.97 3.97 0 0 1-1.413 1.39 3.76 3.76 0 0 1-1.948.518m0-1.141q.751 0 1.365-.36a2.65 2.65 0 0 0 .982-.973q.367-.615.367-1.365t-.367-1.365a2.65 2.65 0 0 0-.974-.982 2.6 2.6 0 0 0-1.365-.367q-.75 0-1.365.367a2.7 2.7 0 0 0-.981.982 2.65 2.65 0 0 0-.359 1.365q0 .742.359 1.357t.974.982q.614.36 1.364.359m9.764 1.141a3.75 3.75 0 0 1-1.915-.495 3.7 3.7 0 0 1-1.341-1.34 3.75 3.75 0 0 1-.495-1.916v-4.47q0-1.062.495-1.908.495-.855 1.341-1.349a3.75 3.75 0 0 1 1.915-.495q1.062 0 1.908.495a3.65 3.65 0 0 1 1.349 1.349q.495.846.495 1.908v4.47a3.75 3.75 0 0 1-.495 1.915 3.67 3.67 0 0 1-1.349 1.341q-.846.495-1.908.495m0-1.133q.711 0 1.293-.343.583-.352.926-.934t.344-1.285v-4.582a2.5 2.5 0 0 0-.344-1.293 2.57 2.57 0 0 0-.926-.926 2.45 2.45 0 0 0-1.293-.351q-.71 0-1.293.35a2.6 2.6 0 0 0-.926.927q-.343.583-.343 1.293v4.581q0 .703.343 1.286t.926.934q.584.343 1.293.343m9.744 1.133a3.75 3.75 0 0 1-1.916-.495 3.7 3.7 0 0 1-1.341-1.34 3.75 3.75 0 0 1-.495-1.916v-4.47q0-1.062.495-1.908.495-.855 1.341-1.349a3.75 3.75 0 0 1 1.916-.495q1.062 0 1.908.495a3.65 3.65 0 0 1 1.349 1.349q.495.846.495 1.908v4.47a3.75 3.75 0 0 1-.495 1.915 3.67 3.67 0 0 1-1.349 1.341q-.846.495-1.908.495m0-1.133q.711 0 1.293-.343.583-.352.926-.934t.343-1.285v-4.582q0-.711-.343-1.293a2.57 2.57 0 0 0-.926-.926 2.45 2.45 0 0 0-1.293-.351q-.711 0-1.293.35a2.57 2.57 0 0 0-.926.927q-.343.583-.343 1.293v4.581q0 .703.343 1.286t.926.934q.582.343 1.293.343"/><path stroke="#333" stroke-width=".912" d="M434.178 42.438v-3.953c0-.378.306-.684.684-.684h3.953c.378 0 .684.306.684.684v3.953a.684.684 0 0 1-.684.684h-3.953a.684.684 0 0 1-.684-.684ZM425.815 42.438v-3.953c0-.378.307-.684.685-.684h3.953c.377 0 .684.306.684.684v3.953a.685.685 0 0 1-.684.684H426.5a.685.685 0 0 1-.685-.684ZM434.178 34.076v-3.953c0-.378.306-.684.684-.684h3.953c.378 0 .684.306.684.684v3.953a.684.684 0 0 1-.684.684h-3.953a.684.684 0 0 1-.684-.684ZM425.816 34.076v-3.953c0-.378.306-.684.684-.684h3.953c.378 0 .684.306.684.684v3.953a.684.684 0 0 1-.684.684H426.5a.684.684 0 0 1-.684-.684Z"/><path fill="#333" d="M450.491 43.853v-1.82h1.174v1.82zm0-12.827v-1.828h1.174v1.828zm.727 11.494q-1.142 0-2.06-.407a4 4 0 0 1-1.508-1.15 3.9 3.9 0 0 1-.774-1.756l1.141-.2q.263 1.102 1.133 1.749.879.639 2.116.639 1.253 0 2.027-.607.774-.615.774-1.604 0-.735-.431-1.174-.43-.439-1.46-.75l-2.555-.798q-2.314-.727-2.314-2.746 0-.942.463-1.653a3.14 3.14 0 0 1 1.301-1.117q.837-.399 1.955-.391 1.093 0 1.956.415.87.407 1.429 1.157t.742 1.78l-1.173.224a2.85 2.85 0 0 0-.519-1.285 2.7 2.7 0 0 0-1.03-.854 3.2 3.2 0 0 0-1.405-.32q-.734 0-1.309.256-.574.255-.91.71a1.7 1.7 0 0 0-.327 1.03q0 .639.455 1.086.464.439 1.461.742l2.195.662q1.389.416 2.003 1.118t.615 1.876q0 1.013-.495 1.772-.495.758-1.397 1.18-.894.416-2.099.416m7.644-.24V32.097l-2.163 1.3V32.08l2.163-1.294h1.19v11.495zm3.419 1.669.071-.583q.32.024.463-.128a.7.7 0 0 0 .176-.407q.032-.255.016-.55h-.726v-1.685h1.364V42.6q0 .734-.375 1.101-.366.368-.989.248m4.08-1.676.008-1.07 5.197-4.693q.67-.607.886-1.15.223-.55.223-1.15a2.51 2.51 0 0 0-1.237-2.194 2.4 2.4 0 0 0-1.269-.344q-.735 0-1.309.352a2.6 2.6 0 0 0-.91.925q-.327.575-.32 1.254h-1.197q0-1.046.495-1.876t1.341-1.301q.846-.48 1.916-.479 1.046 0 1.875.495.838.486 1.318 1.325.486.83.486 1.852 0 .719-.175 1.269-.168.543-.535 1.014a7 7 0 0 1-.918.957l-4.614 4.167-.183-.479h6.425v1.126zm14.173.008v-2.227h-5.38v-1.118l3.847-8.15h1.317l-3.847 8.15h4.063v-3.352h1.181v3.352h1.253v1.117h-1.253v2.228zm7.748.239a3.74 3.74 0 0 1-1.652-.367 3.8 3.8 0 0 1-1.293-1.014 3.95 3.95 0 0 1-.767-1.485l1.126-.303q.151.622.551 1.078.399.448.933.694.543.248 1.134.248a2.6 2.6 0 0 0 1.373-.368 2.8 2.8 0 0 0 .974-.99q.359-.615.359-1.348 0-.758-.375-1.365-.375-.615-.99-.974-.615-.36-1.341-.36-.814 0-1.405.36-.591.352-.942.886l-1.069-.447.351-5.979h6.138v1.126h-5.619l.582-.55-.311 5.1-.295-.392q.495-.566 1.197-.886.702-.319 1.477-.319 1.061 0 1.915.511.855.503 1.357 1.365a3.74 3.74 0 0 1 .503 1.924q0 1.053-.535 1.931a4.1 4.1 0 0 1-1.42 1.397 3.76 3.76 0 0 1-1.956.527m5.662 1.429.071-.583q.32.024.463-.128a.7.7 0 0 0 .176-.407q.032-.255.016-.55h-.726v-1.685h1.364V42.6q0 .734-.375 1.101-.366.368-.989.248m8.151-1.429a3.75 3.75 0 0 1-1.915-.495 3.67 3.67 0 0 1-1.341-1.34 3.75 3.75 0 0 1-.495-1.917v-4.47q0-1.06.495-1.907a3.65 3.65 0 0 1 1.341-1.35 3.75 3.75 0 0 1 1.915-.494q1.062 0 1.908.495a3.65 3.65 0 0 1 1.349 1.349q.495.846.495 1.907v4.47a3.75 3.75 0 0 1-.495 1.916 3.67 3.67 0 0 1-1.349 1.341q-.846.495-1.908.495m0-1.134q.711 0 1.293-.343.583-.35.926-.934.343-.582.343-1.285v-4.581q0-.71-.343-1.294a2.6 2.6 0 0 0-.926-.925 2.46 2.46 0 0 0-1.293-.352 2.46 2.46 0 0 0-1.293.352 2.6 2.6 0 0 0-.926.925q-.343.583-.343 1.294v4.581q0 .703.343 1.285.344.583.926.934.583.344 1.293.343m9.744 1.134a3.75 3.75 0 0 1-1.916-.495 3.7 3.7 0 0 1-1.341-1.34 3.75 3.75 0 0 1-.495-1.917v-4.47q0-1.06.495-1.907.495-.855 1.341-1.35a3.75 3.75 0 0 1 1.916-.494q1.062 0 1.908.495a3.65 3.65 0 0 1 1.349 1.349q.494.846.494 1.907v4.47a3.76 3.76 0 0 1-.494 1.916 3.67 3.67 0 0 1-1.349 1.341q-.846.495-1.908.495m0-1.134q.71 0 1.293-.343.582-.35.926-.934.343-.582.343-1.285v-4.581q0-.71-.343-1.294a2.6 2.6 0 0 0-.926-.925 2.46 2.46 0 0 0-1.293-.352q-.711 0-1.293.352a2.6 2.6 0 0 0-.926.925q-.343.583-.343 1.294v4.581q0 .703.343 1.285.343.583.926.934.582.344 1.293.343m9.744 1.134a3.75 3.75 0 0 1-1.916-.495 3.7 3.7 0 0 1-1.341-1.34 3.75 3.75 0 0 1-.495-1.917v-4.47q0-1.06.495-1.907.495-.855 1.341-1.35a3.75 3.75 0 0 1 1.916-.494q1.06 0 1.907.495.855.495 1.349 1.349.495.846.495 1.907v4.47a3.75 3.75 0 0 1-.495 1.916 3.66 3.66 0 0 1-1.349 1.341q-.846.495-1.907.495m0-1.134q.71 0 1.293-.343.582-.35.926-.934.342-.582.343-1.285v-4.581q0-.71-.343-1.294a2.6 2.6 0 0 0-.926-.925 2.46 2.46 0 0 0-1.293-.352 2.46 2.46 0 0 0-1.294.352 2.57 2.57 0 0 0-.925.925 2.5 2.5 0 0 0-.344 1.294v4.581q0 .703.344 1.285.342.583.925.934.583.344 1.294.343"/><rect width="241.741" height="1.14" x="330.051" y="56.782" fill="#000" fill-opacity=".1" rx=".57"/><mask id="b" width="297" height="434" x="1" y="1" fill="#000" maskUnits="userSpaceOnUse"><path fill="#fff" d="M1 1h297v434H1z"/><path d="M1 1h296v434H1z"/></mask><path fill="#fff" d="M1 1h296v434H1z"/><path fill="#000" fill-opacity=".1" d="M296 1v434h2V1z" mask="url(#b)"/><path fill="#333" d="M18.602 383.592v-10.368h-4.015v-1.126h9.204v1.126h-4.015v10.368zm5.673 0v-8.62h1.054v2.075l-.207-.271q.143-.384.375-.703.231-.327.503-.535.335-.294.782-.447a3.2 3.2 0 0 1 .902-.183q.455-.032.83.064v1.101a2.9 2.9 0 0 0-1.03-.056 1.97 1.97 0 0 0-1.03.447 2.15 2.15 0 0 0-.646.807q-.216.462-.287.989a7.5 7.5 0 0 0-.072 1.03v4.302zm7.892.24q-.975 0-1.636-.351-.655-.352-.982-.934a2.55 2.55 0 0 1-.327-1.269q0-.703.28-1.198a2.4 2.4 0 0 1 .773-.822q.494-.32 1.142-.487a17 17 0 0 1 1.444-.279 37 37 0 0 1 1.557-.216 54 54 0 0 0 1.341-.183l-.415.255q.024-1.277-.495-1.892-.519-.614-1.804-.614-.885 0-1.5.399-.608.399-.855 1.261l-1.141-.335q.295-1.157 1.19-1.796.893-.639 2.322-.639 1.182 0 2.004.447.83.44 1.173 1.277.159.375.208.838.047.464.047.942v5.356h-1.045v-2.163l.303.128q-.44 1.11-1.365 1.692-.926.583-2.219.583m.136-1.014q.822 0 1.437-.295.615-.296.99-.806.375-.52.486-1.166a4.4 4.4 0 0 0 .104-.91q.008-.502.008-.75l.447.231q-.6.08-1.301.16-.694.08-1.373.184-.67.103-1.213.247a3.3 3.3 0 0 0-.71.295 1.65 1.65 0 0 0-.567.495q-.216.312-.216.775 0 .375.184.726a1.5 1.5 0 0 0 .606.583q.423.231 1.118.231m8.287.774-3.129-8.62h1.19l2.546 7.088 2.53-7.088h1.206l-3.13 8.62zm9.112.24q-1.26 0-2.187-.559a3.8 3.8 0 0 1-1.429-1.572q-.51-1.014-.51-2.379 0-1.413.502-2.443.504-1.03 1.413-1.588.918-.56 2.163-.559 1.277 0 2.18.591.901.582 1.364 1.676t.423 2.61h-1.197v-.415q-.032-1.676-.726-2.53-.687-.854-2.012-.854-1.389 0-2.13.902-.735.902-.735 2.57 0 1.629.734 2.53.742.894 2.1.894.925 0 1.612-.423.694-.431 1.093-1.237l1.094.423a3.9 3.9 0 0 1-1.509 1.748q-.99.615-2.243.615m-3.296-4.223v-.982h6.585v.982zm9.146 3.983v-11.733h1.174v11.733zm3.726-10.257v-1.317h1.174v1.317zm0 10.257v-8.62h1.174v8.62zm9.793 0v-4.398q0-.719-.136-1.317a3 3 0 0 0-.439-1.053 2 2 0 0 0-.774-.703q-.47-.247-1.15-.247a2.7 2.7 0 0 0-1.101.215q-.471.216-.798.623-.32.399-.487.974a4.7 4.7 0 0 0-.168 1.309l-.83-.184q0-1.325.463-2.227t1.277-1.365 1.868-.463q.774 0 1.349.24.583.239.982.646.407.408.654.934.248.519.36 1.11.111.582.111 1.165v4.741zm-6.234 0v-8.62h1.061v2.123h.12v6.497zm12.91 4.071q-.662 0-1.308-.199a3.6 3.6 0 0 1-1.182-.615 3.4 3.4 0 0 1-.91-1.086l1.062-.59q.36.719 1.006 1.029.654.32 1.333.32.933 0 1.508-.352.583-.343.846-1.021.264-.68.256-1.692v-2.299h.135v-6.186h1.046v8.501q0 .366-.024.702-.015.343-.072.67-.15.966-.63 1.589-.472.623-1.245.926-.767.303-1.82.303m-.08-3.831q-1.205 0-2.058-.599-.854-.606-1.31-1.636-.455-1.03-.455-2.323 0-1.285.447-2.315.455-1.03 1.302-1.628.846-.599 2.027-.599 1.213 0 2.043.591t1.254 1.62q.43 1.021.43 2.331 0 1.285-.422 2.323-.423 1.03-1.246 1.636-.822.599-2.011.599m.12-1.094q.918 0 1.517-.447.6-.447.894-1.229.296-.79.296-1.788 0-1.014-.296-1.788-.296-.782-.894-1.221-.59-.44-1.493-.439-.926 0-1.532.455-.606.454-.902 1.237-.287.782-.287 1.756 0 .982.295 1.772.303.783.902 1.237.6.455 1.5.455m12.756 1.094q-1.302 0-2.203-.583a3.7 3.7 0 0 1-1.373-1.604q-.463-1.03-.48-2.363.017-1.357.496-2.379.48-1.029 1.38-1.596.903-.575 2.188-.575 1.308 0 2.275.639a3.22 3.22 0 0 1 1.333 1.748l-1.15.367a2.43 2.43 0 0 0-.966-1.197 2.66 2.66 0 0 0-1.5-.431q-.95 0-1.573.439-.623.43-.926 1.205t-.311 1.78q.016 1.548.718 2.49.703.934 2.092.934.878 0 1.492-.399.623-.407.942-1.181l1.182.351q-.48 1.15-1.405 1.756-.927.599-2.211.599m7.683 0q-.975 0-1.636-.351-.655-.352-.982-.934a2.55 2.55 0 0 1-.328-1.269q0-.703.28-1.198a2.4 2.4 0 0 1 .774-.822q.494-.32 1.142-.487.655-.159 1.444-.279a37 37 0 0 1 1.557-.216 54 54 0 0 0 1.34-.183l-.414.255q.023-1.277-.495-1.892-.519-.614-1.804-.614-.886 0-1.5.399-.608.399-.855 1.261l-1.141-.335q.295-1.157 1.19-1.796.893-.639 2.322-.639 1.18 0 2.003.447.83.44 1.174 1.277.159.375.207.838.048.464.048.942v5.356h-1.046v-2.163l.304.128q-.44 1.11-1.365 1.692-.925.583-2.22.583m.136-1.014q.822 0 1.436-.295.615-.296.99-.806.376-.52.487-1.166a4.4 4.4 0 0 0 .104-.91q.008-.502.008-.75l.447.231q-.6.08-1.301.16-.694.08-1.373.184-.671.103-1.213.247a3.3 3.3 0 0 0-.71.295 1.65 1.65 0 0 0-.568.495q-.215.312-.215.775 0 .375.184.726a1.5 1.5 0 0 0 .606.583q.423.231 1.118.231m6.268.774v-8.62h1.054v2.075l-.208-.271q.144-.384.375-.703a2.5 2.5 0 0 1 .503-.535q.336-.294.782-.447.447-.159.902-.183.455-.032.831.064v1.101a2.9 2.9 0 0 0-1.03-.056 1.97 1.97 0 0 0-1.03.447 2.14 2.14 0 0 0-.646.807q-.216.462-.288.989a7.5 7.5 0 0 0-.072 1.03v4.302zm8.941.24q-1.205 0-2.059-.599-.854-.606-1.309-1.636t-.455-2.323q0-1.285.447-2.315.455-1.03 1.301-1.628.846-.599 2.027-.599 1.213 0 2.044.591.83.591 1.253 1.62.43 1.021.431 2.331 0 1.285-.423 2.323-.423 1.03-1.245 1.636-.822.599-2.012.599m.12-1.094q.918 0 1.517-.447t.894-1.229q.295-.79.295-1.788 0-1.014-.295-1.788-.295-.782-.894-1.221-.591-.44-1.493-.439-.925 0-1.533.455-.606.454-.902 1.237a5.1 5.1 0 0 0-.287 1.756q0 .982.295 1.772.304.783.902 1.237.6.455 1.501.455m2.706.854v-6.489h-.128v-5.005h1.182v11.494z"/><path fill="#888" d="M15.389 405.574v-9.852h1.005v9.852zm5.814.199q-1.3 0-2.142-.561a2.34 2.34 0 0 1-1.026-1.56l1.026-.171q.165.63.746 1.005.589.37 1.45.37.842 0 1.328-.349.486-.356.486-.965 0-.342-.158-.554-.15-.219-.622-.404a15 15 0 0 0-1.41-.437q-1.006-.274-1.573-.548-.568-.273-.808-.629-.24-.363-.24-.883 0-.63.357-1.101.355-.48.985-.739.63-.267 1.464-.267.835 0 1.491.274a2.6 2.6 0 0 1 1.068.752q.403.486.479 1.129l-1.027.185a1.48 1.48 0 0 0-.65-1.026q-.54-.384-1.375-.397-.786-.021-1.28.301-.492.315-.492.841 0 .294.178.507.178.204.643.39.473.184 1.341.403 1.02.26 1.601.548.582.287.828.677t.246.965q0 1.046-.78 1.648-.773.596-2.134.596m7.189 0q-1.3 0-2.142-.561a2.34 2.34 0 0 1-1.026-1.56l1.026-.171q.165.63.746 1.005.59.37 1.45.37.843 0 1.328-.349.486-.356.486-.965 0-.342-.158-.554-.15-.219-.622-.404a15 15 0 0 0-1.41-.437q-1.005-.274-1.573-.548-.568-.273-.808-.629-.24-.363-.239-.883 0-.63.356-1.101.355-.48.985-.739.63-.267 1.464-.267.835 0 1.492.274.663.266 1.067.752t.479 1.129l-1.026.185a1.48 1.48 0 0 0-.65-1.026q-.541-.384-1.376-.397-.786-.021-1.279.301-.492.315-.493.841 0 .294.178.507.178.204.643.39.473.184 1.341.403 1.02.26 1.601.548.582.287.828.677.247.39.247.965 0 1.046-.78 1.648-.773.596-2.135.596m7.258-.014q-.664 0-1.164-.205a2.6 2.6 0 0 1-.841-.554 3 3 0 0 1-.554-.794 4 4 0 0 1-.308-.951 5.4 5.4 0 0 1-.096-1.006v-4.064H33.7v3.77q0 .609.116 1.129t.37.91q.26.383.663.595.41.212.992.212.534 0 .937-.185.41-.184.685-.526.28-.35.424-.842.144-.5.143-1.122l.712.157q0 1.136-.397 1.909t-1.094 1.17q-.7.397-1.601.397m2.483-.185v-1.82h-.103v-5.569h1.006v7.389zm5.942.205q-1.08 0-1.875-.478a3.26 3.26 0 0 1-1.224-1.348q-.438-.87-.438-2.039 0-1.21.43-2.094a3.2 3.2 0 0 1 1.212-1.361q.787-.479 1.854-.479 1.094 0 1.868.506.773.5 1.17 1.437t.362 2.237h-1.026v-.356q-.027-1.436-.623-2.168-.588-.732-1.724-.732-1.19 0-1.826.773-.63.772-.63 2.203 0 1.395.63 2.169.636.765 1.799.766.795 0 1.382-.363.596-.37.937-1.06l.938.362a3.36 3.36 0 0 1-1.293 1.499q-.849.526-1.923.526m-2.826-3.619v-.841h5.645v.841zm10.57 3.619q-1.032 0-1.765-.513a3.3 3.3 0 0 1-1.122-1.402q-.39-.883-.39-1.991 0-1.102.383-1.984a3.3 3.3 0 0 1 1.116-1.396q.724-.513 1.737-.513 1.041 0 1.752.506.711.507 1.074 1.389.37.876.37 1.998 0 1.101-.363 1.991-.363.882-1.067 1.402-.705.513-1.725.513m.103-.937q.787 0 1.3-.383t.766-1.054a4.4 4.4 0 0 0 .253-1.532q0-.868-.253-1.533-.253-.67-.766-1.046-.507-.377-1.28-.377-.793 0-1.313.39a2.3 2.3 0 0 0-.773 1.061 4.3 4.3 0 0 0-.247 1.505q0 .841.254 1.519.259.67.773 1.06.513.39 1.286.39m2.32.732v-5.562h-.11v-4.29h1.013v9.852zm7.675.205q-.835 0-1.402-.301a2.04 2.04 0 0 1-.842-.8 2.2 2.2 0 0 1-.28-1.088q0-.601.24-1.026.245-.43.663-.705.425-.273.978-.417.561-.137 1.239-.24.684-.11 1.334-.184.656-.083 1.15-.158l-.357.219q.021-1.095-.424-1.621-.444-.527-1.546-.527-.76 0-1.286.342-.52.342-.732 1.081l-.979-.287q.254-.993 1.02-1.54.765-.547 1.99-.547 1.013 0 1.718.383.712.376 1.006 1.095.136.321.178.718.04.397.04.807v4.591h-.896v-1.854l.26.11q-.375.95-1.17 1.45-.793.5-1.902.499m.117-.868q.705 0 1.231-.254.527-.252.849-.691.321-.444.417-.998a3.8 3.8 0 0 0 .089-.78q.007-.432.007-.644l.383.199q-.513.068-1.115.137-.596.068-1.177.157a10 10 0 0 0-1.04.212q-.315.089-.609.253a1.4 1.4 0 0 0-.486.424q-.184.267-.184.664 0 .321.157.623.165.3.52.499.362.198.958.199m8.438.868q-1.115 0-1.889-.499a3.2 3.2 0 0 1-1.176-1.375q-.398-.884-.41-2.025.013-1.163.423-2.039a3.12 3.12 0 0 1 1.184-1.368q.772-.493 1.875-.493 1.122 0 1.95.547a2.76 2.76 0 0 1 1.142 1.499l-.985.314a2.1 2.1 0 0 0-.828-1.026 2.3 2.3 0 0 0-1.286-.369q-.814 0-1.348.376a2.2 2.2 0 0 0-.794 1.033q-.26.663-.266 1.526.013 1.327.615 2.134.603.801 1.793.801.752 0 1.28-.342.533-.349.806-1.013l1.013.301q-.41.986-1.204 1.505-.794.513-1.895.513m7.376 0q-1.115 0-1.888-.499a3.2 3.2 0 0 1-1.177-1.375q-.397-.884-.41-2.025.012-1.163.424-2.039a3.1 3.1 0 0 1 1.183-1.368q.773-.493 1.875-.493 1.122 0 1.95.547a2.76 2.76 0 0 1 1.142 1.499l-.985.314a2.1 2.1 0 0 0-.828-1.026 2.3 2.3 0 0 0-1.286-.369q-.814 0-1.348.376a2.2 2.2 0 0 0-.793 1.033q-.261.663-.267 1.526.014 1.327.615 2.134.603.801 1.793.801.752 0 1.28-.342.532-.349.807-1.013l1.012.301q-.41.986-1.204 1.505-.793.513-1.895.513m7.438 0q-1.08 0-1.875-.478a3.26 3.26 0 0 1-1.225-1.348q-.437-.87-.437-2.039 0-1.21.43-2.094a3.2 3.2 0 0 1 1.212-1.361q.786-.479 1.854-.479 1.095 0 1.867.506.774.5 1.17 1.437.397.938.363 2.237H87.62v-.356q-.027-1.436-.623-2.168-.588-.732-1.724-.732-1.19 0-1.827.773-.63.772-.63 2.203 0 1.395.63 2.169.637.765 1.8.766.794 0 1.382-.363.595-.37.937-1.06l.937.362a3.36 3.36 0 0 1-1.293 1.499q-.848.526-1.922.526m-2.826-3.619v-.841h5.645v.841zm10.46 3.613q-1.3 0-2.14-.561a2.34 2.34 0 0 1-1.027-1.56l1.026-.171q.165.63.746 1.005.589.37 1.45.37.842 0 1.328-.349.485-.356.485-.965 0-.342-.157-.554-.15-.219-.623-.404a15 15 0 0 0-1.409-.437q-1.005-.274-1.574-.548-.567-.273-.807-.629-.24-.363-.24-.883 0-.63.357-1.101.355-.48.985-.739.63-.267 1.464-.267t1.491.274q.664.266 1.068.752.403.486.478 1.129l-1.026.185a1.48 1.48 0 0 0-.65-1.026q-.54-.384-1.375-.397-.786-.021-1.28.301-.492.315-.492.841 0 .294.178.507.178.204.643.39.473.184 1.341.403 1.02.26 1.601.548.582.287.828.677t.246.965q0 1.046-.78 1.648-.773.596-2.134.596m7.19 0q-1.3 0-2.142-.561a2.34 2.34 0 0 1-1.026-1.56l1.026-.171q.165.63.746 1.005.588.37 1.451.37.841 0 1.327-.349.486-.356.486-.965 0-.342-.158-.554-.15-.219-.622-.404a15 15 0 0 0-1.41-.437q-1.005-.274-1.573-.548-.568-.273-.808-.629-.24-.363-.24-.883 0-.63.357-1.101.355-.48.985-.739.63-.267 1.464-.267.835 0 1.491.274a2.6 2.6 0 0 1 1.068.752q.404.486.479 1.129l-1.027.185a1.47 1.47 0 0 0-.65-1.026q-.54-.384-1.375-.397-.785-.021-1.28.301-.492.315-.492.841 0 .294.178.507.178.204.643.39.472.184 1.341.403 1.02.26 1.601.548.582.287.828.677t.246.965q0 1.046-.78 1.648-.773.596-2.134.596m7.034-4.078v-.862h4.105v.862zm11.53 4.084a3.2 3.2 0 0 1-1.416-.314q-.65-.315-1.108-.869a3.4 3.4 0 0 1-.657-1.273l.964-.26q.13.534.473.924.341.383.8.595.465.213.972.212.656 0 1.176-.314.528-.322.835-.849a2.25 2.25 0 0 0 .308-1.156q0-.65-.322-1.17a2.4 2.4 0 0 0-.848-.835 2.24 2.24 0 0 0-1.149-.308q-.698 0-1.205.308a2.44 2.44 0 0 0-.807.76l-.917-.383.301-5.125h5.262v.965h-4.817l.499-.472-.266 4.372-.253-.336a3 3 0 0 1 1.026-.759 3 3 0 0 1 1.265-.274q.91 0 1.642.438.733.43 1.164 1.17.43.739.431 1.649 0 .903-.459 1.656a3.5 3.5 0 0 1-1.218 1.197 3.2 3.2 0 0 1-1.676.451"/><mask id="c" width="75" height="79" x="221.813" y="367.592" fill="#000" maskUnits="userSpaceOnUse"><path fill="#fff" d="M221.813 367.592h75v79h-75z"/><path d="M223.813 373.592a4 4 0 0 1 4-4h68.978v76.4h-72.978z"/></mask><path fill="#fff" d="M223.813 373.592a4 4 0 0 1 4-4h68.978v76.4h-72.978z"/><path fill="#000" fill-opacity=".1" d="M222.673 373.592a5.14 5.14 0 0 1 5.14-5.14h68.978v2.281h-68.978a2.86 2.86 0 0 0-2.86 2.859zm74.118 72.4h-72.978zm-74.118 0v-72.4a5.14 5.14 0 0 1 5.14-5.14v2.281a2.86 2.86 0 0 0-2.86 2.859v72.4zm74.118-76.4v76.4z" mask="url(#c)"/><path fill="#000" d="M247.095 427.163q-1.094 0-1.988-.527a3.9 3.9 0 0 1-1.413-1.437q-.519-.918-.519-2.067v-3.824q0-1.204.519-2.131a3.76 3.76 0 0 1 1.437-1.452q.918-.528 2.091-.527.95 0 1.764.391a3.7 3.7 0 0 1 1.381 1.109l-1.061.942a2.5 2.5 0 0 0-.894-.798 2.5 2.5 0 0 0-1.19-.295q-.758 0-1.349.367a2.6 2.6 0 0 0-.918.958 2.55 2.55 0 0 0-.335 1.277v2.307l-.311-.352a3.8 3.8 0 0 1 1.277-1.149 3.4 3.4 0 0 1 1.676-.431q1.07 0 1.916.503a3.63 3.63 0 0 1 1.341 1.365q.495.853.495 1.923t-.535 1.94a4 4 0 0 1-1.429 1.389 3.8 3.8 0 0 1-1.955.519m0-1.373q.686 0 1.253-.327.566-.336.894-.894.335-.567.335-1.254 0-.686-.335-1.253a2.4 2.4 0 0 0-.894-.894 2.4 2.4 0 0 0-1.246-.335q-.686 0-1.253.335-.558.327-.894.894a2.4 2.4 0 0 0-.335 1.253q0 .68.327 1.246.336.558.894.894.567.335 1.254.335m6.602 1.133 4.135-10.129h-5.22v-1.365h6.744v1.365l-4.126 10.129zm11.338-11.725q1.101 0 1.987.527t1.405 1.436q.527.91.527 2.068v3.823q0 1.206-.519 2.131a3.76 3.76 0 0 1-1.437 1.453q-.909.527-2.091.527a4.1 4.1 0 0 1-1.764-.391 3.9 3.9 0 0 1-1.381-1.11l1.062-.942q.35.495.902.799.55.294 1.181.295.767 0 1.349-.367.591-.367.918-.958.335-.591.335-1.277v-2.307l.311.351a3.7 3.7 0 0 1-1.269 1.15 3.4 3.4 0 0 1-1.684.431q-1.07 0-1.916-.503a3.74 3.74 0 0 1-1.341-1.357 3.8 3.8 0 0 1-.494-1.932q0-1.07.534-1.94a3.95 3.95 0 0 1 1.421-1.388 3.84 3.84 0 0 1 1.964-.519m0 1.373q-.687 0-1.253.335a2.5 2.5 0 0 0-.894.894 2.37 2.37 0 0 0-.336 1.245q0 .686.328 1.253.334.56.894.894.566.335 1.253.335t1.253-.335a2.47 2.47 0 0 0 1.229-2.147q0-.679-.335-1.237a2.46 2.46 0 0 0-.894-.902 2.37 2.37 0 0 0-1.245-.335m9.556 10.592a3.8 3.8 0 0 1-1.653-.367 3.95 3.95 0 0 1-1.301-1.006 3.95 3.95 0 0 1-.766-1.485l1.365-.367q.144.567.511.982.367.407.854.638.495.224 1.03.224a2.4 2.4 0 0 0 1.261-.335q.567-.344.894-.902.327-.567.327-1.238 0-.693-.343-1.253a2.47 2.47 0 0 0-2.139-1.221q-.76 0-1.301.319a2.6 2.6 0 0 0-.847.767l-1.261-.479.351-6.011h6.171v1.349h-5.484l.631-.59-.296 4.813-.311-.407q.479-.511 1.141-.791a3.5 3.5 0 0 1 1.365-.279q1.07 0 1.916.503.846.495 1.341 1.357.495.853.495 1.923 0 1.062-.543 1.94a4.1 4.1 0 0 1-1.445 1.397 3.84 3.84 0 0 1-1.963.519"/><path fill="#FE9B97" d="M223.813 380.995h72.978v14.824h-72.978z"/><path fill="#333" d="M19.353 289.297q-1.205 0-2.17-.399a4.2 4.2 0 0 1-1.59-1.149 3.8 3.8 0 0 1-.813-1.764l1.197-.2q.288 1.117 1.213 1.756.925.63 2.211.631.846 0 1.517-.264.67-.271 1.053-.766a1.86 1.86 0 0 0 .384-1.173q0-.447-.16-.759a1.5 1.5 0 0 0-.423-.527 2.6 2.6 0 0 0-.575-.343 4.4 4.4 0 0 0-.607-.231l-2.913-.87a5.3 5.3 0 0 1-.974-.383 3.5 3.5 0 0 1-.782-.567 2.4 2.4 0 0 1-.51-.782 2.7 2.7 0 0 1-.184-1.022q0-.974.51-1.684.512-.71 1.397-1.094.886-.382 2.02-.375 1.15 0 2.051.407.91.408 1.5 1.165a4 4 0 0 1 .783 1.78l-1.23.224q-.12-.75-.55-1.301a2.8 2.8 0 0 0-1.101-.846 3.55 3.55 0 0 0-1.461-.311 3.4 3.4 0 0 0-1.381.263q-.6.255-.95.702a1.6 1.6 0 0 0-.351 1.022q0 .582.32.934.326.351.797.551.48.2.926.327l2.251.662q.351.096.822.28.48.175.926.511.455.327.75.862.296.534.296 1.357 0 .798-.32 1.428a2.9 2.9 0 0 1-.885 1.062 4.1 4.1 0 0 1-1.333.655 5.7 5.7 0 0 1-1.66.231m9.446 0q-1.284 0-2.195-.583a3.8 3.8 0 0 1-1.396-1.612q-.487-1.03-.487-2.363 0-1.356.494-2.378a3.75 3.75 0 0 1 1.405-1.589q.918-.574 2.18-.574 1.292 0 2.202.582a3.67 3.67 0 0 1 1.397 1.605q.487 1.022.487 2.354 0 1.358-.487 2.387a3.73 3.73 0 0 1-1.405 1.596q-.917.575-2.195.575m0-1.125q1.437 0 2.14-.95.702-.958.702-2.483 0-1.565-.71-2.49-.704-.926-2.132-.926-.965 0-1.596.439-.622.43-.934 1.205-.303.767-.303 1.772 0 1.557.718 2.499.72.934 2.115.934m6.702.886v-9.26q0-.335.032-.662a2.7 2.7 0 0 1 .152-.623q.111-.303.35-.558.264-.288.576-.415.311-.136.646-.176.343-.04.67-.04h1.102v.99h-1.022q-.67 0-1.005.327-.328.327-.328 1.03v9.387zm-1.493-7.615v-1.006h5.021v1.006zM45 289.058a5.7 5.7 0 0 1-1.436.119 3.2 3.2 0 0 1-1.261-.303 1.82 1.82 0 0 1-.838-.846 2.5 2.5 0 0 1-.256-.966q-.016-.495-.016-1.125v-7.895h1.166v7.847q0 .543.008.91.015.359.167.638.288.535.91.639.631.104 1.556-.048zm-5.65-7.615v-1.006h5.65v1.006zm9.185 7.615-2.634-8.629 1.173.008 2.044 6.697 2.05-6.697h1.07l2.052 6.697 2.06-6.697h1.165l-2.635 8.621h-1.021l-2.155-6.865-2.148 6.865zm12.4.239q-.973 0-1.636-.351a2.4 2.4 0 0 1-.981-.934 2.55 2.55 0 0 1-.328-1.269q0-.703.28-1.197.287-.504.774-.823a4 4 0 0 1 1.141-.487q.655-.159 1.445-.279.798-.128 1.557-.215.766-.096 1.34-.184l-.414.255q.023-1.277-.495-1.891-.519-.615-1.804-.615-.886 0-1.5.399-.608.4-.855 1.261l-1.141-.335q.295-1.157 1.189-1.796t2.323-.638q1.18 0 2.003.447.83.438 1.174 1.277.159.375.207.838t.048.942v5.356h-1.046v-2.164l.304.128q-.44 1.11-1.365 1.692-.926.583-2.22.583m.136-1.014q.822 0 1.437-.295.615-.296.99-.806.375-.52.487-1.166.095-.415.104-.909.008-.504.008-.751l.447.232q-.6.08-1.302.159a39 39 0 0 0-1.372.184 12 12 0 0 0-1.214.247q-.366.105-.71.296a1.6 1.6 0 0 0-.567.495q-.215.31-.215.774 0 .375.183.726.192.351.607.583.423.231 1.117.231m6.269.775v-8.621h1.054v2.075l-.208-.271q.143-.383.375-.702a2.4 2.4 0 0 1 .503-.535q.335-.296.782-.447.447-.16.902-.184.456-.032.83.064v1.102a2.8 2.8 0 0 0-1.03-.056 1.95 1.95 0 0 0-1.029.447 2.14 2.14 0 0 0-.647.806q-.215.462-.287.99a7.5 7.5 0 0 0-.072 1.029v4.303zm9.245.239q-1.261 0-2.188-.559a3.8 3.8 0 0 1-1.428-1.572q-.51-1.014-.511-2.379 0-1.413.503-2.442.502-1.03 1.413-1.589.916-.558 2.163-.558 1.276 0 2.179.59.901.583 1.365 1.676.463 1.094.423 2.611h-1.198v-.415q-.03-1.676-.726-2.531-.687-.854-2.011-.854-1.39 0-2.132.902-.734.902-.734 2.57 0 1.628.734 2.531.742.894 2.1.894.925 0 1.612-.423.694-.431 1.094-1.238l1.093.423a3.9 3.9 0 0 1-1.509 1.748q-.99.615-2.242.615m-3.297-4.222v-.982h6.585v.982zm15.4 4.214q-1.517 0-2.499-.654a2.73 2.73 0 0 1-1.197-1.82l1.197-.2q.192.735.87 1.173.687.432 1.693.432.981 0 1.548-.408a1.32 1.32 0 0 0 .567-1.125q0-.4-.184-.647-.175-.255-.726-.471-.55-.214-1.645-.51-1.173-.32-1.835-.639-.663-.32-.942-.734-.28-.423-.28-1.03 0-.735.415-1.285.415-.56 1.15-.862.735-.312 1.708-.311.975 0 1.74.319.774.31 1.245.878.47.567.56 1.317l-1.198.215a1.73 1.73 0 0 0-.758-1.197q-.63-.447-1.605-.463-.918-.024-1.492.351-.575.367-.575.982 0 .343.207.591.209.239.75.455.552.214 1.565.471 1.19.303 1.868.638.678.336.966.791.287.454.287 1.125 0 1.22-.91 1.924-.901.694-2.49.694m8.467-.016q-.774 0-1.357-.239a3 3 0 0 1-.982-.647 3.4 3.4 0 0 1-.646-.926 4.7 4.7 0 0 1-.36-1.109 6.3 6.3 0 0 1-.111-1.174v-4.741h1.181v4.398q0 .711.136 1.317.136.607.43 1.062.304.447.775.694.48.248 1.157.248a2.6 2.6 0 0 0 1.094-.216q.48-.216.798-.614.327-.408.495-.982.168-.583.168-1.309l.83.183q0 1.326-.463 2.227-.464.903-1.277 1.365-.815.463-1.868.463m2.897-.215v-2.124h-.12v-6.497h1.174v8.621zm7.156.239q-1.19 0-2.011-.599-.822-.606-1.245-1.636-.423-1.038-.423-2.323 0-1.308.423-2.33.43-1.03 1.261-1.621.83-.59 2.043-.59 1.181 0 2.028.598.846.599 1.293 1.629.455 1.03.455 2.314 0 1.294-.455 2.323-.456 1.03-1.309 1.636-.854.6-2.06.599m-3.879-.239v-11.494h1.181v5.004h-.127v6.49zm3.759-.854q.903 0 1.501-.455.599-.456.894-1.238.303-.79.303-1.772 0-.973-.295-1.756-.295-.782-.902-1.237-.598-.455-1.524-.455-.903 0-1.501.439-.59.44-.886 1.221-.295.775-.295 1.788 0 .999.295 1.788.295.783.894 1.23t1.516.447m8.835 1.085q-1.517 0-2.498-.654a2.73 2.73 0 0 1-1.197-1.82l1.197-.2q.192.735.87 1.173.687.432 1.692.432.982 0 1.549-.408.566-.414.566-1.125 0-.4-.183-.647-.175-.255-.727-.471-.55-.214-1.644-.51-1.173-.32-1.836-.639-.662-.32-.942-.734-.279-.423-.279-1.03 0-.735.415-1.285.415-.56 1.149-.862.734-.312 1.709-.311.974 0 1.74.319.774.31 1.245.878.47.567.559 1.317l-1.198.215a1.73 1.73 0 0 0-.758-1.197q-.63-.447-1.604-.463-.918-.024-1.493.351-.575.367-.575.982 0 .343.208.591.207.239.75.455.55.214 1.565.471 1.188.303 1.867.638.68.336.966.791.288.454.288 1.125 0 1.22-.91 1.924-.903.694-2.491.694m8.747.008q-1.302 0-2.203-.583a3.7 3.7 0 0 1-1.373-1.604q-.463-1.03-.479-2.363.016-1.356.495-2.378.478-1.03 1.381-1.597.901-.574 2.187-.574 1.309 0 2.275.638a3.22 3.22 0 0 1 1.333 1.748l-1.15.367a2.42 2.42 0 0 0-.966-1.197 2.67 2.67 0 0 0-1.5-.431q-.95 0-1.573.439-.622.43-.926 1.205-.303.775-.311 1.78.016 1.55.718 2.491.703.934 2.092.934.878 0 1.492-.399.623-.408.942-1.182l1.182.351q-.48 1.15-1.405 1.756-.927.6-2.211.599m5.263-.239v-8.621h1.054v2.075l-.208-.271q.144-.383.376-.702.23-.328.502-.535.336-.296.783-.447.447-.16.902-.184.455-.032.83.064v1.102a2.8 2.8 0 0 0-1.03-.056 1.96 1.96 0 0 0-1.03.447 2.1 2.1 0 0 0-.646.806q-.216.462-.288.99a8 8 0 0 0-.071 1.029v4.303zm5.913-10.257v-1.317h1.173v1.317zm0 10.257v-8.621h1.173v8.621zm7.437.239q-1.19 0-2.011-.599-.822-.606-1.245-1.636-.424-1.038-.424-2.323 0-1.308.424-2.33.43-1.03 1.261-1.621.83-.59 2.043-.59 1.181 0 2.028.598.846.599 1.293 1.629.455 1.03.455 2.314 0 1.294-.455 2.323-.456 1.03-1.309 1.636-.855.6-2.06.599m-3.879 3.592v-12.452h1.054v6.489h.127v5.963zm3.759-4.685q.903 0 1.501-.455.599-.456.894-1.238.303-.79.303-1.772 0-.973-.295-1.756-.296-.782-.902-1.237-.599-.455-1.524-.455-.903 0-1.501.439-.59.44-.886 1.221-.295.775-.295 1.788 0 .999.295 1.788.296.783.894 1.23t1.516.447m10.39.854a5.7 5.7 0 0 1-1.437.119 3.2 3.2 0 0 1-1.261-.303 1.82 1.82 0 0 1-.838-.846 2.5 2.5 0 0 1-.256-.966 37 37 0 0 1-.016-1.125v-7.895h1.166v7.847q0 .543.008.91.015.359.167.638.288.535.91.639.632.104 1.557-.048zm-5.651-7.615v-1.006h5.651v1.006zm7.509-2.642v-1.317h1.173v1.317zm0 10.257v-8.621h1.173v8.621zm7.166.239q-1.285 0-2.195-.583a3.8 3.8 0 0 1-1.397-1.612q-.487-1.03-.487-2.363 0-1.356.495-2.378a3.75 3.75 0 0 1 1.405-1.589q.918-.574 2.179-.574 1.293 0 2.203.582a3.67 3.67 0 0 1 1.397 1.605q.487 1.022.487 2.354 0 1.358-.487 2.387a3.73 3.73 0 0 1-1.405 1.596q-.918.575-2.195.575m0-1.125q1.437 0 2.139-.95.703-.958.703-2.483 0-1.565-.711-2.49-.702-.926-2.131-.926-.966 0-1.596.439-.623.43-.934 1.205-.303.767-.304 1.772 0 1.557.719 2.499.719.934 2.115.934m12.074.886v-4.398q0-.718-.136-1.318a3 3 0 0 0-.439-1.053 2 2 0 0 0-.774-.703q-.47-.247-1.15-.247-.623 0-1.101.216-.471.215-.798.622a2.8 2.8 0 0 0-.487.974 4.7 4.7 0 0 0-.168 1.309l-.83-.184q0-1.324.463-2.227.462-.901 1.277-1.365.814-.462 1.868-.462.774 0 1.349.239.582.24.982.647.406.406.654.933.248.519.359 1.11.112.582.112 1.165v4.742zm-6.234 0v-8.621h1.061v2.123h.12v6.498zm12.703.231q-1.517 0-2.498-.654a2.73 2.73 0 0 1-1.198-1.82l1.198-.2q.19.735.87 1.173.686.432 1.692.432.982 0 1.548-.408a1.32 1.32 0 0 0 .567-1.125q0-.4-.183-.647-.177-.255-.727-.471-.55-.214-1.644-.51-1.173-.32-1.836-.639-.663-.32-.942-.734-.279-.423-.279-1.03 0-.735.415-1.285.416-.56 1.149-.862.735-.312 1.708-.311.975 0 1.74.319.775.31 1.246.878.471.567.558 1.317l-1.197.215a1.73 1.73 0 0 0-.758-1.197q-.63-.447-1.605-.463-.918-.024-1.492.351-.575.367-.575.982 0 .343.208.591.207.239.75.455.551.214 1.564.471 1.19.303 1.868.638.679.336.966.791.288.454.287 1.125 0 1.22-.91 1.924-.902.694-2.49.694"/><path fill="#888" d="M15.644 311.04v-9.853h1.006v9.853zm5.814.198q-1.3 0-2.141-.561a2.34 2.34 0 0 1-1.027-1.56l1.027-.171q.164.63.745 1.006.59.369 1.45.369.843 0 1.328-.349.486-.355.486-.964 0-.342-.157-.555-.15-.219-.623-.403a15 15 0 0 0-1.41-.438q-1.005-.274-1.573-.547-.569-.274-.807-.63-.24-.363-.24-.883 0-.629.356-1.101.356-.479.985-.739.63-.267 1.464-.267.835 0 1.492.274a2.64 2.64 0 0 1 1.067.752q.404.486.479 1.129l-1.026.185a1.48 1.48 0 0 0-.65-1.026q-.54-.384-1.375-.397-.787-.02-1.28.301-.492.314-.492.842 0 .293.177.506.178.205.643.39.472.185 1.342.404 1.02.26 1.6.547.582.287.828.677.247.39.247.965 0 1.047-.78 1.649-.773.595-2.135.595m7.19 0q-1.3 0-2.142-.561a2.34 2.34 0 0 1-1.026-1.56l1.026-.171q.165.63.745 1.006.59.369 1.45.369.843 0 1.328-.349.486-.355.486-.964 0-.342-.157-.555-.15-.219-.623-.403a15 15 0 0 0-1.41-.438q-1.005-.274-1.573-.547-.568-.274-.807-.63-.24-.363-.24-.883 0-.629.356-1.101.356-.479.985-.739.63-.267 1.464-.267.835 0 1.492.274a2.64 2.64 0 0 1 1.067.752q.404.486.48 1.129l-1.027.185a1.48 1.48 0 0 0-.65-1.026q-.54-.384-1.375-.397-.787-.02-1.28.301-.492.314-.492.842 0 .293.178.506.177.205.643.39.471.185 1.34.404 1.02.26 1.602.547.58.287.828.677.246.39.246.965 0 1.047-.78 1.649-.774.595-2.135.595m7.257-.014a3 3 0 0 1-1.163-.205 2.6 2.6 0 0 1-.842-.554 2.9 2.9 0 0 1-.554-.794 4 4 0 0 1-.308-.951 5.4 5.4 0 0 1-.096-1.006v-4.064h1.013v3.77q0 .61.116 1.129.116.52.37.91a1.8 1.8 0 0 0 .663.595q.411.212.992.212.534 0 .938-.184.41-.185.684-.527.28-.349.424-.842.144-.5.144-1.122l.711.158q0 1.135-.397 1.909-.396.773-1.094 1.169-.698.397-1.601.397m2.483-.184v-1.82h-.102v-5.57h1.005v7.39zm5.942.205q-1.08 0-1.874-.479a3.25 3.25 0 0 1-1.225-1.348q-.438-.869-.438-2.039 0-1.21.431-2.093a3.2 3.2 0 0 1 1.211-1.362q.788-.479 1.854-.479 1.095 0 1.868.507.774.498 1.17 1.436.398.938.363 2.238h-1.027v-.356q-.027-1.437-.622-2.169-.588-.732-1.724-.732-1.191 0-1.827.773-.63.773-.63 2.203 0 1.395.63 2.169.636.766 1.8.766.793 0 1.381-.362.596-.37.938-1.061l.937.363a3.35 3.35 0 0 1-1.293 1.498q-.848.527-1.923.527m-2.825-3.619v-.842h5.644v.842zm10.57 3.619q-1.035 0-1.766-.513a3.33 3.33 0 0 1-1.121-1.403q-.39-.882-.39-1.991 0-1.101.383-1.984a3.3 3.3 0 0 1 1.115-1.396q.725-.513 1.738-.513 1.04 0 1.751.507.713.506 1.074 1.388.37.876.37 1.998 0 1.102-.363 1.991-.362.883-1.067 1.403-.705.513-1.724.513m.102-.938q.787 0 1.3-.383.513-.382.767-1.053.252-.678.253-1.533 0-.869-.254-1.532-.252-.67-.766-1.047-.506-.376-1.28-.376-.792 0-1.313.39t-.773 1.06a4.3 4.3 0 0 0-.246 1.505q0 .841.253 1.519.26.67.773 1.061.513.389 1.286.389m2.32.733v-5.563h-.11v-4.29H55.4v9.853zm7.676.205q-.835 0-1.403-.301a2.04 2.04 0 0 1-.842-.801 2.2 2.2 0 0 1-.28-1.088q0-.602.24-1.026.246-.43.663-.705.425-.273.978-.417.561-.137 1.239-.239.684-.11 1.334-.185.657-.082 1.15-.157l-.356.219q.02-1.095-.425-1.622-.444-.527-1.546-.527-.76 0-1.286.342-.52.343-.732 1.081l-.978-.287q.252-.992 1.019-1.539.765-.548 1.99-.548 1.014 0 1.718.383.712.376 1.006 1.095.136.322.178.718.04.397.04.808v4.591h-.895v-1.855l.26.11q-.377.95-1.17 1.45-.795.5-1.902.5m.116-.869q.705 0 1.231-.253t.849-.691q.321-.446.417-.999a3.7 3.7 0 0 0 .09-.78q.006-.431.006-.643l.383.198q-.513.069-1.115.137-.596.069-1.177.157-.575.09-1.04.212-.315.09-.609.254a1.4 1.4 0 0 0-.485.424 1.14 1.14 0 0 0-.185.663q0 .322.157.623.165.301.52.499.363.2.958.199m8.438.869q-1.115 0-1.888-.5a3.2 3.2 0 0 1-1.177-1.375q-.398-.882-.41-2.025.012-1.163.424-2.039a3.13 3.13 0 0 1 1.183-1.368q.773-.493 1.875-.493 1.122 0 1.95.548.834.546 1.142 1.498l-.985.315a2.1 2.1 0 0 0-.828-1.027 2.3 2.3 0 0 0-1.286-.369q-.814 0-1.348.376-.534.37-.793 1.033-.261.664-.267 1.526.013 1.327.615 2.135.603.8 1.793.8.752 0 1.28-.342.532-.349.807-1.013l1.012.301q-.41.986-1.204 1.506-.793.513-1.895.513m7.376 0q-1.115 0-1.888-.5a3.2 3.2 0 0 1-1.177-1.375q-.396-.882-.41-2.025.013-1.163.424-2.039a3.13 3.13 0 0 1 1.183-1.368q.773-.493 1.875-.493 1.122 0 1.95.548.834.546 1.143 1.498l-.986.315a2.1 2.1 0 0 0-.828-1.027 2.3 2.3 0 0 0-1.286-.369q-.814 0-1.348.376-.533.37-.793 1.033-.261.664-.267 1.526.014 1.327.616 2.135.602.8 1.792.8.752 0 1.28-.342.532-.349.807-1.013l1.013.301q-.41.986-1.205 1.506-.793.513-1.895.513m7.438 0q-1.08 0-1.875-.479a3.25 3.25 0 0 1-1.224-1.348q-.438-.869-.438-2.039 0-1.21.43-2.093a3.2 3.2 0 0 1 1.212-1.362q.786-.479 1.854-.479 1.095 0 1.868.507.773.498 1.17 1.436t.362 2.238h-1.026v-.356q-.027-1.437-.623-2.169-.588-.732-1.724-.732-1.19 0-1.826.773-.63.773-.63 2.203 0 1.395.63 2.169.636.766 1.799.766.794 0 1.382-.362.596-.37.937-1.061l.938.363a3.35 3.35 0 0 1-1.293 1.498q-.849.527-1.923.527m-2.826-3.619v-.842h5.645v.842zm10.46 3.612q-1.3 0-2.14-.561a2.34 2.34 0 0 1-1.027-1.56l1.026-.171q.165.63.746 1.006.588.369 1.45.369.843 0 1.328-.349.486-.355.486-.964 0-.342-.158-.555-.15-.219-.622-.403a15 15 0 0 0-1.41-.438q-1.006-.274-1.573-.547-.568-.274-.808-.63-.24-.363-.239-.883 0-.629.356-1.101.355-.479.985-.739.63-.267 1.464-.267.835 0 1.492.274a2.64 2.64 0 0 1 1.067.752q.404.486.479 1.129l-1.026.185a1.48 1.48 0 0 0-.65-1.026q-.541-.384-1.376-.397-.786-.02-1.279.301-.492.314-.493.842 0 .293.178.506.178.205.643.39.472.185 1.341.404 1.02.26 1.601.547.582.287.828.677t.247.965q0 1.047-.78 1.649-.773.595-2.135.595m7.19 0q-1.3 0-2.141-.561a2.34 2.34 0 0 1-1.027-1.56l1.027-.171q.165.63.745 1.006.589.369 1.451.369.841 0 1.327-.349.486-.355.486-.964 0-.342-.158-.555-.15-.219-.622-.403a15 15 0 0 0-1.41-.438q-1.005-.274-1.573-.547-.569-.274-.807-.63-.24-.363-.24-.883 0-.629.356-1.101.356-.479.985-.739.63-.267 1.464-.267.835 0 1.492.274.663.267 1.067.752.404.486.479 1.129l-1.026.185a1.48 1.48 0 0 0-.65-1.026q-.541-.384-1.375-.397-.788-.02-1.28.301-.492.314-.493.842 0 .293.178.506.178.205.643.39.472.185 1.342.404 1.019.26 1.6.547t.828.677.247.965q0 1.047-.78 1.649-.774.595-2.135.595m7.035-4.078v-.862h4.105v.862zm8.348 3.873.007-.917 4.454-4.023q.574-.52.759-.985.192-.472.192-.985 0-.61-.288-1.102a2.15 2.15 0 0 0-.773-.78 2.06 2.06 0 0 0-1.087-.294q-.63 0-1.123.301a2.24 2.24 0 0 0-.779.794 2.1 2.1 0 0 0-.274 1.074h-1.026q0-.897.424-1.608a3.04 3.04 0 0 1 1.149-1.115 3.3 3.3 0 0 1 1.642-.411q.897 0 1.608.424a3.04 3.04 0 0 1 1.129 1.136q.417.712.417 1.587 0 .617-.15 1.088-.144.465-.459.869a6 6 0 0 1-.786.821l-3.955 3.572-.157-.411h5.507v.965z"/><mask id="d" width="75" height="79" x="222.021" y="273.058" fill="#000" maskUnits="userSpaceOnUse"><path fill="#fff" d="M222.021 273.058h75v79h-75z"/><path d="M224.021 279.058a4 4 0 0 1 4-4H297v76.399h-72.979z"/></mask><path fill="#FCFDFF" d="M224.021 279.058a4 4 0 0 1 4-4H297v76.399h-72.979z"/><path fill="#000" fill-opacity=".1" d="M222.881 279.058a5.14 5.14 0 0 1 5.14-5.141H297v2.281h-68.979a2.86 2.86 0 0 0-2.859 2.86zM297 351.457h-72.979zm-74.119 0v-72.399a5.14 5.14 0 0 1 5.14-5.141v2.281a2.86 2.86 0 0 0-2.859 2.86v72.399zM297 275.058v76.399z" mask="url(#d)"/><path fill="#000" d="m243.065 332.381.008-1.277 5.1-4.59q.638-.575.854-1.086.224-.519.224-1.061a2.4 2.4 0 0 0-.304-1.198 2.27 2.27 0 0 0-2.011-1.157 2.3 2.3 0 0 0-1.221.327 2.4 2.4 0 0 0-.847.854q-.303.535-.295 1.166h-1.453q0-1.085.503-1.916a3.56 3.56 0 0 1 1.365-1.309q.87-.479 1.972-.479 1.07 0 1.915.495a3.55 3.55 0 0 1 1.333 1.333q.495.838.495 1.9 0 .75-.191 1.301a3.2 3.2 0 0 1-.575 1.021 10 10 0 0 1-.982.99l-4.238 3.808-.184-.479h6.17v1.357zm13.467.247a3.83 3.83 0 0 1-1.987-.527 3.93 3.93 0 0 1-1.413-1.436q-.519-.919-.519-2.068v-3.823q0-1.206.519-2.131a3.77 3.77 0 0 1 1.437-1.453q.918-.527 2.091-.527.95 0 1.764.391a3.7 3.7 0 0 1 1.381 1.11l-1.062.942a2.5 2.5 0 0 0-.894-.799 2.5 2.5 0 0 0-1.189-.295 2.5 2.5 0 0 0-1.349.367q-.582.36-.918.958-.335.591-.335 1.277v2.307l-.312-.351a3.8 3.8 0 0 1 1.278-1.15 3.4 3.4 0 0 1 1.676-.431q1.069 0 1.916.503a3.6 3.6 0 0 1 1.34 1.365q.495.855.495 1.924 0 1.07-.534 1.939a4 4 0 0 1-1.429 1.389 3.8 3.8 0 0 1-1.956.519m0-1.373q.687 0 1.253-.327.567-.336.894-.894.336-.567.336-1.253 0-.687-.336-1.253a2.4 2.4 0 0 0-.894-.894 2.37 2.37 0 0 0-1.245-.336q-.686 0-1.253.336-.558.327-.894.894a2.4 2.4 0 0 0-.335 1.253q0 .678.327 1.245.336.558.894.894.567.335 1.253.335m6.603 1.134 4.135-10.13h-5.221v-1.364h6.745v1.364l-4.127 10.13zm11.337-11.726q1.102 0 1.988.527.886.526 1.405 1.437.527.909.527 2.067v3.823q0 1.205-.519 2.132a3.77 3.77 0 0 1-1.437 1.452q-.91.528-2.091.527a4.05 4.05 0 0 1-1.764-.391 3.9 3.9 0 0 1-1.381-1.109l1.061-.942q.352.495.902.798.551.295 1.182.295.766 0 1.349-.367.59-.367.918-.958.335-.59.335-1.277v-2.307l.311.351a3.7 3.7 0 0 1-1.269 1.15 3.4 3.4 0 0 1-1.684.431q-1.07 0-1.916-.503a3.7 3.7 0 0 1-1.341-1.357 3.8 3.8 0 0 1-.495-1.932q0-1.07.535-1.939a3.94 3.94 0 0 1 1.421-1.389 3.84 3.84 0 0 1 1.963-.519m0 1.373q-.686 0-1.253.335-.558.327-.894.894a2.4 2.4 0 0 0-.335 1.245q0 .687.327 1.254.336.558.894.894.567.335 1.253.335.687 0 1.254-.335.565-.336.894-.894.335-.567.335-1.254 0-.678-.335-1.237a2.5 2.5 0 0 0-.894-.902 2.4 2.4 0 0 0-1.246-.335"/><path fill="#8CBDCC" d="M224.022 286.46H297v14.824h-72.978z"/><path fill="#000" fill-opacity=".1" d="M1 351.457h296v1.14H1z"/><path fill="#F8F8F8" d="M1 163h296v95H1z"/><path fill="#333" d="M18.732 194.73v-11.494h1.173v11.494zm9.792 0v-4.398q0-.719-.136-1.317a3 3 0 0 0-.439-1.054 2 2 0 0 0-.774-.702q-.47-.248-1.15-.248-.623 0-1.101.216-.471.216-.798.622a2.8 2.8 0 0 0-.487.974 4.7 4.7 0 0 0-.168 1.309l-.83-.183q0-1.326.463-2.227.463-.903 1.277-1.365.815-.463 1.868-.463.774 0 1.349.239.583.24.982.647.407.407.654.934.247.52.36 1.109.111.583.111 1.166v4.741zm-6.234 0v-8.621h1.061v2.124h.12v6.497zm11.817 0-3.129-8.621h1.19l2.546 7.088 2.53-7.088h1.205l-3.128 8.621zm9.112.239q-1.26 0-2.187-.558a3.8 3.8 0 0 1-1.429-1.573q-.51-1.013-.51-2.378 0-1.413.502-2.443.503-1.03 1.413-1.588.918-.56 2.163-.559 1.277 0 2.18.591.901.582 1.364 1.676t.423 2.61h-1.197v-.415q-.032-1.677-.726-2.53-.687-.855-2.012-.854-1.389 0-2.131.901-.734.903-.734 2.571 0 1.628.734 2.53.742.894 2.1.894.925 0 1.612-.423.694-.431 1.093-1.237l1.094.423a3.9 3.9 0 0 1-1.509 1.748q-.99.614-2.243.614m-3.296-4.222v-.982h6.585v.982zm14.979 3.983v-4.398q0-.719-.136-1.317a3 3 0 0 0-.439-1.054 2 2 0 0 0-.774-.702q-.47-.248-1.15-.248-.623 0-1.101.216-.471.216-.798.622a2.8 2.8 0 0 0-.487.974q-.168.575-.168 1.309l-.83-.183q0-1.326.463-2.227.463-.903 1.277-1.365.815-.463 1.868-.463.774 0 1.349.239.583.24.982.647.407.407.654.934.248.52.36 1.109.111.583.111 1.166v4.741zm-6.234 0v-8.621h1.062v2.124h.12v6.497zm14.18 0a5.8 5.8 0 0 1-1.437.12 3.2 3.2 0 0 1-1.261-.304 1.82 1.82 0 0 1-.838-.846 2.5 2.5 0 0 1-.255-.966q-.017-.494-.017-1.125v-7.894h1.166v7.846q0 .543.008.91.015.36.168.639.286.534.91.638.63.103 1.556-.048zm-5.651-7.615v-1.006h5.65v1.006zm10.637 7.854q-1.284 0-2.195-.582a3.8 3.8 0 0 1-1.396-1.613q-.487-1.03-.487-2.362 0-1.358.495-2.379a3.74 3.74 0 0 1 1.404-1.588q.918-.575 2.18-.575 1.293 0 2.203.583a3.67 3.67 0 0 1 1.396 1.604q.487 1.021.487 2.355 0 1.356-.487 2.386a3.73 3.73 0 0 1-1.404 1.597q-.918.574-2.196.574m0-1.125q1.437 0 2.14-.95.702-.958.702-2.482 0-1.564-.71-2.491-.703-.926-2.132-.926-.965 0-1.596.439-.622.432-.934 1.206-.303.766-.303 1.772 0 1.556.718 2.498.72.934 2.115.934m5.848.886v-8.621h1.054v2.076l-.208-.272q.143-.382.375-.702.232-.328.503-.535.335-.296.782-.447a3.2 3.2 0 0 1 .902-.183q.456-.032.83.063v1.102a2.8 2.8 0 0 0-1.03-.056 1.97 1.97 0 0 0-1.029.447 2.14 2.14 0 0 0-.646.806q-.216.463-.288.99a7.5 7.5 0 0 0-.072 1.03v4.302zm6.873 3.831 1.668-4.525.024 1.341-3.775-9.268h1.245l3.097 7.751h-.511l2.857-7.751h1.198l-4.63 12.452zm13.96-3.592q-1.299 0-2.202-.582a3.7 3.7 0 0 1-1.373-1.605q-.463-1.03-.479-2.362.016-1.357.495-2.379.48-1.03 1.38-1.596.903-.575 2.188-.575 1.308 0 2.275.639a3.2 3.2 0 0 1 1.333 1.748l-1.15.367a2.43 2.43 0 0 0-.965-1.198 2.67 2.67 0 0 0-1.501-.431q-.95 0-1.573.439-.622.432-.925 1.206t-.312 1.78q.015 1.548.719 2.49.702.934 2.09.934.879 0 1.494-.399.623-.407.942-1.181l1.18.351q-.478 1.149-1.404 1.756-.925.598-2.211.598m7.684 0q-.974 0-1.636-.351a2.37 2.37 0 0 1-.982-.934 2.55 2.55 0 0 1-.327-1.269q0-.702.28-1.197.286-.502.773-.822.495-.32 1.142-.487.654-.16 1.445-.28a36 36 0 0 1 1.556-.215q.766-.096 1.341-.184l-.415.256q.024-1.278-.495-1.892-.519-.615-1.804-.615-.886 0-1.5.4-.608.399-.855 1.261l-1.141-.336q.295-1.157 1.189-1.795.895-.639 2.323-.639 1.182 0 2.004.447.83.439 1.173 1.277.16.375.207.838.048.463.048.942v5.356h-1.045v-2.163l.303.128q-.44 1.108-1.365 1.692-.926.582-2.219.582m.136-1.013q.822 0 1.437-.296.614-.294.989-.806a2.76 2.76 0 0 0 .487-1.165q.096-.415.104-.91.008-.502.008-.75l.447.231q-.599.08-1.301.16-.695.08-1.373.183-.67.104-1.213.248a3.3 3.3 0 0 0-.711.295 1.64 1.64 0 0 0-.566.495q-.216.311-.216.774 0 .375.184.727.191.351.606.582.423.232 1.118.232m6.268.774v-8.621h1.054v2.076l-.208-.272q.144-.382.376-.702.232-.328.502-.535.336-.296.783-.447.447-.159.902-.183.455-.032.83.063v1.102a2.8 2.8 0 0 0-1.03-.056 1.97 1.97 0 0 0-1.03.447 2.15 2.15 0 0 0-.646.806q-.216.463-.287.99a7.5 7.5 0 0 0-.072 1.03v4.302zm8.942.239q-1.206 0-2.06-.598a3.9 3.9 0 0 1-1.309-1.637q-.455-1.029-.455-2.322 0-1.286.447-2.315.455-1.03 1.301-1.628.846-.6 2.028-.599 1.213 0 2.043.591.83.59 1.253 1.62.431 1.022.431 2.331 0 1.285-.423 2.322-.423 1.03-1.245 1.637-.822.598-2.011.598m.119-1.093q.918 0 1.517-.447t.894-1.229q.295-.79.295-1.788 0-1.014-.295-1.788-.295-.783-.894-1.222-.59-.438-1.493-.439-.926 0-1.532.455-.607.456-.902 1.238-.288.782-.288 1.756 0 .981.296 1.772.303.782.902 1.237t1.5.455m2.706.854v-6.489h-.128v-5.005h1.182v11.494z"/><path fill="#888" d="M18.302 216.712v-9.852h1.006v9.852zm5.814.198q-1.3 0-2.142-.561a2.34 2.34 0 0 1-1.026-1.56l1.026-.171q.165.63.746 1.006.59.37 1.45.37.843 0 1.328-.349.486-.357.486-.965 0-.342-.158-.554-.15-.22-.622-.404a15 15 0 0 0-1.41-.438q-1.006-.273-1.573-.547-.568-.274-.808-.63-.24-.362-.239-.882 0-.63.356-1.102.355-.478.985-.739.63-.266 1.464-.266.835 0 1.492.273.663.267 1.067.753t.479 1.129l-1.026.184a1.48 1.48 0 0 0-.65-1.026q-.541-.382-1.376-.397-.786-.02-1.279.301-.492.315-.493.842 0 .294.178.506.178.206.643.39.473.185 1.341.404 1.02.26 1.601.547.582.288.828.678.247.39.247.964 0 1.047-.78 1.649-.774.595-2.135.595m7.19 0q-1.3 0-2.142-.561a2.34 2.34 0 0 1-1.027-1.56l1.027-.171q.165.63.745 1.006.59.37 1.45.37.842 0 1.328-.349.486-.357.486-.965 0-.342-.157-.554-.15-.22-.623-.404a15 15 0 0 0-1.41-.438q-1.006-.273-1.573-.547-.569-.274-.807-.63-.24-.362-.24-.882 0-.63.356-1.102.356-.478.985-.739.63-.266 1.464-.266.835 0 1.492.273.663.267 1.067.753.405.486.479 1.129l-1.026.184a1.48 1.48 0 0 0-.65-1.026q-.54-.382-1.375-.397-.787-.02-1.28.301-.492.315-.492.842 0 .294.177.506.178.206.644.39.471.185 1.34.404 1.02.26 1.601.547.582.288.828.678.247.39.247.964 0 1.047-.78 1.649-.773.595-2.135.595m7.257-.013a3 3 0 0 1-1.163-.206 2.6 2.6 0 0 1-.842-.554 2.9 2.9 0 0 1-.554-.793 4 4 0 0 1-.308-.951 5.4 5.4 0 0 1-.096-1.006v-4.064h1.013v3.77q0 .609.116 1.129.116.519.37.909.26.384.663.596.411.212.992.212.534 0 .938-.185.41-.185.684-.527.28-.348.424-.841.144-.5.144-1.122l.711.157q0 1.135-.397 1.909-.397.772-1.094 1.17-.7.397-1.601.397m2.483-.185v-1.82h-.102v-5.569h1.005v7.389zm5.942.205q-1.08 0-1.874-.479a3.25 3.25 0 0 1-1.225-1.348q-.438-.868-.438-2.038 0-1.212.431-2.094a3.2 3.2 0 0 1 1.211-1.361q.788-.48 1.854-.479 1.095 0 1.868.506.773.5 1.17 1.437t.362 2.237h-1.026v-.356q-.027-1.437-.622-2.169-.589-.732-1.724-.732-1.191 0-1.827.773-.63.774-.63 2.203 0 1.397.63 2.169.636.766 1.8.766.792 0 1.381-.362.596-.37.938-1.061l.937.363a3.35 3.35 0 0 1-1.293 1.498q-.849.528-1.923.527m-2.825-3.619v-.842h5.644v.842zm10.57 3.619q-1.034 0-1.766-.513a3.33 3.33 0 0 1-1.122-1.403q-.39-.882-.39-1.99 0-1.102.384-1.985a3.3 3.3 0 0 1 1.115-1.395q.724-.513 1.737-.513 1.041 0 1.752.506.711.505 1.074 1.389.37.876.37 1.998 0 1.102-.363 1.99-.363.883-1.067 1.403-.705.513-1.724.513m.102-.937q.787 0 1.3-.383.514-.384.766-1.054.254-.677.253-1.532 0-.87-.253-1.533-.252-.67-.766-1.047-.506-.376-1.28-.376-.792 0-1.313.39t-.773 1.06a4.3 4.3 0 0 0-.246 1.506q0 .842.253 1.518.259.67.773 1.061.513.39 1.286.39m2.32.732v-5.562h-.11v-4.29h1.013v9.852zm7.676.205q-.836 0-1.403-.301a2.04 2.04 0 0 1-.842-.8 2.2 2.2 0 0 1-.28-1.088q0-.603.24-1.026.246-.432.663-.705.424-.274.978-.417.561-.138 1.239-.24.684-.11 1.334-.185a41 41 0 0 0 1.15-.157l-.356.219q.02-1.095-.425-1.622-.445-.526-1.546-.526-.76 0-1.286.342-.52.342-.732 1.081l-.979-.288q.254-.992 1.02-1.539t1.99-.547q1.013 0 1.718.383.712.376 1.006 1.094.136.322.178.719.04.396.04.807v4.591h-.896v-1.854l.26.109q-.375.951-1.17 1.451t-1.901.499m.116-.869q.705 0 1.231-.253t.849-.691q.321-.444.417-.999.082-.355.089-.78.007-.43.007-.643l.383.199q-.513.068-1.115.136-.596.069-1.177.158-.575.089-1.04.212-.315.089-.609.253a1.4 1.4 0 0 0-.486.424 1.14 1.14 0 0 0-.184.664q0 .322.157.622.165.302.52.5.363.198.958.198m8.438.869q-1.116 0-1.888-.499a3.2 3.2 0 0 1-1.177-1.375q-.398-.883-.41-2.026.012-1.163.424-2.038a3.13 3.13 0 0 1 1.183-1.369q.773-.492 1.875-.492 1.122 0 1.95.547.834.547 1.142 1.498l-.985.315a2.08 2.08 0 0 0-.828-1.026 2.3 2.3 0 0 0-1.286-.37q-.814 0-1.348.377-.534.369-.794 1.033t-.266 1.525q.014 1.328.615 2.135.603.8 1.793.8.752 0 1.28-.342.532-.349.807-1.012l1.012.301q-.41.985-1.204 1.505-.793.513-1.895.513m7.376 0q-1.115 0-1.888-.499a3.2 3.2 0 0 1-1.177-1.375q-.396-.883-.41-2.026.013-1.163.424-2.038a3.13 3.13 0 0 1 1.183-1.369q.773-.492 1.875-.492 1.122 0 1.95.547.834.547 1.142 1.498l-.985.315a2.08 2.08 0 0 0-.828-1.026 2.3 2.3 0 0 0-1.286-.37q-.814 0-1.348.377-.533.369-.793 1.033-.261.664-.267 1.525.013 1.328.616 2.135.602.8 1.792.8.752 0 1.28-.342.533-.349.807-1.012l1.012.301q-.41.985-1.204 1.505-.793.513-1.895.513m7.438 0q-1.08 0-1.875-.479a3.25 3.25 0 0 1-1.224-1.348q-.438-.868-.438-2.038 0-1.212.43-2.094a3.2 3.2 0 0 1 1.212-1.361q.786-.48 1.854-.479 1.095 0 1.868.506.773.5 1.17 1.437t.362 2.237h-1.026v-.356q-.027-1.437-.623-2.169-.588-.732-1.724-.732-1.19 0-1.826.773-.63.774-.63 2.203 0 1.397.63 2.169.635.766 1.799.766.794 0 1.382-.362.596-.37.937-1.061l.938.363a3.35 3.35 0 0 1-1.294 1.498q-.848.528-1.922.527m-2.826-3.619v-.842h5.645v.842zm10.46 3.612q-1.3 0-2.14-.561a2.34 2.34 0 0 1-1.027-1.56l1.026-.171q.165.63.746 1.006.588.37 1.45.37.842 0 1.328-.349.486-.357.486-.965 0-.342-.158-.554-.15-.22-.622-.404a15 15 0 0 0-1.41-.438q-1.005-.273-1.573-.547t-.808-.63q-.24-.362-.24-.882 0-.63.357-1.102.355-.478.985-.739.63-.266 1.464-.266.835 0 1.491.273.665.267 1.068.753t.479 1.129l-1.027.184a1.48 1.48 0 0 0-.65-1.026q-.54-.382-1.375-.397-.786-.02-1.28.301-.492.315-.492.842 0 .294.178.506.178.206.643.39.472.185 1.341.404 1.02.26 1.601.547.582.288.828.678t.246.964q0 1.047-.78 1.649-.773.595-2.134.595m7.19 0q-1.3 0-2.142-.561a2.34 2.34 0 0 1-1.026-1.56l1.026-.171q.165.63.746 1.006.588.37 1.451.37.841 0 1.327-.349.486-.357.486-.965 0-.342-.158-.554-.15-.22-.622-.404a15 15 0 0 0-1.41-.438q-1.005-.273-1.573-.547t-.808-.63q-.239-.362-.239-.882 0-.63.356-1.102.355-.478.985-.739.63-.266 1.464-.266.835 0 1.492.273.663.267 1.067.753t.479 1.129l-1.026.184a1.48 1.48 0 0 0-.65-1.026q-.541-.382-1.376-.397-.787-.02-1.279.301-.493.315-.493.842 0 .294.178.506.178.206.643.39.473.185 1.341.404 1.02.26 1.601.547.582.288.828.678t.247.964q0 1.047-.78 1.649-.773.595-2.135.595m7.034-4.077v-.862h4.105v.862zm12.96 3.879v-1.909h-4.611v-.958l3.298-6.985h1.129l-3.298 6.985h3.482v-2.873h1.013v2.873h1.074v.958h-1.074v1.909z"/><mask id="e" width="75" height="79" x="222.021" y="178.73" fill="#000" maskUnits="userSpaceOnUse"><path fill="#fff" d="M222.021 178.73h75v79h-75z"/><path d="M224.021 184.73a4 4 0 0 1 4-4H297v76.399h-72.979z"/></mask><path fill="#fff" d="M224.021 184.73a4 4 0 0 1 4-4H297v76.399h-72.979z"/><path fill="#000" fill-opacity=".1" d="M222.881 184.73a5.14 5.14 0 0 1 5.14-5.14H297v2.28h-68.979a2.86 2.86 0 0 0-2.859 2.86zM297 257.129h-72.979zm-74.119 0V184.73a5.14 5.14 0 0 1 5.14-5.14v2.28a2.86 2.86 0 0 0-2.859 2.86v72.399zM297 180.73v76.399z" mask="url(#e)"/><path fill="#000" d="M247.143 226.335q1.102 0 1.988.527t1.405 1.437q.527.91.527 2.067v3.824q0 1.204-.519 2.131a3.77 3.77 0 0 1-1.437 1.452q-.91.528-2.091.527a4.05 4.05 0 0 1-1.764-.391 3.9 3.9 0 0 1-1.381-1.109l1.061-.942q.351.495.902.798a2.46 2.46 0 0 0 1.182.295q.766 0 1.349-.367.59-.367.918-.958.335-.59.335-1.277v-2.307l.311.352q-.495.718-1.269 1.149a3.4 3.4 0 0 1-1.684.431q-1.07 0-1.916-.503a3.7 3.7 0 0 1-1.341-1.357 3.8 3.8 0 0 1-.495-1.931q0-1.07.535-1.94a3.96 3.96 0 0 1 1.421-1.389 3.84 3.84 0 0 1 1.963-.519m0 1.373q-.686 0-1.253.335-.558.329-.894.894a2.4 2.4 0 0 0-.335 1.246q0 .686.327 1.253.336.558.894.894.567.335 1.253.335.687 0 1.254-.335.565-.336.894-.894.335-.567.335-1.253 0-.679-.335-1.238a2.5 2.5 0 0 0-.894-.902 2.4 2.4 0 0 0-1.246-.335m6.607 10.353 4.134-10.129h-5.22v-1.365h6.745v1.365l-4.127 10.129zm11.497.239a3.84 3.84 0 0 1-1.988-.527 3.94 3.94 0 0 1-1.412-1.436q-.519-.918-.519-2.068v-3.823q0-1.206.519-2.131a3.77 3.77 0 0 1 1.436-1.453q.918-.527 2.092-.527.95 0 1.764.391a3.7 3.7 0 0 1 1.381 1.11l-1.062.942a2.5 2.5 0 0 0-.894-.798 2.5 2.5 0 0 0-1.189-.296q-.76 0-1.349.367-.584.36-.918.958a2.54 2.54 0 0 0-.335 1.277v2.307l-.312-.351a3.8 3.8 0 0 1 1.277-1.15 3.4 3.4 0 0 1 1.677-.431q1.07 0 1.915.503a3.63 3.63 0 0 1 1.341 1.365q.495.855.495 1.924 0 1.07-.535 1.94a4 4 0 0 1-1.428 1.388 3.8 3.8 0 0 1-1.956.519m0-1.373q.687 0 1.253-.327a2.47 2.47 0 0 0 1.229-2.147 2.4 2.4 0 0 0-.335-1.253 2.4 2.4 0 0 0-.894-.894 2.37 2.37 0 0 0-1.245-.335 2.472 2.472 0 0 0-2.482 2.482q0 .678.327 1.245.334.56.894.894a2.4 2.4 0 0 0 1.253.335m5.677 1.126.008-1.277 5.1-4.59q.64-.575.854-1.086.224-.518.224-1.061 0-.663-.304-1.197a2.26 2.26 0 0 0-2.011-1.158 2.3 2.3 0 0 0-1.221.327 2.36 2.36 0 0 0-.846.855 2.25 2.25 0 0 0-.296 1.165h-1.452q0-1.085.502-1.916a3.56 3.56 0 0 1 1.365-1.309q.87-.479 1.972-.479 1.07 0 1.916.495a3.57 3.57 0 0 1 1.333 1.333q.494.838.494 1.9 0 .75-.191 1.301a3.2 3.2 0 0 1-.575 1.022q-.391.462-.982.989l-4.238 3.808-.184-.479h6.17v1.357z"/><path fill="#F4D28F" d="M224.022 192.133H297v14.824h-72.978z"/><path fill="#000" fill-opacity=".1" d="M1 257.129h296v1.14H1z"/><path fill="#333" d="M15.505 99.988V88.494h4.438q.966 0 1.684.4.72.397 1.118 1.077.399.67.399 1.484 0 .927-.495 1.653a2.56 2.56 0 0 1-1.325.998l-.016-.392q1.117.32 1.756 1.118t.639 1.931q0 .998-.423 1.725a2.85 2.85 0 0 1-1.19 1.11q-.765.39-1.78.39zm1.181-1.125h3.337q.703 0 1.261-.248.559-.256.878-.718.327-.463.327-1.118 0-.638-.295-1.149a2.23 2.23 0 0 0-.806-.814 2.14 2.14 0 0 0-1.15-.311h-3.552zm0-5.468h3.25a2.1 2.1 0 0 0 1.005-.247 1.92 1.92 0 0 0 .99-1.709q0-.814-.567-1.324-.56-.511-1.429-.511h-3.248zm11.076 6.833q-.975 0-1.636-.352a2.4 2.4 0 0 1-.982-.933 2.55 2.55 0 0 1-.327-1.27q0-.702.279-1.197.288-.503.774-.822.495-.32 1.142-.487.655-.16 1.444-.28a36 36 0 0 1 1.557-.215q.766-.096 1.34-.183l-.414.255q.023-1.277-.495-1.892-.519-.615-1.804-.614-.885 0-1.5.399-.607.399-.855 1.261l-1.141-.335q.295-1.157 1.19-1.796.893-.639 2.322-.639 1.181 0 2.004.447a2.47 2.47 0 0 1 1.173 1.277q.159.376.207.838.048.464.048.942v5.356h-1.045v-2.163l.303.128q-.44 1.11-1.365 1.692-.926.583-2.219.583m.136-1.014q.822 0 1.436-.295.615-.296.99-.806.375-.52.487-1.166.096-.415.104-.91.008-.502.008-.75l.447.231q-.6.08-1.301.16-.694.08-1.373.184-.671.103-1.213.247-.368.105-.71.295a1.64 1.64 0 0 0-.567.495q-.216.312-.216.775 0 .375.184.726.191.351.606.582.423.232 1.118.232m9.485 1.006q-1.517 0-2.498-.655a2.73 2.73 0 0 1-1.198-1.82l1.198-.2q.19.736.87 1.174.685.431 1.692.431.981 0 1.548-.407.567-.415.567-1.125 0-.4-.184-.647-.175-.255-.726-.47-.55-.217-1.644-.512-1.174-.319-1.836-.638-.663-.32-.942-.735-.28-.423-.28-1.03 0-.734.416-1.284.414-.559 1.15-.863.733-.31 1.707-.31t1.74.319q.775.31 1.246.878.47.566.558 1.317l-1.197.215a1.73 1.73 0 0 0-.758-1.197q-.63-.448-1.605-.463-.919-.025-1.492.351-.575.367-.575.982 0 .343.207.59.209.24.75.456.552.215 1.565.47 1.19.305 1.868.639.678.335.966.79t.287 1.126q0 1.221-.91 1.923-.901.695-2.49.695m5.33-10.489v-1.317h1.173v1.317zm0 10.257v-8.62h1.173v8.62zm7.142.24q-1.3 0-2.203-.583a3.7 3.7 0 0 1-1.373-1.604q-.463-1.03-.478-2.363.015-1.357.494-2.379.48-1.029 1.381-1.596.902-.575 2.187-.575 1.31 0 2.275.639a3.22 3.22 0 0 1 1.333 1.748l-1.15.367a2.43 2.43 0 0 0-.965-1.197 2.67 2.67 0 0 0-1.5-.431q-.95 0-1.573.439-.623.43-.926 1.205t-.311 1.78q.016 1.548.718 2.49.702.934 2.091.934.878 0 1.493-.399.623-.407.942-1.181l1.181.351q-.479 1.15-1.404 1.756-.927.599-2.212.599m12.036 0q-1.301 0-2.203-.583a3.7 3.7 0 0 1-1.373-1.604q-.463-1.03-.479-2.363.016-1.357.495-2.379.48-1.029 1.38-1.596.903-.575 2.188-.575 1.309 0 2.275.639a3.22 3.22 0 0 1 1.333 1.748l-1.15.367a2.43 2.43 0 0 0-.965-1.197 2.67 2.67 0 0 0-1.501-.431q-.95 0-1.573.439-.622.43-.925 1.205t-.312 1.78q.015 1.548.719 2.49.702.934 2.09.934.88 0 1.493-.399.623-.407.942-1.181l1.182.351q-.48 1.15-1.405 1.756-.925.599-2.211.599m8.63 0q-1.285 0-2.196-.583a3.8 3.8 0 0 1-1.397-1.612q-.486-1.03-.486-2.363 0-1.357.495-2.379.495-1.02 1.404-1.588.918-.575 2.18-.575 1.292 0 2.202.583a3.67 3.67 0 0 1 1.397 1.604q.487 1.021.487 2.355 0 1.357-.487 2.387a3.73 3.73 0 0 1-1.404 1.596q-.918.575-2.196.575m0-1.126q1.435 0 2.139-.95.702-.958.702-2.482 0-1.565-.71-2.49-.704-.927-2.132-.926-.966 0-1.596.439-.622.43-.934 1.205-.303.766-.303 1.772 0 1.556.718 2.498.72.934 2.115.934m5.847.886v-8.62h1.054v2.075l-.208-.271q.143-.384.375-.703.231-.327.503-.535.335-.295.782-.447.447-.159.902-.183.456-.032.83.064v1.101a2.9 2.9 0 0 0-1.03-.056 1.96 1.96 0 0 0-1.029.447 2.14 2.14 0 0 0-.647.806q-.215.465-.287.99-.072.52-.072 1.03v4.302zm9.624.24q-1.19 0-2.011-.599-.823-.607-1.246-1.636-.423-1.038-.423-2.323 0-1.31.423-2.33.432-1.03 1.261-1.621.83-.59 2.044-.59 1.18 0 2.027.598.846.599 1.293 1.628.456 1.03.455 2.315 0 1.293-.455 2.323t-1.309 1.636q-.855.599-2.06.599m-3.88 3.592V91.368h1.054v6.49h.128v5.962zm3.76-4.686q.903 0 1.5-.455.6-.455.895-1.237.303-.79.303-1.772 0-.974-.295-1.756-.296-.783-.902-1.237-.599-.456-1.525-.455-.902 0-1.5.439-.591.44-.886 1.221-.296.774-.296 1.788 0 .997.296 1.788.296.782.894 1.23.598.446 1.516.446m9.296 1.094q-1.285 0-2.195-.583a3.8 3.8 0 0 1-1.397-1.612q-.487-1.03-.487-2.363 0-1.357.495-2.379.495-1.02 1.405-1.588.918-.575 2.179-.575 1.293 0 2.203.583a3.67 3.67 0 0 1 1.397 1.604q.487 1.021.487 2.355 0 1.357-.487 2.387a3.73 3.73 0 0 1-1.405 1.596q-.918.575-2.195.575m0-1.126q1.436 0 2.14-.95.701-.958.702-2.482 0-1.565-.71-2.49-.704-.927-2.132-.926-.966 0-1.596.439-.624.43-.934 1.205-.304.766-.304 1.772 0 1.556.719 2.498.718.934 2.115.934m5.848.886v-8.62h1.053v2.075l-.207-.271q.142-.384.375-.703.231-.327.503-.535.335-.295.782-.447a3.2 3.2 0 0 1 .902-.183q.455-.032.83.064v1.101a2.9 2.9 0 0 0-1.03-.056 1.96 1.96 0 0 0-1.029.447 2.14 2.14 0 0 0-.647.806 3.4 3.4 0 0 0-.287.99q-.072.52-.072 1.03v4.302zm7.891.24q-.973 0-1.636-.352-.654-.351-.982-.933a2.55 2.55 0 0 1-.327-1.27q0-.702.279-1.197.288-.503.775-.822a3.9 3.9 0 0 1 1.141-.487q.654-.16 1.445-.28a36 36 0 0 1 1.556-.215q.766-.096 1.341-.183l-.415.255q.024-1.277-.495-1.892t-1.804-.614q-.886 0-1.5.399-.607.399-.854 1.261l-1.142-.335q.296-1.157 1.189-1.796.894-.639 2.323-.639 1.182 0 2.004.447.83.44 1.173 1.277.16.376.208.838.048.464.048.942v5.356h-1.046v-2.163l.303.128q-.438 1.11-1.365 1.692-.926.583-2.219.583m.136-1.014q.822 0 1.437-.295.614-.296.99-.806.375-.52.486-1.166a4.3 4.3 0 0 0 .104-.91q.008-.502.008-.75l.447.231q-.599.08-1.301.16-.695.08-1.373.184-.67.103-1.213.247-.368.105-.71.295a1.64 1.64 0 0 0-.567.495q-.216.312-.216.775 0 .375.184.726.192.351.606.582.424.232 1.118.232m10.962.774q-.726.152-1.437.12a3.2 3.2 0 0 1-1.261-.303 1.82 1.82 0 0 1-.838-.846 2.5 2.5 0 0 1-.256-.966 37 37 0 0 1-.016-1.126v-7.894h1.166v7.846q0 .543.008.91.015.36.167.639.288.535.91.639.632.103 1.557-.048zm-5.651-7.615v-1.005h5.651v1.005zm10.685 7.855q-1.26 0-2.187-.559a3.8 3.8 0 0 1-1.429-1.572q-.51-1.014-.51-2.38 0-1.412.502-2.442.504-1.03 1.413-1.588.918-.56 2.163-.559 1.278 0 2.179.59.903.584 1.365 1.677.463 1.095.423 2.61h-1.197v-.415q-.032-1.675-.726-2.53-.686-.855-2.012-.854-1.389 0-2.131.902-.734.902-.734 2.57 0 1.628.734 2.53.743.894 2.099.894.927 0 1.613-.423.694-.431 1.093-1.237l1.094.423a3.9 3.9 0 0 1-1.509 1.748q-.99.615-2.243.615m-3.296-4.223v-.981h6.585v.981z"/><path fill="#888" d="M15.095 121.97v-9.852H16.1v9.852zm5.814.199q-1.3 0-2.142-.561a2.34 2.34 0 0 1-1.026-1.56l1.026-.171q.165.63.746 1.005.589.37 1.45.37.842 0 1.328-.349.486-.356.486-.965 0-.342-.158-.554-.15-.219-.622-.404a15 15 0 0 0-1.41-.437q-1.006-.274-1.573-.548-.568-.273-.808-.629-.24-.363-.24-.883 0-.63.357-1.101.355-.48.985-.739.63-.267 1.464-.267t1.492.274q.663.266 1.067.752t.479 1.129l-1.027.185a1.48 1.48 0 0 0-.65-1.026q-.54-.384-1.375-.397-.785-.021-1.28.301-.492.315-.492.841 0 .294.178.507.178.204.643.39.473.184 1.341.403 1.02.26 1.601.548.582.287.828.677t.246.965q0 1.046-.78 1.648-.772.596-2.134.596m7.189 0q-1.3 0-2.142-.561a2.34 2.34 0 0 1-1.026-1.56l1.026-.171q.165.63.746 1.005.588.37 1.45.37.843 0 1.328-.349.486-.356.486-.965 0-.342-.158-.554-.15-.219-.622-.404a15 15 0 0 0-1.41-.437q-1.006-.274-1.573-.548-.568-.273-.808-.629-.24-.363-.239-.883 0-.63.356-1.101.355-.48.985-.739.63-.267 1.464-.267.835 0 1.492.274.663.266 1.067.752t.479 1.129l-1.026.185a1.48 1.48 0 0 0-.65-1.026q-.541-.384-1.376-.397-.786-.021-1.279.301-.492.315-.493.841 0 .294.178.507.178.204.643.39.473.184 1.341.403 1.02.26 1.601.548.582.287.828.677.247.39.247.965 0 1.046-.78 1.648-.774.596-2.135.596m7.258-.014q-.664 0-1.164-.205a2.6 2.6 0 0 1-.841-.554 3 3 0 0 1-.554-.794 4 4 0 0 1-.308-.951 5.4 5.4 0 0 1-.096-1.006v-4.064h1.013v3.77q0 .609.116 1.129t.37.91q.26.383.663.595.41.212.992.212.534 0 .937-.185.41-.184.685-.526.28-.35.424-.842.144-.5.143-1.122l.712.157q0 1.136-.397 1.909t-1.095 1.17-1.6.397m2.483-.185v-1.82h-.103v-5.569h1.006v7.389zm5.942.205q-1.08 0-1.874-.478a3.26 3.26 0 0 1-1.225-1.348q-.438-.87-.438-2.039 0-1.21.431-2.094a3.2 3.2 0 0 1 1.211-1.361q.786-.479 1.854-.479 1.094 0 1.868.506.772.5 1.17 1.437.396.938.362 2.237h-1.026v-.356q-.028-1.436-.622-2.168-.589-.732-1.725-.732-1.19 0-1.826.773-.63.772-.63 2.203 0 1.395.63 2.169.636.766 1.8.766.792 0 1.381-.363.596-.37.937-1.06l.938.362a3.36 3.36 0 0 1-1.293 1.499q-.849.526-1.923.526m-2.825-3.619v-.841H46.6v.841zm10.57 3.619q-1.034 0-1.766-.513a3.3 3.3 0 0 1-1.122-1.402q-.39-.883-.39-1.991 0-1.102.383-1.984a3.3 3.3 0 0 1 1.116-1.396q.724-.513 1.737-.513 1.04 0 1.752.506.711.507 1.074 1.389.37.876.37 1.998 0 1.101-.363 1.991-.363.882-1.068 1.402-.704.513-1.724.513m.102-.937q.787 0 1.3-.383.514-.383.766-1.054a4.4 4.4 0 0 0 .253-1.532q0-.868-.253-1.533-.253-.67-.766-1.046-.507-.377-1.28-.377-.793 0-1.313.39t-.773 1.061a4.3 4.3 0 0 0-.246 1.505q0 .841.253 1.519.259.67.773 1.06.512.39 1.286.39m2.32.732v-5.562h-.11v-4.29h1.012v9.852zm7.675.205q-.834 0-1.402-.301a2.04 2.04 0 0 1-.842-.8 2.2 2.2 0 0 1-.28-1.088q0-.602.24-1.026.245-.43.663-.705.425-.273.978-.417.561-.137 1.239-.24.683-.11 1.334-.184.656-.083 1.15-.158l-.357.219q.021-1.095-.424-1.621-.444-.527-1.546-.527-.76 0-1.286.342-.52.342-.732 1.081l-.979-.287q.253-.993 1.02-1.54.765-.547 1.99-.547 1.013 0 1.718.383.712.377 1.006 1.095.136.322.177.718.042.398.042.807v4.591h-.897v-1.854l.26.11q-.375.95-1.17 1.45t-1.902.499m.117-.868q.705 0 1.231-.254a2.2 2.2 0 0 0 .849-.691q.321-.444.417-.998.082-.357.089-.78.007-.431.007-.644l.383.199q-.513.068-1.115.137-.596.068-1.177.157-.575.089-1.04.212-.315.089-.609.253a1.4 1.4 0 0 0-.486.424q-.184.268-.184.664 0 .321.157.623.165.3.52.499.362.198.958.199m8.438.868q-1.116 0-1.888-.499a3.2 3.2 0 0 1-1.177-1.375q-.398-.883-.41-2.025.013-1.164.423-2.039a3.1 3.1 0 0 1 1.184-1.368q.773-.493 1.875-.493 1.122 0 1.95.547a2.76 2.76 0 0 1 1.142 1.499l-.985.314a2.1 2.1 0 0 0-.828-1.026 2.3 2.3 0 0 0-1.286-.369q-.814 0-1.348.376a2.2 2.2 0 0 0-.794 1.033q-.26.663-.267 1.526.015 1.327.616 2.134.603.801 1.793.801.752 0 1.28-.342.533-.349.806-1.013l1.013.301q-.41.986-1.204 1.505-.794.513-1.895.513m7.376 0q-1.115 0-1.888-.499a3.2 3.2 0 0 1-1.177-1.375q-.397-.883-.41-2.025.013-1.164.424-2.039a3.12 3.12 0 0 1 1.183-1.368q.773-.493 1.875-.493 1.122 0 1.95.547a2.76 2.76 0 0 1 1.142 1.499l-.985.314a2.1 2.1 0 0 0-.828-1.026 2.3 2.3 0 0 0-1.286-.369q-.814 0-1.348.376a2.2 2.2 0 0 0-.794 1.033q-.26.663-.266 1.526.013 1.327.615 2.134.603.801 1.793.801.752 0 1.28-.342.532-.349.807-1.013l1.012.301q-.41.986-1.204 1.505-.793.513-1.895.513m7.438 0q-1.08 0-1.875-.478a3.26 3.26 0 0 1-1.225-1.348q-.437-.87-.437-2.039 0-1.21.43-2.094a3.2 3.2 0 0 1 1.212-1.361q.786-.479 1.854-.479 1.095 0 1.868.506.772.5 1.17 1.437.396.938.362 2.237h-1.026v-.356q-.027-1.436-.623-2.168-.588-.732-1.724-.732-1.19 0-1.827.773-.63.772-.629 2.203 0 1.395.63 2.169.636.766 1.799.766.794 0 1.382-.363.596-.37.937-1.06l.937.362a3.36 3.36 0 0 1-1.293 1.499q-.848.526-1.922.526m-2.826-3.619v-.841h5.645v.841zm10.46 3.613q-1.3 0-2.14-.561a2.34 2.34 0 0 1-1.027-1.56l1.026-.171q.165.63.746 1.005.588.37 1.45.37.842 0 1.328-.349.485-.356.485-.965 0-.342-.157-.554-.15-.219-.623-.404a15 15 0 0 0-1.409-.437q-1.005-.274-1.574-.548-.567-.273-.807-.629-.24-.363-.24-.883.001-.63.356-1.101.356-.48.986-.739.63-.267 1.464-.267t1.491.274q.665.266 1.068.752t.478 1.129l-1.026.185a1.48 1.48 0 0 0-.65-1.026q-.54-.384-1.375-.397-.785-.021-1.28.301-.492.315-.492.841 0 .294.178.507.178.204.643.39.472.184 1.341.403 1.02.26 1.601.548.582.287.828.677t.246.965q0 1.046-.78 1.648-.773.596-2.134.596m7.19 0q-1.3 0-2.142-.561a2.34 2.34 0 0 1-1.026-1.56l1.026-.171q.165.63.746 1.005.588.37 1.45.37.843 0 1.328-.349.486-.356.486-.965 0-.342-.158-.554-.15-.219-.622-.404a15 15 0 0 0-1.41-.437q-1.005-.274-1.573-.548-.568-.273-.808-.629-.24-.363-.24-.883 0-.63.357-1.101.355-.48.985-.739.63-.267 1.464-.267.835 0 1.491.274a2.6 2.6 0 0 1 1.068.752q.404.486.479 1.129l-1.027.185a1.47 1.47 0 0 0-.65-1.026q-.54-.384-1.375-.397-.786-.021-1.28.301-.492.315-.492.841 0 .294.178.507.178.204.643.39.473.184 1.341.403 1.02.26 1.601.548.582.287.828.677t.246.965q0 1.046-.78 1.648-.773.596-2.134.596m7.034-4.078v-.862h4.105v.862zm11.954 4.084a3.3 3.3 0 0 1-1.683-.444 3.4 3.4 0 0 1-1.204-1.218 3.4 3.4 0 0 1-.445-1.738v-3.414q0-.992.445-1.765.445-.78 1.211-1.225.773-.451 1.752-.451.841 0 1.56.369.725.37 1.183 1.033l-.773.637a2.34 2.34 0 0 0-1.97-1.081q-.692 0-1.232.335-.54.334-.848.882a2.34 2.34 0 0 0-.308 1.177v2.148l-.253-.287a3.4 3.4 0 0 1 1.129-1.095q.704-.417 1.532-.417a3.15 3.15 0 0 1 1.649.438q.732.43 1.163 1.17.43.739.431 1.656 0 .91-.458 1.655a3.4 3.4 0 0 1-1.211 1.191 3.2 3.2 0 0 1-1.67.444m0-.978q.644 0 1.17-.308.534-.308.842-.834a2.24 2.24 0 0 0 .315-1.17q0-.644-.315-1.17a2.27 2.27 0 0 0-.835-.842 2.24 2.24 0 0 0-1.17-.315q-.644 0-1.17.315a2.3 2.3 0 0 0-.841.842 2.3 2.3 0 0 0-.308 1.17q0 .636.308 1.163.307.526.834.841.528.308 1.17.308"/><mask id="f" width="75" height="79" x="222.021" y="83.988" fill="#000" maskUnits="userSpaceOnUse"><path fill="#fff" d="M222.021 83.988h75v79h-75z"/><path d="M224.021 89.988a4 4 0 0 1 4-4H297v76.4h-72.979z"/></mask><path fill="#FCFDFF" d="M224.021 89.988a4 4 0 0 1 4-4H297v76.4h-72.979z"/><path fill="#000" fill-opacity=".1" d="M222.881 89.988a5.14 5.14 0 0 1 5.14-5.14H297v2.28h-68.979a2.86 2.86 0 0 0-2.859 2.86zm74.119 72.4h-72.979zm-74.119 0v-72.4a5.14 5.14 0 0 1 5.14-5.14v2.28a2.86 2.86 0 0 0-2.859 2.86v72.4zM297 85.988v76.4z" mask="url(#f)"/><path fill="#000" d="M247.143 131.594a3.82 3.82 0 0 1 3.393 1.963q.527.91.527 2.067v3.824q0 1.205-.519 2.131a3.77 3.77 0 0 1-1.437 1.453q-.91.527-2.091.527a4.05 4.05 0 0 1-1.764-.392 3.9 3.9 0 0 1-1.381-1.109l1.061-.942q.351.495.902.798.55.296 1.182.296.766 0 1.349-.368.59-.367.918-.957.335-.591.335-1.278v-2.306l.311.351q-.495.719-1.269 1.149a3.4 3.4 0 0 1-1.684.431q-1.07 0-1.916-.503a3.7 3.7 0 0 1-1.341-1.357 3.8 3.8 0 0 1-.495-1.931q0-1.07.535-1.94a3.96 3.96 0 0 1 1.421-1.389 3.84 3.84 0 0 1 1.963-.518m0 1.372q-.686 0-1.253.336-.558.327-.894.894a2.4 2.4 0 0 0-.335 1.245q0 .686.327 1.253.336.56.894.894.567.335 1.253.335.687 0 1.254-.335.565-.334.894-.894.335-.567.335-1.253 0-.679-.335-1.237a2.47 2.47 0 0 0-.894-.902 2.37 2.37 0 0 0-1.246-.336m10.075 10.593a3.84 3.84 0 0 1-1.987-.527 3.9 3.9 0 0 1-1.413-1.437q-.519-.918-.519-2.067v-3.824q0-1.205.519-2.131a3.77 3.77 0 0 1 1.437-1.453q.918-.526 2.091-.526.95 0 1.764.391a3.7 3.7 0 0 1 1.381 1.109l-1.062.942a2.5 2.5 0 0 0-.894-.798 2.5 2.5 0 0 0-1.189-.296 2.5 2.5 0 0 0-1.349.368 2.6 2.6 0 0 0-.918.957q-.336.591-.335 1.278v2.306l-.312-.351a3.8 3.8 0 0 1 1.278-1.149 3.4 3.4 0 0 1 1.676-.431q1.07 0 1.915.503.855.502 1.341 1.365.495.853.495 1.923t-.534 1.94a4 4 0 0 1-1.429 1.389 3.8 3.8 0 0 1-1.956.519m0-1.373a2.45 2.45 0 0 0 2.147-1.222q.336-.566.336-1.253t-.336-1.253a2.4 2.4 0 0 0-.894-.894 2.4 2.4 0 0 0-1.245-.335q-.686 0-1.253.335a2.47 2.47 0 0 0-1.229 2.147q0 .68.327 1.245.335.56.894.894.567.336 1.253.336m10.961 1.133v-2.115h-5.284v-1.349l3.791-8.03h1.613l-3.792 8.03h3.672v-3.233h1.437v3.233h1.197v1.349h-1.197v2.115zm4.226-.008.008-1.277 5.1-4.59q.64-.575.854-1.085.224-.519.224-1.062 0-.663-.304-1.197a2.25 2.25 0 0 0-.83-.846 2.25 2.25 0 0 0-1.181-.312q-.687 0-1.221.328a2.36 2.36 0 0 0-.846.854 2.26 2.26 0 0 0-.296 1.165h-1.452q0-1.086.502-1.915a3.56 3.56 0 0 1 1.365-1.31q.87-.478 1.972-.478 1.07 0 1.916.494a3.57 3.57 0 0 1 1.333 1.333q.495.838.494 1.9 0 .75-.191 1.301a3.1 3.1 0 0 1-.575 1.022q-.391.463-.982.99l-4.238 3.807-.184-.479h6.17v1.357z"/><path fill="#35C3ED" d="M224.022 97.391H297v14.824h-72.978z"/><path fill="#000" fill-opacity=".1" d="M1 162.387h296v1.14H1z"/><rect width="297" height="1.14" x="1" y="56.81" fill="#000" fill-opacity=".1" rx=".57"/><path fill="#000" d="M25.646 43.47q-1.962 0-3.311-.866-1.35-.876-2.044-2.418-.693-1.542-.693-3.557 0-2.016.693-3.558t2.044-2.408q1.35-.876 3.311-.876 2.29 0 3.74 1.177 1.45 1.167 1.989 3.138l-1.369.355q-.42-1.56-1.505-2.472t-2.855-.912q-1.542 0-2.563.702-1.021.703-1.542 1.962-.51 1.25-.53 2.892-.008 1.641.503 2.891.52 1.25 1.55 1.961 1.04.703 2.582.703 1.77 0 2.855-.912 1.086-.922 1.505-2.472l1.369.355q-.538 1.97-1.989 3.148-1.45 1.167-3.74 1.167m10.56 0q-1.113 0-1.87-.401-.747-.401-1.122-1.068a2.9 2.9 0 0 1-.374-1.45q0-.802.32-1.368.327-.575.884-.94a4.5 4.5 0 0 1 1.305-.556q.748-.183 1.65-.32.914-.145 1.78-.246a58 58 0 0 0 1.532-.21l-.474.292q.028-1.46-.566-2.162-.593-.702-2.061-.702-1.013 0-1.715.456-.694.456-.976 1.441l-1.305-.383q.337-1.323 1.36-2.052 1.02-.73 2.654-.73 1.35 0 2.29.51.949.503 1.34 1.46.183.429.238.958.054.53.055 1.076v6.121h-1.195v-2.472l.346.146q-.501 1.269-1.56 1.934-1.057.666-2.536.666m.155-1.158q.94 0 1.642-.338a3 3 0 0 0 1.132-.921 3.16 3.16 0 0 0 .556-1.332q.109-.474.119-1.04.009-.575.009-.857l.51.264q-.684.091-1.486.182-.795.091-1.57.21-.765.12-1.386.283-.42.12-.812.338-.392.21-.648.565-.246.355-.246.885 0 .43.21.83.219.402.693.666.484.265 1.277.265m7.164.885v-9.853h1.205v2.372l-.238-.31q.165-.438.43-.803.263-.374.574-.61.383-.338.894-.512.51-.182 1.03-.21.52-.036.95.073v1.26a3.3 3.3 0 0 0-1.177-.065 2.24 2.24 0 0 0-1.177.511 2.45 2.45 0 0 0-.74.922q-.245.529-.328 1.13a9 9 0 0 0-.082 1.178v4.916zm10.219.273q-1.377 0-2.354-.684-.975-.694-1.496-1.87-.52-1.177-.52-2.655 0-1.468.511-2.645.52-1.177 1.487-1.861t2.317-.684q1.387 0 2.336.675t1.432 1.852q.492 1.167.492 2.663 0 1.47-.483 2.655-.483 1.177-1.423 1.87-.94.684-2.3.684m.137-1.25q1.05 0 1.733-.51.684-.512 1.022-1.405.337-.903.337-2.044 0-1.158-.337-2.043-.338-.894-1.022-1.396-.675-.502-1.706-.502-1.059 0-1.751.52-.693.52-1.031 1.414-.33.894-.329 2.007 0 1.122.338 2.025.347.894 1.03 1.414.686.52 1.716.52m3.092.977V35.78h-.146v-5.72h1.35v13.137zm7.44.264q-1.734 0-2.855-.748-1.114-.748-1.369-2.08l1.369-.228q.219.84.994 1.341.785.492 1.934.493 1.122 0 1.77-.465.647-.475.647-1.287 0-.456-.21-.739-.2-.292-.83-.538t-1.879-.584q-1.34-.364-2.098-.73-.758-.365-1.076-.839-.32-.483-.32-1.177 0-.84.475-1.468.474-.639 1.313-.986.84-.355 1.952-.355t1.99.365q.883.355 1.422 1.003t.639 1.505l-1.369.247a1.97 1.97 0 0 0-.866-1.369q-.72-.51-1.834-.529-1.05-.027-1.706.401-.656.42-.657 1.123 0 .392.238.675.237.273.857.52.63.246 1.788.538 1.36.345 2.135.73.775.382 1.104.903.328.52.328 1.286 0 1.395-1.04 2.198-1.03.794-2.846.794m9.744-.264v-13.41h1.341v13.41zm4.258-11.723V29.97h1.341v1.505zm0 11.723v-9.853h1.341v9.853zm7.752.264q-1.733 0-2.855-.748-1.113-.748-1.368-2.08l1.368-.228q.22.84.995 1.341.784.492 1.933.493 1.122 0 1.77-.465.648-.475.648-1.287 0-.456-.21-.739-.2-.292-.83-.538t-1.88-.584q-1.34-.364-2.097-.73-.757-.365-1.077-.839-.32-.483-.32-1.177 0-.84.475-1.468.475-.639 1.314-.986.84-.355 1.952-.355t1.989.365q.885.355 1.423 1.003.537.648.638 1.505l-1.368.247a1.97 1.97 0 0 0-.867-1.369q-.72-.51-1.833-.529-1.05-.027-1.706.401-.657.42-.657 1.123 0 .392.237.675.237.273.858.52.63.246 1.788.538 1.359.345 2.134.73.775.382 1.104.903.33.52.329 1.286 0 1.395-1.04 2.198-1.031.794-2.847.794m11.274-.264q-.83.172-1.642.136a3.6 3.6 0 0 1-1.442-.346 2.08 2.08 0 0 1-.958-.967 2.8 2.8 0 0 1-.291-1.104 41 41 0 0 1-.019-1.286v-9.022h1.332v8.967q0 .62.01 1.04.017.41.19.73.33.61 1.04.73.721.118 1.78-.055zm-6.459-8.703v-1.15h6.459v1.15z"/></g></svg>