<svg width="35" height="35" viewBox="0 0 35 35" fill="none" xmlns="http://www.w3.org/2000/svg">
<path d="M29.0011 23.1973C31.1282 22.3641 33.2732 20.4655 33.2732 16.6364C33.2732 10.9402 28.5264 9.51618 26.153 9.51618C26.153 6.6681 26.153 0.971924 17.6088 0.971924C9.06449 0.971924 9.06449 6.6681 9.06449 9.51618C6.69109 9.51618 1.94427 10.9402 1.94427 16.6364C1.94427 20.4655 4.08928 22.3641 6.21641 23.1973" stroke="black" stroke-linecap="round" stroke-linejoin="round"/>
<path d="M11.3159 25.8741L15.0326 29.5908C16.5947 31.1529 19.1274 31.1529 20.6895 29.5908L22.3923 27.888" stroke="black" stroke-linecap="round" stroke-linejoin="round"/>
<path d="M11.8193 29.3995L11.3158 25.8752L14.8401 26.3786L11.8193 29.3995Z" stroke="black" stroke-linecap="round" stroke-linejoin="round"/>
<path d="M23.7301 22.1928L20.0133 18.4761C18.4512 16.914 15.9186 16.914 14.3565 18.4761L12.6536 20.1789" stroke="black" stroke-linecap="round" stroke-linejoin="round"/>
<path d="M23.2261 18.6674L23.7295 22.1917L20.2052 21.6882L23.2261 18.6674Z" stroke="black" stroke-linecap="round" stroke-linejoin="round"/>
</svg>
