<svg width="38" height="38" viewBox="0 0 38 38" fill="none" xmlns="http://www.w3.org/2000/svg">
<path d="M33.25 3.16742L31.6667 4.75075" stroke="black" stroke-linecap="round" stroke-linejoin="round"/>
<path d="M4.75 3.16742L6.33333 4.75075" stroke="black" stroke-linecap="round" stroke-linejoin="round"/>
<path d="M33.25 25.3326L31.6667 23.7493" stroke="black" stroke-linecap="round" stroke-linejoin="round"/>
<path d="M4.75 25.3326L6.33333 23.7493" stroke="black" stroke-linecap="round" stroke-linejoin="round"/>
<path d="M14.25 28.5H23.75" stroke="black" stroke-linecap="round" stroke-linejoin="round"/>
<path d="M15.8381 33.25H22.1715" stroke="black" stroke-linecap="round" stroke-linejoin="round"/>
<path d="M18.9996 4.75C12.666 4.75 9.42362 7.83795 9.4996 12.6667C9.53664 15.0209 10.291 16.625 11.8746 18.2083C13.4582 19.7917 14.2498 20.5833 14.2496 23.75H23.7496C23.7498 20.5835 24.5414 19.7917 26.1244 18.2085L26.1246 18.2083C27.7077 16.625 28.4626 15.0209 28.4996 12.6667C28.5756 7.83795 25.3332 4.75 18.9996 4.75Z" stroke="black" stroke-linecap="round" stroke-linejoin="round"/>
</svg>
