<svg xmlns="http://www.w3.org/2000/svg" width="565" height="436" fill="none"><rect width="563" height="434" x="1" y="1" fill="#F8F8F8" rx="10"/><rect width="564" height="435" x=".5" y=".5" stroke="#000" stroke-opacity=".1" rx="10.5"/><path fill="#888" d="m459.131 391.992.007-.938 4.557-4.116q.588-.531.777-1.008a2.7 2.7 0 0 0 .196-1.008 2.2 2.2 0 0 0-1.085-1.925 2.1 2.1 0 0 0-1.113-.301 2.16 2.16 0 0 0-1.148.308 2.3 2.3 0 0 0-.798.812 2.13 2.13 0 0 0-.28 1.099h-1.05q0-.916.434-1.645a3.1 3.1 0 0 1 1.176-1.141 3.35 3.35 0 0 1 1.68-.42q.917 0 1.645.434.735.427 1.155 1.162a3.15 3.15 0 0 1 .427 1.624q0 .63-.154 1.113a2.8 2.8 0 0 1-.469.889q-.315.406-.805.84l-4.046 3.654-.161-.42h5.635v.987zm10.022.007v-8.932l-1.897 1.141v-1.155l1.897-1.134h1.043v10.08zm6.5 0v-10.08h5.789v1.029h-4.76v3.5h3.92v1.022h-3.92v4.529zm10.049.21q-1.106 0-1.918-.49a3.3 3.3 0 0 1-1.253-1.379q-.448-.888-.448-2.086 0-1.239.441-2.142a3.3 3.3 0 0 1 1.239-1.393q.805-.49 1.897-.49 1.12 0 1.911.518.79.512 1.197 1.47.406.96.371 2.289h-1.05v-.364q-.028-1.47-.637-2.219-.601-.749-1.764-.749-1.218 0-1.869.791-.644.792-.644 2.254 0 1.428.644 2.219.651.784 1.841.784.812 0 1.414-.371.61-.378.959-1.085l.959.371a3.43 3.43 0 0 1-1.323 1.533q-.868.54-1.967.539m-2.891-3.703v-.861h5.775v.861zm11.276 3.703q-1.043 0-1.764-.525-.72-.531-1.092-1.435-.37-.909-.371-2.037 0-1.147.371-2.044.378-.903 1.106-1.421t1.792-.518q1.037 0 1.778.525.743.525 1.134 1.428.399.903.399 2.03 0 1.134-.399 2.037a3.4 3.4 0 0 1-1.148 1.435q-.749.525-1.806.525m-3.402-.21v-10.08h1.036v4.389h-.112v5.691zm3.297-.749q.792 0 1.316-.399.525-.399.784-1.085.267-.693.266-1.554a4.3 4.3 0 0 0-.259-1.54 2.36 2.36 0 0 0-.791-1.085q-.524-.399-1.337-.399-.79 0-1.316.385-.517.385-.777 1.071-.258.68-.259 1.568 0 .875.259 1.568.26.687.784 1.078.526.393 1.33.392m7.518.742.007-.938 4.557-4.116q.588-.531.777-1.008a2.7 2.7 0 0 0 .196-1.008 2.2 2.2 0 0 0-1.085-1.925 2.1 2.1 0 0 0-1.113-.301 2.16 2.16 0 0 0-1.148.308 2.3 2.3 0 0 0-.798.812 2.14 2.14 0 0 0-.28 1.099h-1.05q0-.916.434-1.645a3.1 3.1 0 0 1 1.176-1.141 3.35 3.35 0 0 1 1.68-.42q.918 0 1.645.434.735.427 1.155 1.162a3.15 3.15 0 0 1 .427 1.624q0 .63-.154 1.113a2.8 2.8 0 0 1-.469.889q-.315.406-.805.84l-4.046 3.654-.161-.42h5.635v.987zm11.555.217a3.3 3.3 0 0 1-1.68-.434 3.2 3.2 0 0 1-1.176-1.176 3.3 3.3 0 0 1-.434-1.68v-3.92a3.25 3.25 0 0 1 1.61-2.856 3.3 3.3 0 0 1 1.68-.434q.93 0 1.673.434.748.435 1.183 1.183.434.743.434 1.673v3.92a3.3 3.3 0 0 1-.434 1.68q-.435.743-1.183 1.176a3.25 3.25 0 0 1-1.673.434m0-.994q.623 0 1.134-.301.51-.308.812-.819.3-.51.301-1.127v-4.018a2.2 2.2 0 0 0-.301-1.134 2.3 2.3 0 0 0-.812-.812 2.16 2.16 0 0 0-1.134-.308q-.624 0-1.134.308a2.26 2.26 0 0 0-.812.812 2.2 2.2 0 0 0-.301 1.134v4.018q0 .617.301 1.127.3.511.812.819.51.301 1.134.301m4.975.777.007-.938 4.557-4.116q.588-.531.777-1.008.196-.483.196-1.008a2.2 2.2 0 0 0-1.085-1.925 2.1 2.1 0 0 0-1.113-.301q-.644 0-1.148.308a2.3 2.3 0 0 0-.798.812 2.1 2.1 0 0 0-.28 1.099h-1.05q0-.916.434-1.645a3.1 3.1 0 0 1 1.176-1.141q.741-.42 1.68-.42.916 0 1.645.434.735.427 1.155 1.162a3.16 3.16 0 0 1 .427 1.624q0 .63-.154 1.113a2.8 2.8 0 0 1-.469.889 6.3 6.3 0 0 1-.805.84l-4.046 3.654-.161-.42h5.635v.987zm12.429.007v-1.953h-4.718v-.98l3.374-7.147h1.155l-3.374 7.147h3.563v-2.94h1.036v2.94h1.099v.98h-1.099v1.953zM34.684 394.08q.816 0 1.476.396.666.39 1.056 1.068.39.672.39 1.512v3a3.07 3.07 0 0 1-.39 1.548q-.39.684-1.068 1.08-.672.39-1.53.39-.738 0-1.368-.324a2.9 2.9 0 0 1-1.032-.906l.672-.558q.276.426.732.684.462.258.996.258.612 0 1.08-.288.474-.294.744-.768.276-.48.276-1.038v-1.884l.216.252a2.9 2.9 0 0 1-.99.96 2.57 2.57 0 0 1-1.344.366 2.8 2.8 0 0 1-1.446-.384 2.87 2.87 0 0 1-1.02-1.032 2.85 2.85 0 0 1-.372-1.446q0-.798.396-1.452a2.9 2.9 0 0 1 1.062-1.044q.666-.39 1.464-.39m0 .852q-.564 0-1.026.276-.462.27-.738.732-.27.462-.27 1.026t.27 1.026.732.738q.462.27 1.026.27t1.026-.27a2.04 2.04 0 0 0 .738-.738q.276-.462.276-1.026 0-.558-.276-1.02a2.05 2.05 0 0 0-.732-.738 1.96 1.96 0 0 0-1.026-.276m4.357 7.956.006-.804 3.906-3.528q.504-.456.666-.864.168-.414.168-.864a1.88 1.88 0 0 0-.93-1.65 1.8 1.8 0 0 0-.954-.258q-.552 0-.984.264a1.97 1.97 0 0 0-.684.696 1.8 1.8 0 0 0-.24.942h-.9a2.7 2.7 0 0 1 .372-1.41 2.66 2.66 0 0 1 1.008-.978q.636-.36 1.44-.36a2.7 2.7 0 0 1 1.41.372q.63.366.99.996a2.7 2.7 0 0 1 .366 1.392q0 .54-.132.954a2.4 2.4 0 0 1-.402.762q-.27.348-.69.72l-3.468 3.132-.138-.36h4.83v.846zm9.718.186q-.81 0-1.434-.324a2.44 2.44 0 0 1-.972-.906q-.348-.588-.348-1.374 0-.804.39-1.428.39-.63 1.188-.954l-.012.348a1.95 1.95 0 0 1-1.014-.804 2.3 2.3 0 0 1-.348-1.236q0-.72.33-1.236.33-.522.9-.804a3 3 0 0 1 1.32-.282q.744 0 1.32.282t.906.804q.33.516.33 1.236 0 .678-.336 1.23-.33.552-1.014.81l-.03-.348q.798.318 1.194.948.402.63.402 1.434 0 .786-.354 1.374a2.43 2.43 0 0 1-.978.906q-.624.324-1.44.324m0-.846q.816 0 1.326-.45.51-.456.51-1.308 0-.864-.504-1.308-.504-.45-1.332-.45t-1.326.45q-.498.444-.498 1.308 0 .852.504 1.308.504.45 1.32.45m0-4.368q.72 0 1.17-.366.45-.372.45-1.098t-.45-1.086q-.45-.366-1.17-.366t-1.17.366q-.444.36-.444 1.086t.444 1.098q.45.366 1.17.366m4.495 5.034v-1.026h1.026v1.026zm5.429.18q-.672 0-1.242-.276a2.9 2.9 0 0 1-.972-.762 3 3 0 0 1-.576-1.116l.846-.228q.114.468.414.81.3.336.702.522.408.186.852.186.576 0 1.032-.276.462-.282.732-.744t.27-1.014q0-.57-.282-1.026a2.1 2.1 0 0 0-.744-.732 1.96 1.96 0 0 0-1.008-.27q-.612 0-1.056.27a2.14 2.14 0 0 0-.708.666l-.804-.336.264-4.494h4.614v.846h-4.224l.438-.414-.234 3.834-.222-.294q.372-.426.9-.666t1.11-.24q.798 0 1.44.384a2.82 2.82 0 0 1 1.398 2.472q0 .792-.402 1.452a3.1 3.1 0 0 1-1.068 1.05 2.8 2.8 0 0 1-1.47.396m7.196 0a2.8 2.8 0 0 1-1.44-.372 2.77 2.77 0 0 1-1.008-1.008 2.8 2.8 0 0 1-.372-1.44v-3.36a2.79 2.79 0 0 1 1.38-2.448 2.8 2.8 0 0 1 1.44-.372q.798 0 1.434.372a2.74 2.74 0 0 1 1.014 1.014q.372.636.372 1.434v3.36a2.8 2.8 0 0 1-.372 1.44q-.372.636-1.014 1.008a2.8 2.8 0 0 1-1.434.372m0-.852q.534 0 .972-.258.438-.264.696-.702t.258-.966v-3.444q0-.534-.258-.972a1.94 1.94 0 0 0-.696-.696 1.85 1.85 0 0 0-.972-.264q-.534 0-.972.264a1.94 1.94 0 0 0-.696.696 1.9 1.9 0 0 0-.258.972v3.444q0 .528.258.966t.696.702q.438.258.972.258m7.324.852a2.8 2.8 0 0 1-1.44-.372 2.77 2.77 0 0 1-1.008-1.008 2.8 2.8 0 0 1-.372-1.44v-3.36a2.79 2.79 0 0 1 1.38-2.448 2.8 2.8 0 0 1 1.44-.372q.798 0 1.434.372a2.74 2.74 0 0 1 1.014 1.014q.372.636.372 1.434v3.36a2.8 2.8 0 0 1-.372 1.44q-.372.636-1.014 1.008a2.8 2.8 0 0 1-1.434.372m0-.852q.534 0 .972-.258.438-.264.696-.702t.258-.966v-3.444q0-.534-.258-.972a1.94 1.94 0 0 0-.696-.696 1.85 1.85 0 0 0-.972-.264q-.534 0-.972.264a1.94 1.94 0 0 0-.696.696 1.9 1.9 0 0 0-.258.972v3.444q0 .528.258.966t.696.702q.438.258.972.258"/><path fill="#000" fill-opacity=".7" d="M36.061 381.209q-1.505 0-2.541-.665a4.2 4.2 0 0 1-1.568-1.855q-.532-1.182-.532-2.73 0-1.546.532-2.73.532-1.182 1.568-1.848 1.036-.672 2.541-.672 1.757 0 2.87.903 1.112.897 1.526 2.408l-1.05.273q-.323-1.197-1.155-1.897t-2.191-.7q-1.183 0-1.967.539-.784.54-1.183 1.505-.392.96-.406 2.219-.007 1.26.385 2.219.4.96 1.19 1.505.798.54 1.981.539 1.358 0 2.191-.7.832-.706 1.155-1.897l1.05.273q-.413 1.512-1.526 2.415-1.113.896-2.87.896m9.097 0q-1.125 0-1.925-.511a3.3 3.3 0 0 1-1.224-1.414q-.428-.902-.428-2.072 0-1.19.434-2.086t1.233-1.393q.804-.504 1.91-.504 1.134 0 1.932.511.805.504 1.225 1.407.428.897.428 2.065 0 1.19-.428 2.093a3.27 3.27 0 0 1-1.231 1.4q-.805.504-1.926.504m0-.987q1.26 0 1.877-.833.615-.84.616-2.177 0-1.371-.623-2.184-.616-.812-1.87-.812-.846 0-1.4.385a2.3 2.3 0 0 0-.819 1.057q-.266.672-.266 1.554 0 1.365.63 2.191.63.819 1.855.819m10.589.777v-3.857q0-.63-.12-1.155a2.7 2.7 0 0 0-.384-.924 1.76 1.76 0 0 0-.68-.616q-.412-.216-1.007-.217-.546 0-.966.189a1.9 1.9 0 0 0-.7.546 2.5 2.5 0 0 0-.427.854 4.1 4.1 0 0 0-.147 1.148l-.728-.161q0-1.161.406-1.953.406-.79 1.12-1.197.714-.405 1.638-.406.679 0 1.183.21.51.21.86.567.358.357.575.819.217.456.315.973.098.512.098 1.022v4.158zm-5.467 0v-7.56h.93v1.862h.106v5.698zm10.363 0-2.744-7.56h1.043l2.233 6.216 2.22-6.216h1.056l-2.744 7.56zm7.991.21q-1.106 0-1.918-.49a3.3 3.3 0 0 1-1.253-1.379q-.448-.888-.448-2.086 0-1.239.441-2.142a3.3 3.3 0 0 1 1.24-1.393q.804-.49 1.896-.49 1.12 0 1.911.518.79.512 1.197 1.47.405.96.371 2.289h-1.05v-.364q-.028-1.47-.637-2.219-.602-.749-1.764-.749-1.218 0-1.869.791-.645.792-.644 2.254 0 1.428.644 2.219.651.784 1.841.784.812 0 1.414-.371.609-.378.96-1.085l.958.371a3.43 3.43 0 0 1-1.323 1.533q-.868.54-1.967.539m-2.89-3.703v-.861h5.774v.861zm7.88 3.493v-7.56h.925v1.82l-.183-.238q.127-.336.33-.616.203-.286.44-.469.295-.258.687-.392.391-.14.79-.161.4-.027.728.056v.966a2.5 2.5 0 0 0-.902-.049 1.73 1.73 0 0 0-.903.392 1.9 1.9 0 0 0-.567.707 3 3 0 0 0-.252.868 7 7 0 0 0-.064.903v3.773zm7.593.203q-1.33 0-2.191-.574a2.4 2.4 0 0 1-1.05-1.596l1.05-.175q.168.645.763 1.029.602.378 1.484.378.861 0 1.358-.357.497-.363.497-.987 0-.35-.161-.567-.154-.224-.637-.413a15 15 0 0 0-1.442-.448q-1.03-.28-1.61-.56t-.826-.644q-.245-.37-.245-.903 0-.644.364-1.127.364-.489 1.008-.756.645-.273 1.498-.273.855 0 1.526.28.68.273 1.092.77.413.498.49 1.155l-1.05.189a1.51 1.51 0 0 0-.665-1.05q-.553-.391-1.407-.406-.805-.02-1.309.308-.504.322-.504.861 0 .302.182.518.181.21.658.399.484.19 1.372.413 1.043.267 1.638.56t.847.693.252.987q0 1.072-.798 1.687-.79.609-2.184.609m6.698.007q-.855 0-1.436-.308a2.1 2.1 0 0 1-.86-.819 2.23 2.23 0 0 1-.287-1.113q0-.615.245-1.05.252-.44.678-.721.435-.28 1.002-.427a15 15 0 0 1 1.266-.245 34 34 0 0 1 1.365-.189q.672-.083 1.176-.161l-.363.224q.02-1.119-.434-1.659-.456-.539-1.582-.539-.778 0-1.317.35-.531.35-.748 1.106l-1.002-.294q.259-1.014 1.044-1.575.783-.56 2.036-.56 1.036 0 1.758.392.728.385 1.028 1.12.14.33.183.735.042.406.041.826v4.697h-.916v-1.897l.266.112q-.385.974-1.198 1.484-.811.511-1.945.511m.118-.889q.721 0 1.26-.259a2.3 2.3 0 0 0 .868-.707q.33-.455.427-1.022.084-.363.092-.798.006-.44.006-.658l.392.203q-.525.07-1.14.14a35 35 0 0 0-1.204.161q-.588.091-1.064.217a3 3 0 0 0-.624.259q-.3.162-.497.434a1.17 1.17 0 0 0-.189.679q0 .33.162.637.167.309.531.511.372.204.98.203m9.614.679a5 5 0 0 1-1.26.105 2.8 2.8 0 0 1-1.106-.266 1.6 1.6 0 0 1-.735-.742 2.2 2.2 0 0 1-.224-.847q-.014-.433-.014-.987v-6.923h1.022v6.881q0 .477.007.798.014.315.147.56.252.47.798.56.552.091 1.365-.042zm-4.956-6.678v-.882h4.956v.882zm6.585-2.317v-1.155h1.029v1.155zm0 8.995v-7.56h1.029v7.56zm6.285.21q-1.127 0-1.925-.511a3.3 3.3 0 0 1-1.225-1.414q-.427-.902-.427-2.072 0-1.19.434-2.086a3.3 3.3 0 0 1 1.232-1.393q.804-.504 1.911-.504 1.134 0 1.932.511.804.504 1.225 1.407.427.897.427 2.065 0 1.19-.427 2.093a3.27 3.27 0 0 1-1.232 1.4q-.806.504-1.925.504m0-.987q1.26 0 1.876-.833.615-.84.616-2.177 0-1.371-.623-2.184-.617-.812-1.869-.812-.848 0-1.4.385a2.3 2.3 0 0 0-.819 1.057q-.266.672-.266 1.554 0 1.365.63 2.191.63.819 1.855.819m10.588.777v-3.857q0-.63-.119-1.155a2.7 2.7 0 0 0-.385-.924 1.77 1.77 0 0 0-.679-.616q-.413-.216-1.008-.217-.546 0-.966.189a1.9 1.9 0 0 0-.7.546 2.45 2.45 0 0 0-.427.854 4.1 4.1 0 0 0-.147 1.148l-.728-.161q0-1.161.406-1.953a2.8 2.8 0 0 1 1.12-1.197q.714-.405 1.638-.406.68 0 1.183.21.511.21.861.567.357.357.574.819.218.456.315.973.098.512.098 1.022v4.158zm-5.467 0v-7.56h.931v1.862h.105v5.698zm11.14.203q-1.33 0-2.191-.574a2.4 2.4 0 0 1-1.05-1.596l1.05-.175q.168.645.763 1.029.603.378 1.484.378.861 0 1.358-.357.498-.363.497-.987 0-.35-.161-.567-.154-.224-.637-.413a15 15 0 0 0-1.442-.448q-1.029-.28-1.61-.56-.58-.28-.826-.644-.245-.37-.245-.903 0-.644.364-1.127.365-.489 1.008-.756.645-.273 1.498-.273.854 0 1.526.28.68.273 1.092.77.414.498.49 1.155l-1.05.189a1.51 1.51 0 0 0-.665-1.05q-.552-.391-1.407-.406-.804-.02-1.309.308-.504.322-.504.861a.78.78 0 0 0 .182.518q.183.21.658.399.483.19 1.372.413 1.044.267 1.638.56.595.294.847.693t.252.987q0 1.072-.798 1.687-.79.609-2.184.609"/><path fill="#000" fill-opacity=".1" d="M31 347.017h503v-.719H31z"/><path fill="#888" d="M459.026 307v-8.932l-1.897 1.141v-1.155l1.897-1.134h1.043V307zm7.107.21q-.945 0-1.722-.455a3.5 3.5 0 0 1-1.232-1.246 3.5 3.5 0 0 1-.455-1.778v-3.493q0-1.016.455-1.806a3.3 3.3 0 0 1 1.239-1.253q.791-.462 1.792-.462.861 0 1.596.378.742.378 1.211 1.057l-.791.651a2.39 2.39 0 0 0-2.016-1.106 2.34 2.34 0 0 0-1.26.343 2.46 2.46 0 0 0-.868.903 2.4 2.4 0 0 0-.315 1.204v2.198l-.259-.294a3.44 3.44 0 0 1 1.155-1.12 3 3 0 0 1 1.568-.427 3.2 3.2 0 0 1 1.687.448 3.29 3.29 0 0 1 1.631 2.891 3.17 3.17 0 0 1-.469 1.694 3.5 3.5 0 0 1-1.239 1.218 3.3 3.3 0 0 1-1.708.455m0-1.001q.659 0 1.197-.315.546-.315.861-.854a2.3 2.3 0 0 0 .322-1.197q0-.659-.322-1.197a2.33 2.33 0 0 0-.854-.861 2.3 2.3 0 0 0-1.197-.322q-.659 0-1.197.322-.538.315-.861.861-.315.538-.315 1.197 0 .65.315 1.19.315.538.854.861.538.315 1.197.315m7.376.791 3.472-10.08h1.365l3.472 10.08h-1.071l-3.297-9.506h.406L474.58 307zm1.547-2.443v-.966h5.208v.966zm10.917 2.632q-.68 0-1.19-.21a2.6 2.6 0 0 1-.861-.567 3 3 0 0 1-.567-.812 4 4 0 0 1-.315-.973 5.5 5.5 0 0 1-.098-1.029v-4.158h1.036v3.857q0 .623.119 1.155.119.531.378.931.265.392.679.609.42.216 1.015.217.546 0 .959-.189.42-.19.7-.539.287-.357.434-.861.147-.512.147-1.148l.728.161q0 1.161-.406 1.953a2.8 2.8 0 0 1-1.12 1.197q-.714.405-1.638.406m2.541-.189v-1.862h-.105v-5.698h1.029V307zm5.883 3.57q-.58 0-1.148-.175a3.2 3.2 0 0 1-1.036-.539 3 3 0 0 1-.798-.952l.931-.518q.315.63.882.903.574.28 1.169.28.819 0 1.323-.308.511-.302.742-.896.231-.596.224-1.484v-2.016h.119v-5.425h.917v7.455q0 .322-.021.616-.014.3-.063.588-.133.847-.553 1.393a2.46 2.46 0 0 1-1.092.812q-.672.266-1.596.266m-.07-3.36q-1.058 0-1.806-.525a3.4 3.4 0 0 1-1.148-1.435q-.399-.903-.399-2.037 0-1.127.392-2.03.399-.903 1.141-1.428t1.778-.525q1.064 0 1.792.518t1.099 1.421q.378.895.378 2.044 0 1.127-.371 2.037-.37.903-1.092 1.435-.721.525-1.764.525m.105-.959q.805 0 1.33-.392.525-.393.784-1.078a4.5 4.5 0 0 0 .259-1.568q0-.89-.259-1.568-.26-.687-.784-1.071-.518-.385-1.309-.385-.811 0-1.344.399a2.36 2.36 0 0 0-.791 1.085q-.252.685-.252 1.54 0 .861.259 1.554.266.686.791 1.085t1.316.399m7.77.742.007-.938 4.557-4.116q.588-.533.777-1.008a2.7 2.7 0 0 0 .196-1.008 2.2 2.2 0 0 0-1.085-1.925 2.1 2.1 0 0 0-1.113-.301q-.644 0-1.148.308a2.3 2.3 0 0 0-.798.812 2.13 2.13 0 0 0-.28 1.099h-1.05q0-.918.434-1.645a3.1 3.1 0 0 1 1.176-1.141 3.35 3.35 0 0 1 1.68-.42q.917 0 1.645.434.735.427 1.155 1.162.427.727.427 1.624 0 .63-.154 1.113a2.8 2.8 0 0 1-.469.889q-.315.405-.805.84l-4.046 3.654-.161-.42h5.635v.987zm11.554.217q-.93 0-1.68-.434a3.25 3.25 0 0 1-1.176-1.176 3.3 3.3 0 0 1-.434-1.68V300a3.25 3.25 0 0 1 1.61-2.856q.75-.435 1.68-.434a3.24 3.24 0 0 1 2.856 1.617q.434.741.434 1.673v3.92q0 .93-.434 1.68a3.252 3.252 0 0 1-2.856 1.61m0-.994q.624 0 1.134-.301.512-.309.812-.819a2.2 2.2 0 0 0 .301-1.127v-4.018q0-.624-.301-1.134a2.24 2.24 0 0 0-.812-.812 2.15 2.15 0 0 0-1.134-.308 2.15 2.15 0 0 0-1.134.308q-.51.3-.812.812-.3.51-.301 1.134v4.018q0 .615.301 1.127.302.51.812.819a2.2 2.2 0 0 0 1.134.301m4.975.777.007-.938 4.557-4.116q.588-.533.777-1.008a2.7 2.7 0 0 0 .196-1.008 2.2 2.2 0 0 0-1.085-1.925 2.1 2.1 0 0 0-1.113-.301q-.644 0-1.148.308a2.3 2.3 0 0 0-.798.812 2.14 2.14 0 0 0-.28 1.099h-1.05q0-.918.434-1.645.435-.729 1.176-1.141a3.35 3.35 0 0 1 1.68-.42q.918 0 1.645.434.735.427 1.155 1.162.427.727.427 1.624 0 .63-.154 1.113a2.8 2.8 0 0 1-.469.889q-.315.405-.805.84l-4.046 3.654-.161-.42h5.635v.987zm12.429.007v-1.953h-4.718v-.98l3.374-7.147h1.155l-3.374 7.147h3.563v-2.94h1.036v2.94h1.099v.98h-1.099V307zM34.474 319.075q-.81 0-1.434-.324a2.44 2.44 0 0 1-.972-.906q-.348-.588-.348-1.374 0-.804.39-1.428.39-.63 1.188-.954l-.012.348a1.95 1.95 0 0 1-1.014-.804 2.3 2.3 0 0 1-.348-1.236q0-.72.33-1.236.33-.522.9-.804a3 3 0 0 1 1.32-.282q.744 0 1.32.282t.906.804q.33.516.33 1.236 0 .678-.336 1.23-.33.552-1.014.81l-.03-.348q.798.318 1.194.948.402.63.402 1.434 0 .786-.354 1.374a2.43 2.43 0 0 1-.978.906q-.624.324-1.44.324m0-.846q.816 0 1.326-.45.51-.456.51-1.308 0-.864-.504-1.308-.504-.45-1.332-.45t-1.326.45q-.498.444-.498 1.308 0 .852.504 1.308.504.45 1.32.45m0-4.368q.72 0 1.17-.366.45-.372.45-1.098t-.45-1.086q-.45-.366-1.17-.366t-1.17.366q-.444.36-.444 1.086t.444 1.098q.45.366 1.17.366m4.789 5.034 3.18-7.782H38.44v-.858h4.944v.858l-3.174 7.782zm5.321-.006.006-.804 3.906-3.528q.504-.456.666-.864.168-.414.168-.864a1.88 1.88 0 0 0-.93-1.65 1.8 1.8 0 0 0-.954-.258q-.552 0-.984.264a1.97 1.97 0 0 0-.684.696 1.8 1.8 0 0 0-.24.942h-.9a2.7 2.7 0 0 1 .372-1.41 2.66 2.66 0 0 1 1.008-.978q.636-.36 1.44-.36a2.7 2.7 0 0 1 1.41.372q.63.366.99.996a2.7 2.7 0 0 1 .366 1.392q0 .54-.132.954a2.4 2.4 0 0 1-.402.762q-.27.348-.69.72l-3.468 3.132-.138-.36h4.83v.846zm7.252.006v-1.026h1.026v1.026zm6.683 0v-1.674h-4.044v-.84l2.892-6.126h.99l-2.892 6.126h3.054v-2.52h.888v2.52h.942v.84h-.942v1.674zm6.094.18a2.8 2.8 0 0 1-1.44-.372 2.77 2.77 0 0 1-1.008-1.008 2.8 2.8 0 0 1-.372-1.44v-3.36a2.79 2.79 0 0 1 1.38-2.448 2.8 2.8 0 0 1 1.44-.372q.798 0 1.434.372a2.74 2.74 0 0 1 1.014 1.014q.372.636.372 1.434v3.36a2.8 2.8 0 0 1-.372 1.44q-.372.636-1.014 1.008a2.8 2.8 0 0 1-1.434.372m0-.852q.534 0 .972-.258.438-.264.696-.702t.258-.966v-3.444q0-.534-.258-.972a1.94 1.94 0 0 0-.696-.696 1.85 1.85 0 0 0-.972-.264q-.534 0-.972.264a1.94 1.94 0 0 0-.696.696 1.9 1.9 0 0 0-.258.972v3.444q0 .528.258.966t.696.702q.438.258.972.258m7.324.852a2.8 2.8 0 0 1-1.44-.372 2.77 2.77 0 0 1-1.008-1.008 2.8 2.8 0 0 1-.372-1.44v-3.36a2.79 2.79 0 0 1 1.38-2.448 2.8 2.8 0 0 1 1.44-.372q.798 0 1.434.372a2.74 2.74 0 0 1 1.014 1.014q.372.636.372 1.434v3.36a2.8 2.8 0 0 1-.372 1.44q-.372.636-1.014 1.008a2.8 2.8 0 0 1-1.434.372m0-.852q.534 0 .972-.258.438-.264.696-.702t.258-.966v-3.444q0-.534-.258-.972a1.94 1.94 0 0 0-.696-.696 1.85 1.85 0 0 0-.972-.264q-.534 0-.972.264a1.94 1.94 0 0 0-.696.696 1.9 1.9 0 0 0-.258.972v3.444q0 .528.258.966t.696.702q.438.258.972.258"/><path fill="#000" fill-opacity=".7" d="M34.661 297v-9.093H31.14v-.987h8.071v.987H35.69V297zm4.975 0v-7.56h.924v1.82l-.182-.238q.126-.337.33-.616.203-.288.44-.469.294-.26.686-.392.392-.14.791-.161.4-.028.728.056v.966a2.5 2.5 0 0 0-.903-.049 1.7 1.7 0 0 0-.903.392 1.9 1.9 0 0 0-.567.707 3 3 0 0 0-.252.868 7 7 0 0 0-.063.903V297zm6.921.21q-.855 0-1.435-.308a2.1 2.1 0 0 1-.86-.819 2.24 2.24 0 0 1-.288-1.113q0-.617.245-1.05.251-.442.68-.721.432-.28 1-.427.574-.14 1.267-.245.7-.113 1.365-.189.672-.084 1.176-.161l-.364.224q.022-1.12-.434-1.659-.454-.54-1.582-.539-.777 0-1.316.35-.532.35-.749 1.106l-1-.294q.258-1.015 1.042-1.575.785-.56 2.037-.56 1.035 0 1.757.392.727.385 1.03 1.12.138.329.181.735t.042.826V297h-.917v-1.897l.266.112q-.386.972-1.197 1.484-.812.51-1.946.511m.12-.889q.72 0 1.26-.259.538-.26.867-.707a2.4 2.4 0 0 0 .427-1.022q.084-.365.091-.798.007-.441.007-.658l.392.203q-.525.07-1.14.14-.61.07-1.205.161-.588.09-1.064.217a2.9 2.9 0 0 0-.623.259q-.3.16-.497.434a1.16 1.16 0 0 0-.189.679q0 .328.161.637.169.307.532.511.37.203.98.203m10.956.679v-3.857q0-.63-.119-1.155a2.7 2.7 0 0 0-.385-.924 1.76 1.76 0 0 0-.679-.616q-.412-.217-1.008-.217-.546 0-.966.189a1.9 1.9 0 0 0-.7.546 2.4 2.4 0 0 0-.427.854 4.1 4.1 0 0 0-.147 1.148l-.728-.161q0-1.163.406-1.953.406-.792 1.12-1.197.714-.406 1.638-.406.68 0 1.183.21.511.21.861.567.358.357.574.819.218.454.315.973.099.51.098 1.022V297zm-5.467 0v-7.56h.931v1.862h.105V297zm11.14.203q-1.329 0-2.19-.574a2.4 2.4 0 0 1-1.05-1.596l1.05-.175q.168.643.763 1.029.602.378 1.484.378.86 0 1.358-.357a1.16 1.16 0 0 0 .497-.987q0-.351-.161-.567-.154-.224-.637-.413a15 15 0 0 0-1.442-.448q-1.03-.28-1.61-.56-.582-.28-.826-.644-.245-.372-.245-.903 0-.645.364-1.127.363-.49 1.008-.756.644-.273 1.498-.273.855 0 1.526.28.68.273 1.092.77t.49 1.155l-1.05.189a1.5 1.5 0 0 0-.665-1.05q-.554-.393-1.407-.406-.805-.022-1.31.308-.503.321-.503.861 0 .3.182.518.181.21.658.399.484.188 1.372.413 1.043.266 1.638.56t.847.693.252.987q0 1.07-.798 1.687-.791.609-2.184.609m6.698.007q-.853 0-1.435-.308a2.1 2.1 0 0 1-.86-.819 2.24 2.24 0 0 1-.288-1.113q0-.617.245-1.05.252-.442.68-.721.433-.28 1-.427.574-.14 1.267-.245.7-.113 1.365-.189.672-.084 1.176-.161l-.364.224q.022-1.12-.434-1.659-.454-.54-1.582-.539-.776 0-1.316.35-.531.35-.749 1.106l-1-.294q.258-1.015 1.042-1.575t2.037-.56q1.037 0 1.757.392.729.385 1.03 1.12.14.329.181.735.042.405.042.826V297h-.917v-1.897l.266.112q-.384.972-1.197 1.484-.812.51-1.946.511m.12-.889q.72 0 1.26-.259.538-.26.867-.707.33-.456.427-1.022.085-.365.091-.798.007-.441.007-.658l.392.203q-.525.07-1.14.14-.61.07-1.205.161-.587.09-1.064.217-.321.09-.623.259-.3.16-.497.434a1.16 1.16 0 0 0-.189.679q0 .328.161.637.168.307.532.511.371.203.98.203m8.633.889q-1.141 0-1.932-.511a3.26 3.26 0 0 1-1.204-1.407q-.406-.903-.42-2.072.014-1.19.434-2.086a3.2 3.2 0 0 1 1.21-1.4q.791-.504 1.919-.504 1.148 0 1.995.56.854.56 1.169 1.533l-1.008.322a2.13 2.13 0 0 0-.847-1.05 2.34 2.34 0 0 0-1.316-.378q-.833 0-1.38.385a2.24 2.24 0 0 0-.811 1.057q-.267.678-.273 1.561.013 1.357.63 2.184.615.819 1.834.819.77 0 1.309-.35.546-.358.826-1.036l1.036.308q-.42 1.008-1.232 1.54-.812.525-1.94.525m8.732-.21a5 5 0 0 1-1.26.105 2.8 2.8 0 0 1-1.106-.266 1.6 1.6 0 0 1-.735-.742 2.2 2.2 0 0 1-.224-.847 31 31 0 0 1-.014-.987v-6.923h1.022v6.881q0 .476.007.798.014.315.147.56.252.468.798.56.552.09 1.365-.042zm-4.956-6.678v-.882h4.956v.882zm6.585-2.317v-1.155h1.029v1.155zm0 8.995v-7.56h1.029V297zm6.285.21q-1.127 0-1.925-.511a3.33 3.33 0 0 1-1.225-1.414q-.427-.903-.427-2.072 0-1.19.434-2.086.434-.897 1.232-1.393.804-.504 1.91-.504 1.135 0 1.933.511.805.504 1.225 1.407.427.895.427 2.065 0 1.19-.427 2.093a3.27 3.27 0 0 1-1.232 1.4q-.806.504-1.925.504m0-.987q1.26 0 1.876-.833.616-.84.616-2.177 0-1.373-.623-2.184-.616-.812-1.87-.812-.846 0-1.4.385a2.3 2.3 0 0 0-.818 1.057q-.267.672-.266 1.554 0 1.365.63 2.191.63.819 1.855.819m10.588.777v-3.857q0-.63-.119-1.155a2.7 2.7 0 0 0-.385-.924 1.76 1.76 0 0 0-.679-.616q-.414-.217-1.008-.217-.546 0-.966.189a1.9 1.9 0 0 0-.7.546 2.4 2.4 0 0 0-.427.854 4.1 4.1 0 0 0-.147 1.148l-.728-.161q0-1.163.406-1.953.406-.792 1.12-1.197.714-.406 1.638-.406.678 0 1.183.21.51.21.861.567.357.357.574.819.216.454.315.973.098.51.098 1.022V297zm-5.467 0v-7.56h.931v1.862h.105V297zm11.14.203q-1.33 0-2.191-.574a2.4 2.4 0 0 1-1.05-1.596l1.05-.175q.168.643.763 1.029.603.378 1.484.378.861 0 1.358-.357.498-.365.497-.987 0-.351-.161-.567-.153-.224-.637-.413a15 15 0 0 0-1.442-.448q-1.028-.28-1.61-.56-.58-.28-.826-.644-.245-.372-.245-.903 0-.645.364-1.127.364-.49 1.008-.756.645-.273 1.498-.273.855 0 1.526.28.68.273 1.092.77.414.497.49 1.155l-1.05.189a1.5 1.5 0 0 0-.665-1.05q-.552-.393-1.407-.406-.805-.022-1.309.308-.504.321-.504.861 0 .3.182.518.183.21.658.399.483.188 1.372.413 1.044.266 1.638.56.595.294.847.693t.252.987q0 1.07-.798 1.687-.79.609-2.184.609"/><rect width="77.708" height="26.601" x="454.727" y="206.929" fill="#8296FD" rx="13.3"/><path fill="#000" d="M491.483 215.353q.997 0 1.804.484a3.5 3.5 0 0 1 1.29 1.305q.476.82.476 1.847v3.665q0 1.055-.476 1.891a3.5 3.5 0 0 1-1.305 1.319q-.82.476-1.869.476a3.6 3.6 0 0 1-1.671-.395 3.56 3.56 0 0 1-1.261-1.107l.821-.682q.338.52.894.836.564.315 1.217.315.747 0 1.319-.352.579-.359.909-.938a2.5 2.5 0 0 0 .337-1.268v-2.302l.264.308a3.5 3.5 0 0 1-1.209 1.173 3.14 3.14 0 0 1-1.642.447 3.4 3.4 0 0 1-1.767-.469 3.5 3.5 0 0 1-1.246-1.261 3.5 3.5 0 0 1-.454-1.766q0-.975.484-1.774a3.56 3.56 0 0 1 1.297-1.275 3.47 3.47 0 0 1 1.788-.477m0 1.041q-.689 0-1.253.337-.564.33-.902.894a2.45 2.45 0 0 0-.329 1.254q0 .689.329 1.253.33.564.895.902.564.33 1.253.33t1.253-.33q.573-.338.902-.902.337-.564.337-1.253 0-.682-.337-1.246a2.5 2.5 0 0 0-.894-.902 2.4 2.4 0 0 0-1.254-.337m5.521 9.727v-1.254h1.254v1.254zm7.087.219q-.99 0-1.803-.476a3.65 3.65 0 0 1-1.29-1.305 3.66 3.66 0 0 1-.477-1.861v-3.658q0-1.063.477-1.891.476-.835 1.297-1.312.828-.484 1.877-.484.901 0 1.671.396.776.396 1.268 1.107l-.828.681a2.5 2.5 0 0 0-.895-.843 2.4 2.4 0 0 0-1.216-.315q-.741 0-1.32.359a2.6 2.6 0 0 0-.909.946q-.33.579-.33 1.261v2.301l-.271-.308a3.6 3.6 0 0 1 1.21-1.172 3.16 3.16 0 0 1 1.642-.447q.981 0 1.766.469a3.44 3.44 0 0 1 1.708 3.027q0 .975-.491 1.774a3.65 3.65 0 0 1-1.298 1.275 3.44 3.44 0 0 1-1.788.476m0-1.048q.689 0 1.253-.33.572-.328.902-.894.337-.564.337-1.253a2.4 2.4 0 0 0-.337-1.254 2.44 2.44 0 0 0-.894-.901 2.4 2.4 0 0 0-1.254-.337q-.689 0-1.253.337-.564.33-.902.901-.33.566-.33 1.254 0 .682.33 1.246t.895.901q.564.33 1.253.33m6.547.829-.733-.733 9.844-9.822.733.725zm7.645.219q-.726 0-1.327-.351a2.8 2.8 0 0 1-.952-.953 2.55 2.55 0 0 1-.36-1.334q0-.719.367-1.32.366-.6.967-.96a2.5 2.5 0 0 1 1.305-.359q.726 0 1.327.359.601.352.953.953.359.594.359 1.327 0 .732-.359 1.334a2.7 2.7 0 0 1-.953.953 2.6 2.6 0 0 1-1.327.351m0-.974q.447 0 .828-.228.382-.226.609-.601.227-.38.227-.835t-.227-.829a1.7 1.7 0 0 0-.609-.608 1.6 1.6 0 0 0-.828-.227q-.454 0-.835.227-.374.228-.609.608-.227.375-.227.829t.227.835q.235.375.609.601.38.228.835.228m-6.179-4.743q-.726 0-1.327-.352-.6-.359-.96-.952a2.6 2.6 0 0 1-.352-1.334q0-.719.367-1.32t.967-.96a2.5 2.5 0 0 1 1.305-.359 2.5 2.5 0 0 1 1.319.359q.601.351.961.953.359.594.359 1.327 0 .732-.359 1.334-.36.593-.961.952a2.53 2.53 0 0 1-1.319.352m0-.975q.454 0 .828-.227.381-.227.609-.601.227-.382.227-.835 0-.455-.227-.829a1.7 1.7 0 0 0-.609-.608 1.56 1.56 0 0 0-.828-.227q-.454 0-.835.227-.375.227-.602.608a1.57 1.57 0 0 0-.227.829q0 .453.227.835.227.374.602.601.38.227.835.227"/><path stroke="#000" stroke-width=".733" d="m468.215 222.142 3.421-3.327 1.368 1.996 3.421-3.327m0 0h-2.395m2.395 0v1.996"/><path fill="#000" fill-opacity=".7" d="M474.504 194.291q-2.225 0-3.935-.887-1.709-.903-2.676-2.499t-.968-3.725q0-2.08.984-3.757 1-1.677 2.999-2.58l-.048 1.048q-1.629-.79-2.5-2.226a6.1 6.1 0 0 1-.871-3.209q0-1.967.903-3.386.904-1.419 2.484-2.193t3.628-.774 3.628.774q1.581.774 2.484 2.193t.903 3.386q0 1.758-.823 3.193-.822 1.42-2.531 2.242l-.065-1.032q2 .87 2.999 2.564 1.017 1.677 1.016 3.757 0 2.129-.983 3.725-.968 1.596-2.693 2.499-1.71.888-3.935.887m0-2.741q2.032 0 3.29-1.113 1.274-1.128 1.274-3.257 0-2.145-1.258-3.257-1.242-1.13-3.306-1.129-2.048 0-3.306 1.129-1.24 1.112-1.241 3.257 0 2.129 1.257 3.257 1.259 1.113 3.29 1.113m0-11.514q1.774 0 2.87-.887 1.097-.903 1.097-2.693t-1.097-2.676q-1.096-.903-2.87-.903-1.757 0-2.87.903-1.097.887-1.097 2.676t1.097 2.693q1.113.887 2.87.887m18.668 14.255a7.6 7.6 0 0 1-3.338-.741 8 8 0 0 1-2.629-2.032 8 8 0 0 1-1.548-3l2.758-.741a4.7 4.7 0 0 0 1.032 1.983 5.5 5.5 0 0 0 1.725 1.29q1 .452 2.08.452 1.42 0 2.548-.678a5.14 5.14 0 0 0 1.806-1.822 4.9 4.9 0 0 0 .661-2.499q0-1.403-.693-2.532a5 5 0 0 0-1.822-1.806 4.9 4.9 0 0 0-2.5-.661q-1.531 0-2.628.645-1.08.629-1.709 1.548l-2.548-.968.709-12.142h12.465v2.725h-11.078l1.274-1.193-.597 9.723-.629-.822a6.7 6.7 0 0 1 2.306-1.596 7.1 7.1 0 0 1 2.758-.565q2.16 0 3.87 1.016a7.36 7.36 0 0 1 2.709 2.741q1 1.726 1 3.887 0 2.145-1.097 3.918a8.34 8.34 0 0 1-2.918 2.822q-1.807 1.048-3.967 1.048m14.419-.483-1.936-1.935 21.318-21.286 1.936 1.935zm16.48.483a5.7 5.7 0 0 1-2.919-.774 6.1 6.1 0 0 1-2.096-2.096q-.79-1.323-.79-2.935 0-1.58.806-2.902a6.15 6.15 0 0 1 2.129-2.113 5.5 5.5 0 0 1 2.87-.79q1.596 0 2.919.79a5.77 5.77 0 0 1 2.096 2.096q.79 1.306.79 2.919t-.79 2.935a5.9 5.9 0 0 1-2.096 2.096 5.7 5.7 0 0 1-2.919.774m0-2.531q.886 0 1.629-.452a3.34 3.34 0 0 0 1.193-1.193 3.1 3.1 0 0 0 .451-1.629q0-.886-.451-1.629a3.2 3.2 0 0 0-1.193-1.193 3.1 3.1 0 0 0-1.629-.451q-.886 0-1.629.451-.741.435-1.193 1.193a3.1 3.1 0 0 0-.452 1.629q0 .886.452 1.629.452.741 1.193 1.193a3.1 3.1 0 0 0 1.629.452m-13.578-10.047a5.7 5.7 0 0 1-2.919-.774 6.06 6.06 0 0 1-2.112-2.096q-.774-1.322-.774-2.935 0-1.58.806-2.902a6.16 6.16 0 0 1 2.129-2.113 5.5 5.5 0 0 1 2.87-.79q1.596 0 2.903.79a5.9 5.9 0 0 1 2.112 2.096q.79 1.306.79 2.919t-.79 2.935a6.06 6.06 0 0 1-2.112 2.096q-1.307.774-2.903.774m0-2.531q.887 0 1.629-.452a3.34 3.34 0 0 0 1.193-1.193 3.1 3.1 0 0 0 .452-1.629 3.07 3.07 0 0 0-.452-1.628 3.2 3.2 0 0 0-1.193-1.194 3.1 3.1 0 0 0-1.629-.451q-.887 0-1.629.451-.741.435-1.193 1.194a3.07 3.07 0 0 0-.451 1.628q0 .886.451 1.629.452.741 1.193 1.193a3.1 3.1 0 0 0 1.629.452"/><path stroke="#000" stroke-dasharray="1.47 1.47" stroke-opacity=".14" stroke-width="1.466" d="M31 67.198h501.434"/><path stroke="#000" stroke-dasharray="0.73 0.73" stroke-opacity=".14" stroke-width="1.466" d="M31 183.639h392.937"/><path stroke="#8296FD" stroke-dasharray="1.47 1.47" stroke-width="1.466" d="m130.7 118.308.536 116.653"/><path fill="#8296FD" d="M127.324 65.635a3.91 3.91 0 1 0 7.818.157 3.91 3.91 0 0 0-7.818-.157m3.176.064-.015.732 1.466.03.015-.732zm-.044 2.195-.03 1.463 1.466.03.029-1.463zm-.06 2.926-.029 1.464 1.466.03.029-1.464zm-.059 2.927-.029 1.463 1.465.03.03-1.463zm-.059 2.926-.029 1.464 1.465.03.03-1.464zm-.059 2.927-.03 1.463 1.466.03.03-1.464zm-.059 2.926-.03 1.464 1.466.03.029-1.464zm-.059 2.927-.03 1.463 1.466.03.029-1.464zm-.06 2.926-.029 1.463 1.465.03.03-1.463zm-.059 2.927-.015.731 1.466.03.015-.732z"/><rect width="42.66" height="18.796" x="110.174" y="94.969" fill="#fff" rx="9.398"/><path fill="#000" d="M120.141 107.018v-2.022h-2.022v-.646h2.022v-2.022h.646v2.022h2.017v.646h-2.017v2.022zm6.246 1.503q-.693 0-1.226-.277a2.1 2.1 0 0 1-.832-.774q-.297-.504-.297-1.175 0-.688.333-1.222.334-.539 1.016-.815l-.01.297a1.66 1.66 0 0 1-.867-.687 1.96 1.96 0 0 1-.298-1.057q0-.616.283-1.057a1.87 1.87 0 0 1 .769-.688 2.5 2.5 0 0 1 1.129-.241q.636 0 1.129.241.492.241.775.688.282.44.282 1.057 0 .58-.288 1.052-.282.471-.867.692l-.025-.297q.682.272 1.021.81.343.538.343 1.227 0 .671-.302 1.175-.303.497-.837.774-.533.277-1.231.277m0-.723q.698 0 1.134-.385.436-.39.436-1.118 0-.74-.431-1.119-.43-.385-1.139-.385-.708 0-1.134.385-.426.38-.426 1.119 0 .728.431 1.118.431.385 1.129.385m0-3.735q.615 0 1-.313.385-.318.385-.939t-.385-.929q-.385-.313-1-.313-.616 0-1.001.313-.38.308-.379.929 0 .621.379.939.385.313 1.001.313m6.112 4.458q-.683 0-1.232-.318a2.37 2.37 0 0 1-.862-.862 2.4 2.4 0 0 1-.318-1.231v-2.873a2.39 2.39 0 0 1 1.18-2.094 2.4 2.4 0 0 1 1.232-.318q.682 0 1.226.318.549.318.867.867.318.544.318 1.227v2.873q0 .682-.318 1.231a2.384 2.384 0 0 1-2.093 1.18m0-.728q.456 0 .831-.221.375-.225.595-.6a1.6 1.6 0 0 0 .221-.826v-2.945a1.6 1.6 0 0 0-.221-.832 1.66 1.66 0 0 0-1.426-.82q-.457 0-.832.225a1.66 1.66 0 0 0-.595.595 1.6 1.6 0 0 0-.22.832v2.945q0 .451.22.826.221.375.595.6.375.22.832.221m4.57.574-.513-.513 6.89-6.875.513.508zm5.351.154q-.507 0-.928-.246-.417-.252-.667-.667a1.8 1.8 0 0 1-.252-.934q0-.503.257-.923.256-.422.677-.672.42-.252.913-.252.508 0 .929.252.42.246.667.667.252.415.251.928 0 .513-.251.934a1.9 1.9 0 0 1-.667.667q-.421.246-.929.246m0-.682q.313 0 .58-.159t.426-.421q.159-.267.159-.585t-.159-.58a1.2 1.2 0 0 0-.426-.425 1.1 1.1 0 0 0-.58-.159q-.318 0-.585.159a1.3 1.3 0 0 0-.426.425 1.1 1.1 0 0 0-.159.58q0 .318.159.585.165.262.426.421.267.159.585.159m-4.325-3.32q-.508 0-.929-.246a1.94 1.94 0 0 1-.672-.667 1.8 1.8 0 0 1-.246-.934q0-.503.256-.923t.678-.673q.42-.25.913-.251.508 0 .923.251.421.247.673.667.25.417.251.929 0 .513-.251.934a1.94 1.94 0 0 1-.673.667 1.8 1.8 0 0 1-.923.246m0-.682q.318 0 .58-.159.266-.159.426-.421.159-.267.159-.585t-.159-.58a1.2 1.2 0 0 0-.426-.425 1.1 1.1 0 0 0-.58-.16q-.318 0-.585.16a1.23 1.23 0 0 0-.421.425 1.1 1.1 0 0 0-.159.58q0 .318.159.585.16.262.421.421.267.159.585.159"/><path fill="#8296FD" d="M31 173.743h.733v61.254H31z"/><path fill="#B4E0EC" d="M37.85 207.773h.733v27.224h-.733z"/><path fill="#8296FD" d="M44.711 190.758h.733v44.239h-.733zM51.561 199.267h.733v35.732h-.733zM58.411 195.864h.733v39.135h-.733zM65.272 216.282h.733v18.717h-.733zM72.122 180.549h.733v54.448h-.733zM78.977 206.072h.733v28.926h-.733zM85.833 223.088h.733v11.911h-.733zM92.683 209.476h.733v25.523h-.733z"/><path fill="#B4E0EC" d="M99.538 199.267h.733v35.732h-.733z"/><path fill="#8296FD" d="M106.394 199.267h.733v35.732h-.733zM113.244 219.685h.733v15.314h-.733zM120.099 214.579h.733v20.418h-.733zM126.955 194.162h.733v40.836h-.733zM133.805 160.13h.733v74.866h-.733zM140.66 180.549h.733v54.448h-.733zM147.516 187.355h.733v47.642h-.733z"/><path fill="#B4E0EC" d="M154.365 202.67h.733v32.329h-.733z"/><path fill="#8296FD" d="M161.221 212.878h.733v22.12h-.733zM168.077 165.236h.733v69.762h-.733zM174.932 173.743h.733v61.254h-.733zM181.788 126.1h.733v108.897h-.733zM188.637 114.191h.733v120.807h-.733z"/><path fill="#B4E0EC" d="M195.493 155.027h.733v79.971h-.733z"/><path fill="#8296FD" d="M202.349 138.012h.733v96.986h-.733zM209.198 124.4h.733v110.598h-.733z"/><path fill="#B4E0EC" d="M216.054 117.594h.733v117.404h-.733z"/><path fill="#8296FD" d="M222.909 149.922h.733v85.075h-.733z"/><path fill="#B4E0EC" d="M229.759 194.162h.733v40.836h-.733z"/><path fill="#8296FD" d="M236.615 204.371h.733v30.627h-.733zM243.47 160.13h.733v74.866h-.733z"/><path fill="#B4E0EC" d="M250.32 173.743h.733v61.254h-.733z"/><path fill="#8296FD" d="M257.176 158.43h.733v76.568h-.733zM264.031 187.355h.733v47.642h-.733zM270.881 161.833h.733v73.165h-.733z"/><path fill="#B4E0EC" d="M277.737 195.864h.733v39.135h-.733z"/><path fill="#8296FD" d="M284.592 206.072h.733v28.926h-.733z"/><path fill="#B4E0EC" d="M291.442 190.758h.733v44.239h-.733z"/><path fill="#8296FD" d="M298.298 173.743h.733v61.254h-.733z"/><path fill="#B4E0EC" d="M305.153 180.549h.733v54.448h-.733z"/><path fill="#8296FD" d="M312.003 200.967h.733v34.03h-.733zM318.858 197.564h.733v37.433h-.733zM325.714 194.162h.733v40.836h-.733zM332.564 158.43h.733v76.568h-.733zM339.425 219.685h.733v15.314h-.733zM346.275 146.521h.733v88.478h-.733z"/><path fill="#B4E0EC" d="M353.125 155.027h.733v79.971h-.733z"/><path fill="#8296FD" d="M359.98 190.758h.733v44.239h-.733zM366.836 149.922h.733v85.075h-.733z"/><path fill="#B4E0EC" d="M373.686 158.43h.733v76.568h-.733z"/><path fill="#8296FD" d="M380.541 126.1h.733v108.897h-.733zM387.397 153.327h.733v81.672h-.733z"/><path fill="#B4E0EC" d="M394.247 160.13h.733v74.866h-.733z"/><path fill="#8296FD" d="M401.102 151.624h.733v83.374h-.733zM407.958 138.012h.733v96.986h-.733z"/><path fill="#B4E0EC" d="M414.807 172.042h.733v62.956h-.733z"/><path fill="#8296FD" d="M421.663 178.848h.733v56.15h-.733z"/><path fill="#676767" d="M41.146 54.815v-.833h.358q.428 0 .68-.223.258-.217.258-.733v-7.359h.856v7.576q0 .791-.381 1.179-.376.393-1.155.393zm1.296-10.35v-.968h.856v.968zm4.397 7.71q-.715 0-1.202-.257a1.75 1.75 0 0 1-.72-.686 1.9 1.9 0 0 1-.241-.932q0-.516.205-.88.21-.37.569-.604a2.9 2.9 0 0 1 .838-.358q.48-.117 1.062-.205.586-.093 1.143-.158.563-.07.985-.135l-.305.188q.017-.94-.363-1.39-.381-.452-1.326-.452-.65 0-1.102.293-.446.294-.627.927l-.839-.246q.217-.85.874-1.32.657-.468 1.706-.469.869 0 1.472.328.61.322.862.939.117.275.153.615t.035.692V52h-.769v-1.59l.223.095q-.322.814-1.002 1.243-.68.428-1.63.428m.1-.744a2.4 2.4 0 0 0 1.056-.217 1.91 1.91 0 0 0 1.084-1.448q.07-.305.077-.669.006-.37.005-.55l.329.17q-.44.057-.956.117-.51.059-1.008.134-.493.077-.892.182-.27.076-.522.217-.252.135-.416.364a.98.98 0 0 0-.158.569q0 .275.135.533.14.258.445.428.31.17.821.17m9.179.569v-3.231q0-.527-.1-.968a2.2 2.2 0 0 0-.322-.773 1.5 1.5 0 0 0-.569-.517q-.345-.18-.844-.181-.458 0-.81.158-.346.158-.586.457a2 2 0 0 0-.358.716 3.4 3.4 0 0 0-.123.961l-.61-.134q0-.975.34-1.636.34-.663.939-1.003.598-.34 1.372-.34.57 0 .99.176.43.175.722.475.3.299.48.686.183.381.265.815.082.427.082.856V52zm-4.58 0v-6.333h.78v1.56h.088V52zM82.299 52v-6.802q0-.247.023-.487.03-.24.111-.457.083-.223.258-.41.194-.212.422-.306.23-.1.475-.128.253-.03.493-.03h.81v.727h-.751q-.493 0-.74.24-.24.241-.24.757V52zm-1.097-5.594v-.739h3.688v.739zm7.077 5.77q-.926 0-1.607-.41-.674-.411-1.05-1.156-.374-.745-.374-1.747 0-1.038.369-1.794a2.75 2.75 0 0 1 1.038-1.167q.675-.41 1.589-.41.938 0 1.6.433.664.428 1.004 1.232.34.803.31 1.917h-.88v-.305q-.023-1.23-.533-1.859-.504-.627-1.478-.627-1.02 0-1.565.662-.54.663-.54 1.889 0 1.196.54 1.858.544.657 1.542.657.68 0 1.185-.31.51-.318.803-.91l.803.311q-.376.827-1.108 1.284a3.06 3.06 0 0 1-1.648.452m-2.422-3.102v-.721h4.838v.72zm9.447 3.102q-.875 0-1.478-.44a2.76 2.76 0 0 1-.915-1.202 4.5 4.5 0 0 1-.31-1.706q0-.962.31-1.713a2.7 2.7 0 0 1 .927-1.19q.61-.434 1.5-.434.87 0 1.49.44.622.44.95 1.196.334.756.334 1.7 0 .951-.334 1.707a2.85 2.85 0 0 1-.962 1.202q-.627.44-1.512.44M92.454 52v-8.444h.868v3.677h-.094V52zm2.762-.627q.662 0 1.102-.335.44-.333.657-.909a3.6 3.6 0 0 0 .223-1.301q0-.716-.217-1.29a2 2 0 0 0-.663-.91q-.44-.334-1.12-.334-.663 0-1.102.323-.435.323-.651.897-.217.57-.217 1.314 0 .732.217 1.313.216.575.657.903.44.33 1.114.329M130.277 52l.006-4.157q0-.734-.411-1.15-.405-.422-1.032-.422a1.6 1.6 0 0 0-.698.164q-.34.165-.563.528-.217.363-.217.95l-.51-.147q-.018-.68.264-1.19.288-.51.786-.792a2.26 2.26 0 0 1 1.137-.287q.957 0 1.531.592.575.586.575 1.59L131.139 52zm-7.559 0v-6.333h.774v1.56h.094V52zm3.788 0 .006-4.099q0-.755-.405-1.19-.398-.44-1.055-.44t-1.061.451q-.405.447-.405 1.19l-.516-.28q0-.61.287-1.091a2.05 2.05 0 0 1 .786-.762q.498-.282 1.132-.282.603 0 1.073.258.475.258.745.75.269.494.269 1.197L127.356 52zm7.971.176q-.716 0-1.202-.258a1.74 1.74 0 0 1-.721-.686 1.87 1.87 0 0 1-.241-.932q0-.516.205-.88a1.76 1.76 0 0 1 .569-.604q.364-.234.839-.358.48-.117 1.061-.205.586-.093 1.144-.158.562-.07.985-.135l-.305.188q.017-.94-.364-1.39-.381-.452-1.325-.452-.65 0-1.102.293-.446.294-.628.927l-.838-.246q.217-.85.873-1.32.657-.468 1.707-.469.867 0 1.472.328.609.322.862.939.117.275.152.615t.035.692V52h-.768v-1.59l.223.095q-.322.814-1.003 1.243-.68.428-1.63.428m.1-.745a2.4 2.4 0 0 0 1.055-.217q.452-.216.727-.592.276-.381.358-.856.07-.305.076-.669.006-.37.006-.55l.328.17q-.44.057-.955.117-.51.059-1.009.134a9 9 0 0 0-.891.182q-.27.076-.522.217a1.2 1.2 0 0 0-.416.364.97.97 0 0 0-.159.569q0 .275.135.533.14.258.446.428.31.17.821.17m4.605.569v-6.333h.774v1.525l-.153-.2q.106-.281.276-.516.17-.24.369-.393.247-.216.575-.328.328-.117.663-.135.334-.023.609.047v.81a2.1 2.1 0 0 0-.756-.042q-.411.047-.756.329a1.56 1.56 0 0 0-.475.592q-.159.34-.212.727a5.5 5.5 0 0 0-.052.756V52zM169.988 52.176q-.716 0-1.202-.258a1.74 1.74 0 0 1-.721-.686 1.87 1.87 0 0 1-.241-.932q0-.516.205-.88a1.76 1.76 0 0 1 .569-.604q.363-.234.839-.358.48-.117 1.061-.205a27 27 0 0 1 1.143-.158q.564-.07.986-.135l-.305.188q.017-.94-.364-1.39-.381-.452-1.325-.452-.651 0-1.103.293-.446.294-.627.927l-.838-.246q.216-.85.873-1.32.657-.468 1.707-.469.868 0 1.471.328.61.322.862.939.118.275.153.615t.035.692V52h-.768v-1.59l.223.095q-.323.814-1.003 1.243-.68.428-1.63.428m.1-.745a2.4 2.4 0 0 0 1.055-.217 1.9 1.9 0 0 0 .727-.592q.276-.381.358-.856.07-.305.076-.669.006-.37.006-.55l.328.17q-.44.057-.955.117-.511.059-1.009.134-.493.077-.891.182-.27.076-.522.217-.252.135-.417.364a1 1 0 0 0-.158.569q0 .275.135.533.14.258.446.428.31.17.821.17m7.449.745q-.874 0-1.478-.44a2.75 2.75 0 0 1-.915-1.202 4.5 4.5 0 0 1-.311-1.706q0-.962.311-1.713.317-.755.927-1.19t1.501-.434q.868 0 1.489.44t.95 1.196q.334.756.334 1.7 0 .951-.334 1.707a2.85 2.85 0 0 1-.962 1.202q-.627.44-1.512.44m-2.85 2.639v-9.148h.774v4.767h.094v4.38zm2.762-3.442q.662 0 1.102-.335.44-.333.657-.909a3.6 3.6 0 0 0 .223-1.301q0-.716-.217-1.29a2 2 0 0 0-.663-.91q-.44-.334-1.12-.334-.663 0-1.102.323-.435.323-.651.897-.217.57-.217 1.314 0 .732.217 1.313.216.575.656.903.44.33 1.115.329m4.184.627v-6.333h.774v1.525l-.152-.2q.105-.281.275-.516.17-.24.37-.393.246-.216.574-.328.328-.117.663-.135.334-.023.61.047v.81a2.1 2.1 0 0 0-.757-.042 1.44 1.44 0 0 0-.756.329 1.6 1.6 0 0 0-.475.592 2.5 2.5 0 0 0-.211.727 6 6 0 0 0-.053.756V52zM218.248 52l.005-4.157q0-.734-.41-1.15-.405-.422-1.032-.422-.358 0-.698.164-.34.165-.563.528-.216.363-.217.95l-.51-.147q-.018-.68.264-1.19.287-.51.786-.792a2.26 2.26 0 0 1 1.137-.287q.957 0 1.531.592.574.586.574 1.59L219.11 52zm-7.559 0v-6.333h.774v1.56h.094V52zm3.788 0 .006-4.099q0-.755-.405-1.19-.398-.44-1.055-.44t-1.061.451q-.405.447-.405 1.19l-.516-.28q0-.61.287-1.091a2.05 2.05 0 0 1 .786-.762q.498-.282 1.132-.282.603 0 1.073.258.475.258.745.75.269.494.269 1.197L215.327 52zm7.971.176q-.716 0-1.202-.258a1.74 1.74 0 0 1-.721-.686 1.87 1.87 0 0 1-.241-.932q0-.516.205-.88a1.76 1.76 0 0 1 .569-.604q.364-.234.839-.358.48-.117 1.061-.205.586-.093 1.144-.158.562-.07.985-.135l-.305.188q.017-.94-.364-1.39-.381-.452-1.325-.452-.65 0-1.102.293-.447.294-.628.927l-.838-.246q.216-.85.873-1.32.657-.468 1.707-.469.867 0 1.472.328.609.322.862.939.117.275.152.615t.035.692V52h-.768v-1.59l.223.095q-.322.814-1.003 1.243-.68.428-1.63.428m.1-.745a2.4 2.4 0 0 0 1.055-.217q.452-.216.727-.592.276-.381.358-.856.07-.305.076-.669.006-.37.006-.55l.328.17q-.44.057-.955.117-.511.059-1.009.134a9 9 0 0 0-.891.182q-.27.076-.522.217-.252.135-.417.364a1 1 0 0 0-.158.569q0 .275.135.533.14.258.446.428.31.17.821.17m5.153 3.384 1.225-3.325.018.985-2.774-6.808h.915l2.275 5.694h-.375l2.099-5.694h.88l-3.401 9.148zM256.675 54.815v-.833h.357q.429 0 .681-.223.258-.217.258-.733v-7.359h.856v7.576q0 .791-.381 1.179-.376.393-1.156.393zm1.296-10.35v-.968h.856v.968zm5.007 7.693q-.568 0-.997-.176a2.2 2.2 0 0 1-.721-.475 2.5 2.5 0 0 1-.475-.68 3.5 3.5 0 0 1-.264-.815 4.6 4.6 0 0 1-.082-.862v-3.483h.868v3.231q0 .521.1.968t.316.78q.223.327.569.51.352.18.85.181.458 0 .804-.158.351-.158.586-.452.24-.3.364-.72a3.5 3.5 0 0 0 .123-.962l.61.134q0 .975-.341 1.636a2.35 2.35 0 0 1-.938 1.003q-.598.34-1.372.34m2.129-.158v-1.56h-.088v-4.773h.862V52zm6.986 0v-3.231q0-.527-.099-.968a2.2 2.2 0 0 0-.323-.773 1.47 1.47 0 0 0-.569-.517q-.346-.18-.844-.181a1.95 1.95 0 0 0-.809.158 1.6 1.6 0 0 0-.587.457 2.1 2.1 0 0 0-.357.716 3.4 3.4 0 0 0-.123.961l-.61-.134q0-.975.34-1.636.34-.663.938-1.003t1.372-.34q.569 0 .991.176.429.175.721.475.3.299.481.686.182.381.264.815.082.427.082.856V52zm-4.579 0v-6.333h.78v1.56h.088V52zM296.261 54.815v-.833h.358q.428 0 .68-.223.258-.217.258-.733v-7.359h.856v7.576q0 .791-.381 1.179-.375.393-1.155.393zm1.296-10.35v-.968h.856v.968zm5.008 7.693q-.569 0-.997-.176a2.2 2.2 0 0 1-.721-.475 2.5 2.5 0 0 1-.475-.68 3.4 3.4 0 0 1-.264-.815 4.6 4.6 0 0 1-.082-.862v-3.483h.868v3.231q0 .521.099.968.1.446.317.78.222.327.569.51.351.18.85.181.458 0 .803-.158.352-.158.587-.452.24-.3.363-.72a3.5 3.5 0 0 0 .123-.962l.61.134q0 .975-.34 1.636a2.36 2.36 0 0 1-.938 1.003q-.598.34-1.372.34m2.128-.158v-1.56h-.088v-4.773h.862V52zm2.531 0v-8.62h.862V52zM334.2 52.176q-.715 0-1.202-.258a1.75 1.75 0 0 1-.721-.686 1.9 1.9 0 0 1-.241-.932q0-.516.206-.88.21-.37.569-.604.363-.234.838-.358.481-.117 1.061-.205.586-.093 1.144-.158.563-.07.985-.135l-.305.188q.018-.94-.363-1.39-.382-.452-1.326-.452-.65 0-1.102.293-.445.294-.628.927l-.838-.246q.217-.85.874-1.32.656-.468 1.706-.469.868 0 1.472.328.61.322.862.939.117.275.152.615.036.34.035.692V52h-.768v-1.59l.223.095q-.322.814-1.003 1.243-.68.428-1.63.428m.1-.745q.604 0 1.055-.217.452-.216.728-.592a2 2 0 0 0 .357-.856 3 3 0 0 0 .076-.669q.006-.37.006-.55l.329.17q-.44.057-.956.117-.51.059-1.009.134a9 9 0 0 0-.891.182q-.27.076-.522.217a1.2 1.2 0 0 0-.416.364.97.97 0 0 0-.159.569q0 .275.135.533.141.258.446.428.31.17.821.17m7.027.727q-.569 0-.997-.176a2.2 2.2 0 0 1-.721-.475 2.5 2.5 0 0 1-.475-.68 3.4 3.4 0 0 1-.264-.815 4.6 4.6 0 0 1-.082-.862v-3.483h.868v3.231q0 .521.099.968.1.446.317.78.222.327.569.51.351.18.85.181.458 0 .803-.158.352-.158.587-.452.24-.3.363-.72a3.5 3.5 0 0 0 .123-.962l.61.134q0 .975-.34 1.636a2.36 2.36 0 0 1-.938 1.003q-.598.34-1.372.34m2.128-.158v-1.56h-.088v-4.773h.862V52zm4.929 2.99q-.487 0-.962-.146a2.6 2.6 0 0 1-.868-.452 2.5 2.5 0 0 1-.668-.797l.78-.434q.264.528.739.756.48.235.979.235.686 0 1.108-.258.429-.252.622-.75.193-.499.187-1.244v-1.688h.1v-4.545h.768v6.245q0 .27-.017.516a4 4 0 0 1-.053.493q-.111.71-.463 1.166a2.07 2.07 0 0 1-.915.68q-.563.224-1.337.224m-.059-2.814q-.885 0-1.513-.44a2.86 2.86 0 0 1-.961-1.202q-.335-.756-.335-1.706 0-.945.329-1.7.334-.758.956-1.197t1.489-.44q.892 0 1.501.434.61.434.921 1.19.316.75.316 1.713 0 .944-.31 1.706a2.75 2.75 0 0 1-.915 1.202q-.604.44-1.478.44m.088-.803q.675 0 1.114-.329t.657-.903q.217-.58.217-1.313 0-.745-.217-1.314a1.9 1.9 0 0 0-.657-.897q-.433-.322-1.096-.322-.68-.001-1.126.334a2 2 0 0 0-.663.909q-.21.575-.211 1.29 0 .72.217 1.301.224.576.663.91t1.102.334M378.737 52.17q-1.115 0-1.836-.48a2 2 0 0 1-.879-1.338l.879-.146q.14.54.64.862.504.316 1.243.316.721 0 1.137-.299a.97.97 0 0 0 .417-.827.78.78 0 0 0-.135-.475q-.129-.187-.534-.346-.404-.157-1.208-.375-.861-.234-1.348-.469t-.692-.54a1.34 1.34 0 0 1-.206-.756q0-.54.305-.944.305-.41.845-.633.539-.23 1.255-.229.715 0 1.278.235.568.228.915.645.345.416.41.967l-.88.159a1.26 1.26 0 0 0-.557-.88q-.462-.328-1.178-.34-.674-.018-1.097.258-.422.27-.422.721 0 .252.153.434.152.176.551.334.404.159 1.149.346.874.223 1.372.47t.71.58q.21.334.211.827 0 .897-.669 1.413-.662.51-1.829.51m6.478.006q-.926 0-1.607-.41a2.8 2.8 0 0 1-1.049-1.156q-.375-.745-.376-1.747 0-1.038.37-1.794a2.74 2.74 0 0 1 1.038-1.167q.674-.41 1.589-.41.938 0 1.601.433.662.428 1.002 1.232.34.803.311 1.917h-.879v-.305q-.024-1.23-.534-1.859-.504-.627-1.478-.627-1.02 0-1.565.662-.54.663-.54 1.889 0 1.196.54 1.858.545.657 1.542.657.68 0 1.184-.31a2.2 2.2 0 0 0 .804-.91l.803.311q-.376.827-1.108 1.284a3.06 3.06 0 0 1-1.648.452m-2.422-3.102v-.721h4.838v.72zm9.275 3.102q-.874 0-1.478-.44a2.75 2.75 0 0 1-.915-1.202 4.5 4.5 0 0 1-.311-1.706q0-.962.311-1.713.317-.755.927-1.19t1.501-.434q.868 0 1.489.44t.95 1.196q.334.756.334 1.7 0 .951-.334 1.707a2.86 2.86 0 0 1-.961 1.202q-.628.44-1.513.44m-2.85 2.639v-9.148h.774v4.767h.094v4.38zm2.762-3.442q.663 0 1.102-.335.44-.333.657-.909a3.6 3.6 0 0 0 .223-1.301q0-.716-.217-1.29a2 2 0 0 0-.663-.91q-.44-.334-1.12-.334-.663 0-1.102.323-.434.323-.651.897-.217.57-.217 1.314 0 .732.217 1.313.217.575.657.903.44.33 1.114.329M421.537 52.176q-.944 0-1.612-.428a2.8 2.8 0 0 1-1.026-1.185q-.358-.757-.358-1.735 0-.997.363-1.748.365-.75 1.032-1.167.675-.422 1.601-.422.95 0 1.619.428.673.423 1.026 1.179.358.75.358 1.73 0 .996-.358 1.753-.358.75-1.032 1.173-.675.422-1.613.422m0-.827q1.056 0 1.572-.698.516-.704.516-1.823 0-1.15-.522-1.83-.516-.68-1.566-.68-.71 0-1.172.322a1.9 1.9 0 0 0-.687.886q-.222.563-.222 1.302 0 1.143.527 1.835.528.686 1.554.686m6.923.827q-.956 0-1.618-.428a2.73 2.73 0 0 1-1.009-1.179q-.34-.756-.352-1.736.012-.996.364-1.747a2.7 2.7 0 0 1 1.014-1.173q.663-.422 1.607-.422.962 0 1.671.47.716.468.979 1.283l-.844.27a1.8 1.8 0 0 0-.709-.88 1.96 1.96 0 0 0-1.103-.316q-.697 0-1.155.322a1.87 1.87 0 0 0-.68.886 3.6 3.6 0 0 0-.229 1.307q.012 1.139.528 1.83.516.686 1.536.686.645 0 1.097-.293.457-.3.692-.868l.867.258q-.351.845-1.032 1.29-.68.44-1.624.44m7.315-.176a4.2 4.2 0 0 1-1.056.088 2.3 2.3 0 0 1-.926-.223 1.34 1.34 0 0 1-.616-.621 1.8 1.8 0 0 1-.187-.71 25 25 0 0 1-.012-.827v-5.8h.856v5.765q0 .399.006.669.012.263.123.469a.88.88 0 0 0 .668.469q.463.075 1.144-.035zm-4.152-5.594v-.739h4.152v.739zM464.52 52v-3.231q0-.527-.1-.968a2.2 2.2 0 0 0-.322-.773 1.5 1.5 0 0 0-.569-.517q-.346-.18-.845-.181-.457 0-.809.158-.346.158-.586.457a2 2 0 0 0-.358.716 3.4 3.4 0 0 0-.123.961l-.61-.134q0-.975.34-1.636.34-.663.938-1.003.599-.34 1.373-.34.568 0 .991.176.427.175.721.475.298.299.481.686.182.381.263.815.083.427.083.856V52zm-4.58 0v-6.333h.78v1.56h.088V52zm9.579.176q-.943 0-1.612-.428a2.8 2.8 0 0 1-1.026-1.185q-.358-.757-.358-1.735 0-.997.364-1.748.363-.75 1.032-1.167.674-.422 1.6-.422.95 0 1.619.428.674.423 1.026 1.179.358.75.358 1.73 0 .996-.358 1.753-.357.75-1.032 1.173-.675.422-1.613.422m0-.827q1.056 0 1.572-.698.516-.704.516-1.823 0-1.15-.522-1.83-.516-.68-1.566-.68-.709 0-1.172.322a1.9 1.9 0 0 0-.686.886q-.223.563-.223 1.302 0 1.143.528 1.835.527.686 1.553.686m5.78.651L473 45.667h.874l1.87 5.207 1.859-5.207h.885L476.19 52zM504.922 52.176q-.885 0-1.513-.44a2.85 2.85 0 0 1-.961-1.202q-.335-.756-.335-1.706 0-.945.329-1.7.334-.758.956-1.197.62-.44 1.489-.44.892 0 1.501.434.61.434.921 1.19.316.75.316 1.713 0 .944-.31 1.706a2.76 2.76 0 0 1-.915 1.202q-.604.44-1.478.44m.088-.803q.675 0 1.114-.329a1.96 1.96 0 0 0 .657-.903q.217-.58.217-1.313 0-.745-.217-1.314a1.92 1.92 0 0 0-.657-.897q-.434-.322-1.096-.322-.68-.001-1.126.334a2 2 0 0 0-.663.909q-.21.575-.211 1.29 0 .72.217 1.301.224.576.663.91t1.102.334m1.988.627v-4.767h-.094v-3.677h.868V52zm5.099.176q-.927 0-1.607-.41a2.8 2.8 0 0 1-1.049-1.156q-.376-.745-.376-1.747 0-1.038.37-1.794a2.74 2.74 0 0 1 1.038-1.167q.674-.41 1.589-.41.938 0 1.601.433.662.428 1.002 1.232.34.803.311 1.917h-.88v-.305q-.023-1.23-.533-1.859-.504-.627-1.478-.627-1.02 0-1.566.662-.539.663-.539 1.889 0 1.196.539 1.858.546.657 1.543.657.68 0 1.184-.31a2.2 2.2 0 0 0 .804-.91l.803.311q-.376.827-1.108 1.284a3.06 3.06 0 0 1-1.648.452m-2.422-3.102v-.721h4.838v.72zm9.229 3.102q-.955 0-1.618-.428a2.73 2.73 0 0 1-1.009-1.179q-.34-.756-.351-1.736.011-.996.363-1.747a2.7 2.7 0 0 1 1.015-1.173q.662-.422 1.606-.422.962 0 1.671.47.716.468.98 1.283l-.845.27a1.8 1.8 0 0 0-.709-.88 1.96 1.96 0 0 0-1.103-.316q-.697 0-1.155.322a1.9 1.9 0 0 0-.68.886 3.6 3.6 0 0 0-.229 1.307q.012 1.139.528 1.83.516.686 1.536.686.645 0 1.097-.293.457-.3.692-.868l.868.258q-.352.845-1.032 1.29-.68.44-1.625.44"/></svg>