<svg width="35" height="35" viewBox="0 0 35 35" fill="none" xmlns="http://www.w3.org/2000/svg">
<g style="mix-blend-mode:luminosity">
<path d="M33.317 10.6548V10.6562V24.3435C33.317 27.2167 32.4625 29.4499 30.9481 30.9643C29.4338 32.4787 27.2006 33.3332 24.3274 33.3332H10.6564C7.78313 33.3332 5.55011 32.4787 4.03579 30.9625C2.52141 29.4462 1.66669 27.2089 1.66669 24.3272V10.6562C1.66669 7.78294 2.5212 5.54977 4.03557 4.03539C5.54995 2.52102 7.78312 1.6665 10.6564 1.6665H24.3437C27.217 1.6665 29.45 2.52106 30.9622 4.03517C32.4743 5.54918 33.3249 7.78188 33.317 10.6548ZM12.1754 26.7382C13.5104 26.7382 14.5864 25.6678 14.5864 24.3435V19.0188C14.5864 17.6946 13.5104 16.6242 12.1754 16.6242C10.8539 16.6242 9.78069 17.6974 9.78069 19.0188V24.3435C9.78069 25.665 10.8539 26.7382 12.1754 26.7382ZM22.8247 26.7382C24.1462 26.7382 25.2194 25.665 25.2194 24.3435V10.6562C25.2194 9.3347 24.1462 8.2615 22.8247 8.2615C21.4897 8.2615 20.4137 9.3319 20.4137 10.6562V24.3435C20.4137 25.6678 21.4897 26.7382 22.8247 26.7382Z" stroke="black"/>
</g>
</svg>
