<svg width="1316" height="445" viewBox="0 0 1316 445" fill="none" xmlns="http://www.w3.org/2000/svg">
<rect x="590" y="155" width="136" height="136" rx="10" fill="#204E4D"/>
<path d="M626 261L631.809 243.372L634.986 234.169L644.733 234.222L646.096 230.151H636.27L637.617 225.744L651.452 185H664.548L690 261H680.231L656.416 190.489H659.373L647.571 225.744L646.096 230.151L644.62 234.558L641.67 243.372L635.769 261H626ZM631.957 243.214L637.617 238.833L634.986 234.169L665.328 234.222L668.244 243.214H631.957Z" fill="white"/>
<g filter="url(#filter0_d_24067_1871)">
<rect x="1171" y="300" width="135" height="135" rx="10" fill="white"/>
</g>
<path d="M1227.98 342.093C1231.31 340.711 1234.89 340 1238.5 340V353.75C1236.69 353.75 1234.91 354.106 1233.24 354.797C1231.57 355.488 1230.05 356.5 1228.78 357.777C1227.5 359.054 1226.49 360.57 1225.8 362.238C1225.11 363.906 1224.75 365.694 1224.75 367.5H1211C1211 363.889 1211.71 360.313 1213.09 356.976C1214.48 353.64 1216.5 350.608 1219.05 348.055C1221.61 345.501 1224.64 343.475 1227.98 342.093Z" fill="#155EEF"/>
<path d="M1211 367.5C1211 371.111 1211.71 374.687 1213.09 378.024C1214.48 381.36 1216.5 384.392 1219.05 386.946C1221.61 389.499 1224.64 391.525 1227.98 392.907C1231.31 394.289 1234.89 395 1238.5 395C1242.11 395 1245.69 394.289 1249.02 392.907C1252.36 391.525 1255.39 389.499 1257.95 386.946C1260.5 384.392 1262.52 381.36 1263.91 378.024C1265.29 374.687 1266 371.111 1266 367.5H1252.25C1252.25 369.306 1251.89 371.094 1251.2 372.762C1250.51 374.43 1249.5 375.946 1248.22 377.223C1246.95 378.5 1245.43 379.512 1243.76 380.203C1242.09 380.894 1240.31 381.25 1238.5 381.25C1236.69 381.25 1234.91 380.894 1233.24 380.203C1231.57 379.512 1230.05 378.5 1228.78 377.223C1227.5 375.946 1226.49 374.43 1225.8 372.762C1225.11 371.094 1224.75 369.306 1224.75 367.5H1211Z" fill="#84ADFF"/>
<path d="M1238.5 358.75C1233.67 358.75 1229.75 362.668 1229.75 367.5H1247.25C1247.25 362.668 1243.33 358.75 1238.5 358.75Z" fill="#84ADFF"/>
<path d="M1238.5 376.25C1233.67 376.25 1229.75 372.332 1229.75 367.5H1247.25C1247.25 372.332 1243.33 376.25 1238.5 376.25Z" fill="#155EEF"/>
<g filter="url(#filter1_d_24067_1871)">
<rect x="736" y="300" width="135" height="135" rx="10" fill="white"/>
</g>
<path d="M821.382 351.75C820.842 351.21 820.302 350.67 819.762 350.13C818.141 348.401 816.412 346.672 814.251 345.591C811.766 344.295 809.064 344.619 806.363 344.619C802.257 344.619 791.992 344.619 785.941 344.619L790.047 350.13C797.502 350.13 809.172 350.13 814.575 350.13C816.844 350.13 818.789 350.562 820.626 351.75C820.95 351.858 821.274 351.858 821.382 351.75Z" fill="#66C61C"/>
<path d="M825.921 360.611C825.381 360.07 824.841 359.53 824.3 358.99C822.679 357.261 820.951 355.532 818.79 354.452C816.304 353.155 813.603 353.479 810.902 353.479C807.336 353.479 798.8 353.479 792.749 353.479L796.855 358.99C804.202 358.99 814.251 358.99 819.222 358.99C821.491 358.99 823.436 359.422 825.273 360.611C825.489 360.719 825.705 360.719 825.921 360.611Z" fill="#4CA30D"/>
<path d="M831 369.255C830.46 368.715 829.919 368.175 829.379 367.635C827.758 365.906 826.029 364.177 823.868 363.096C821.383 361.8 818.682 362.124 815.98 362.124C812.631 362.124 805.283 362.124 799.34 362.124L803.446 367.635C810.578 367.635 819.654 367.635 824.192 367.635C826.462 367.635 828.407 368.067 830.243 369.255C830.568 369.364 830.784 369.472 831 369.255Z" fill="#3B7C0F"/>
<path d="M785.508 383.841C786.049 384.382 786.589 384.922 787.129 385.462C788.75 387.191 790.479 388.92 792.64 390C795.125 391.297 797.826 390.973 800.528 390.973H820.95L816.844 385.462C809.388 385.462 797.718 385.462 792.316 385.462C790.047 385.462 788.102 385.03 786.265 383.841C785.941 383.733 785.724 383.733 785.508 383.841Z" fill="#66C61C"/>
<path d="M780.971 374.985C781.511 375.525 782.052 376.065 782.592 376.606C784.213 378.335 785.942 380.063 788.103 381.144C790.588 382.441 793.289 382.116 795.991 382.116H814.144L810.038 376.606C802.69 376.606 792.641 376.606 787.671 376.606C785.401 376.606 783.456 376.173 781.62 374.985C781.403 374.877 781.187 374.877 780.971 374.985Z" fill="#4CA30D"/>
<path d="M776 366.23C776.54 366.771 777.081 367.311 777.621 367.851C779.242 369.58 780.97 371.309 783.132 372.39C785.617 373.686 788.318 373.362 791.019 373.362H807.66L803.554 367.851C796.422 367.851 787.346 367.851 782.807 367.851C780.538 367.851 778.593 367.419 776.756 366.23C776.432 366.122 776.216 366.122 776 366.23Z" fill="#3B7C0F"/>
<g filter="url(#filter2_d_24067_1871)">
<rect x="881" y="10" width="135" height="135" rx="10" fill="white"/>
</g>
<path d="M948.691 50C933.398 50 921 62.3122 921 77.5C921 92.6878 933.398 105 948.691 105C962.413 105 973.803 95.0895 976 82.0833H975.801C973.752 89.9906 966.524 95.8333 957.922 95.8333C947.726 95.8333 939.461 87.6252 939.461 77.5C939.461 67.3748 947.726 59.1667 957.922 59.1667C966.524 59.1667 973.752 65.0094 975.801 72.9167H976C973.803 59.9105 962.413 50 948.691 50Z" fill="#A4BCFD"/>
<path d="M921 77.5C921 62.3122 933.398 50 948.691 50C962.413 50 973.803 59.9105 976 72.9167H957.34C955.291 65.0094 948.063 59.1667 939.461 59.1667C929.265 59.1667 921 67.3748 921 77.5Z" fill="#3538CD"/>
<path d="M921 77.499C921 92.6869 933.398 104.999 948.691 104.999C962.413 104.999 973.803 95.0885 976 82.0824H957.34C955.291 89.9896 948.063 95.8324 939.461 95.8324C929.265 95.8324 921 87.6242 921 77.499Z" fill="#3538CD"/>
<g filter="url(#filter3_d_24067_1871)">
<rect x="1026" y="155" width="135" height="135" rx="10" fill="white"/>
</g>
<path d="M1097.88 236.153C1093.85 234.653 1089.69 234.423 1085.88 235.461C1083.23 236.153 1080.69 237.538 1078.38 239.269L1076.77 240.653L1076.31 241.115L1077.35 242.038C1077.46 242.038 1077.46 242.153 1077.58 242.269C1077.81 242.5 1078.04 242.615 1078.38 242.846L1079.08 243.307L1079.77 242.73C1079.88 242.615 1080.12 242.384 1080.35 242.269C1082.42 240.538 1084.73 239.384 1087.15 238.807C1090.27 238 1093.62 238.115 1096.96 239.384C1099.73 240.423 1105.38 241.692 1112.19 238.807L1112.42 238.692L1112.77 238.346C1112.77 238.23 1112.88 238.23 1113 238.115C1113.58 237.423 1114.15 236.73 1114.62 235.923L1116.92 232.346L1113.23 234.423C1107.81 237.423 1102.85 238 1097.88 236.153Z" fill="#EFA615"/>
<path d="M1082.08 223.693C1085.19 222.885 1088.54 223 1091.88 224.27C1095.58 225.654 1105.04 227.616 1115.65 218.039L1117.38 216.308L1117.5 216.193L1117.96 215.731L1117.73 215.154C1117.62 214.693 1117.38 214.116 1117.15 213.539L1116.58 211.923L1115.42 213.077C1115.31 213.308 1115.08 213.423 1114.85 213.654C1109.77 218.846 1101.92 224.154 1092.92 220.923C1088.88 219.423 1084.73 219.193 1080.92 220.231C1077.23 221.27 1074 223.231 1071 226V225.885L1069.27 227.731C1069.27 227.846 1069.15 227.846 1069.04 227.962L1068.69 228.308L1068.81 228.77C1068.92 229.346 1069.15 229.923 1069.27 230.5L1069.96 232.346L1071.12 230.846C1071.23 230.616 1071.46 230.5 1071.58 230.27C1074 228.077 1077.35 224.962 1082.08 223.693Z" fill="#EFA615"/>
<path d="M1070.88 221.616C1073.54 218.846 1076.54 217.116 1079.77 216.193C1082.88 215.385 1086.23 215.5 1089.58 216.769C1099.96 220.577 1108.96 214.346 1112.88 211L1114.38 209.5L1114.96 209.039L1114.5 208.346C1114.15 208 1113.92 207.539 1113.58 207.077L1112.88 206.154L1112.08 206.962C1111.96 207.077 1111.73 207.308 1111.62 207.423C1106.77 212.039 1099.27 216.769 1090.73 213.539C1086.69 212.039 1082.54 211.808 1078.73 212.846C1076.31 213.539 1074 214.693 1071.69 216.193L1069.27 218.154C1069.04 218.385 1068.92 218.5 1068.69 218.731L1068.46 218.962V219.308C1068.35 220.116 1068.35 220.923 1068.23 221.616L1068.12 224.5L1070.08 222.423C1070.31 222.193 1070.54 221.846 1070.88 221.616Z" fill="#EFA615"/>
<path d="M1101.23 244L1101 244.692L1101.23 244C1100.88 243.885 1100.65 243.769 1100.31 243.654C1096.27 242.154 1092.12 241.923 1088.31 242.961C1087.5 243.192 1086.69 243.423 1085.88 243.769L1083.12 245.038L1082.42 245.385L1084.73 246.192C1085.42 246.423 1086.12 246.654 1086.81 246.885L1087.15 247L1087.5 246.885C1087.85 246.769 1088.19 246.538 1088.54 246.538C1088.77 246.538 1089 246.423 1089.23 246.308C1092 245.615 1095 245.615 1098.23 246.654C1098.58 246.769 1098.81 246.885 1099.15 247L1099.73 247.231L1100.08 247.115C1100.88 246.885 1101.81 246.654 1102.5 246.308L1105.73 245.154L1102.38 244.346C1102.04 244.231 1101.58 244.115 1101.23 244Z" fill="#EFA615"/>
<path d="M1118.88 220.116L1117.15 221.846C1116.92 222.077 1116.69 222.308 1116.46 222.539C1111.73 227.039 1104.12 231.885 1095.58 228.654C1091.54 227.154 1087.38 226.923 1083.58 227.962C1080 229 1076.77 230.847 1073.88 233.616L1072.38 235.231L1071.92 235.808L1072.38 236.5C1072.73 236.962 1072.96 237.308 1073.19 237.77L1073.88 238.808L1074.69 237.77C1074.81 237.654 1075.04 237.423 1075.15 237.308C1077.92 234.308 1080.92 232.462 1084.38 231.539C1087.5 230.731 1090.85 230.846 1094.19 232.116C1097.08 233.154 1100.08 233.5 1103.08 233.154C1108.38 232.577 1113.69 229.577 1117.62 226.231C1117.85 226 1118.08 225.885 1118.31 225.654L1118.65 225.308V224.962C1118.65 224.27 1118.77 223.462 1118.77 222.77L1118.88 220.116Z" fill="#EFA615"/>
<path d="M1075.04 209.501L1074.69 208.808L1075.04 209.501C1075.73 209.155 1076.54 208.924 1077.23 208.693C1080.35 207.885 1083.69 208.001 1087.04 209.27C1089.23 210.078 1091.42 210.424 1093.85 210.424C1098.69 210.424 1103.54 208.693 1108.04 205.347L1109.77 203.962L1110.35 203.501L1109.31 202.693C1108.96 202.347 1108.5 202.001 1108.04 201.77L1107.35 201.308L1106.77 201.77C1106.54 201.885 1106.42 202.116 1106.19 202.231C1100.08 206.847 1093.96 208.116 1088.19 205.924C1084.04 204.424 1079.88 204.078 1075.73 205.347C1075.38 205.462 1075.04 205.578 1074.58 205.693L1074.35 205.808L1074 206.154C1074 206.27 1073.88 206.27 1073.77 206.385C1073.31 207.078 1072.73 207.655 1072.27 208.347L1070.08 211.693L1073.65 209.847C1074.23 209.847 1074.69 209.616 1075.04 209.501Z" fill="#EFA615"/>
<path d="M1084.5 201.654L1084.85 201.769C1086.35 202.346 1088.65 202.923 1091.54 202.923C1094.54 202.923 1097.42 202.231 1100.31 201.077L1103.88 199.346L1101.46 198.539C1100.77 198.308 1100.08 198.077 1099.27 197.962H1098.92L1098.58 198.077C1098.23 198.192 1097.88 198.423 1097.54 198.539C1094.08 199.808 1090.61 200.039 1087.27 199.116C1086.92 199 1086.58 198.885 1086.23 198.769L1085.88 198.654L1085.54 198.769C1084.85 199 1084.15 199.231 1083.46 199.577L1080.81 200.731L1083.58 201.539C1083.81 201.423 1084.15 201.539 1084.5 201.654Z" fill="#EFA615"/>
<g filter="url(#filter4_d_24067_1871)">
<rect x="881" y="155" width="135" height="135" rx="10" fill="white"/>
</g>
<path fill-rule="evenodd" clip-rule="evenodd" d="M949.373 196.93C948.742 196.801 948.091 196.801 947.46 196.93C946.73 197.08 946.078 197.446 945.559 197.736L945.418 197.815L927.843 207.579C927.795 207.606 927.745 207.633 927.693 207.662C927.145 207.964 926.454 208.344 925.924 208.919C925.466 209.416 925.119 210.006 924.907 210.648C924.662 211.391 924.665 212.178 924.667 212.805C924.667 212.864 924.667 212.921 924.667 212.976V232.254C924.667 232.309 924.667 232.367 924.667 232.425C924.665 233.052 924.662 233.84 924.907 234.582C925.119 235.224 925.466 235.814 925.924 236.311C926.454 236.886 927.145 237.266 927.693 237.569C927.745 237.597 927.795 237.625 927.843 237.652L945.418 247.415L945.559 247.494C946.078 247.785 946.73 248.15 947.46 248.3C948.091 248.43 948.742 248.43 949.373 248.3C950.103 248.15 950.755 247.785 951.274 247.494L951.415 247.415L968.99 237.652C969.011 237.64 969.033 237.628 969.055 237.615C969.083 237.6 969.111 237.585 969.14 237.569C969.688 237.266 970.379 236.886 970.909 236.311C971.367 235.814 971.714 235.224 971.926 234.582C972.171 233.84 972.168 233.052 972.166 232.425C972.166 232.367 972.166 232.309 972.166 232.254V212.976C972.166 212.921 972.166 212.864 972.166 212.805C972.168 212.178 972.171 211.391 971.926 210.648C971.714 210.006 971.367 209.416 970.909 208.919C970.379 208.344 969.688 207.964 969.14 207.662L969.138 207.66C969.087 207.633 969.038 207.605 968.99 207.579L951.415 197.815L951.274 197.736C950.755 197.446 950.103 197.08 949.373 196.93ZM947.724 201.967C948.084 201.767 948.268 201.666 948.405 201.6L948.417 201.595L948.428 201.6C948.565 201.666 948.749 201.767 949.109 201.967L964.9 210.741L948.416 219.898L931.933 210.741L947.724 201.967ZM929.417 214.777L946.042 224.012L946.042 242.328L930.15 233.499C929.77 233.288 929.576 233.18 929.44 233.093L929.429 233.086L929.428 233.072C929.418 232.911 929.417 232.688 929.417 232.254V214.777Z" fill="#8F42CB"/>
<g filter="url(#filter5_d_24067_1871)">
<rect x="736" y="155" width="135" height="135" rx="10" fill="white"/>
</g>
<path d="M806.241 229.558C814.265 229.558 820.77 223.053 820.77 215.029C820.77 207.005 814.265 200.5 806.241 200.5H785.9V229.558H806.241Z" fill="#F38744"/>
<path d="M785.9 200.5L820.77 244.087H797.523L785.9 229.558V200.5Z" fill="#2E90FA"/>
<path d="M808.946 229.307C808.069 229.472 807.165 229.558 806.241 229.558H785.9V200.5L808.946 229.307Z" fill="#53B1FD"/>
<g filter="url(#filter6_d_24067_1871)">
<rect x="299" y="10" width="135" height="135" rx="10" fill="white"/>
</g>
<rect width="36.2879" height="36.2879" rx="5" transform="matrix(0.965916 -0.258855 -0.258855 0.965916 358.282 69.2822)" fill="#2E90FA"/>
<rect width="36.2879" height="36.2879" rx="5" transform="matrix(0.965916 -0.258855 -0.258855 0.965916 349.393 60.3931)" fill="#EFD515"/>
<g filter="url(#filter7_d_24067_1871)">
<rect x="10" y="300" width="135" height="135" rx="10" fill="white"/>
</g>
<path fill-rule="evenodd" clip-rule="evenodd" d="M55.8996 373.829C57.1469 375.069 57.1469 377.079 55.8996 378.319L55.8357 378.383C54.5884 379.623 52.5661 379.623 51.3188 378.383C50.0715 377.143 50.0715 375.132 51.3188 373.892L51.3827 373.829C52.63 372.588 54.6523 372.588 55.8996 373.829Z" fill="#A4BCFD"/>
<path fill-rule="evenodd" clip-rule="evenodd" d="M70.9151 374.785C72.1602 376.028 72.1565 378.038 70.9069 379.276L62.0597 388.041C60.8101 389.278 58.7878 389.275 57.5427 388.032C56.2977 386.79 56.3013 384.779 57.5509 383.542L66.3982 374.777C67.6477 373.539 69.6701 373.543 70.9151 374.785Z" fill="#6172F3"/>
<path fill-rule="evenodd" clip-rule="evenodd" d="M82.9232 389.873C83.9018 388.414 85.8848 388.019 87.3525 388.992L87.5441 389.119C89.0118 390.092 89.4084 392.064 88.4299 393.523C87.4515 394.982 85.4684 395.376 84.0008 394.404L83.8091 394.276C82.3414 393.304 81.9448 391.332 82.9232 389.873Z" fill="#A4BCFD"/>
<path fill-rule="evenodd" clip-rule="evenodd" d="M104.001 373.638C105.248 374.878 105.248 376.889 104.001 378.129L99.6569 382.447C98.4096 383.688 96.3874 383.688 95.1401 382.447C93.8928 381.207 93.8928 379.197 95.1401 377.957L99.4839 373.638C100.731 372.398 102.753 372.398 104.001 373.638Z" fill="#6172F3"/>
<path fill-rule="evenodd" clip-rule="evenodd" d="M104.064 357.665C105.312 358.905 105.312 360.916 104.064 362.156L71.9651 394.07C70.7178 395.31 68.6955 395.31 67.4482 394.07C66.2009 392.83 66.2009 390.819 67.4482 389.579L99.5475 357.665C100.795 356.425 102.817 356.425 104.064 357.665Z" fill="#3538CD"/>
<path fill-rule="evenodd" clip-rule="evenodd" d="M97.9961 347.852C99.2434 349.093 99.2434 351.103 97.9961 352.343L79.535 370.698C78.2877 371.938 76.2653 371.938 75.018 370.698C73.7707 369.458 73.7707 367.447 75.018 366.207L93.4791 347.852C94.7264 346.612 96.7488 346.612 97.9961 347.852Z" fill="#3538CD"/>
<path fill-rule="evenodd" clip-rule="evenodd" d="M88.2531 341.627C89.5013 342.867 89.5026 344.877 88.2562 346.118L64.525 369.744C63.2785 370.985 61.2562 370.986 60.0081 369.747C58.7599 368.508 58.7585 366.497 60.005 365.256L83.7362 341.63C84.9826 340.389 87.0049 340.388 88.2531 341.627Z" fill="#3538CD"/>
<path fill-rule="evenodd" clip-rule="evenodd" d="M64.7507 349.191C65.9959 350.433 65.9924 352.443 64.7429 353.681L55.4485 362.89C54.1991 364.128 52.1768 364.125 50.9316 362.883C49.6864 361.64 49.6899 359.63 50.9394 358.392L60.2339 349.183C61.4833 347.945 63.5056 347.948 64.7507 349.191Z" fill="#6172F3"/>
<path fill-rule="evenodd" clip-rule="evenodd" d="M70.4414 340C72.2053 340 73.6353 341.422 73.6353 343.176V343.493C73.6353 345.247 72.2053 346.669 70.4414 346.669C68.6773 346.669 67.2473 345.247 67.2473 343.493V343.176C67.2473 341.422 68.6773 340 70.4414 340Z" fill="#A4BCFD"/>
<g filter="url(#filter8_d_24067_1871)">
<rect x="445" y="300" width="135" height="135" rx="10" fill="white"/>
</g>
<path d="M531.017 367.5C526.574 372.464 520.118 375.588 512.931 375.588C505.745 375.588 499.288 372.464 494.845 367.5C499.288 362.536 505.745 359.412 512.931 359.412C520.118 359.412 526.574 362.536 531.017 367.5Z" fill="#1FA7DF"/>
<path fill-rule="evenodd" clip-rule="evenodd" d="M488.667 383.676C488.667 370.275 499.53 359.412 512.931 359.412C505.745 359.412 499.288 362.536 494.845 367.5C499.288 372.464 505.745 375.588 512.931 375.588C520.118 375.588 526.574 372.464 531.017 367.5C534.86 371.793 537.196 377.462 537.196 383.676V392.843C537.196 394.034 536.23 395 535.039 395H490.823C489.632 395 488.667 394.034 488.667 392.843V383.676ZM531.017 367.5C531.017 367.5 531.017 367.5 531.017 367.5V367.5Z" fill="#0ACF83"/>
<path fill-rule="evenodd" clip-rule="evenodd" d="M503.83 373.824C500.365 372.421 497.298 370.241 494.845 367.5C499.288 362.536 505.745 359.412 512.931 359.412C520.118 359.412 526.574 362.536 531.017 367.5C531.017 367.5 531.017 367.5 531.017 367.5C534.86 363.207 537.196 357.538 537.196 351.324V342.157C537.196 340.966 536.23 340 535.039 340L490.823 340C489.632 340 488.667 340.966 488.667 342.157L488.667 351.324C488.667 361.506 494.938 370.223 503.83 373.824Z" fill="#1ABCFE"/>
<g filter="url(#filter9_d_24067_1871)">
<rect x="300" y="300" width="135" height="135" rx="10" fill="white"/>
</g>
<path d="M369.948 370.417C369.313 362.717 362.863 356.667 355 356.667C346.716 356.667 340 363.382 340 371.667C340 379.951 346.716 386.667 355 386.667H377.5V370.417H369.948Z" fill="#528BFF"/>
<circle cx="376.25" cy="367.917" r="18.7499" fill="#7839EE"/>
<g filter="url(#filter10_d_24067_1871)">
<rect x="445" y="155" width="135" height="135" rx="10" fill="white"/>
</g>
<path d="M523.036 195H501.964L485 211.964V233.036L501.964 250H523.036L540 233.036V211.964L523.036 195ZM504.88 233.301L494.012 222.434L504.88 211.566C508.988 207.458 515.747 207.458 519.855 211.566L530.723 222.434L519.855 233.301C515.747 237.41 509.12 237.41 504.88 233.301Z" fill="#F82B60"/>
<g filter="url(#filter11_d_24067_1871)">
<rect x="300" y="155" width="135" height="135" rx="10" fill="white"/>
</g>
<path d="M359.643 234.286C370.492 234.286 379.286 225.491 379.286 214.643C379.286 213.413 379.173 212.21 378.957 211.043C377.79 210.827 376.587 210.714 375.357 210.714C364.509 210.714 355.715 219.509 355.715 230.357C355.715 231.587 355.828 232.79 356.044 233.957C357.211 234.173 358.414 234.286 359.643 234.286Z" fill="#175CD3"/>
<path fill-rule="evenodd" clip-rule="evenodd" d="M356.043 233.957C346.914 232.266 340 224.262 340 214.643C340 203.795 348.794 195 359.643 195C369.262 195 377.266 201.914 378.957 211.044C377.79 210.827 376.587 210.715 375.357 210.715C364.509 210.715 355.714 219.509 355.714 230.357C355.714 231.587 355.827 232.79 356.043 233.957Z" fill="#1570EF"/>
<path fill-rule="evenodd" clip-rule="evenodd" d="M359.643 234.285C370.491 234.285 379.286 225.491 379.286 214.642C379.286 213.413 379.173 212.21 378.957 211.043C388.086 212.734 395 220.738 395 230.357C395 241.205 386.206 250 375.357 250C365.738 250 357.734 243.086 356.043 233.956C357.21 234.172 358.413 234.285 359.643 234.285Z" fill="#2E90FA"/>
<g filter="url(#filter12_d_24067_1871)">
<rect x="155" y="155" width="135" height="135" rx="10" fill="white"/>
</g>
<path d="M235.619 198.034C239.319 205.377 241.406 213.692 241.406 222.5C241.406 231.309 239.319 239.624 235.619 246.967C244.185 242.252 250 233.063 250 222.5C250 211.937 244.185 202.749 235.619 198.034Z" fill="#18BFFF"/>
<path d="M223.253 197.45C222.009 195.667 219.89 194.707 217.765 195.08C204.833 197.351 195 208.763 195 222.5C195 236.237 204.833 247.649 217.765 249.92C219.89 250.293 222.009 249.333 223.253 247.55C228.192 240.468 231.093 231.827 231.093 222.5C231.093 213.173 228.192 204.532 223.253 197.45Z" fill="#FCB400"/>
<defs>
<filter id="filter0_d_24067_1871" x="1161" y="290" width="155" height="155" filterUnits="userSpaceOnUse" color-interpolation-filters="sRGB">
<feFlood flood-opacity="0" result="BackgroundImageFix"/>
<feColorMatrix in="SourceAlpha" type="matrix" values="0 0 0 0 0 0 0 0 0 0 0 0 0 0 0 0 0 0 127 0" result="hardAlpha"/>
<feOffset/>
<feGaussianBlur stdDeviation="5"/>
<feComposite in2="hardAlpha" operator="out"/>
<feColorMatrix type="matrix" values="0 0 0 0 0 0 0 0 0 0 0 0 0 0 0 0 0 0 0.1 0"/>
<feBlend mode="normal" in2="BackgroundImageFix" result="effect1_dropShadow_24067_1871"/>
<feBlend mode="normal" in="SourceGraphic" in2="effect1_dropShadow_24067_1871" result="shape"/>
</filter>
<filter id="filter1_d_24067_1871" x="726" y="290" width="155" height="155" filterUnits="userSpaceOnUse" color-interpolation-filters="sRGB">
<feFlood flood-opacity="0" result="BackgroundImageFix"/>
<feColorMatrix in="SourceAlpha" type="matrix" values="0 0 0 0 0 0 0 0 0 0 0 0 0 0 0 0 0 0 127 0" result="hardAlpha"/>
<feOffset/>
<feGaussianBlur stdDeviation="5"/>
<feComposite in2="hardAlpha" operator="out"/>
<feColorMatrix type="matrix" values="0 0 0 0 0 0 0 0 0 0 0 0 0 0 0 0 0 0 0.1 0"/>
<feBlend mode="normal" in2="BackgroundImageFix" result="effect1_dropShadow_24067_1871"/>
<feBlend mode="normal" in="SourceGraphic" in2="effect1_dropShadow_24067_1871" result="shape"/>
</filter>
<filter id="filter2_d_24067_1871" x="871" y="0" width="155" height="155" filterUnits="userSpaceOnUse" color-interpolation-filters="sRGB">
<feFlood flood-opacity="0" result="BackgroundImageFix"/>
<feColorMatrix in="SourceAlpha" type="matrix" values="0 0 0 0 0 0 0 0 0 0 0 0 0 0 0 0 0 0 127 0" result="hardAlpha"/>
<feOffset/>
<feGaussianBlur stdDeviation="5"/>
<feComposite in2="hardAlpha" operator="out"/>
<feColorMatrix type="matrix" values="0 0 0 0 0 0 0 0 0 0 0 0 0 0 0 0 0 0 0.1 0"/>
<feBlend mode="normal" in2="BackgroundImageFix" result="effect1_dropShadow_24067_1871"/>
<feBlend mode="normal" in="SourceGraphic" in2="effect1_dropShadow_24067_1871" result="shape"/>
</filter>
<filter id="filter3_d_24067_1871" x="1016" y="145" width="155" height="155" filterUnits="userSpaceOnUse" color-interpolation-filters="sRGB">
<feFlood flood-opacity="0" result="BackgroundImageFix"/>
<feColorMatrix in="SourceAlpha" type="matrix" values="0 0 0 0 0 0 0 0 0 0 0 0 0 0 0 0 0 0 127 0" result="hardAlpha"/>
<feOffset/>
<feGaussianBlur stdDeviation="5"/>
<feComposite in2="hardAlpha" operator="out"/>
<feColorMatrix type="matrix" values="0 0 0 0 0 0 0 0 0 0 0 0 0 0 0 0 0 0 0.1 0"/>
<feBlend mode="normal" in2="BackgroundImageFix" result="effect1_dropShadow_24067_1871"/>
<feBlend mode="normal" in="SourceGraphic" in2="effect1_dropShadow_24067_1871" result="shape"/>
</filter>
<filter id="filter4_d_24067_1871" x="871" y="145" width="155" height="155" filterUnits="userSpaceOnUse" color-interpolation-filters="sRGB">
<feFlood flood-opacity="0" result="BackgroundImageFix"/>
<feColorMatrix in="SourceAlpha" type="matrix" values="0 0 0 0 0 0 0 0 0 0 0 0 0 0 0 0 0 0 127 0" result="hardAlpha"/>
<feOffset/>
<feGaussianBlur stdDeviation="5"/>
<feComposite in2="hardAlpha" operator="out"/>
<feColorMatrix type="matrix" values="0 0 0 0 0 0 0 0 0 0 0 0 0 0 0 0 0 0 0.1 0"/>
<feBlend mode="normal" in2="BackgroundImageFix" result="effect1_dropShadow_24067_1871"/>
<feBlend mode="normal" in="SourceGraphic" in2="effect1_dropShadow_24067_1871" result="shape"/>
</filter>
<filter id="filter5_d_24067_1871" x="726" y="145" width="155" height="155" filterUnits="userSpaceOnUse" color-interpolation-filters="sRGB">
<feFlood flood-opacity="0" result="BackgroundImageFix"/>
<feColorMatrix in="SourceAlpha" type="matrix" values="0 0 0 0 0 0 0 0 0 0 0 0 0 0 0 0 0 0 127 0" result="hardAlpha"/>
<feOffset/>
<feGaussianBlur stdDeviation="5"/>
<feComposite in2="hardAlpha" operator="out"/>
<feColorMatrix type="matrix" values="0 0 0 0 0 0 0 0 0 0 0 0 0 0 0 0 0 0 0.1 0"/>
<feBlend mode="normal" in2="BackgroundImageFix" result="effect1_dropShadow_24067_1871"/>
<feBlend mode="normal" in="SourceGraphic" in2="effect1_dropShadow_24067_1871" result="shape"/>
</filter>
<filter id="filter6_d_24067_1871" x="289" y="0" width="155" height="155" filterUnits="userSpaceOnUse" color-interpolation-filters="sRGB">
<feFlood flood-opacity="0" result="BackgroundImageFix"/>
<feColorMatrix in="SourceAlpha" type="matrix" values="0 0 0 0 0 0 0 0 0 0 0 0 0 0 0 0 0 0 127 0" result="hardAlpha"/>
<feOffset/>
<feGaussianBlur stdDeviation="5"/>
<feComposite in2="hardAlpha" operator="out"/>
<feColorMatrix type="matrix" values="0 0 0 0 0 0 0 0 0 0 0 0 0 0 0 0 0 0 0.1 0"/>
<feBlend mode="normal" in2="BackgroundImageFix" result="effect1_dropShadow_24067_1871"/>
<feBlend mode="normal" in="SourceGraphic" in2="effect1_dropShadow_24067_1871" result="shape"/>
</filter>
<filter id="filter7_d_24067_1871" x="0" y="290" width="155" height="155" filterUnits="userSpaceOnUse" color-interpolation-filters="sRGB">
<feFlood flood-opacity="0" result="BackgroundImageFix"/>
<feColorMatrix in="SourceAlpha" type="matrix" values="0 0 0 0 0 0 0 0 0 0 0 0 0 0 0 0 0 0 127 0" result="hardAlpha"/>
<feOffset/>
<feGaussianBlur stdDeviation="5"/>
<feComposite in2="hardAlpha" operator="out"/>
<feColorMatrix type="matrix" values="0 0 0 0 0 0 0 0 0 0 0 0 0 0 0 0 0 0 0.1 0"/>
<feBlend mode="normal" in2="BackgroundImageFix" result="effect1_dropShadow_24067_1871"/>
<feBlend mode="normal" in="SourceGraphic" in2="effect1_dropShadow_24067_1871" result="shape"/>
</filter>
<filter id="filter8_d_24067_1871" x="435" y="290" width="155" height="155" filterUnits="userSpaceOnUse" color-interpolation-filters="sRGB">
<feFlood flood-opacity="0" result="BackgroundImageFix"/>
<feColorMatrix in="SourceAlpha" type="matrix" values="0 0 0 0 0 0 0 0 0 0 0 0 0 0 0 0 0 0 127 0" result="hardAlpha"/>
<feOffset/>
<feGaussianBlur stdDeviation="5"/>
<feComposite in2="hardAlpha" operator="out"/>
<feColorMatrix type="matrix" values="0 0 0 0 0 0 0 0 0 0 0 0 0 0 0 0 0 0 0.1 0"/>
<feBlend mode="normal" in2="BackgroundImageFix" result="effect1_dropShadow_24067_1871"/>
<feBlend mode="normal" in="SourceGraphic" in2="effect1_dropShadow_24067_1871" result="shape"/>
</filter>
<filter id="filter9_d_24067_1871" x="290" y="290" width="155" height="155" filterUnits="userSpaceOnUse" color-interpolation-filters="sRGB">
<feFlood flood-opacity="0" result="BackgroundImageFix"/>
<feColorMatrix in="SourceAlpha" type="matrix" values="0 0 0 0 0 0 0 0 0 0 0 0 0 0 0 0 0 0 127 0" result="hardAlpha"/>
<feOffset/>
<feGaussianBlur stdDeviation="5"/>
<feComposite in2="hardAlpha" operator="out"/>
<feColorMatrix type="matrix" values="0 0 0 0 0 0 0 0 0 0 0 0 0 0 0 0 0 0 0.1 0"/>
<feBlend mode="normal" in2="BackgroundImageFix" result="effect1_dropShadow_24067_1871"/>
<feBlend mode="normal" in="SourceGraphic" in2="effect1_dropShadow_24067_1871" result="shape"/>
</filter>
<filter id="filter10_d_24067_1871" x="435" y="145" width="155" height="155" filterUnits="userSpaceOnUse" color-interpolation-filters="sRGB">
<feFlood flood-opacity="0" result="BackgroundImageFix"/>
<feColorMatrix in="SourceAlpha" type="matrix" values="0 0 0 0 0 0 0 0 0 0 0 0 0 0 0 0 0 0 127 0" result="hardAlpha"/>
<feOffset/>
<feGaussianBlur stdDeviation="5"/>
<feComposite in2="hardAlpha" operator="out"/>
<feColorMatrix type="matrix" values="0 0 0 0 0 0 0 0 0 0 0 0 0 0 0 0 0 0 0.1 0"/>
<feBlend mode="normal" in2="BackgroundImageFix" result="effect1_dropShadow_24067_1871"/>
<feBlend mode="normal" in="SourceGraphic" in2="effect1_dropShadow_24067_1871" result="shape"/>
</filter>
<filter id="filter11_d_24067_1871" x="290" y="145" width="155" height="155" filterUnits="userSpaceOnUse" color-interpolation-filters="sRGB">
<feFlood flood-opacity="0" result="BackgroundImageFix"/>
<feColorMatrix in="SourceAlpha" type="matrix" values="0 0 0 0 0 0 0 0 0 0 0 0 0 0 0 0 0 0 127 0" result="hardAlpha"/>
<feOffset/>
<feGaussianBlur stdDeviation="5"/>
<feComposite in2="hardAlpha" operator="out"/>
<feColorMatrix type="matrix" values="0 0 0 0 0 0 0 0 0 0 0 0 0 0 0 0 0 0 0.1 0"/>
<feBlend mode="normal" in2="BackgroundImageFix" result="effect1_dropShadow_24067_1871"/>
<feBlend mode="normal" in="SourceGraphic" in2="effect1_dropShadow_24067_1871" result="shape"/>
</filter>
<filter id="filter12_d_24067_1871" x="145" y="145" width="155" height="155" filterUnits="userSpaceOnUse" color-interpolation-filters="sRGB">
<feFlood flood-opacity="0" result="BackgroundImageFix"/>
<feColorMatrix in="SourceAlpha" type="matrix" values="0 0 0 0 0 0 0 0 0 0 0 0 0 0 0 0 0 0 127 0" result="hardAlpha"/>
<feOffset/>
<feGaussianBlur stdDeviation="5"/>
<feComposite in2="hardAlpha" operator="out"/>
<feColorMatrix type="matrix" values="0 0 0 0 0 0 0 0 0 0 0 0 0 0 0 0 0 0 0.1 0"/>
<feBlend mode="normal" in2="BackgroundImageFix" result="effect1_dropShadow_24067_1871"/>
<feBlend mode="normal" in="SourceGraphic" in2="effect1_dropShadow_24067_1871" result="shape"/>
</filter>
</defs>
</svg>
