<svg width="35" height="35" viewBox="0 0 35 35" fill="none" xmlns="http://www.w3.org/2000/svg">
<g style="mix-blend-mode:luminosity">
<path d="M30.5334 16.0056L30.5389 16.5H31.0333H33.1479C33.7302 16.5 33.8188 16.6623 33.8453 16.7135C33.8753 16.7715 33.899 16.8609 33.91 17.0042C33.9187 17.1175 33.918 17.2313 33.9172 17.3666C33.9169 17.4088 33.9167 17.4532 33.9167 17.5002C33.9167 17.5462 33.9169 17.5896 33.9172 17.631C33.918 17.7638 33.9187 17.8762 33.91 17.9888C33.8991 18.1312 33.8754 18.2218 33.8446 18.2816C33.8164 18.3365 33.7258 18.5 33.1479 18.5H31H30.5V19V22V22.5H31H33.1479C33.7303 22.5 33.8188 22.6623 33.8453 22.7135C33.8753 22.7715 33.899 22.8608 33.91 23.0041C33.9187 23.1174 33.918 23.2312 33.9172 23.3665C33.9169 23.4087 33.9167 23.453 33.9167 23.5C33.9167 23.546 33.9169 23.5894 33.9172 23.6307C33.918 23.7637 33.9187 23.8762 33.91 23.9892C33.8991 24.1318 33.8753 24.2246 33.8435 24.2873C33.8114 24.3506 33.7143 24.5153 33.1426 24.5281H30.6442H30.2729L30.1656 24.8836C29.402 27.413 27.4128 29.4022 24.8834 30.1658L24.5279 30.2731V30.6444V33.1481C24.5279 33.6615 24.3697 33.8086 24.2644 33.8725C24.1021 33.9712 23.853 34 23.5 34C23.146 34 22.9074 33.9707 22.7541 33.8753C22.6563 33.8145 22.5 33.6686 22.5 33.1481V31V30.5H22H19H18.5V31V33.1481C18.5 33.7306 18.3376 33.8199 18.2873 33.8462C18.2304 33.8758 18.1429 33.8993 18.0025 33.9102C17.8913 33.9189 17.7801 33.9182 17.6477 33.9174C17.6064 33.9171 17.563 33.9169 17.5169 33.9169C17.4701 33.9169 17.426 33.9171 17.3838 33.9174C17.2479 33.9182 17.1328 33.9189 17.018 33.9102C16.8727 33.8991 16.7803 33.8752 16.7193 33.8441C16.6707 33.8193 16.6273 33.7833 16.5886 33.702C16.5444 33.609 16.5 33.4412 16.5 33.1481V31.0335V30.5335H16H13H12.5V31.0335V33.1481C12.5 33.6687 12.3455 33.7782 12.2691 33.8202C12.1151 33.9049 11.8821 33.9169 11.5 33.9169C11.1085 33.9169 10.8732 33.9048 10.7186 33.82C10.643 33.7784 10.489 33.6701 10.489 33.1481V30.6444V30.2724L10.1327 30.1655C7.58462 29.4011 5.58157 27.4112 4.83524 24.8864L4.72934 24.5281H4.35575H1.85208C1.58666 24.5281 1.43113 24.4841 1.34192 24.4395C1.26081 24.399 1.2155 24.3492 1.18243 24.2876C1.09476 24.1244 1.08333 23.8807 1.08333 23.5C1.08333 23.453 1.08306 23.4086 1.08281 23.3664C1.08199 23.2311 1.08131 23.1174 1.08998 23.004C1.10095 22.8607 1.12468 22.7714 1.15469 22.7135C1.18121 22.6622 1.2697 22.5 1.85208 22.5H4H4.50559L4.49997 21.9944L4.46663 18.9944L4.46114 18.5H3.96667H1.85208C1.33145 18.5 1.22198 18.3455 1.18 18.2692C1.09532 18.1153 1.08333 17.8823 1.08333 17.5002C1.08333 17.4532 1.08306 17.4088 1.08281 17.3666C1.08199 17.2313 1.08131 17.1175 1.08998 17.0042C1.10095 16.8609 1.12468 16.7715 1.15471 16.7135C1.18125 16.6623 1.26976 16.5 1.85208 16.5H3.96667H4.46667V16V13V12.5H3.96667H1.85208C1.32706 12.5 1.21949 12.3467 1.17926 12.2741C1.09564 12.1232 1.08333 11.8921 1.08333 11.5C1.08333 11.454 1.08307 11.4107 1.08281 11.3693C1.08199 11.2364 1.0813 11.1239 1.08997 11.0108C1.10091 10.8682 1.12465 10.7755 1.15648 10.7128C1.18858 10.6496 1.2856 10.4849 1.85741 10.4723H4.35575H4.72709L4.83441 10.1168C5.59788 7.58781 7.58654 5.5987 10.1327 4.83486L10.489 4.72796V4.35595V1.85228C10.489 1.33029 10.643 1.22198 10.7186 1.18044C10.8732 1.09561 11.1085 1.08353 11.5 1.08353C11.5461 1.08353 11.5896 1.08326 11.6311 1.083C11.7638 1.08218 11.8761 1.08149 11.9887 1.09014C12.1311 1.10108 12.2217 1.12477 12.2816 1.15552C12.3364 1.18372 12.5 1.2743 12.5 1.85228V3.96686V4.46686H13H16H16.5V3.96686V1.85228C16.5 1.2743 16.6636 1.18372 16.7184 1.15552C16.7783 1.12478 16.8689 1.10108 17.0113 1.09014C17.1239 1.08149 17.2362 1.08218 17.3689 1.08301C17.4104 1.08326 17.4539 1.08353 17.5 1.08353C17.8821 1.08353 18.1151 1.09551 18.2691 1.18021C18.3455 1.22222 18.5 1.33171 18.5 1.85228V3.96686V4.46137L18.9945 4.46683L21.9945 4.5L22.5 4.50559V4.00003V1.85228C22.5 1.33171 22.6545 1.22222 22.7309 1.18021C22.8849 1.09551 23.1179 1.08353 23.5 1.08353C23.8807 1.08353 24.1243 1.09497 24.2875 1.18261C24.349 1.21566 24.3989 1.26096 24.4393 1.34208C24.4839 1.4313 24.5279 1.58685 24.5279 1.85228V4.35595V4.72729L24.8834 4.83461C27.4128 5.59821 29.402 7.58735 30.1656 10.1168L30.2729 10.4723H30.6442H33.1426C33.7144 10.4849 33.8114 10.6496 33.8435 10.7129C33.8753 10.7755 33.8991 10.8682 33.91 11.0109C33.9187 11.1239 33.918 11.2364 33.9172 11.3693C33.9169 11.4107 33.9167 11.4541 33.9167 11.5C33.9167 11.5471 33.9169 11.5914 33.9172 11.6336C33.918 11.7689 33.9187 11.8827 33.91 11.996C33.899 12.1393 33.8753 12.2286 33.8453 12.2866C33.8188 12.3378 33.7303 12.5 33.1479 12.5H31H30.4944L30.5 13.0056L30.5334 16.0056ZM21.3232 26.8984C24.3906 26.8984 26.8982 24.3908 26.8982 21.3234V13.677C26.8982 10.6096 24.3906 8.10203 21.3232 8.10203H13.6768C10.6094 8.10203 8.10183 10.6096 8.10183 13.677V21.3234C8.10183 24.3908 10.6094 26.8984 13.6768 26.8984H21.3232Z" stroke="black"/>
</g>
</svg>
