<svg width="66" height="26" viewBox="0 0 66 26" fill="none" xmlns="http://www.w3.org/2000/svg">
<path d="M55.4565 26.0002L58.2327 18.4269L58.2726 20.6669L52.0028 5.2002H54.4868L59.4017 17.6402H58.5515L63.1609 5.2002H65.5652L57.7545 26.0002H55.4565Z" fill="white"/>
<path d="M43.4023 19.9998C42.3308 19.9998 41.432 19.8042 40.7058 19.4131C39.9885 19.0131 39.4439 18.4887 39.0719 17.8398C38.7088 17.1909 38.5273 16.4798 38.5273 15.7065C38.5273 14.9509 38.669 14.2976 38.9524 13.7465C39.2446 13.1865 39.652 12.7242 40.1744 12.3598C40.6969 11.9865 41.3213 11.6931 42.0474 11.4798C42.7293 11.2931 43.4909 11.1331 44.3322 10.9998C45.1823 10.8576 46.0413 10.7287 46.9092 10.6131C47.777 10.4976 48.5873 10.3865 49.3401 10.2798L48.4899 10.7731C48.5165 9.49314 48.2597 8.54647 47.7195 7.93314C47.1881 7.3198 46.2671 7.01314 44.9565 7.01314C44.0887 7.01314 43.3271 7.21314 42.6717 7.61314C42.0253 8.00425 41.5692 8.64425 41.3035 9.53314L39.0586 8.85314C39.404 7.59091 40.0726 6.5998 41.0644 5.8798C42.0563 5.1598 43.3625 4.7998 44.9831 4.7998C46.2849 4.7998 47.4007 5.03536 48.3305 5.50647C49.2692 5.96869 49.9422 6.67092 50.3496 7.61314C50.5533 8.05758 50.6817 8.54203 50.7348 9.06647C50.788 9.58203 50.8145 10.1242 50.8145 10.6931V19.5998H48.7157V16.1465L49.2072 16.4665C48.667 17.6309 47.9099 18.5109 46.9357 19.1065C45.9705 19.702 44.7927 19.9998 43.4023 19.9998ZM43.761 18.0131C44.6111 18.0131 45.3462 17.862 45.9661 17.5598C46.5948 17.2487 47.0996 16.8442 47.4804 16.3465C47.8612 15.8398 48.1091 15.2887 48.2242 14.6931C48.3571 14.2487 48.4279 13.7554 48.4368 13.2131C48.4545 12.662 48.4633 12.2398 48.4633 11.9465L49.2869 12.3065C48.5165 12.4131 47.7593 12.5154 47.0154 12.6131C46.2716 12.7109 45.5675 12.8176 44.9034 12.9331C44.2392 13.0398 43.6414 13.1687 43.1101 13.3198C42.7205 13.4442 42.3529 13.6042 42.0076 13.7998C41.6711 13.9954 41.3965 14.2487 41.184 14.5598C40.9803 14.862 40.8785 15.2398 40.8785 15.6931C40.8785 16.0842 40.9759 16.4576 41.1707 16.8131C41.3744 17.1687 41.6843 17.4576 42.1006 17.6798C42.5256 17.902 43.0791 18.0131 43.761 18.0131Z" fill="white"/>
<path d="M30.606 19.9998C29.1537 19.9998 27.9183 19.6754 26.8999 19.0265C25.8903 18.3687 25.1199 17.4665 24.5886 16.3198C24.0572 15.1731 23.7827 13.8665 23.765 12.3998C23.7827 10.8976 24.0616 9.57758 24.6018 8.4398C25.1509 7.29314 25.9346 6.3998 26.953 5.7598C27.9714 5.1198 29.1979 4.7998 30.6325 4.7998C32.1469 4.7998 33.4486 5.17314 34.5379 5.9198C35.636 6.66647 36.371 7.68869 36.743 8.98647L34.4051 9.69314C34.104 8.85758 33.6125 8.20869 32.9306 7.74647C32.2576 7.28425 31.4827 7.05314 30.606 7.05314C29.623 7.05314 28.8127 7.28425 28.1751 7.74647C27.5375 8.1998 27.0637 8.83091 26.7538 9.6398C26.4438 10.4398 26.2844 11.3598 26.2756 12.3998C26.2933 13.9998 26.6608 15.2931 27.3781 16.2798C28.1043 17.2576 29.1802 17.7465 30.606 17.7465C31.5447 17.7465 32.324 17.5331 32.9439 17.1065C33.5638 16.6709 34.0331 16.0442 34.3519 15.2265L36.743 15.8531C36.247 17.1954 35.4722 18.222 34.4183 18.9331C33.3645 19.6442 32.0937 19.9998 30.606 19.9998Z" fill="white"/>
<path d="M18.2119 19.6V0H20.5763V19.6H18.2119Z" fill="white"/>
<path d="M0 19.5999L6.37607 0.399902H9.1656L15.5682 19.5999L10.2327 3.5999L9.1656 0.399902L2.65669 19.5999H0ZM6.37607 14.7999L10.2327 3.5999L15.5682 19.5999H12.7521L11.1581 14.7999H6.37607Z" fill="white"/>
</svg>
