<svg width="55" height="55" viewBox="0 0 55 55" fill="none" xmlns="http://www.w3.org/2000/svg">
<path d="M19.6435 39.2819C30.4918 39.2819 39.286 30.4877 39.286 19.6394C39.286 18.41 39.173 17.2069 38.9569 16.04C37.79 15.8239 36.587 15.7109 35.3575 15.7109C24.5093 15.7109 15.715 24.5052 15.715 35.3534C15.715 36.5829 15.828 37.786 16.0441 38.9529C17.211 39.169 18.4141 39.2819 19.6435 39.2819Z" fill="#175CD3"/>
<path fill-rule="evenodd" clip-rule="evenodd" d="M16.043 38.9559C6.91384 37.2652 0 29.2613 0 19.6425C0 8.79424 8.79424 0 19.6425 0C29.2613 0 37.2652 6.91384 38.9559 16.043C37.789 15.8269 36.5859 15.714 35.3565 15.714C24.5082 15.714 15.714 24.5082 15.714 35.3565C15.714 36.5859 15.8269 37.789 16.043 38.9559Z" fill="#1570EF"/>
<path fill-rule="evenodd" clip-rule="evenodd" d="M19.6434 39.2849C30.4917 39.2849 39.2859 30.4906 39.2859 19.6424C39.2859 18.4129 39.173 17.2099 38.9569 16.043C48.0861 17.7337 54.9999 25.7376 54.9999 35.3564C54.9999 46.2046 46.2057 54.9989 35.3574 54.9989C25.7387 54.9989 17.7347 48.085 16.044 38.9558C17.2109 39.1719 18.414 39.2849 19.6434 39.2849Z" fill="#2E90FA"/>
</svg>
