<svg width="55" height="55" viewBox="0 0 55 55" fill="none" xmlns="http://www.w3.org/2000/svg">
<path d="M39.1191 5.80078C42.3967 12.2271 44.245 19.5042 44.245 27.2129C44.245 34.9217 42.3966 42.1988 39.119 48.6252C46.7065 44.499 51.8566 36.4574 51.8566 27.213C51.8566 17.9685 46.7066 9.92696 39.1191 5.80078Z" fill="#18BFFF"/>
<path d="M28.1657 5.28894C27.064 3.72825 25.1872 2.88773 23.305 3.21437C11.8513 5.20204 3.1416 15.1898 3.1416 27.2118C3.1416 39.2338 11.8513 49.2216 23.3049 51.2093C25.1871 51.5359 27.0639 50.6954 28.1656 49.1347C32.5405 42.9373 35.1104 35.3746 35.1104 27.2118C35.1104 19.049 32.5405 11.4864 28.1657 5.28894Z" fill="#FCB400"/>
</svg>
