<svg width="55" height="55" viewBox="0 0 55 55" fill="none" xmlns="http://www.w3.org/2000/svg">
<path d="M18.1143 4.30315C21.2124 3.01995 24.5331 2.35938 27.8865 2.35938V15.1272C26.2097 15.1272 24.5495 15.4574 23.0004 16.0992C21.4513 16.7408 20.0438 17.6812 18.8582 18.8668C17.6726 20.0524 16.7322 21.4599 16.0906 23.009C15.4488 24.5581 15.1186 26.2183 15.1186 27.8951H2.35075C2.35075 24.5417 3.01132 21.2211 4.29453 18.1229C5.57788 15.0248 7.45877 12.2099 9.82994 9.83857C12.2013 7.46739 15.0162 5.58651 18.1143 4.30315Z" fill="#155EEF"/>
<path d="M2.35091 27.8984C2.35091 31.2518 3.01148 34.5725 4.29469 37.6706C5.57804 40.7687 7.45893 43.5836 9.8301 45.955C12.2014 48.3261 15.0163 50.207 18.1145 51.4904C21.2126 52.7736 24.5333 53.4341 27.8866 53.4341C31.24 53.4341 34.5606 52.7736 37.6588 51.4904C40.7569 50.207 43.5718 48.3261 45.9431 45.955C48.3143 43.5836 50.1952 40.7687 51.4786 37.6706C52.7618 34.5725 53.4223 31.2518 53.4223 27.8984H40.6545C40.6545 29.5752 40.3243 31.2354 39.6825 32.7845C39.0409 34.3336 38.1005 35.7411 36.9149 36.9267C35.7293 38.1123 34.3218 39.0527 32.7727 39.6943C31.2236 40.3361 29.5634 40.6663 27.8866 40.6663C26.2099 40.6663 24.5496 40.3361 23.0005 39.6943C21.4515 39.0527 20.0439 38.1123 18.8584 36.9267C17.6728 35.7411 16.7323 34.3336 16.0907 32.7845C15.449 31.2354 15.1188 29.5752 15.1188 27.8984H2.35091Z" fill="#84ADFF"/>
<path d="M27.8836 19.7695C23.3963 19.7695 19.7586 23.4072 19.7586 27.8945H36.0086C36.0086 23.4072 32.3709 19.7695 27.8836 19.7695Z" fill="#84ADFF"/>
<path d="M27.8836 36.0234C23.3963 36.0234 19.7586 32.3857 19.7586 27.8984H36.0086C36.0086 32.3857 32.3709 36.0234 27.8836 36.0234Z" fill="#155EEF"/>
</svg>
