<svg width="55" height="55" viewBox="0 0 55 55" fill="none" xmlns="http://www.w3.org/2000/svg">
<path d="M44.8716 11.6777C44.3468 11.1529 43.8219 10.628 43.2971 10.1032C41.7226 8.4237 40.0431 6.74423 37.9437 5.69455C35.5295 4.43494 32.9053 4.74983 30.2811 4.74983C26.2923 4.74983 16.3204 4.74983 10.4422 4.74983L14.431 10.1032C21.6737 10.1032 33.0103 10.1032 38.2586 10.1032C40.463 10.1032 42.3524 10.5231 44.1368 11.6777C44.4517 11.7827 44.7666 11.7827 44.8716 11.6777Z" fill="#66C61C"/>
<path d="M49.28 20.2871C48.7552 19.7622 48.2303 19.2374 47.7055 18.7126C46.131 17.0331 44.4515 15.3536 42.3521 14.3039C39.9379 13.0443 37.3137 13.3592 34.6895 13.3592C31.2256 13.3592 22.9331 13.3592 17.0549 13.3592L21.0437 18.7126C28.1815 18.7126 37.9435 18.7126 42.772 18.7126C44.9763 18.7126 46.8658 19.1324 48.6502 20.2871C48.8601 20.392 49.0701 20.392 49.28 20.2871Z" fill="#4CA30D"/>
<path d="M54.2137 28.6816C53.6888 28.1568 53.164 27.6319 52.6392 27.1071C51.0646 25.4276 49.3852 23.7481 47.2858 22.6984C44.8716 21.4388 42.2474 21.7537 39.6232 21.7537C36.3692 21.7537 29.2314 21.7537 23.4582 21.7537L27.4469 27.1071C34.3748 27.1071 43.1921 27.1071 47.6007 27.1071C49.805 27.1071 51.6945 27.527 53.4789 28.6816C53.7938 28.7866 54.0037 28.8915 54.2137 28.6816Z" fill="#3B7C0F"/>
<path d="M10.0224 42.8522C10.5472 43.377 11.072 43.9018 11.5969 44.4267C13.1714 46.1062 14.8509 47.7856 16.9502 48.8353C19.3645 50.0949 21.9887 49.78 24.6129 49.78H44.4518L40.463 44.4267C33.2202 44.4267 21.8837 44.4267 16.6353 44.4267C14.431 44.4267 12.5416 44.0068 10.7571 42.8522C10.4422 42.7472 10.2323 42.7472 10.0224 42.8522Z" fill="#66C61C"/>
<path d="M5.6145 34.2467C6.13934 34.7715 6.66418 35.2964 7.18902 35.8212C8.76353 37.5007 10.443 39.1802 12.5424 40.2299C14.9566 41.4895 17.5808 41.1746 20.205 41.1746H37.8396L33.8508 35.8212C26.713 35.8212 16.951 35.8212 12.1225 35.8212C9.91817 35.8212 8.02875 35.4013 6.2443 34.2467C6.03436 34.1417 5.82444 34.1417 5.6145 34.2467Z" fill="#4CA30D"/>
<path d="M0.784973 25.7428C1.30981 26.2676 1.83465 26.7925 2.35949 27.3173C3.934 28.9968 5.61349 30.6763 7.71285 31.726C10.1271 32.9856 12.7513 32.6707 15.3755 32.6707H31.5405L27.5517 27.3173C20.6239 27.3173 11.8066 27.3173 7.39794 27.3173C5.19362 27.3173 3.30419 26.8974 1.51974 25.7428C1.20484 25.6378 0.994908 25.6378 0.784973 25.7428Z" fill="#3B7C0F"/>
</svg>
