<svg width="55" height="55" viewBox="0 0 55 55" fill="none" xmlns="http://www.w3.org/2000/svg">
<path d="M34.1595 4.70543L29.4115 3.4375L25.4103 18.3197L21.7979 4.88395L17.0498 6.15188L20.9527 20.6682L11.2314 10.9799L7.75553 14.4439L18.4186 25.0709L5.13943 21.5248L3.86719 26.2567L18.3764 30.1313C18.2103 29.4172 18.1224 28.6732 18.1224 27.9087C18.1224 22.4975 22.5239 18.1109 27.9535 18.1109C33.3832 18.1109 37.7847 22.4975 37.7847 27.9087C37.7847 28.6683 37.6979 29.4077 37.5338 30.1175L50.72 33.6387L51.9922 28.9068L37.4253 25.0169L50.7054 21.4705L49.4331 16.7386L34.8668 20.6284L44.5882 10.9401L41.1123 7.47607L30.5971 17.9556L34.1595 4.70543Z" fill="#FF4405"/>
<path d="M37.52 30.1726C37.1129 31.8878 36.2535 33.4287 35.0742 34.6632L44.627 44.1837L48.1029 40.7196L37.52 30.1726Z" fill="#FF4405"/>
<path d="M34.9778 34.7627C33.7843 35.9775 32.2762 36.8841 30.5848 37.3513L34.0609 50.2801L38.8089 49.0121L34.9778 34.7627Z" fill="#FF4405"/>
<path d="M30.4075 37.3986C29.6228 37.5996 28.8003 37.7064 27.9527 37.7064C27.0446 37.7064 26.1653 37.5837 25.3305 37.354L21.8513 50.2946L26.5993 51.5625L30.4075 37.3986Z" fill="#FF4405"/>
<path d="M25.1626 37.3063C23.4971 36.8159 22.0157 35.8978 20.8467 34.6796L11.2704 44.2234L14.7462 47.6874L25.1626 37.3063Z" fill="#FF4405"/>
<path d="M20.7677 34.5952C19.6187 33.3692 18.7817 31.8489 18.3834 30.1602L5.15414 33.693L6.42637 38.4249L20.7677 34.5952Z" fill="#FF4405"/>
</svg>
